<svg xmlns="http://www.w3.org/2000/svg" xmlns:xlink="http://www.w3.org/1999/xlink" preserveAspectRatio="xMidYMid" width="20" height="18.25" viewBox="0 0 20 18.25">
  <defs>
    <style>
      .cls-1 {
        fill: #000;
        filter: url(#color-overlay-1);
        fill-opacity: 0.1;
        fill-rule: evenodd;
      }
    </style>

    <filter id="color-overlay-1" filterUnits="userSpaceOnUse">
      <feFlood flood-color="#1ad2d1"/>
      <feComposite operator="in" in2="SourceGraphic"/>
      <feBlend in2="SourceGraphic" result="solidFill"/>
    </filter>
  </defs>
  <path d="M19.886,3.465 C19.771,3.306 19.587,3.207 19.386,3.199 L6.962,2.680 C6.606,2.665 6.308,2.932 6.292,3.275 C6.277,3.619 6.552,3.909 6.907,3.924 L18.490,4.408 L16.212,11.291 L6.077,11.291 L4.246,1.633 C4.206,1.422 4.056,1.245 3.849,1.166 L0.850,0.025 C0.520,-0.100 0.147,0.057 0.017,0.377 C-0.113,0.697 0.050,1.058 0.380,1.184 L3.047,2.199 L4.910,12.026 C4.966,12.322 5.232,12.536 5.542,12.536 L5.851,12.536 L5.145,14.436 C5.086,14.595 5.111,14.772 5.211,14.910 C5.312,15.048 5.475,15.130 5.649,15.130 L6.144,15.130 C5.837,15.461 5.649,15.896 5.649,16.375 C5.649,17.405 6.514,18.243 7.577,18.243 C8.640,18.243 9.505,17.405 9.505,16.375 C9.505,15.896 9.317,15.461 9.010,15.130 L13.213,15.130 C12.906,15.461 12.718,15.896 12.718,16.375 C12.718,17.405 13.583,18.243 14.646,18.243 C15.709,18.243 16.574,17.405 16.574,16.375 C16.574,15.896 16.386,15.461 16.079,15.130 L16.681,15.130 C16.977,15.130 17.216,14.898 17.216,14.611 C17.216,14.325 16.977,14.093 16.681,14.093 L6.411,14.093 L6.990,12.536 L16.681,12.536 C16.960,12.536 17.208,12.361 17.293,12.104 L19.970,4.011 C20.032,3.826 20.000,3.624 19.886,3.465 ZM7.577,17.205 C7.105,17.205 6.720,16.833 6.720,16.376 C6.720,15.918 7.105,15.545 7.577,15.545 C8.050,15.545 8.434,15.918 8.434,16.376 C8.434,16.833 8.050,17.205 7.577,17.205 ZM14.646,17.205 C14.173,17.205 13.789,16.833 13.789,16.376 C13.789,15.918 14.173,15.545 14.646,15.545 C15.119,15.545 15.503,15.918 15.503,16.376 C15.503,16.833 15.119,17.205 14.646,17.205 Z" class="cls-1"/>
</svg>
