<svg xmlns="http://www.w3.org/2000/svg" xmlns:xlink="http://www.w3.org/1999/xlink" preserveAspectRatio="xMidYMid" width="11" height="16" viewBox="0 0 11 16">
  <defs>
    <style>
      .cls-1 {
        fill: #000;
        fill-rule: evenodd;
      }
    </style>
  </defs>
  <path d="M9.899,15.992 L1.101,15.992 C0.500,15.992 0.011,15.475 0.011,14.840 L0.011,7.712 C0.011,7.077 0.500,6.560 1.101,6.560 L2.191,6.560 L2.191,3.506 C2.191,1.577 3.675,0.008 5.500,0.008 C7.325,0.008 8.809,1.577 8.809,3.506 L8.809,6.560 L9.899,6.560 C10.500,6.560 10.989,7.077 10.989,7.712 L10.989,14.840 C10.989,15.475 10.500,15.992 9.899,15.992 ZM8.083,3.506 C8.083,2.001 6.924,0.776 5.500,0.776 C4.076,0.776 2.917,2.001 2.917,3.506 L2.917,6.560 L8.083,6.560 L8.083,3.506 ZM10.262,7.712 C10.262,7.501 10.099,7.328 9.899,7.328 L1.101,7.328 C0.901,7.328 0.738,7.501 0.738,7.712 L0.738,14.840 C0.738,15.052 0.901,15.224 1.101,15.224 L9.899,15.224 C10.099,15.224 10.262,15.052 10.262,14.840 L10.262,7.712 ZM6.532,12.816 C6.532,13.417 6.069,13.907 5.500,13.907 C4.931,13.907 4.468,13.417 4.468,12.816 L4.468,11.383 C4.170,11.085 4.000,10.665 4.000,10.232 C4.000,9.357 4.673,8.645 5.500,8.645 C6.327,8.645 7.000,9.357 7.000,10.232 C7.000,10.666 6.830,11.085 6.532,11.383 L6.532,12.816 ZM5.500,9.414 C5.073,9.414 4.726,9.781 4.726,10.232 C4.726,10.460 4.813,10.671 4.969,10.827 C5.112,10.970 5.195,11.169 5.195,11.374 L5.195,12.816 C5.195,12.994 5.332,13.139 5.500,13.139 C5.668,13.139 5.805,12.994 5.805,12.816 L5.805,11.374 C5.805,11.169 5.888,10.970 6.031,10.827 C6.187,10.671 6.274,10.460 6.274,10.232 C6.274,9.781 5.926,9.414 5.500,9.414 Z" class="cls-1"/>
</svg>
