<?xml version="1.0" encoding="utf-8"?>
<!-- Generator: Adobe Illustrator 16.0.0, SVG Export Plug-In . SVG Version: 6.00 Build 0)  -->
<!DOCTYPE svg PUBLIC "-//W3C//DTD SVG 1.1//EN" "http://www.w3.org/Graphics/SVG/1.1/DTD/svg11.dtd">
<svg version="1.1" id="Слой_1" xmlns="http://www.w3.org/2000/svg" xmlns:xlink="http://www.w3.org/1999/xlink" x="0px" y="0px"
	 width="501.983px" height="502px" viewBox="0 0 501.983 502" enable-background="new 0 0 501.983 502" xml:space="preserve">
<g>
	<path fill-rule="evenodd" clip-rule="evenodd" fill="#1AD2D1" d="M241.983,502c-8.737-1.002-17.489-1.886-26.208-3.027
		c-33.792-4.422-65.343-15.546-94.272-33.391C63.668,429.907,24.277,379.544,8.27,313.358
		C-14.311,219.99,9.23,138.352,77.328,70.496c37.167-37.033,82.781-58.552,134.479-67.091c7.367-1.216,14.884-1.519,22.323-2.313
		C236.428,0.847,238.7,0.37,240.983,0c6.334,0,12.666,0,19,0c2.121,0.35,4.238,0.729,6.365,1.046
		c14.774,2.202,29.861,3.159,44.273,6.795c67.275,16.972,119.035,55.531,155.262,114.642c17.678,28.844,28.71,60.222,33.065,93.839
		c1.192,9.202,2.032,18.451,3.034,27.679c0,4.667,0,9.333,0,14c-0.385,3.274-0.734,6.554-1.16,9.823
		c-1.48,11.364-2.223,22.889-4.611,34.061c-12.97,60.646-44.153,110.073-93.195,147.981c-34.518,26.681-73.55,43.078-116.843,49.049
		c-8.706,1.201-17.459,2.066-26.19,3.086C253.983,502,247.983,502,241.983,502z M18.721,250.882
		C18.644,379.215,122.777,483.5,251.534,483.032c127.415-0.462,230.798-103.116,231.444-231.196
		c0.646-128.145-103.951-232.854-231.736-232.962C122.952,18.767,18.797,122.69,18.721,250.882z"/>
	<path fill-rule="evenodd" clip-rule="evenodd" fill="#1AD2D1" d="M174.036,250.577c0-34.323,0.025-68.647-0.032-102.971
		c-0.007-4.335,0.247-8.368,4.554-10.816c4.467-2.539,8.262-0.692,12.096,1.651c56.381,34.477,112.783,68.919,169.167,103.391
		c8.715,5.328,8.78,12.945,0.13,18.232c-56.675,34.637-113.376,69.231-170.042,103.883c-3.614,2.21-7.166,3.573-11.205,1.329
		c-4.05-2.251-4.748-5.967-4.739-10.229c0.067-34.823,0.038-69.646,0.038-104.471C174.013,250.577,174.024,250.577,174.036,250.577z
		 M192.889,340.337c48.963-29.912,97.202-59.382,146.287-89.369c-49.298-30.1-97.474-59.516-146.287-89.32
		C192.889,221.569,192.889,280.41,192.889,340.337z"/>
</g>
</svg>
