<?xml version="1.0" encoding="utf-8"?>
<!-- Generator: Adobe Illustrator 19.0.1, SVG Export Plug-In . SVG Version: 6.00 Build 0)  -->
<svg version="1.1" id="Слой_1" xmlns="http://www.w3.org/2000/svg" xmlns:xlink="http://www.w3.org/1999/xlink" x="0px" y="0px"
	 viewBox="-236 160.7 166 161.3" style="enable-background:new -236 160.7 166 161.3;" xml:space="preserve">
<style type="text/css">
	.st0{fill:#FFFFFF;}
</style>
<g id="Слой_2">
</g>
<g id="Слой_1_1_">
	<path class="st0" d="M-153,175.4c-36.3,0-65.9,29.6-65.9,65.9s29.6,65.9,65.9,65.9s65.9-29.6,65.9-65.9S-116.7,175.4-153,175.4z
		 M-153,301.6c-33.2,0-60.3-27-60.3-60.3c0-33.2,27-60.3,60.3-60.3s60.3,27,60.3,60.3S-119.8,301.6-153,301.6z M-121,217.7
		c-0.9-2.3-2.3-4.3-4-6.1c-3-3.1-6.8-4.9-11-5.6c-2.2-0.4-4.3-0.5-6.5-0.5c-10.5,0-20.7,0-31.2,0c-0.1,0,0.1,0,0.1,0
		c0,12.2,0,24.5,0,36.5c-2,0-4,0-5,0c0,3,0,6,0,8c1,0,3,0,5,0c0,2,0,3,0,4c-2,0-4,0-5,0c0,2,0,5,0,8c1,0,3,0,5,0c0,8,0,15,0,23
		c3,0,5,0,8,0c0-8,0-15,0-23c11,0,21,0,32,0c0-3,0-6,0-8c-11,0-21,0-32,0c0-1,0-2,0-4c1,0,0.4,0,0.5,0c7.2,0,14.5,0.2,21.7,0.2
		c0.8,0,1.7,0.1,2.5,0.1c2.4-0.1,4.8-0.4,7.2-1.1s4.6-1.7,6.5-3.2c1.4-1.1,2.5-2.3,3.6-3.7c1.3-1.6,2.4-3.3,3.3-5.2
		c1.7-3.7,2-7.7,1.5-11.7C-119.2,222.8-120,220.2-121,217.7z M-128.7,229.2c-0.3,3.4-1.5,6.4-3.7,9.1c-1.5,1.9-3.5,2.9-5.9,3.4
		c-1.5,0.3-2.9,0.3-4.4,0.3c-7.5,0-15,0-22.5,0c-0.1,0,0.5,0-0.5,0c0-9,0-18.7,0-28.1c0,0,0.2,0,0.3,0c7.8,0,15.7,0,23.5,0
		c1.7,0,3.3,0.1,5,0.4c0.7,0.1,1.3,0.3,1.9,0.7c0.9,0.6,1.9,1.2,2.7,2c1.1,1.1,1.9,2.4,2.4,3.9
		C-128.8,223.6-128.5,226.4-128.7,229.2z"/>
</g>
</svg>
