<?xml version="1.0" encoding="utf-8"?>
<!-- Generator: Adobe Illustrator 19.0.1, SVG Export Plug-In . SVG Version: 6.00 Build 0)  -->
<svg version="1.1" id="Слой_1" xmlns="http://www.w3.org/2000/svg" xmlns:xlink="http://www.w3.org/1999/xlink" x="0px" y="0px"
	 viewBox="0 0 27.4 27.4" style="enable-background:new 0 0 27.4 27.4;" xml:space="preserve">
<style type="text/css">
	.st0{fill-rule:evenodd;clip-rule:evenodd;fill:none;stroke:#FFFFFF;stroke-width:1.4173;stroke-miterlimit:10;}
	.st1{fill:#FFFFFF;}
</style>
<path class="st0" d="M13.4,1.3c6.9,0,12.5,5.6,12.5,12.5s-5.6,12.5-12.5,12.5S0.9,20.7,0.9,13.8S6.5,1.3,13.4,1.3z"/>
<path class="st1" d="M19.8,8.7c-0.1-0.6-0.5-1.1-0.8-1.4c-0.3-0.3-0.8-0.6-1.4-0.7c-0.4-0.1-1-0.1-1.8-0.1l-5.8,0l-1.3,6.8l-1.1,0
	l-0.3,1.5l1.1,0l-0.1,0.7l-1.1,0l-0.3,1.5l1.1,0l-0.8,4.1l1.7,0l0.8-4.1l5.9,0l0.3-1.5l-5.9,0l0.1-0.7l4.3,0c1.7,0,3.1-0.4,3.9-1.3
	c0.8-0.9,1.3-1.5,1.6-2.8C20,9.9,19.9,9.3,19.8,8.7z M18,10.6c-0.2,0.9-0.5,1.5-1,2c-0.5,0.5-1.3,0.7-2.4,0.7l-4.3,0l1-5.2l4.3,0
	c0.7,0,1.2,0,1.5,0.1c0.4,0.1,0.7,0.4,0.9,0.9C18.1,9.4,18.1,10,18,10.6z"/>
</svg>
