<svg xmlns="http://www.w3.org/2000/svg" xmlns:xlink="http://www.w3.org/1999/xlink" preserveAspectRatio="xMidYMid" width="30" height="30" viewBox="0 0 30 30">
  <defs>
    <style>
      .cls-1 {
        fill: #000;
        filter: url(#color-overlay-1);
        fill-rule: evenodd;
      }
    </style>

    <filter id="color-overlay-1" filterUnits="userSpaceOnUse">
      <feFlood flood-color="#1ad2d1"/>
      <feComposite operator="in" in2="SourceGraphic"/>
      <feBlend in2="SourceGraphic" result="solidFill"/>
    </filter>
  </defs>
  <path d="M15.000,29.999 C6.729,29.999 0.001,23.270 0.001,15.000 C0.001,6.729 6.729,0.001 15.000,0.001 C23.270,0.001 29.999,6.729 29.999,15.000 C29.999,23.270 23.270,29.999 15.000,29.999 ZM15.000,1.499 C7.555,1.499 1.499,7.555 1.499,15.000 C1.499,22.445 7.555,28.501 15.000,28.501 C22.445,28.501 28.501,22.445 28.501,15.000 C28.501,7.555 22.445,1.499 15.000,1.499 ZM13.697,18.652 C13.550,18.799 13.360,18.872 13.171,18.872 C12.975,18.872 12.786,18.799 12.639,18.652 L10.014,16.009 C9.727,15.716 9.727,15.238 10.021,14.951 C10.314,14.663 10.785,14.663 11.079,14.957 L13.177,17.067 L18.927,11.348 C19.221,11.054 19.692,11.054 19.986,11.348 C20.273,11.642 20.273,12.113 19.979,12.406 L13.697,18.652 Z" class="cls-1"/>
</svg>
