<svg xmlns="http://www.w3.org/2000/svg" preserveAspectRatio="xMidYMid" width="114" height="43.969" viewBox="0 0 114 43.969"><defs><style>.cls-1{fill:#fff;fill-rule:evenodd}</style></defs><path d="M113.086.46c-.558.288-1.125.567-1.695.839-9.041 4.324-18.833 6.524-28.516 9.176l.175.866c7.984-1.283 16.284-2.875 24.136-5.58a117.72 117.72 0 0 1-6.789 5.141c-2.191.165-4.252.377-5.443.23l-.286.828c.666.364 1.394.834 2.15 1.356-.476.309-.954.612-1.431.91-3.244-1.173-6.59-1.882-9.959-1.989l-.134.875c2.716.652 5.624 1.355 8.549 2.064a115.269 115.269 0 0 1-9.816 5.288C61.539 31.221 37.661 33.928 11.116 39.378l.018.869c5.03.613 11.179.562 17.956-.077-6.252 1.056-12.598 1.678-19.054 1.762l-.039.888c2.367.159 4.854.204 7.448.142-6.145.304-11.983.145-17.322-.509l.006.003-.129.872c22.074 2.704 52.478-2.957 77.34-14.84a136.87 136.87 0 0 0 3.301-1.636 127.05 127.05 0 0 0 4.87-2.209c4.983-2.385 9.616-4.993 13.705-7.804a46.74 46.74 0 0 1 5.629 3.329l.415.284.243-.45c2.72-5.103 5.631-11.167 7.508-16.773l.591-.951-.325.139c.156-.487.303-.972.441-1.454l.281-.971-.913.468zm-1.317 1.635c.266-.126.532-.255.799-.389-.12.39-.247.786-.379 1.185-.665.284-1.333.557-2.008.824l-.263-.252c-.248.217-.498.43-.748.643-5.072 1.92-10.385 3.324-15.722 4.445 6.233-1.714 12.418-3.635 18.321-6.456zm-.445 2.111c-1.441 2.092-3.226 4.119-5.307 6.081a5.784 5.784 0 0 0-.265-.192 70.977 70.977 0 0 0 2.572-2.451l.074-.076.036-.096a.572.572 0 0 0-.015-.422.528.528 0 0 0-.243-.239 72.396 72.396 0 0 0 1.833-2.082c.438-.17.879-.342 1.315-.523zm-.303 1.906c-1.719 4.44-3.942 9.022-6.072 13.042a48.907 48.907 0 0 0-3.431-2.111c.439.106.873.211 1.305.318l.338-.818a23.79 23.79 0 0 1-1.881-1.177 67.136 67.136 0 0 0 2.809-2.201c.355-.17.709-.338 1.061-.508l-.134-.279c.247-.216.49-.426.728-.641.139.016.27.033.404.056l.389.067.122-.375a.731.731 0 0 0-.05-.54l-.003-.006c1.659-1.56 3.137-3.17 4.415-4.827zm-5.834 4.679l-.198-.014c.027-.022.05-.042.077-.068.041.031.079.055.121.082zm-1.025-1.34l-.195-.051.195.051zm-.227.275l-.106-.221.106.221zm-.119.229c-.289.269-.58.54-.874.807-.288.009-.579.019-.874.036.476-.344.955-.692 1.428-1.046.104.097.191.118.32.203zm.7 1.69c-.301.259-.6.516-.908.773-.438.208-.876.416-1.316.628.582-.466 1.15-.935 1.706-1.413.177.001.347.005.518.012zm-2.618.05a83.773 83.773 0 0 1-2.654 2.232l-.837-.597c.762-.505 1.524-1.025 2.284-1.556.405-.029.806-.057 1.207-.079zm-2.953.214c-.439.296-.876.587-1.314.877a42.608 42.608 0 0 0-1.085-.734c.73-.025 1.545-.079 2.399-.143zm.804 3.481l-.323.228c-.102-.029-.204-.053-.305-.077.164-.081.334-.16.499-.24.041.031.083.057.129.089zm-1.235-.878c-.268.212-.542.423-.814.635a47.19 47.19 0 0 0-1.28-.528c.393-.252.786-.504 1.178-.759.305.213.611.432.916.652zm-.217 1.887a90.313 90.313 0 0 1-6.39 3.943c.28-.185.559-.372.837-.554a105.14 105.14 0 0 0 5.278-3.518c.092.044.183.088.275.129zm-1.806-.581c-18.152 8.648-36.474 16.993-55.555 21.836-10.009 1.76-19.347 2.483-26.711 1.992 25.328-5.058 48.348-7.949 70.18-18.384a115.264 115.264 0 0 0 10.649-5.793l1.437.349zm-3.02 2.411c-.404.275-.808.551-1.217.826-4.08 2.548-8.477 4.934-13.069 7.128a156.68 156.68 0 0 1-6.019 2.727c-6.758 2.522-13.837 4.66-20.825 6.356 14.012-4.542 27.642-10.66 41.13-17.037zm-38.767 17.36c-9.515 2.857-19.075 4.86-27.888 5.837 4.81-.724 9.559-1.706 14.267-2.899 4.446-.78 9.022-1.766 13.621-2.938z" class="cls-1"/></svg>