<svg xmlns="http://www.w3.org/2000/svg" preserveAspectRatio="xMidYMid" width="32" height="21.312" viewBox="0 0 32 21.312"><defs><style>.cls-1{fill:#fff;filter:url(#color-overlay-1);fill-rule:evenodd}</style><filter id="color-overlay-1" filterUnits="userSpaceOnUse"><feFlood flood-color="#fff"/><feComposite operator="in" in2="SourceGraphic"/><feBlend in2="SourceGraphic" result="solidFill"/></filter></defs><path d="M31.945 17.001a.64.64 0 0 1-.652.63h-1.322a.646.646 0 0 1-.652-.636c0-.351.294-.637.652-.637h.677l.046-8.722-4.248-3.44h-5.251V16.37h1.31c.358 0 .651.287.651.637a.646.646 0 0 1-.651.637H14.55a.646.646 0 0 1-.651-.637c0-.35.293-.637.651-.637h5.342V1.265H4.596v4.027c0 .35-.294.637-.652.637a.646.646 0 0 1-.651-.637V.628c0-.35.293-.637.651-.637h16.593c.359 0 .652.287.652.637v2.294h5.485c.157 0 .3.051.417.146l4.665 3.778c.15.121.235.306.241.497l-.052 9.658zM11.208 6.432c.358 0 .652.287.652.637 0 .35-.294.637-.652.637H3.306a.646.646 0 0 1-.652-.637c0-.35.293-.637.652-.637h7.902zm-.671 3.58a.65.65 0 0 1-.658.631l-7.902-.045a.637.637 0 1 1 .006-1.274h.007l7.902.045c.358 0 .652.287.645.643zm-1.329 2.886a.642.642 0 0 1-.651.637H.654a.646.646 0 0 1-.651-.637c0-.35.293-.637.651-.637h7.903c.358 0 .651.287.651.637zm-5.264 1.14c.358 0 .652.287.652.638v1.694h1.309c.358 0 .652.287.652.637a.646.646 0 0 1-.652.637H3.944a.646.646 0 0 1-.651-.637v-2.331c0-.351.293-.638.651-.638zm6.306 1.548c1.603 0 2.906 1.288 2.906 2.868 0 1.579-1.303 2.866-2.906 2.866a2.998 2.998 0 0 1-2.084-.841 2.786 2.786 0 0 1-.873-2.025c0-.765.312-1.479.873-2.026a2.987 2.987 0 0 1 2.084-.842zm0 4.46c.887 0 1.603-.713 1.603-1.592 0-.88-.716-1.593-1.603-1.593-.899 0-1.654.726-1.654 1.593 0 .866.755 1.592 1.654 1.592zm18.19-7.677h-5.303a.646.646 0 0 1-.652-.637V6.508c0-.35.294-.637.652-.637h3.342a.64.64 0 0 1 .436.166l1.961 1.726a.63.63 0 0 1 .215.472v3.497a.646.646 0 0 1-.651.637zm-.652-3.854l-1.563-1.376h-2.437v3.956h4v-2.58zm-1.628 7.071c1.602 0 2.905 1.288 2.905 2.868 0 1.579-1.303 2.866-2.905 2.866a2.999 2.999 0 0 1-2.085-.841 2.786 2.786 0 0 1-.873-2.025c0-.765.313-1.479.873-2.026a2.987 2.987 0 0 1 2.085-.842zm0 4.46c.886 0 1.602-.713 1.602-1.592 0-.88-.716-1.593-1.602-1.593-.899 0-1.655.726-1.655 1.593 0 .866.756 1.592 1.655 1.592z" class="cls-1"/></svg>