<svg xmlns="http://www.w3.org/2000/svg" viewBox="0 0 1072 430" fill="#fff"><path d="M208.9 48.3c36.1-2 72-6.6 108.1-8.3 13.3-.8 26.7-.5 40.1-.5 19.3.8 38.7 1.9 57.4 7 8.1 2.4 16.6 5.3 22.5 11.7 2.7 2.8 4 6.5 4.3 10.3-15.7-2.6-31.3-5.8-47.2-6.5-46.1 0-92.4 1.2-137.8 10.2-4.8 1-9.9.8-14.5 2.6-1.7.6-1.1 2.9-1.1 4.3 1 8.7.7 17.7-2.5 25.9-4.7 12.5-12 23.8-19.5 34.7-11.2 16.4-24.1 31.6-35.4 47.9 25.6-1 51.2-3.5 76.8-2 9.2.4 18.5.9 27.6 3 5.9 1.5 12.1 3.9 15.9 8.9 2.1 2.8 2.9 6.2 3.5 9.6-10.1.7-19.9-3.9-29.9-2-39 5.1-78 10.1-117 15.2-2.4 1.1-3.3 4-4.9 6-31.5 45.3-68.7 86.6-96.9 134.2-5.5 9.5-11 19.1-13.8 29.7-3.7-2.5-6.8-6.4-7-11-.1-11.1.1-22.4 3.1-33.2 4.6-18 12.1-35 21.2-51 10.8-17.8 22.7-35 33.2-53 2.2-3.8 4.5-7.6 6-11.7-13.9 2.3-28.2 3.9-42.2 1.2-7-1.4-14-4.2-19-9.5-3.8-4.2-6.1-9.7-6.6-15.3 32.8 2.3 64.6-7.6 96.5-13.2 25.9-37.2 51.6-74.4 77.4-111.6-29.1 2.4-56.6 13.6-85.7 16.4-8.8.7-17.6 1.7-26.4.8-7.6-.5-14.3-5.7-18-12.1-4.9-8.4-6.4-18.3-6.4-27.8 5.8.9 9.7 6.5 15.7 6.4 9.6.1 19.3.3 28.8-.9 31.5-3.6 62-13.7 93.7-16.4zm733.2 22.8c12 1.3 23.9 6.8 31.2 16.6 5.1 6.6 7.5 15.8 4.6 23.9-2.5 7.3-8.8 12.5-15.5 15.6-10.1 4.5-21.3 6-32.3 5.7-6.9.2-13.8-.2-20.6-1.3-2.4-10.4-5.1-22.2.2-32.2 4.5-8 14.1-10.2 22.5-11.5 4.2-.9 9.3-1.2 12.3-4.8 1.9-3.8-.6-8.3-2.4-12zm-491.8 3.7c11.7 6.9 20.1 19.3 21.3 33 2.4 19.9-6.4 38.9-16 55.7-21.4 37.3-47.1 71.8-69.7 108.3-14.9 23.9-29.2 48.5-39 75-4.8 13.4-8.5 27.3-8.5 41.6-19.8-13.9-27.8-40.3-23.3-63.5 3.7-18.6 12.4-35.8 21.4-52.4 26.1-46.5 59.1-88.7 87.1-134 7.5-12.2 14.6-24.7 20.2-37.9 3.3-8.1 6.3-16.8 6.5-25.8zM870 184.9c7.9.7 14.4 6.2 18 13.1 5.4 10.4 7.6 22.7 4.8 34.1-2.2 9.3-7 17.8-11.5 26.1-17.4 31.1-37 60.9-53.9 92.3-6.2 11.9-12.6 24.2-14.5 37.7-9.8-2.8-18.3-10.1-22.6-19.4-3.4-7.4-2.2-15.7-1-23.5 3.2-17 10.9-32.6 19.3-47.5 11.2-19.7 24.4-38.3 37.1-57.1 7.9-12 16.1-23.9 21.6-37.3 2.5-5.9 3-12.2 2.7-18.5zm102.3 23.4c5.1-8.5 13.3-16.4 23.7-16.8 7.1.1 14.3-.6 21.2 1.3 12.3 3.4 24.1 8.9 34.5 16.4 4.9 3.8 10.4 8.2 11.7 14.6.3 7.1-4.1 13.2-8.1 18.6-6.4 7.9-14.2 15.1-23.8 18.8-4.2 1.8-8.8 1.2-12.9-.6 5.5-8.6 16-12.9 21-22.1 2-3.4 1.3-7.5 1.3-11.3-6.7-2.6-14-2.8-21-2.1-5.5 1.1-10.4 4.4-14.9 7.6-5.4 4.2-11.3 8.6-13.8 15.3-4.6 11-6.6 23-6.9 34.9-.8 8.7-.3 17.4.3 26.1 2.2 19.8 9.5 38.4 16.1 57 1.8 6 4.6 12.5 2.2 18.7-1.1 2.7-4.5 2.9-7 3.1-5 0-10.1.1-15.1 0-18.8-1.2-36.6-9.2-51.7-20.2-11.5-8.5-21.7-19.1-28.1-32-3.4-6.7-5.3-14.2-5.6-21.8-.2-4 1.1-8.5 4.7-10.8 5.3-3.5 12-3.5 18.1-3.6-2.9 4.8-10 5.8-11.2 11.7-.8 5 3 9.2 6.3 12.4 8.9 7.7 19.5 13.1 30.3 17.5 10.5 4.2 21.7 7.5 33.2 6.8-4.6-18.9-13.1-36.7-17.1-55.7-2.6-10.6-2.6-21.5-2.2-32.4 1.8-17.6 5.5-35.8 14.8-51.4zM774 197c7-1.2 14.1-1 21.1-.9 7.7.6 15.1 4.9 19.4 11.4 3.2 4.6 1.7 10.4 2 15.6-2.3-.5-4.7-.7-6.9-1.7-2.9-1.5-5.2-4.2-8.6-4.6-10.9-1.5-21.9 1.5-31.3 6.8-13.4 7.4-24.5 18-34.8 29.2-25.4 28.1-45.2 60.6-65.7 92.3-7.7 11.8-15.2 23.9-24.3 34.8-3.1 3.2-6.2 7.2-10.7 8.3-2.8-.3-4.8-2.5-6.7-4.4-5.3-5.6-9.9-12-12.8-19.2-2.3-5.9-.8-12.5 2.1-17.9 6.7-13.5 15.4-25.9 23.5-38.6 10.8-16.8 21.7-33.6 30.1-51.8 3.6-8.3 6.9-17 7.4-26.2v-20.8c5.4-.3 11.4-.1 15.5 3.8 8.2 7.4 12.8 18.4 13.6 29.3 13.6-9.8 24.2-23 37.9-32.6 8.5-6.5 18.5-11.1 29.2-12.8zm-238.7 5.3c5.5-2.2 11.3-4.1 17.2-3.9-2.2 5.1-6.2 9.1-10.1 12.9-8.3 8.1-17.7 15.1-25.1 24.1-10.1 12.1-18.7 25.4-27.4 38.6-10.6 16.9-20.2 34.6-28 53-3.6 9-7.2 18.2-8.5 27.9-.2 2.4-.8 5.5 1.3 7.2 2.9 2.7 6.9.7 10.1-.1 14.3-5.2 26.9-14.1 39.1-23 7.9-6.1 15.8-12.1 22.6-19.4 11.7-13.5 21-29 27.5-45.6 5.3-13.3 7.6-27.6 6.9-41.9.7-6.7-5-11.8-4.6-18.4 14.2.7 27.2 8.2 37 18.1 6.7 6.8 12.4 15.6 12.1 25.4.1 15.8-6.4 30.7-14.6 43.9-9.7 15.5-22.3 29-35.9 41.2-16.3 14.3-34.3 26.8-54.1 35.9-8.1 3.9-16.7 6.4-25.4 8.4-7.9 1.5-16.5 2.9-23.9-1.1-11.7-6-19.9-17.4-24.6-29.4-3-7.4-3-15.5-2.7-23.3.7-9.2 4.3-17.8 8.3-26 8.1-16.1 18.8-30.7 30.4-44.5 12.5-14.7 26.3-28.5 41.4-40.5 9.7-7.7 19.8-14.7 31-19.5z"/></svg>