<?xml version="1.0" encoding="utf-8"?>
<!-- Generator: Adobe Illustrator 16.0.0, SVG Export Plug-In . SVG Version: 6.00 Build 0)  -->
<!DOCTYPE svg PUBLIC "-//W3C//DTD SVG 1.1 Tiny//EN" "http://www.w3.org/Graphics/SVG/1.1/DTD/svg11-tiny.dtd">
<svg version="1.1" baseProfile="tiny" id="Слой_1"
	 xmlns="http://www.w3.org/2000/svg" xmlns:xlink="http://www.w3.org/1999/xlink" x="0px" y="0px" width="50px" height="50px"
	 viewBox="0 0 50 50" xml:space="preserve">
<path fill-rule="evenodd" fill="#1AD2D1" d="M15.976,597.869c-0.43,0-0.873-0.191-1.157-0.574c-2.942-3.936-1.302-6.824-0.086-8.937
	c1.158-2.034,1.931-3.384,0.086-5.834c-0.47-0.633-0.338-1.521,0.297-1.994c0.635-0.468,1.547-0.34,2.017,0.302
	c2.955,3.932,1.302,6.824,0.105,8.929c-1.176,2.038-1.943,3.394-0.105,5.838c0.469,0.631,0.336,1.522-0.298,1.996
	C16.578,597.786,16.273,597.869,15.976,597.869 M26.255,629.75l-13.011-0.075c-6.643-2.199-10.935-7.828-10.935-14.338V601.98
	l38.662-0.006c4.653,0,7.086,4.048,7.086,8.041c0,3.989-2.433,8.038-7.086,8.038h-3.815c-1.005,5.328-4.978,9.739-10.683,11.621
	L26.255,629.75z M13.938,626.901h11.841c5.328-1.851,8.752-6.368,8.752-11.564v-10.508H5.186v10.508
	C5.186,620.533,8.61,625.051,13.938,626.901 M37.415,615.206h3.558c2.895,0,4.217-2.69,4.217-5.19c0-1.929-0.886-5.194-4.217-5.194
	h-3.558V615.206z M23.744,597.869c-0.298,0-0.602-0.091-0.861-0.274c-0.641-0.474-0.773-1.365-0.297-1.996
	c1.832-2.444,1.065-3.794-0.099-5.832l-0.231-0.402c-0.391-0.687-0.14-1.555,0.555-1.934c0.701-0.389,1.567-0.142,1.957,0.543
	l0.225,0.393c1.204,2.104,2.85,4.993-0.099,8.935C24.609,597.678,24.172,597.869,23.744,597.869"/>
<path fill-rule="evenodd" fill="#1AD2D1" d="M26.835,463.936c-0.515,0-1.016-0.279-1.269-0.768l-0.365-0.713h-0.02
	c-1.412,0-2.667-0.953-3.026-2.326c-0.227-0.813-0.11-1.66,0.306-2.385c0.053-0.096,0.111-0.18,0.182-0.268L20,452.363
	c-0.351-0.691-0.077-1.543,0.612-1.902c0.703-0.361,1.562-0.088,1.914,0.611l2.636,5.113c1.393,0.006,2.681,0.939,3.058,2.311
	c0.221,0.813,0.104,1.664-0.312,2.395l-0.183,0.273l0.365,0.705c0.364,0.693,0.091,1.553-0.612,1.906
	C27.27,463.881,27.056,463.936,26.835,463.936 M23.783,459.695l-0.02-0.037l-0.241,0.105L23.783,459.695z M26.581,458.938
	l0.026,0.047l0.248-0.121L26.581,458.938z M44.354,472H6.022l-0.41-0.721c-4.503-7.932-4.588-18.725-0.215-26.236
	c2.245-3.865,6.462-8.33,14.193-9.816v-4.705c0-0.783,0.639-1.414,1.419-1.414s1.418,0.631,1.418,1.414v4.311
	c0.878-0.07,1.803-0.121,2.767-0.121c0.951,0,1.874,0.041,2.747,0.121v-4.311c0-0.783,0.63-1.414,1.418-1.414
	c0.782,0,1.419,0.631,1.419,1.414v4.697c7.731,1.477,11.936,5.945,14.181,9.809c4.386,7.512,4.302,18.313-0.208,26.252L44.354,472z
	 M29.359,437.871c-0.175,0-0.338-0.025-0.5-0.088c-1.14-0.152-2.356-0.238-3.665-0.238c-1.321,0-2.552,0.086-3.697,0.246
	c-0.155,0.055-0.325,0.08-0.488,0.08h-0.052c-7.25,1.139-11.103,5.145-13.119,8.592c-3.756,6.469-3.788,15.686-0.15,22.701h34.993
	c3.645-7.027,3.604-16.246-0.169-22.709c-2.004-3.445-5.838-7.438-13.068-8.584H29.359z M44.14,424.828H6.225
	c-0.782,0-1.426-0.633-1.426-1.41c0-0.781,0.644-1.418,1.426-1.418H44.14c0.787,0,1.418,0.637,1.418,1.418
	C45.558,424.195,44.927,424.828,44.14,424.828"/>
<path fill-rule="evenodd" fill="#1AD2D1" d="M24.977,552.718c-13.654,0-24.76-11.102-24.76-24.748
	c0-13.65,11.106-24.752,24.76-24.752c13.646,0,24.74,11.102,24.74,24.752C49.717,541.616,38.623,552.718,24.977,552.718
	 M34.113,536.683c-0.321,0-0.635-0.103-0.897-0.313l-9.667-7.709v-17.485c0-0.783,0.635-1.42,1.428-1.42
	c0.785,0,1.419,0.637,1.419,1.426v16.104l8.606,6.857c0.61,0.488,0.708,1.388,0.216,2.004
	C34.938,536.495,34.525,536.683,34.113,536.683 M24.977,506.069c-12.077,0-21.907,9.824-21.907,21.9
	c0,12.078,9.83,21.896,21.907,21.896c12.069,0,21.885-9.818,21.885-21.896C46.862,515.894,37.046,506.069,24.977,506.069"/>
<path fill-rule="evenodd" fill="#1AD2D1" d="M17.31-671.993c-0.086,2.559,0.457,4.555,1.627,5.95
	c1.169,1.395,3.038,2.274,5.576,2.634c0.089-2.565-0.453-4.565-1.624-5.95C21.727-670.754,19.849-671.642,17.31-671.993z
	 M27.005-652.457l4.657-5.551c0.427-0.509,1.193-0.575,1.706-0.148c0.509,0.433,0.575,1.19,0.142,1.706l-4.65,5.544
	c3.06-0.615,5.374-1.848,6.898-3.663c1.815-2.158,2.615-5.272,2.377-9.272c-3.974,0.459-6.905,1.792-8.72,3.954
	C27.891-658.074,27.082-655.578,27.005-652.457z M22.239-638.753l-6.241-7.001c-0.439-0.502-0.4-1.26,0.103-1.706
	c0.493-0.446,1.259-0.4,1.706,0.096l6.396,7.179c-0.122-3.966-1.183-7.067-3.153-9.258c-2.234-2.486-5.774-3.92-10.521-4.28
	c-0.142,4.759,0.922,8.429,3.157,10.915C15.604-640.683,18.478-639.321,22.239-638.753 M26.784-630.155h-2.419v-5.947
	c-5.557-0.35-9.755-2.063-12.475-5.09c-2.876-3.193-4.123-7.864-3.709-13.883l0.072-1.163l1.17,0.039
	c6.033,0.215,10.541,1.944,13.421,5.137c0.575,0.631,1.074,1.322,1.521,2.072v-12.002c-3.243-0.42-5.686-1.597-7.283-3.494
	c-1.782-2.125-2.485-5.143-2.085-8.961l0.122-1.167l1.164,0.083c3.831,0.277,6.674,1.488,8.462,3.616
	c1.782,2.125,2.486,5.137,2.093,8.961l-0.053,0.509v1.055c0.235-0.364,0.499-0.717,0.777-1.055c2.429-2.893,6.33-4.545,11.596-4.922
	l1.167-0.083l0.119,1.164c0.549,5.256-0.406,9.378-2.829,12.277c-2.308,2.747-5.95,4.379-10.829,4.852V-630.155z"/>
<path fill-rule="evenodd" fill="#1AD2D1" d="M13.287-711.566L1.636-723.731v-5.272h10.399c2.093-4.103,6.214-7.388,13.146-7.388
	c4.753,0,8.184,1.544,10.541,3.842c5.454-2.913,8.869-0.909,10.141,0.155c2.701,2.267,3.663,6.505,2.231,9.863
	c-1.259,2.948-3.96,4.576-7.521,4.576c-0.278,0-0.568-0.008-0.859-0.028c-1.071,5.571-4.631,10.532-10.155,10.961l-0.04,0.007
	l-8.719-0.007C17.604-707.272,15.066-709.036,13.287-711.566z M37.338-730.649c1.769,2.532,2.595,5.563,2.7,8.402
	c0.027,0.608,0.014,1.222-0.02,1.842c2.85,0.162,4.915-0.923,5.838-3.082c1.008-2.368,0.324-5.462-1.561-7.039
	c-1.726-1.455-4.155-1.485-6.958-0.117V-730.649z M25.634-739.855l-0.955-0.008c-1.184-0.089-2.063-1.226-2.01-2.586
	c0.056-1.417,1.091-2.404,2.512-2.404c1.421,0,2.456,0.987,2.512,2.404c0.053,1.36-0.826,2.498-2.013,2.586L25.634-739.855z
	 M29.494-712.654c-0.469,0-0.909-0.257-1.111-0.71c-0.277-0.618,0-1.335,0.609-1.613c2.39-1.078,4.006-4.554,3.778-8.087
	c-0.05-0.673,0.459-1.254,1.131-1.293c0.678-0.05,1.252,0.459,1.292,1.131c0.311,4.643-1.828,8.948-5.199,10.471
	c-0.162,0.073-0.331,0.109-0.5,0.109V-712.654z M14.831-729.003h20.693c-1.894-2.874-5.183-4.949-10.343-4.949
	C20.021-733.952,16.726-731.869,14.831-729.003 M36.75-726.566H13.604c-0.521,1.42-0.793,2.932-0.853,4.412
	c-0.225,5.767,2.843,12.253,8.192,12.7h8.475c5.348-0.447,8.416-6.933,8.191-12.7C37.55-723.634,37.279-725.146,36.75-726.566
	 M11.053-726.566H4.071v1.861l6.608,6.905c-0.292-1.461-0.419-2.965-0.357-4.446C10.375-723.672,10.613-725.14,11.053-726.566
	 M4.181-731.696c-0.387,0-0.763-0.193-1.001-0.531c-2.627-3.818-1.213-6.511-0.076-8.679c1.084-2.069,1.871-3.567,0.076-6.176
	c-0.379-0.551-0.245-1.305,0.311-1.69c0.555-0.378,1.312-0.236,1.692,0.32c2.628,3.81,1.213,6.511,0.076,8.676
	c-1.084,2.066-1.864,3.564-0.076,6.168c0.38,0.556,0.244,1.313-0.311,1.693C4.66-731.768,4.425-731.696,4.181-731.696 M8.96-731.696
	c-0.237,0-0.479-0.071-0.69-0.218c-0.556-0.381-0.691-1.137-0.311-1.693c1.789-2.604,1.008-4.102-0.076-6.168l-0.208-0.406
	c-0.311-0.594-0.076-1.325,0.522-1.636c0.594-0.311,1.332-0.076,1.636,0.519l0.205,0.394c1.137,2.167,2.552,4.861-0.076,8.679
	C9.725-731.889,9.348-731.696,8.96-731.696"/>
<path fill-rule="evenodd" fill="#1AD2D1" d="M4.44-554.497c-0.364,0-0.725-0.163-0.959-0.48c-0.387-0.527-0.277-1.272,0.248-1.665
	l4.829-3.561l-3.242-4.393l2.416-7.629l25.893-19.139l13.492,18.256l-25.901,19.139l-8,0.063l-3.242-4.389l-4.83,3.569
	C4.936-554.57,4.685-554.497,4.44-554.497 M10.473-561.618l2.714-2.009c0.529-0.394,1.273-0.278,1.666,0.248
	c0.387,0.529,0.277,1.272-0.251,1.667l-2.721,2.002l2.525,3.416l6.02-0.051L43.792-573.6l-10.667-14.433L9.762-570.771l-1.814,5.741
	L10.473-561.618z M18.981-568.457c-0.364,0-0.725-0.163-0.959-0.48c-0.394-0.528-0.278-1.272,0.248-1.665l11.863-8.767
	c0.525-0.387,1.272-0.278,1.663,0.257c0.386,0.523,0.277,1.267-0.248,1.66l-11.864,8.766
	C19.471-568.53,19.226-568.457,18.981-568.457z M22.048-564.291c-0.356,0-0.717-0.163-0.955-0.482
	c-0.383-0.527-0.277-1.274,0.252-1.663l5.553-4.102c0.526-0.389,1.272-0.279,1.663,0.246c0.387,0.53,0.277,1.274-0.248,1.667
	l-5.554,4.103C22.551-564.367,22.3-564.291,22.048-564.291z"/>
<path fill-rule="evenodd" fill="#1AD2D1" d="M22.406-370.363H5.7v15.637h9.199v-9.516h7.507V-370.363z M5.7-372.814h16.707v-5.127
	c0-0.957-0.777-1.744-1.739-1.744H7.445c-0.958,0-1.745,0.787-1.745,1.744V-372.814z M7.445-342.961
	c-2.314,0-4.195-1.875-4.195-4.189v-30.791c0-2.313,1.881-4.193,4.195-4.193h13.223c2.308,0,4.191,1.881,4.191,4.193v13.699h21.846
	v21.281H7.445z M14.899-352.283H5.7v5.133c0,0.963,0.787,1.746,1.745,1.746h7.454V-352.283z M16.998-375.029h-5.884
	c-0.674,0-1.223-0.549-1.223-1.219c0-0.676,0.548-1.223,1.223-1.223h5.884c0.671,0,1.226,0.547,1.226,1.223
	C18.224-375.578,17.669-375.029,16.998-375.029z M37.029-370.363c-0.311,0-0.621-0.117-0.859-0.352l-5.625-5.533l5.625-5.537
	c0.48-0.471,1.259-0.467,1.732,0.014c0.476,0.482,0.47,1.258-0.014,1.736l-2.604,2.564h10.608c0.677,0,1.226,0.547,1.226,1.223
	c0,0.67-0.549,1.219-1.226,1.219H35.284l2.604,2.566c0.483,0.475,0.49,1.252,0.014,1.736
	C37.661-370.486,37.347-370.363,37.029-370.363 M27.206-355.119l3.597,2.893l11.873-9.568H18.922L27.206-355.119z M36.306-353.514
	l7.947,6.701v-13.105L36.306-353.514z M17.353-359.918v13.105l7.945-6.701L17.353-359.918z M19.477-345.404H42.12l-7.765-6.545
	l-3.553,2.869l-3.56-2.869L19.477-345.404z"/>
<path fill-rule="evenodd" fill="#1AD2D1" d="M35.56-501.59h-6.932c-0.661,0-1.196-0.537-1.196-1.201
	c0-0.658,0.535-1.191,1.196-1.191h6.932c0.664,0,1.199,0.533,1.199,1.191C36.759-502.127,36.224-501.59,35.56-501.59z
	 M18.278-513.684h-2.79c-0.664,0-1.196-0.535-1.196-1.193c0-0.66,0.533-1.189,1.196-1.189l2.79-0.006
	c0.665,0,1.197,0.535,1.197,1.195C19.475-514.219,18.943-513.684,18.278-513.684 M35.56-513.684H23.064
	c-0.657,0-1.193-0.535-1.193-1.193c0-0.66,0.536-1.189,1.193-1.189l12.496-0.006c0.664,0,1.199,0.535,1.199,1.195
	C36.759-514.219,36.224-513.684,35.56-513.684z M16.702-496.76h5.042v-5.807h-5.042V-496.76z M24.132-494.367h-9.82v-10.59h9.82
	V-494.367z M10.514-510.848h29.34v-6.828c0-0.672-0.556-1.227-1.233-1.227H11.747c-0.678,0-1.232,0.555-1.232,1.227V-510.848z
	 M10.514-508.457v21.635c0,0.678,0.555,1.232,1.232,1.232h26.874c0.677,0,1.233-0.555,1.233-1.232v-21.635H10.514z M38.621-483.207
	H11.747c-2,0-3.622-1.615-3.622-3.615v-30.854c0-1.994,1.623-3.615,3.622-3.615h26.874c1.997,0,3.623,1.621,3.623,3.615v30.854
	c0,2-1.626,3.623-3.623,3.623V-483.207z M35.56-495.344h-6.932c-0.661,0-1.196-0.535-1.196-1.193c0-0.662,0.535-1.197,1.196-1.197
	h6.932c0.664,0,1.199,0.535,1.199,1.197C36.759-495.879,36.224-495.344,35.56-495.344z M35.56-489.096H15.591
	c-0.665,0-1.2-0.529-1.2-1.191c0-0.664,0.536-1.199,1.2-1.199H35.56c0.664,0,1.199,0.535,1.199,1.199
	C36.759-489.625,36.224-489.096,35.56-489.096z"/>
<path fill-rule="evenodd" fill="#FFFFFF" d="M17.931-302.23c-7.06,0-12.808,5.742-12.808,12.799s5.748,12.817,12.808,12.817
	c7.071,0,12.814-5.761,12.814-12.817S25.002-302.23,17.931-302.23z M48.069-263.229c-0.534,0-1.069-0.176-1.513-0.549
	l-16.059-13.456c-3.18,3.283-7.631,5.328-12.566,5.328c-9.667,0-17.521-7.86-17.521-17.526c0-9.664,7.854-17.515,17.521-17.515
	c9.661,0,17.527,7.851,17.527,17.515c0,3.052-0.783,5.899-2.15,8.396l6.112,5.114l10.157,8.545c1.005,0.827,1.133,2.315,0.286,3.321
	C49.41-263.511,48.731-263.229,48.069-263.229"/>
<path fill-rule="evenodd" fill="#1AD2D1" d="M27.865-407.989h-5.361c-0.678,0-1.233-0.555-1.233-1.229
	c0-0.678,0.555-1.227,1.233-1.227h5.361c0.678,0,1.234,0.549,1.234,1.227C29.099-408.544,28.542-407.989,27.865-407.989z
	 M25.184-427.31c-1.828,0-3.312,1.484-3.312,3.313c0,1.318,0.827,2.654,2.08,4.67c0.379,0.615,0.793,1.279,1.232,2.023
	c0.44-0.744,0.853-1.408,1.24-2.029c1.242-2.01,2.069-3.346,2.069-4.664C28.493-425.825,27.012-427.31,25.184-427.31z
	 M25.184-412.22l-1.084-2.01c-0.813-1.504-1.57-2.727-2.241-3.805c-1.415-2.287-2.443-3.939-2.443-5.963
	c0-3.184,2.585-5.768,5.768-5.768c3.18,0,5.769,2.584,5.769,5.768c0,2.023-1.032,3.676-2.446,5.963
	c-0.667,1.078-1.428,2.295-2.238,3.805L25.184-412.22z M18.035-437.659h14.299v-1.738c0-3.941-3.209-7.15-7.149-7.15
	c-3.947,0-7.149,3.209-7.149,7.156V-437.659z M10.729-435.202l1.788,29.123c0.027,0.453,0.338,0.93,0.86,0.93h23.615
	c0.519,0,0.83-0.477,0.859-0.93l1.778-29.123H34.79v3.711c0,0.684-0.549,1.225-1.227,1.225s-1.23-0.541-1.23-1.225v-3.711H18.035
	v3.711c0,0.684-0.549,1.225-1.226,1.225c-0.682,0-1.23-0.541-1.23-1.225v-3.711H10.729z M36.992-402.694H13.377
	c-1.771,0-3.193-1.389-3.309-3.234l-1.944-31.73h7.454v-1.738c0-5.297,4.31-9.605,9.605-9.605c5.299,0,9.606,4.309,9.606,9.611
	v1.732h7.454l-1.943,31.73C40.185-404.083,38.764-402.694,36.992-402.694"/>
<path fill-rule="evenodd" fill="#1AD2D1" d="M17.645-33.682c-0.146,0-0.291-0.025-0.43-0.078c-0.476-0.191-0.761-0.668-0.761-1.281
	v-4.008c-5.526-1.838-8.33-6.34-8.33-13.381v-2.545c0-5.109,1.487-8.908,4.442-11.295c2.525-2.047,6.03-3.041,10.724-3.041
	l3.789-0.006c4.693,0,8.197,1,10.722,3.047c2.949,2.387,4.442,6.186,4.442,11.295v2.545c0,5.104-1.494,8.906-4.442,11.291
	c-2.525,2.057-6.029,3.049-10.722,3.049h-3.789c-0.072,0-0.509,0-0.979,0l-3.637,3.914C18.378-33.859,18.008-33.682,17.645-33.682z
	 M22.59-57.75c-0.76-1.535-1.772-2.857-3.015-3.883c-0.331-0.27-0.867-0.27-1.197-0.105c-0.867,0.463-1.667,1.092-2.293,1.824
	c-0.305,0.357-0.43,1.012-0.199,1.654c2.26,6.34,6.632,11.033,13.646,14.047c0.47,0.199,1.164,0.186,1.646-0.086
	c1.045-0.596,2.261-2.041,2.36-2.537c0.099-0.498-0.033-1.125-0.33-1.381c-1.051-0.9-2.096-1.779-3.424-2.455
	c-0.569-0.289-1.315-0.264-1.693,0.119c-0.423,0.438-0.707,0.848-1.057,1.178c-0.456,0.449-1.051,0.186-1.507-0.021
	c-2.07-0.871-3.967-2.855-4.522-4.711c-0.199-0.648-0.179-1.191,0.159-1.463c0.39-0.316,0.839-0.602,1.229-0.984
	C22.683-56.852,22.761-57.408,22.59-57.75 M28.639-54.174h-0.014c-0.264-0.008-0.476-0.232-0.462-0.496
	c0.02-0.635-0.179-1.191-0.576-1.607c-0.396-0.416-0.965-0.662-1.566-0.668c-0.258,0-0.476-0.211-0.476-0.475
	c0-0.266,0.218-0.477,0.476-0.477h0.013c0.847,0.006,1.667,0.35,2.249,0.951c0.582,0.607,0.872,1.408,0.833,2.314
	C29.107-54.379,28.896-54.174,28.639-54.174 M30.807-53.381h-0.019c-0.265-0.008-0.463-0.232-0.457-0.496
	c0.053-1.467-0.41-2.758-1.335-3.721c-0.925-0.967-2.248-1.529-3.623-1.535c-0.265,0-0.476-0.219-0.476-0.482
	c0-0.266,0.217-0.484,0.476-0.484c1.64,0.016,3.212,0.689,4.311,1.84c1.117,1.156,1.665,2.684,1.607,4.416
	C31.276-53.586,31.064-53.381,30.807-53.381 M32.902-52.766H32.89c-0.264-0.008-0.476-0.232-0.47-0.498
	c0.093-2.207-0.608-4.15-2.009-5.617c-1.402-1.461-3.405-2.309-5.48-2.32c-0.265,0-0.476-0.219-0.476-0.484
	c0-0.264,0.218-0.475,0.482-0.475c2.333,0.014,4.582,0.965,6.161,2.617c1.586,1.652,2.381,3.84,2.288,6.32
	C33.379-52.971,33.161-52.766,32.902-52.766 M17.744-35.063l5.561-5.982h3.775c8.441,0,12.21-3.512,12.21-11.385v-2.545
	c0-7.873-3.769-11.385-12.21-11.385h-3.789c-8.442,0-12.211,3.512-12.211,11.385v2.545c0,5.857,2.064,9.236,6.479,10.637
	c0.066,0.014,0.125,0.041,0.185,0.068V-35.063z"/>
<path fill-rule="evenodd" fill="#1AD2D1" d="M38.065-119.039H12.309c-2.314,0-4.185-1.877-4.185-4.178v-14.559
	c0-2.307,1.871-4.184,4.185-4.184h25.756c2.301,0,4.178,1.877,4.178,4.184v14.559C42.244-120.916,40.367-119.039,38.065-119.039
	 M39.407-137.873l-9.262,7.457l9.156,7.721c0.072-0.164,0.113-0.344,0.113-0.521v-14.559
	C39.415-137.809,39.407-137.842,39.407-137.873 M11.846-139.037l9.521,7.67l3.814,3.074l3.828-3.074l9.521-7.67
	c-0.146-0.047-0.305-0.086-0.463-0.086H12.309C12.144-139.123,11.984-139.084,11.846-139.037 M11.065-122.695l9.164-7.721
	l-9.263-7.457c0,0.031-0.006,0.064-0.006,0.098v14.559C10.96-123.039,10.999-122.859,11.065-122.695 M38.012-121.875l-9.024-7.609
	l-3.808,3.061l-3.795-3.061l-9.031,7.609H38.012z"/>
<path fill-rule="evenodd" fill="#1AD2D1" d="M27.852-215.177h-5.329c-0.476,0-0.873-0.383-0.873-0.867
	c0-0.488,0.397-0.871,0.873-0.871h5.329c0.482,0,0.873,0.383,0.873,0.871C28.725-215.56,28.333-215.177,27.852-215.177
	 M32.168-186.663H18.205c-2.425,0-4.395-1.963-4.395-4.391v-27.895c0-2.416,1.97-4.387,4.395-4.387h13.963
	c2.42,0,4.39,1.971,4.39,4.387v27.895C36.558-188.626,34.588-186.663,32.168-186.663 M17.22-195.933v4.879
	c0,0.535,0.449,0.992,0.985,0.992h13.963c0.536,0,0.991-0.457,0.991-0.992v-4.879H17.22z M17.22-212.077h15.939v-6.871
	c0-0.535-0.456-0.988-0.991-0.988H18.205c-0.536,0-0.985,0.453-0.985,0.988V-212.077z M33.159-210.331H17.22v12.654h15.939V-210.331
	z"/>
<path fill-rule="evenodd" fill="#1AD2D1" d="M27.772,37.667l0.437,0.244c0.998,0.549,2.069,0.826,3.193,0.826
	c3.781,0,6.855-3.24,6.855-7.232c0-1.197-0.266-2.334-0.8-3.393l-0.206-0.416l0.072-0.463c0.119-0.719,0.186-1.467,0.186-2.234
	c0-7.127-5.52-12.934-12.323-12.934c-0.707,0-1.407,0.07-2.075,0.188l-0.509,0.09l-0.451-0.252
	c-0.985-0.549-2.055-0.826-3.179-0.826c-3.789,0-6.863,3.244-6.863,7.229c0,1.191,0.271,2.334,0.801,3.385l0.212,0.424l-0.074,0.457
	c-0.119,0.732-0.185,1.48-0.185,2.24c0,7.141,5.527,12.938,12.323,12.938c0.715,0,1.409-0.059,2.077-0.178L27.772,37.667z
	 M25.141,33.72c-0.047,0-0.093,0-0.139,0c-3.385-0.066-6.102-1.865-6.91-4.596c-0.276-0.912,0.245-1.877,1.164-2.148
	c0.886-0.264,1.877,0.252,2.143,1.17c0.456,1.521,2.26,2.096,3.669,2.123c1.018-0.053,2.539-0.357,3.252-1.09
	c0.264-0.271,0.377-0.563,0.358-0.934c-0.053-1.023-1.825-1.533-4.132-2.09c-1.197-0.289-2.327-0.561-3.252-1.023
	c-1.64-0.82-2.619-2.242-2.698-3.9c-0.086-1.746,0.865-3.412,2.532-4.457c1.309-0.818,2.962-1.242,4.549-1.129
	c2.571,0.164,4.912,1.949,5.811,4.449c0.323,0.898-0.145,1.891-1.037,2.207c-0.913,0.346-1.885-0.139-2.216-1.037
	c-0.429-1.203-1.579-2.09-2.782-2.176c-0.793-0.006-1.792,0.186-2.48,0.615c-0.602,0.369-0.952,0.893-0.925,1.361
	c0.021,0.49,0.443,0.801,0.793,0.98c0.576,0.283,1.528,0.514,2.52,0.76c2.776,0.668,6.584,1.586,6.769,5.268
	c0.066,1.33-0.396,2.539-1.328,3.518C29.266,33.165,26.827,33.72,25.141,33.72 M31.402,41.612c-1.421,0-2.836-0.324-4.126-0.945
	c-0.68,0.092-1.375,0.146-2.089,0.146c-8.382,0-15.199-7.094-15.199-15.814c0-0.76,0.053-1.514,0.152-2.254
	c-0.602-1.334-0.912-2.764-0.912-4.252c0-5.564,4.369-10.104,9.744-10.104c1.455,0,2.829,0.316,4.119,0.949
	c0.688-0.096,1.388-0.15,2.095-0.15c8.383,0,15.206,7.098,15.206,15.811c0,0.768-0.06,1.521-0.159,2.254
	c0.602,1.336,0.906,2.764,0.906,4.252C41.14,37.077,36.77,41.612,31.402,41.612"/>
<path fill-rule="evenodd" fill="#7DC1C2" d="M33.051,178.889l0.787-6.066h-6.009v-3.875c0-1.752,0.489-2.949,3.008-2.949
	l3.206-0.006v-5.422c-0.556-0.078-2.46-0.238-4.681-0.238c-4.627,0-7.801,2.824-7.801,8.014v4.477h-5.237v6.066h5.237v15.564h6.268
	v-15.564H33.051z"/>
<path fill-rule="evenodd" fill="#1AD2D1" d="M648.979,201.857l5.293-40.795h-40.407v-26.059c0-11.783,3.287-19.832,20.23-19.832
	l21.56-0.041V78.67c-3.741-0.525-16.542-1.602-31.481-1.602c-31.118,0-52.457,18.992-52.457,53.891v30.104H536.5v40.795h35.216
	v104.667h42.148V201.857H648.979z"/>
<path fill-rule="evenodd" fill="#FFFFFF" d="M637.033,535.974l4.731-36.463h-36.116V476.22c0-10.531,2.938-17.726,18.082-17.726
	l19.27-0.036v-32.589c-3.344-0.47-14.786-1.432-28.137-1.432c-27.813,0-46.886,16.976-46.886,48.167v26.906H536.5v36.463h31.476
	v93.551h37.672v-93.551H637.033z"/>
<g>
	<path fill-rule="evenodd" fill="#1AD2D1" d="M34.918,96.081V85.233h-1.976v8.297c-0.43,0.621-0.839,0.932-1.236,0.932
		c-0.265,0-0.417-0.16-0.463-0.463c-0.025-0.074-0.025-0.311-0.025-0.773v-7.992h-1.965v8.58c0,0.768,0.074,1.289,0.186,1.619
		c0.179,0.549,0.635,0.801,1.263,0.801c0.721,0,1.461-0.43,2.242-1.33v1.178H34.918z M25.669,92.94c0,1.006-0.297,1.521-0.938,1.521
		c-0.628,0-0.933-0.516-0.933-1.521V88.38c0-0.998,0.305-1.508,0.933-1.508c0.641,0,0.938,0.51,0.938,1.508V92.94z M27.641,92.577
		v-3.801c0-1.164-0.193-2.002-0.616-2.559c-0.536-0.74-1.296-1.117-2.293-1.117c-0.972,0-1.739,0.377-2.281,1.117
		c-0.417,0.557-0.615,1.395-0.615,2.559v3.801c0,1.164,0.198,2.004,0.615,2.551c0.542,0.742,1.309,1.105,2.281,1.105
		c0.998,0,1.758-0.363,2.293-1.105C27.448,94.581,27.641,93.741,27.641,92.577 M21.816,81.524h-2.208l-1.481,5.725l-1.553-5.725
		h-2.288c0.457,1.355,0.939,2.703,1.389,4.059c0.701,2.029,1.144,3.564,1.348,4.609v5.889h2.163v-5.889L21.816,81.524z"/>
	<path fill-rule="evenodd" fill="#1AD2D1" d="M41.278,109.259c0,2.504-0.006,5.176-0.554,7.607
		c-0.404,1.705-1.805,2.977-3.492,3.174c-3.993,0.438-8.038,0.438-12.058,0.438c-4.007,0-8.054,0-12.033-0.438
		c-1.699-0.197-3.101-1.469-3.497-3.174c-0.556-2.432-0.556-5.104-0.556-7.607c0-2.514,0.006-5.172,0.568-7.611
		c0.39-1.705,1.792-2.975,3.484-3.16c3.993-0.449,8.033-0.449,12.051-0.449c4.007,0,8.06,0,12.045,0.449
		c1.687,0.186,3.088,1.455,3.485,3.16C41.285,104.087,41.278,106.745,41.278,109.259"/>
	<path fill-rule="evenodd" fill="#1AD2D1" d="M38.886,112.788v-0.291h-1.984c0,0.793-0.027,1.223-0.053,1.328
		c-0.105,0.516-0.39,0.768-0.859,0.768c-0.674,0-0.998-0.488-0.998-1.482v-1.902h3.894v-2.229c0-1.143-0.206-1.99-0.609-2.525
		c-0.542-0.74-1.309-1.104-2.287-1.104c-0.998,0-1.778,0.363-2.34,1.104c-0.41,0.535-0.594,1.383-0.594,2.525v3.762
		c0,1.15,0.217,1.99,0.621,2.525c0.563,0.734,1.329,1.104,2.367,1.104c1.005,0,1.805-0.389,2.34-1.17
		c0.237-0.338,0.396-0.727,0.462-1.164C38.853,113.839,38.886,113.423,38.886,112.788 M36.929,109.581h-1.937v-0.992
		c0-0.99,0.324-1.486,0.971-1.486c0.655,0,0.966,0.496,0.966,1.486V109.581z M31.541,112.999v-4.277
		c0-1.025-0.067-1.732-0.191-2.154c-0.272-0.814-0.795-1.217-1.568-1.217c-0.707,0-1.368,0.402-2.003,1.17v-4.701h-1.943v14.398
		h1.943v-1.029c0.654,0.793,1.316,1.182,2.003,1.182c0.773,0,1.296-0.41,1.568-1.209C31.474,114.704,31.541,113.997,31.541,112.999
		 M29.603,113.144c0,0.979-0.291,1.449-0.858,1.449c-0.313,0-0.649-0.146-0.966-0.471v-6.551c0.317-0.311,0.654-0.469,0.966-0.469
		c0.567,0,0.858,0.496,0.858,1.467V113.144z M22.206,116.218v-1.176c-0.774,0.9-1.508,1.328-2.221,1.328
		c-0.628,0-1.065-0.258-1.263-0.799c-0.105-0.338-0.171-0.84-0.171-1.602v-8.488h1.937v7.908c0,0.449,0,0.688,0.04,0.748
		c0.039,0.309,0.185,0.455,0.449,0.455c0.39,0,0.801-0.291,1.23-0.9v-8.211h1.943v10.736H22.206z M18.272,103.835v-2.016H11.49
		v2.016h2.293v12.383h2.162v-12.383H18.272z"/>
</g>
<g>
	<path fill-rule="evenodd" fill="#A2A2A4" d="M435.462,162.307V98.277h-11.664v48.974c-2.539,3.665-4.951,5.498-7.297,5.498
		c-1.565,0-2.459-0.945-2.735-2.731c-0.15-0.438-0.15-1.834-0.15-4.567V98.277h-11.597v50.644c0,4.53,0.436,7.608,1.095,9.557
		c1.055,3.239,3.748,4.728,7.454,4.728c4.256,0,8.622-2.536,13.23-7.852v6.953H435.462z M380.871,143.769
		c0,5.937-1.752,8.98-5.536,8.98c-3.707,0-5.506-3.044-5.506-8.98v-26.918c0-5.891,1.799-8.899,5.506-8.899
		c3.784,0,5.536,3.009,5.536,8.899V143.769z M392.506,141.624V119.19c0-6.87-1.139-11.816-3.635-15.103
		c-3.162-4.369-7.65-6.594-13.537-6.594c-5.739,0-10.263,2.225-13.462,6.594c-2.464,3.286-3.631,8.232-3.631,15.103v22.434
		c0,6.871,1.167,11.827,3.631,15.056c3.2,4.38,7.724,6.525,13.462,6.525c5.887,0,10.375-2.146,13.537-6.525
		C391.367,153.451,392.506,148.495,392.506,141.624 M358.128,76.386h-13.036l-8.744,33.789l-9.168-33.789h-13.502
		c2.698,8.001,5.545,15.956,8.197,23.955c4.135,11.979,6.75,21.04,7.957,27.207v34.759h12.765v-34.759L358.128,76.386z"/>
	<g>
		<path fill-rule="evenodd" fill="#A2A2A4" d="M441.515,227.359c-3.819,0-5.515,2.927-5.515,8.772V241h11v-4.868
			C447,230.286,445.381,227.359,441.515,227.359z"/>
		<path fill-rule="evenodd" fill="#A2A2A4" d="M399.82,227.359c-1.845,0-4.82,0.934-5.82,2.767v38.666
			c1,1.914,3.976,2.777,5.82,2.777c3.349,0,5.18-2.777,5.18-8.553v-27C405,230.286,403.169,227.359,399.82,227.359z"/>
		<path fill-rule="evenodd" fill="#A2A2A4" d="M469.729,195.161c-2.345-10.064-10.617-17.558-20.572-18.653
			c-23.523-2.651-47.445-2.651-71.097-2.651c-23.717,0-47.563,0-71.131,2.651c-9.987,1.096-18.264,8.589-20.563,18.653
			c-3.317,14.398-3.355,30.089-3.355,44.926c0,14.778,0,30.549,3.279,44.901c2.338,10.064,10.609,17.569,20.639,18.733
			c23.486,2.582,47.369,2.582,71.021,2.582c23.727,0,47.602,0,71.17-2.582c9.954-1.164,18.226-8.669,20.609-18.733
			c3.235-14.353,3.271-30.123,3.271-44.901C473,225.25,473.039,209.56,469.729,195.161z M338,207h-15v73h-11v-73h-15v-12h41V207z
			 M373,280h-12v-5.779c-5,5.314-9.186,7.839-13.396,7.839c-3.709,0-6.354-1.521-7.524-4.715c-0.622-1.994-1.08-4.956-1.08-9.452
			V217h12v47.469c0,2.65-0.358,4.058-0.125,4.414c0.231,1.823,1.199,2.687,2.759,2.687c2.3,0,4.366-1.719,7.366-5.313V217h12V280z
			 M415,262.162c0,5.892-0.135,10.064-0.866,12.763c-1.605,4.715-4.221,7.135-8.783,7.135c-4.052,0-7.351-2.294-11.351-6.975V280
			h-12v-85h12v28.924c4-4.531,7.309-6.906,11.483-6.906c4.562,0,7.215,2.375,8.82,7.183c0.732,2.491,0.696,6.663,0.696,12.715
			V262.162z M459,251h-23v11.819c0,5.868,1.859,8.75,5.837,8.75c2.772,0,4.425-1.587,5.046-4.63
			c0.156-0.623,0.289-3.939,0.289-7.939H459v1.917c0,3.746-0.255,6.202-0.301,7.368c-0.389,2.581-1.356,4.875-2.756,6.87
			c-3.162,4.61-7.896,6.904-13.829,6.904c-6.126,0-10.891-2.178-14.211-6.513c-2.381-3.158-3.903-8.115-3.903-14.905v-22.204
			c0-6.743,1.319-11.746,3.74-14.905c3.317-4.369,8.041-6.515,13.929-6.515c5.774,0,10.418,2.146,13.617,6.515
			c2.382,3.159,3.713,8.162,3.713,14.905V251z"/>
	</g>
</g>
<g>
	<path fill-rule="evenodd" fill="#FFFFFF" d="M435.462,485.307v-64.029h-11.664v48.974c-2.539,3.665-4.951,5.498-7.297,5.498
		c-1.565,0-2.459-0.945-2.735-2.731c-0.15-0.438-0.15-1.834-0.15-4.567v-47.173h-11.597v50.644c0,4.53,0.436,7.608,1.095,9.557
		c1.055,3.239,3.748,4.728,7.454,4.728c4.256,0,8.622-2.536,13.23-7.852v6.953H435.462z M380.871,466.769
		c0,5.937-1.752,8.98-5.536,8.98c-3.707,0-5.506-3.044-5.506-8.98v-26.918c0-5.891,1.799-8.899,5.506-8.899
		c3.784,0,5.536,3.009,5.536,8.899V466.769z M392.506,464.624V442.19c0-6.87-1.139-11.816-3.635-15.103
		c-3.162-4.369-7.65-6.594-13.537-6.594c-5.739,0-10.263,2.225-13.462,6.594c-2.464,3.286-3.631,8.232-3.631,15.103v22.434
		c0,6.871,1.167,11.827,3.631,15.056c3.2,4.38,7.724,6.525,13.462,6.525c5.887,0,10.375-2.146,13.537-6.525
		C391.367,476.451,392.506,471.495,392.506,464.624 M358.128,399.386h-13.036l-8.744,33.789l-9.168-33.789h-13.502
		c2.698,8.001,5.545,15.956,8.197,23.955c4.135,11.979,6.75,21.04,7.957,27.207v34.759h12.765v-34.759L358.128,399.386z"/>
	<g>
		<path fill-rule="evenodd" fill="#FFFFFF" d="M441.515,550.359c-3.819,0-5.515,2.927-5.515,8.772V564h11v-4.868
			C447,553.286,445.381,550.359,441.515,550.359z"/>
		<path fill-rule="evenodd" fill="#FFFFFF" d="M399.82,550.359c-1.845,0-4.82,0.934-5.82,2.767v38.666
			c1,1.914,3.976,2.777,5.82,2.777c3.349,0,5.18-2.777,5.18-8.553v-27C405,553.286,403.169,550.359,399.82,550.359z"/>
		<path fill-rule="evenodd" fill="#FFFFFF" d="M469.729,518.161c-2.345-10.064-10.617-17.558-20.572-18.653
			c-23.523-2.651-47.445-2.651-71.097-2.651c-23.717,0-47.563,0-71.131,2.651c-9.987,1.096-18.264,8.589-20.563,18.653
			c-3.317,14.398-3.355,30.089-3.355,44.926c0,14.778,0,30.549,3.279,44.901c2.338,10.064,10.609,17.569,20.639,18.733
			c23.486,2.582,47.369,2.582,71.021,2.582c23.727,0,47.602,0,71.17-2.582c9.954-1.164,18.226-8.669,20.609-18.733
			c3.235-14.353,3.271-30.123,3.271-44.901C473,548.25,473.039,532.56,469.729,518.161z M338,530h-15v73h-11v-73h-15v-12h41V530z
			 M373,603h-12v-5.779c-5,5.314-9.186,7.839-13.396,7.839c-3.709,0-6.354-1.521-7.524-4.715c-0.622-1.994-1.08-4.956-1.08-9.452
			V540h12v47.469c0,2.65-0.358,4.058-0.125,4.414c0.231,1.823,1.199,2.687,2.759,2.687c2.3,0,4.366-1.719,7.366-5.313V540h12V603z
			 M415,585.162c0,5.892-0.135,10.064-0.866,12.763c-1.605,4.715-4.221,7.135-8.783,7.135c-4.052,0-7.351-2.294-11.351-6.975V603
			h-12v-85h12v28.924c4-4.531,7.309-6.906,11.483-6.906c4.562,0,7.215,2.375,8.82,7.183c0.732,2.491,0.696,6.663,0.696,12.715
			V585.162z M459,574h-23v11.819c0,5.868,1.859,8.75,5.837,8.75c2.772,0,4.425-1.587,5.046-4.63
			c0.156-0.623,0.289-3.939,0.289-7.939H459v1.917c0,3.746-0.255,6.202-0.301,7.368c-0.389,2.581-1.356,4.875-2.756,6.87
			c-3.162,4.61-7.896,6.904-13.829,6.904c-6.126,0-10.891-2.178-14.211-6.513c-2.381-3.158-3.903-8.115-3.903-14.905v-22.204
			c0-6.743,1.319-11.746,3.74-14.905c3.317-4.369,8.041-6.515,13.929-6.515c5.774,0,10.418,2.146,13.617,6.515
			c2.382,3.159,3.713,8.162,3.713,14.905V574z"/>
	</g>
</g>
<path fill-rule="evenodd" fill="#1AD2D1" d="M25.225,350.833c-3.755,0-6.803,2.957-6.803,6.594c0,3.643,3.041,6.59,6.803,6.59
	c3.761,0,6.802-2.947,6.802-6.59C32.026,353.79,28.985,350.833,25.225,350.833 M38.3,354.886h-2.981
	c0.278,0.926,0.443,1.904,0.443,2.91c0,5.633-4.727,10.193-10.537,10.193c-5.812,0-10.532-4.561-10.532-10.193
	c0-1.006,0.159-1.984,0.437-2.91h-3.115V369.2c0,0.74,0.602,1.342,1.336,1.342h23.601c0.74,0,1.348-0.602,1.348-1.342V354.886z
	 M32.926,344.323c-0.84,0-1.528,0.688-1.528,1.525v3.656c0,0.84,0.688,1.514,1.528,1.514h3.828c0.845,0,1.527-0.674,1.527-1.514
	v-3.656c0-0.838-0.682-1.525-1.527-1.525H32.926z M12.597,340.56h25.188c2.38,0,4.343,1.957,4.343,4.344v25.195
	c0,2.381-1.963,4.344-4.343,4.344H12.597c-2.387,0-4.357-1.963-4.357-4.344l0.008-25.195C8.248,342.517,10.21,340.56,12.597,340.56"
	/>
<path fill-rule="evenodd" fill="#1AD2D1" d="M839.879,161.862c-23.135,0-41.901,18.215-41.901,40.615
	c0,22.437,18.73,40.59,41.901,40.59c23.164,0,41.895-18.153,41.895-40.59C881.773,180.077,863.043,161.862,839.879,161.862
	 M920.421,186.825H902.05c1.715,5.703,2.732,11.73,2.732,17.926c0,34.694-29.113,62.786-64.903,62.786
	c-35.797,0-64.874-28.092-64.874-62.786c0-6.195,0.981-12.223,2.689-17.926h-19.182v88.17c0,4.56,3.704,8.265,8.233,8.265h145.367
	c4.56,0,8.308-3.705,8.308-8.265V186.825z M887.313,121.766c-5.173,0-9.407,4.235-9.407,9.396v22.522
	c0,5.172,4.234,9.322,9.407,9.322h23.58c5.208,0,9.406-4.15,9.406-9.322v-22.522c0-5.16-4.198-9.396-9.406-9.396H887.313z
	 M762.104,98.584h155.142c14.658,0,26.755,12.054,26.755,26.755v155.19c0,14.665-12.097,26.755-26.755,26.755H762.104
	c-14.707,0-26.84-12.09-26.84-26.755l0.049-155.19C735.313,110.638,747.396,98.584,762.104,98.584"/>
<path fill-rule="evenodd" fill="#7DC1C2" d="M43.353,186.105c-0.059-0.092-0.085-0.17-0.125-0.23
	c-0.669-1.197-1.924-2.65-3.776-4.377l-0.046-0.039l-0.006-0.02l-0.02-0.021h-0.027c-0.839-0.793-1.368-1.34-1.601-1.611
	c-0.396-0.537-0.501-1.064-0.276-1.607c0.165-0.396,0.746-1.256,1.784-2.578c0.536-0.693,0.966-1.256,1.277-1.68
	c2.273-3.02,3.278-4.957,2.968-5.811l-0.126-0.191c-0.085-0.119-0.278-0.219-0.602-0.316c-0.336-0.107-0.752-0.127-1.275-0.055
	l-5.686,0.041c-0.079-0.025-0.219-0.025-0.383,0.014c-0.178,0.033-0.264,0.051-0.264,0.051l-0.093,0.055l-0.08,0.053
	c-0.066,0.039-0.138,0.119-0.217,0.211c-0.086,0.105-0.146,0.219-0.206,0.338c-0.608,1.6-1.309,3.074-2.102,4.449
	c-0.489,0.813-0.933,1.527-1.341,2.115c-0.412,0.602-0.762,1.043-1.032,1.328c-0.278,0.285-0.521,0.51-0.754,0.688
	c-0.218,0.158-0.383,0.238-0.509,0.219c-0.125-0.047-0.225-0.061-0.338-0.086c-0.177-0.111-0.336-0.285-0.435-0.482
	c-0.119-0.205-0.192-0.463-0.232-0.768c-0.039-0.311-0.058-0.574-0.058-0.801c-0.008-0.23-0.008-0.541,0-0.943
	c0.019-0.416,0.019-0.688,0.019-0.834c0-0.502,0.014-1.045,0.033-1.633c0.014-0.582,0.027-1.045,0.047-1.395
	c0.006-0.338,0.013-0.701,0.013-1.084c0-0.371-0.02-0.676-0.06-0.893c-0.052-0.219-0.118-0.43-0.212-0.627
	c-0.091-0.207-0.231-0.371-0.402-0.484c-0.179-0.105-0.39-0.191-0.661-0.264c-0.701-0.152-1.586-0.252-2.67-0.252
	c-0.093,0-0.199,0-0.292-0.006h-0.39c-2.063,0.006-3.398,0.172-4.032,0.482c-0.278,0.131-0.523,0.33-0.748,0.588
	c-0.237,0.291-0.271,0.449-0.099,0.477c0.793,0.111,1.349,0.402,1.673,0.846l0.125,0.232c0.093,0.178,0.178,0.475,0.271,0.91
	c0.093,0.432,0.152,0.914,0.179,1.443c0.066,0.951,0.066,1.777,0,2.465c-0.06,0.682-0.119,1.223-0.185,1.6
	c-0.06,0.383-0.152,0.693-0.264,0.918c-0.125,0.24-0.198,0.393-0.238,0.438c-0.04,0.061-0.066,0.092-0.099,0.105
	c-0.171,0.066-0.344,0.092-0.536,0.092c-0.178,0-0.41-0.092-0.667-0.264c-0.264-0.197-0.536-0.449-0.82-0.766
	c-0.284-0.332-0.602-0.781-0.958-1.363c-0.351-0.568-0.721-1.25-1.104-2.043l-0.317-0.574c-0.198-0.363-0.47-0.898-0.814-1.607
	c-0.336-0.701-0.634-1.387-0.898-2.041c-0.112-0.279-0.264-0.49-0.482-0.635l-0.086-0.061c-0.066-0.053-0.185-0.1-0.323-0.164
	c-0.146-0.061-0.298-0.1-0.456-0.121l-5.402,0.033c-0.556,0-0.925,0.127-1.131,0.371l-0.072,0.111
	c-0.045,0.08-0.066,0.186-0.066,0.332c0,0.145,0.04,0.309,0.132,0.521c0.787,1.865,1.646,3.648,2.565,5.369
	c0.925,1.73,1.732,3.107,2.413,4.164c0.682,1.059,1.382,2.043,2.097,2.98c0.707,0.939,1.183,1.535,1.414,1.799
	s0.404,0.465,0.542,0.596l0.49,0.471c0.317,0.322,0.779,0.693,1.388,1.143c0.628,0.438,1.289,0.865,2.037,1.303
	c0.746,0.422,1.605,0.766,2.598,1.029c0.979,0.279,1.943,0.393,2.883,0.338h2.267c0.463-0.045,0.813-0.186,1.052-0.428l0.072-0.107
	c0.052-0.086,0.105-0.205,0.146-0.363c0.052-0.158,0.072-0.35,0.072-0.541c-0.006-0.568,0.027-1.086,0.126-1.535
	c0.099-0.449,0.21-0.793,0.342-1.023c0.12-0.24,0.272-0.424,0.424-0.584c0.159-0.15,0.264-0.25,0.33-0.289
	c0.06-0.027,0.12-0.053,0.165-0.066c0.305-0.1,0.682,0,1.112,0.311c0.429,0.311,0.833,0.688,1.196,1.137
	c0.371,0.463,0.828,0.965,1.363,1.541c0.521,0.549,0.977,0.984,1.381,1.262l0.383,0.232c0.278,0.15,0.608,0.297,1.038,0.436
	c0.417,0.133,0.787,0.16,1.104,0.1l5.05-0.08c0.496,0,0.886-0.078,1.157-0.25c0.285-0.166,0.443-0.344,0.495-0.529
	c0.06-0.205,0.067-0.43,0.021-0.688C43.439,186.377,43.4,186.213,43.353,186.105"/>
<path fill-rule="evenodd" fill="#1AD2D1" d="M1244.214,294.345c-0.356-0.558-0.517-1.031-0.759-1.399
	c-4.057-7.271-11.684-16.097-22.929-26.582l-0.278-0.237l-0.042-0.118l-0.118-0.131h-0.166c-5.09-4.815-8.304-8.137-9.715-9.786
	c-2.408-3.262-3.049-6.464-1.685-9.762c1.002-2.408,4.53-7.627,10.841-15.657c3.25-4.21,5.859-7.627,7.752-10.2
	c13.807-18.338,19.91-30.105,18.023-35.289l-0.765-1.162c-0.517-0.724-1.69-1.328-3.653-1.922c-2.047-0.652-4.572-0.771-7.746-0.332
	l-34.535,0.25c-0.475-0.154-1.328-0.154-2.324,0.082c-1.08,0.202-1.602,0.309-1.602,0.309l-0.569,0.332l-0.486,0.32
	c-0.397,0.237-0.836,0.724-1.316,1.281c-0.522,0.641-0.884,1.328-1.245,2.053c-3.689,9.714-7.947,18.67-12.764,27.02
	c-2.971,4.936-5.67,9.276-8.148,12.847c-2.503,3.653-4.626,6.334-6.27,8.065c-1.689,1.732-3.166,3.096-4.578,4.176
	c-1.322,0.961-2.33,1.447-3.09,1.328c-0.76-0.285-1.364-0.367-2.053-0.521c-1.078-0.676-2.039-1.732-2.645-2.93
	c-0.724-1.246-1.162-2.812-1.412-4.662c-0.236-1.886-0.35-3.487-0.35-4.863c-0.047-1.399-0.047-3.285,0-5.729
	c0.113-2.527,0.113-4.176,0.113-5.065c0-3.048,0.083-6.346,0.201-9.916c0.084-3.535,0.166-6.347,0.285-8.47
	c0.035-2.052,0.076-4.258,0.076-6.582c0-2.254-0.124-4.105-0.361-5.422c-0.314-1.328-0.717-2.609-1.287-3.807
	c-0.551-1.258-1.405-2.254-2.443-2.942c-1.085-0.64-2.366-1.162-4.015-1.601c-4.259-0.926-9.632-1.531-16.215-1.531
	c-0.569,0-1.21,0-1.779-0.035h-2.36c-12.525,0.035-20.639,1.044-24.494,2.93c-1.685,0.795-3.173,2.005-4.537,3.57
	c-1.441,1.768-1.643,2.729-0.6,2.895c4.816,0.676,8.191,2.443,10.154,5.137l0.765,1.41c0.563,1.08,1.079,2.883,1.644,5.528
	c0.563,2.621,0.925,5.552,1.085,8.766c0.403,5.776,0.403,10.794,0,14.97c-0.362,4.139-0.724,7.425-1.121,9.714
	c-0.368,2.325-0.925,4.211-1.607,5.575c-0.765,1.459-1.204,2.385-1.446,2.656c-0.244,0.368-0.404,0.559-0.6,0.641
	c-1.044,0.404-2.094,0.559-3.256,0.559c-1.08,0-2.491-0.559-4.051-1.602c-1.607-1.198-3.256-2.729-4.982-4.65
	c-1.731-2.016-3.652-4.744-5.824-8.279c-2.123-3.451-4.377-7.592-6.701-12.406l-1.928-3.488c-1.203-2.206-2.853-5.456-4.939-9.762
	c-2.047-4.258-3.855-8.422-5.457-12.396c-0.682-1.696-1.607-2.978-2.93-3.854l-0.527-0.368c-0.398-0.32-1.121-0.604-1.963-0.996
	c-0.891-0.368-1.815-0.604-2.771-0.735l-32.803,0.201c-3.381,0-5.622,0.771-6.868,2.254l-0.438,0.676
	c-0.278,0.486-0.403,1.127-0.403,2.018c0,0.877,0.236,1.873,0.801,3.166c4.779,11.328,9.999,22.158,15.58,32.607
	c5.622,10.51,10.521,18.872,14.648,25.289c4.141,6.43,8.398,12.407,12.74,18.101c4.293,5.706,7.182,9.323,8.587,10.925
	c1.399,1.602,2.45,2.822,3.286,3.617l2.977,2.859c1.928,1.957,4.732,4.211,8.428,6.938c3.814,2.657,7.829,5.255,12.372,7.911
	c4.53,2.563,9.75,4.65,15.776,6.252c5.947,1.695,11.802,2.384,17.507,2.052h13.766c2.812-0.272,4.94-1.127,6.394-2.598l0.438-0.652
	c0.314-0.522,0.641-1.245,0.884-2.206c0.314-0.961,0.439-2.123,0.439-3.285c-0.042-3.452,0.16-6.596,0.764-9.324
	c0.6-2.728,1.281-4.815,2.076-6.215c0.73-1.459,1.654-2.574,2.58-3.547c0.967-0.913,1.602-1.518,1.999-1.756
	c0.368-0.166,0.729-0.32,1.008-0.402c1.851-0.605,4.14,0,6.749,1.885c2.609,1.887,5.059,4.176,7.26,6.904
	c2.254,2.811,5.029,5.859,8.279,9.358c3.167,3.333,5.937,5.979,8.387,7.663l2.33,1.411c1.69,0.913,3.695,1.803,6.305,2.646
	c2.526,0.807,4.779,0.973,6.707,0.604l30.668-0.486c3.014,0,5.386-0.475,7.034-1.519c1.726-1.008,2.687-2.088,3.001-3.215
	c0.367-1.244,0.416-2.609,0.131-4.174C1244.736,295.993,1244.498,294.997,1244.214,294.345"/>
<path fill-rule="evenodd" fill="#FFFFFF" d="M1244.214,613.345c-0.356-0.558-0.517-1.031-0.759-1.399
	c-4.057-7.271-11.684-16.097-22.929-26.582l-0.278-0.237l-0.042-0.118l-0.118-0.131h-0.166c-5.09-4.815-8.304-8.137-9.715-9.786
	c-2.408-3.262-3.049-6.464-1.685-9.762c1.002-2.408,4.53-7.627,10.841-15.657c3.25-4.21,5.859-7.627,7.752-10.2
	c13.807-18.338,19.91-30.105,18.023-35.289l-0.765-1.162c-0.517-0.724-1.69-1.328-3.653-1.922c-2.047-0.652-4.572-0.771-7.746-0.332
	l-34.535,0.25c-0.475-0.154-1.328-0.154-2.324,0.082c-1.08,0.202-1.602,0.309-1.602,0.309l-0.569,0.332l-0.486,0.32
	c-0.397,0.237-0.836,0.724-1.316,1.281c-0.522,0.641-0.884,1.328-1.245,2.053c-3.689,9.714-7.947,18.67-12.764,27.02
	c-2.971,4.936-5.67,9.276-8.148,12.847c-2.503,3.653-4.626,6.334-6.27,8.065c-1.689,1.732-3.166,3.096-4.578,4.176
	c-1.322,0.961-2.33,1.447-3.09,1.328c-0.76-0.285-1.364-0.367-2.053-0.521c-1.078-0.676-2.039-1.732-2.645-2.93
	c-0.724-1.246-1.162-2.812-1.412-4.662c-0.236-1.886-0.35-3.487-0.35-4.863c-0.047-1.399-0.047-3.285,0-5.729
	c0.113-2.527,0.113-4.176,0.113-5.065c0-3.048,0.083-6.346,0.201-9.916c0.084-3.535,0.166-6.347,0.285-8.47
	c0.035-2.052,0.076-4.258,0.076-6.582c0-2.254-0.124-4.105-0.361-5.422c-0.314-1.328-0.717-2.609-1.287-3.807
	c-0.551-1.258-1.405-2.254-2.443-2.942c-1.085-0.64-2.366-1.162-4.015-1.601c-4.259-0.926-9.632-1.531-16.215-1.531
	c-0.569,0-1.21,0-1.779-0.035h-2.36c-12.525,0.035-20.639,1.044-24.494,2.93c-1.685,0.795-3.173,2.005-4.537,3.57
	c-1.441,1.768-1.643,2.729-0.6,2.895c4.816,0.676,8.191,2.443,10.154,5.137l0.765,1.41c0.563,1.08,1.079,2.883,1.644,5.528
	c0.563,2.621,0.925,5.552,1.085,8.766c0.403,5.776,0.403,10.794,0,14.97c-0.362,4.139-0.724,7.425-1.121,9.714
	c-0.368,2.325-0.925,4.211-1.607,5.575c-0.765,1.459-1.204,2.385-1.446,2.656c-0.244,0.368-0.404,0.559-0.6,0.641
	c-1.044,0.404-2.094,0.559-3.256,0.559c-1.08,0-2.491-0.559-4.051-1.602c-1.607-1.198-3.256-2.729-4.982-4.65
	c-1.731-2.016-3.652-4.744-5.824-8.279c-2.123-3.451-4.377-7.592-6.701-12.406l-1.928-3.488c-1.203-2.206-2.853-5.456-4.939-9.762
	c-2.047-4.258-3.855-8.422-5.457-12.396c-0.682-1.696-1.607-2.978-2.93-3.854l-0.527-0.368c-0.398-0.32-1.121-0.604-1.963-0.996
	c-0.891-0.368-1.815-0.604-2.771-0.735l-32.803,0.201c-3.381,0-5.622,0.771-6.868,2.254l-0.438,0.676
	c-0.278,0.486-0.403,1.127-0.403,2.018c0,0.877,0.236,1.873,0.801,3.166c4.779,11.328,9.999,22.158,15.58,32.607
	c5.622,10.51,10.521,18.872,14.648,25.289c4.141,6.43,8.398,12.407,12.74,18.101c4.293,5.706,7.182,9.323,8.587,10.925
	c1.399,1.602,2.45,2.822,3.286,3.617l2.977,2.859c1.928,1.957,4.732,4.211,8.428,6.938c3.814,2.657,7.829,5.255,12.372,7.911
	c4.53,2.563,9.75,4.65,15.776,6.252c5.947,1.695,11.802,2.384,17.507,2.052h13.766c2.812-0.272,4.94-1.127,6.394-2.598l0.438-0.652
	c0.314-0.522,0.641-1.245,0.884-2.206c0.314-0.961,0.439-2.123,0.439-3.285c-0.042-3.452,0.16-6.596,0.764-9.324
	c0.6-2.728,1.281-4.815,2.076-6.215c0.73-1.459,1.654-2.574,2.58-3.547c0.967-0.913,1.602-1.518,1.999-1.756
	c0.368-0.166,0.729-0.32,1.008-0.402c1.851-0.605,4.14,0,6.749,1.885c2.609,1.887,5.059,4.176,7.26,6.904
	c2.254,2.811,5.029,5.859,8.279,9.358c3.167,3.333,5.937,5.979,8.387,7.663l2.33,1.411c1.69,0.913,3.695,1.803,6.305,2.646
	c2.526,0.807,4.779,0.973,6.707,0.604l30.668-0.486c3.014,0,5.386-0.475,7.034-1.519c1.726-1.008,2.687-2.088,3.001-3.215
	c0.367-1.244,0.416-2.609,0.131-4.174C1244.736,614.993,1244.498,613.997,1244.214,613.345"/>
</svg>
