<?xml version="1.0" standalone="no"?>
<!DOCTYPE svg PUBLIC "-//W3C//DTD SVG 1.1//EN" "http://www.w3.org/Graphics/SVG/1.1/DTD/svg11.dtd" >
<svg xmlns="http://www.w3.org/2000/svg">
<metadata></metadata>
<defs>
<font id="espuma_prosemibold" horiz-adv-x="1179" >
<font-face units-per-em="2048" ascent="1556" descent="-492" />
<missing-glyph horiz-adv-x="536" />
<glyph unicode="ff" horiz-adv-x="1552" d="M57 973q129 6 146 6v172q0 156 96 252q94 94 258 94q115 0 191 -43q75 -43 75 -94q0 -109 -170 -109q-9 46 -30 72q-23 29 -54 29q-45 0 -75 -47q-31 -48 -31 -121v-201h405v139q0 167 103 273q101 104 270 104q126 0 203 -45q80 -47 80 -98q0 -109 -185 -109 q-9 44 -34 76q-25 31 -60 31q-51 0 -86 -56q-33 -53 -33 -143v-170h142q136 0 172 25q37 -52 37 -109t-160 -57h-189v-649q0 -121 23 -172q-67 -31 -178 -31q-107 0 -107 158l4 694h-405v-649q0 -130 22 -172q-67 -31 -178 -31q-52 0 -78 33q-28 36 -28 125v684 q-72 -8 -121 -19q-25 77 -25 158z" />
<glyph unicode="fi" horiz-adv-x="1218" d="M51 975q129 6 146 6v88q0 193 127 311q126 117 342 117q157 0 258 -55q102 -56 102 -119q0 -117 -184 -117q-15 62 -62 103t-110 41q-94 0 -152 -70q-59 -71 -59 -180v-117h407q140 0 178 23q33 -118 33 -310v-503q0 -131 41 -166q-78 -35 -194 -35q-48 0 -74 33 q-29 37 -29 125l-2 530q0 121 -8 184q-65 -18 -141 -18h-211v-649q0 -130 22 -172q-67 -31 -178 -31q-52 0 -78 33q-28 36 -28 125v684q-72 -8 -121 -19q-25 77 -25 158z" />
<glyph unicode="fl" horiz-adv-x="1282" d="M51 973q129 6 146 6v72q0 200 135 323t362 123q143 0 234 -39q82 12 196 12q15 -102 15 -294v-983q0 -132 43 -166q-81 -35 -195 -35q-52 0 -78 33q-28 36 -28 125v1005q0 64 -2 82q-22 55 -76 84q-57 31 -125 31q-96 0 -158 -74q-61 -73 -61 -193v-102h133q123 0 160 16 q32 -51 32 -100q0 -57 -135 -57l-190 2v-649q0 -130 22 -172q-67 -31 -178 -31q-52 0 -78 33q-28 36 -28 125v684q-72 -8 -121 -19q-25 77 -25 158z" />
<glyph unicode="ffi" horiz-adv-x="1871" d="M61 975q129 6 146 6v172q0 157 92 252q91 94 252 94q113 0 186 -43q74 -44 74 -94q0 -109 -162 -109q-18 101 -80 101q-46 0 -73 -47q-29 -50 -29 -121v-201h375v86q0 193 127 311q126 117 342 117q157 0 258 -55q102 -56 102 -119q0 -117 -184 -117q-15 62 -62 103 t-110 41q-93 0 -154 -70t-61 -180v-117h422q140 0 178 23q33 -118 33 -310v-503q0 -132 43 -166q-81 -35 -195 -35q-54 0 -80 33q-28 36 -28 125v526q0 91 -7 184q-64 -18 -141 -18h-227v-649q0 -130 22 -172q-67 -31 -178 -31q-52 0 -78 33q-28 36 -28 125l8 696h-375v-649 q0 -128 23 -172q-67 -31 -179 -31q-51 0 -77 33q-29 37 -29 125v684q-72 -8 -121 -19q-25 77 -25 158z" />
<glyph unicode="ffl" horiz-adv-x="1947" d="M55 971q129 6 146 6v172q0 156 96 252q94 94 258 94q114 0 190 -43t76 -94q0 -109 -170 -109q-9 46 -30 72q-23 29 -54 29q-45 0 -75 -47q-31 -48 -31 -121v-201h405v70q0 200 135 323t365 123q142 0 233 -39q80 12 193 12q16 -122 16 -294v-983q0 -131 41 -166 q-78 -35 -194 -35q-52 0 -78 33q-29 37 -29 125v1087q-22 55 -75 84q-57 31 -125 31q-98 0 -160 -74t-62 -191v-102h136q122 0 159 16q31 -54 31 -100q0 -57 -135 -57h-189v-649q0 -121 23 -172q-67 -31 -178 -31q-107 0 -107 158l2 692h-405v-649q0 -131 22 -173 q-65 -30 -178 -30q-52 0 -78 33q-28 36 -28 124v684q-82 -9 -121 -18q-25 77 -25 158z" />
<glyph unicode="f&#x131;" horiz-adv-x="1167" d="M55 975q129 6 146 6v90q0 195 88 311q88 117 246 117q58 0 92 -37q35 -38 35 -94q-201 0 -201 -264v-119h354q140 0 178 23q33 -109 33 -308v-503q0 -132 43 -166q-81 -35 -197 -35q-47 0 -73 33q-29 37 -29 125v526q0 121 -8 184q-64 -18 -141 -18h-158v-649 q0 -130 22 -172q-67 -31 -178 -31q-52 0 -78 33q-28 36 -28 125v684q-72 -8 -121 -19q-25 77 -25 158z" />
<glyph unicode="&#x2019;&#x407;" horiz-adv-x="899" d="M72 1364q0 18 22 43q23 26 43 74q23 54 23 133q0 26 -13 86q-10 44 -14 84q74 22 166 22q38 0 59 -24q23 -26 23 -62q0 -325 -229 -444l-43 29q-37 27 -37 59zM457 1419q98 25 276 25q17 -129 17 -295v-954q0 -131 41 -166q-81 -35 -201 -35q-51 0 -80 33q-31 36 -31 125 v978q0 157 -22 289zM711 1671q0 60 39 96q40 37 98 37q54 0 86 -32q33 -33 33 -86q0 -58 -37 -95t-96 -37q-51 0 -86 35t-35 86z" />
<glyph unicode="&#x407;&#x407;" horiz-adv-x="1124" d="M-78 1671q0 59 37 96t96 37q54 0 86 -32q35 -35 35 -86q0 -60 -37 -97t-96 -37q-51 0 -86 35q-33 33 -33 86zM125 1417q92 25 274 25q15 -120 15 -295v-954q0 -132 43 -166q-78 -35 -197 -35q-53 0 -82 33q-31 36 -31 125v978q0 144 -22 289zM430 1667q0 59 37 96t98 37 q53 0 86 -33t33 -86q0 -57 -37 -94t-94 -37q-53 0 -88 35q-33 33 -33 86zM680 1413q98 25 276 25q15 -120 15 -295v-955q0 -130 41 -165q-78 -35 -197 -35q-55 0 -80 32q-28 36 -28 125l-2 977q0 147 -25 291zM934 1663q0 60 39 96q40 37 98 37q53 0 86 -33t33 -86 q0 -57 -37 -94t-96 -37q-51 0 -86 35q-33 33 -33 86z" />
<glyph unicode="&#x2019;&#x457;" horiz-adv-x="858" d="M72 999q0 18 22 43q23 26 43 74q23 54 23 131q0 26 -13 86q-12 55 -12 86q71 23 166 23q32 0 55 -23t23 -61q0 -329 -229 -445l-39 29q-39 29 -39 57zM430 967q94 24 266 24q17 -129 17 -295v-503q0 -131 41 -166q-81 -35 -197 -35q-48 0 -74 33q-28 36 -28 125l-2 526 q0 140 -23 291zM682 1257q0 61 39 97q40 37 98 37q53 0 86 -33q35 -35 35 -86q0 -58 -39 -94q-40 -37 -98 -37q-51 0 -86 35q-33 33 -33 86z" />
<glyph unicode="&#x457;&#x457;" horiz-adv-x="1077" d="M-88 1260q0 59 37 96t96 37q57 0 90 -33q35 -35 35 -86q0 -59 -37 -96t-98 -37q-51 0 -86 35q-33 33 -33 86zM119 967q89 24 264 24q14 -95 14 -295v-503q0 -133 45 -166q-81 -35 -196 -35q-52 0 -78 33q-29 37 -29 125l2 526q0 146 -22 291zM408 1257q0 61 36 97 q37 37 99 37q53 0 86 -33t33 -86q0 -59 -37 -96t-97 -37q-51 0 -86 35q-32 32 -32 86zM649 963q95 24 271 24q14 -112 14 -295v-504q0 -130 41 -165q-78 -35 -195 -35q-53 0 -78 32q-28 36 -28 125l-2 527q0 156 -23 291zM905 1255q0 60 37 97t96 37q53 0 86 -33t33 -86 q0 -59 -37 -96t-96 -37q-52 0 -86 34q-33 33 -33 86v-2z" />
<glyph unicode="&#xd;" horiz-adv-x="681" />
<glyph unicode=" "  horiz-adv-x="536" />
<glyph unicode="&#x09;" horiz-adv-x="536" />
<glyph unicode="&#xa0;" horiz-adv-x="536" />
<glyph unicode="!" horiz-adv-x="528" d="M119 125l2 2q0 66 43 109t110 43q60 0 97 -37t37 -99q0 -67 -43 -110t-113 -43q-59 0 -96 37t-37 98zM119 1430q89 24 258 24q14 -112 14 -295v-694q-67 -25 -153 -25q-103 0 -103 158v541q0 150 -16 291z" />
<glyph unicode="&#x22;" horiz-adv-x="743" d="M135 1024v467q106 0 174 -10l-18 -420q-3 -37 -41 -37h-115zM455 1024v467q107 0 172 -10l-19 -420q-3 -37 -41 -37h-112z" />
<glyph unicode="#" horiz-adv-x="1560" d="M72 506q70 3 252 6l65 408q-86 -3 -205 -23q-24 73 -24 158q70 3 252 6l10 63q18 114 24 289q92 25 246 25q-5 -92 -35 -295l-14 -84h350l11 63q18 102 24 291q98 25 252 25q-5 -92 -35 -295l-14 -84h53q132 0 166 24q37 -52 37 -108q0 -57 -158 -57h-121l-63 -410h51 q128 0 168 24q35 -53 35 -104q0 -59 -158 -59h-119l-28 -179q-11 -75 -11 -92q0 -46 27 -73q-84 -35 -188 -35q-76 0 -76 92q0 28 6 68l33 221h-350l-29 -178q-10 -68 -10 -93q0 -47 26 -73q-84 -35 -184 -35q-78 0 -78 92q0 28 6 68l35 219q-94 -3 -205 -21q-24 70 -24 156 zM557 512h350l64 410h-350z" />
<glyph unicode="$" horiz-adv-x="1171" d="M66 221q0 131 223 131q65 -221 260 -221q112 0 184 57q74 59 74 160q0 89 -74 154q-75 66 -180 108q-109 44 -211 92q-103 48 -178 136q-74 86 -74 213q0 142 92 245q90 100 269 131q-3 120 -13 228q83 24 230 24q9 -94 12 -245q157 -15 252 -80q96 -66 96 -142 q0 -58 -55 -79q-61 -23 -170 -23q-24 77 -80 127q-55 49 -141 49q-98 0 -168 -61t-70 -152q0 -70 55 -125q56 -56 138 -86q81 -30 178 -71q100 -43 178 -84q82 -43 137 -125t55 -193q0 -156 -104 -260t-297 -131v-57q0 -133 33 -166q-70 -37 -172 -37q-90 0 -90 158l-11 84 q-173 15 -276 86q-102 70 -102 155z" />
<glyph unicode="%" horiz-adv-x="1466" d="M76 1120q0 145 86 234q87 90 221 90q126 0 203 -80q78 -81 78 -211q0 -144 -86 -233t-226 -89q-121 0 -198 80q-76 79 -76 213zM135 25q0 34 66 125l946 1271q80 21 221 21l-1042 -1434q-50 -16 -144 -16q-47 0 -47 33zM248 1135q0 -75 35 -125q34 -49 90 -49q50 0 80 47 q30 46 30 120q0 80 -32 123q-35 47 -89 47q-51 0 -81 -43q-31 -45 -31 -116zM797 268q0 145 86 234q87 90 223 90q126 0 203 -80t77 -211q0 -144 -86 -233q-85 -88 -225 -88q-122 0 -198 79t-76 213zM969 283q0 -75 35 -125q34 -49 90 -49q50 0 80 47q30 46 30 120 q0 79 -33 123q-35 47 -88 47q-52 0 -82 -43t-30 -116z" />
<glyph unicode="&#x26;" horiz-adv-x="1347" d="M80 373q0 211 250 387q-113 186 -113 338q0 149 111 248q110 98 307 98q164 0 262 -76t98 -209q0 -33 -6 -63q-7 -38 -20 -60q-6 -10 -16 -27t-13 -22q-13 -23 -43 -47q-20 -16 -45 -41q-21 -21 -55 -41l-56 -35l-61 -37l-59 -34q126 -187 321 -387q39 60 74 122 q46 80 67 111q24 35 47 35q22 0 50 -25l34 -35q-62 -194 -165 -327q82 -76 86 -80q96 -90 190 -148q-48 -36 -184 -36q-101 0 -236 120q-167 -120 -375 -120q-209 0 -329 108q-121 109 -121 283zM317 375q0 -103 66 -172q65 -68 188 -68l-2 -2q118 0 219 72 q-216 205 -364 403q-107 -101 -107 -233zM459 1106l4 -4q0 -92 69 -221q107 67 164 127q56 59 56 129q0 65 -39 104q-41 41 -99 41q-68 0 -112 -53q-43 -52 -43 -123z" />
<glyph unicode="'" horiz-adv-x="434" d="M135 1024v467q106 0 174 -10l-18 -420q-3 -37 -41 -37h-115z" />
<glyph unicode="(" horiz-adv-x="655" d="M80 582q0 436 129 700t362 264v-153q-119 0 -184 -209q-63 -204 -63 -566q0 -364 63 -571q65 -213 184 -213v-153q-234 0 -362 245q-129 246 -129 656z" />
<glyph unicode=")" horiz-adv-x="655" d="M84 -162q119 0 184 209q64 207 64 563q0 362 -64 572q-65 213 -184 213v155q234 0 362 -245q129 -246 129 -656q0 -436 -129 -700t-362 -264v153z" />
<glyph unicode="*" horiz-adv-x="1062" d="M96 852v41q0 51 49 51h238l-123 213q-10 23 -10 33q0 23 43 47q45 25 65 25q23 0 41 -27l123 -215l125 215q16 29 41 29q22 0 66 -27q43 -27 43 -45q0 -7 -11 -33l-122 -213h243q51 0 51 -51v-41q0 -51 -51 -51h-256l135 -234q11 -26 11 -30q0 -23 -43 -50 q-42 -26 -66 -26q-22 0 -41 29l-123 210l-121 -210q-19 -29 -41 -29q-23 0 -65 26q-43 27 -43 50q0 7 10 30l131 232h-250q-49 0 -49 51z" />
<glyph unicode="+" horiz-adv-x="1062" d="M90 680q101 8 295 8h53v334h180v-334h154q124 0 166 25q35 -53 35 -105q0 -59 -156 -59h-199v-354h-180l2 352h-32q-140 0 -291 -23q-27 76 -27 156z" />
<glyph unicode="," horiz-adv-x="512" d="M98 -190q0 20 21 47q24 31 41 77q18 50 18 121q0 34 -14 86q-16 61 -19 84q74 23 170 23q40 0 66 -23q25 -22 25 -61q0 -325 -234 -445l-35 33q-39 29 -39 58z" />
<glyph unicode="-" horiz-adv-x="684" d="M74 621q101 8 295 8h43q132 0 166 24q34 -52 34 -108q0 -58 -157 -58h-66q-156 0 -291 -24q-24 73 -24 158z" />
<glyph unicode="." horiz-adv-x="512" d="M111 125v2q0 66 43 109t112 43q59 0 96 -37t37 -99q0 -67 -43 -110t-112 -43q-60 0 -97 37q-36 36 -36 98z" />
<glyph unicode="/" horiz-adv-x="1050" d="M33 -162q0 34 30 107l558 1233q74 160 108 290q103 25 258 25q-40 -119 -121 -295l-547 -1210q-34 -75 -34 -166q-87 -35 -193 -35q-59 0 -59 51z" />
<glyph unicode="0" horiz-adv-x="1253" d="M80 662q0 324 156 526q156 203 405 203q236 0 381 -189t145 -491q0 -325 -155 -523q-156 -200 -408 -200q-233 0 -377 188q-143 186 -143 492zM362 686q0 -245 74 -399t189 -154q114 0 182 152q67 149 67 393q0 249 -73 401q-74 154 -187 154q-112 0 -180 -152 q-67 -149 -67 -393z" />
<glyph unicode="1" horiz-adv-x="778" d="M43 1067q0 41 45 86q79 76 264 215q98 25 271 25q14 -112 14 -295v-903q0 -130 22 -166q-72 -35 -178 -35q-47 0 -75 31q-27 30 -27 127v1005q-150 -104 -283 -172l-39 45q-14 14 -14 37z" />
<glyph unicode="2" horiz-adv-x="1052" d="M76 1110q53 132 164 209q110 76 274 76q198 0 324 -105q127 -106 127 -274l2 -12q0 -110 -62 -216q-61 -104 -149 -186q-80 -75 -178 -156q-92 -77 -160 -153q-69 -78 -82 -152h434q136 0 166 27q37 -46 37 -111q0 -33 -31 -49q-32 -16 -127 -16h-412q-144 0 -290 -17 q-27 76 -27 154q0 79 61 164q64 88 150 166l176 159q84 75 150 177q61 94 61 188q0 113 -63 182q-66 72 -175 72q-64 0 -114 -27q-48 -26 -74 -59l-47 -59q-24 -27 -39 -27q-29 0 -55 20z" />
<glyph unicode="3" horiz-adv-x="1103" d="M92 1110q49 125 170 205t283 80q185 0 299 -99t114 -258q0 -105 -49 -184q-48 -77 -139 -125q119 -41 182 -131q66 -94 66 -217q0 -178 -133 -287q-132 -108 -357 -108q-192 0 -313 77t-121 166q0 101 152 101q26 -84 92 -137q64 -52 156 -52l-9 -4q107 0 172 68 q66 69 66 180q0 113 -57 182q-60 72 -154 72h-45q-61 0 -113 -8q-14 71 -14 147q45 10 117 10h43q74 0 121 62t47 156q0 108 -56 170q-55 61 -153 61q-61 0 -111 -27q-48 -26 -74 -59l-47 -59q-21 -27 -37 -27q-22 0 -55 20z" />
<glyph unicode="4" horiz-adv-x="1157" d="M57 416l582 952q98 25 276 25q15 -120 15 -295v-668q100 0 135 27q37 -46 37 -117q0 -61 -158 -61h-14v-86q0 -131 41 -166q-78 -35 -197 -35q-51 0 -80 33q-30 35 -30 125v129h-291q-143 0 -289 -17q-27 76 -27 154zM279 428h385v662z" />
<glyph unicode="5" horiz-adv-x="1091" d="M82 225q0 101 151 101q23 -83 91 -138q63 -51 153 -51q110 0 176 78t66 209q0 130 -57 207q-59 80 -150 80h-84q-101 0 -244 -11q-24 73 -24 152l45 520q101 8 295 8h202q131 0 166 41q37 -64 37 -123q0 -34 -31 -49q-32 -16 -124 -16l-228 -8q-85 0 -108 -2l-33 -369 h225q178 0 289 -117t111 -305q0 -203 -134 -328q-131 -122 -362 -122q-186 0 -307 77t-121 166z" />
<glyph unicode="6" horiz-adv-x="1132" d="M82 625q0 362 178 567t457 205q94 0 127 -33q35 -35 35 -98h-5q-241 0 -364 -111t-150 -342q119 98 279 98q181 0 295 -120q113 -119 113 -314q0 -217 -138 -352t-346 -135q-223 0 -352 166t-129 469zM352 553q9 -201 68 -313q58 -111 151 -111q84 0 140 86q55 85 55 221 q0 147 -61 238q-62 92 -158 92l-4 -4q-74 0 -123 -55q-50 -56 -68 -154z" />
<glyph unicode="7" horiz-adv-x="1077" d="M47 1315q0 32 31 51q30 18 127 18h473q141 0 291 17q24 -71 24 -154q-25 -101 -100 -295l-303 -759q-47 -121 -47 -166q-68 -35 -181 -35q-37 0 -55 12t-18 49q0 33 24 97l312 780q79 205 104 301h-479q-132 0 -166 -27q-37 46 -37 111z" />
<glyph unicode="8" horiz-adv-x="1128" d="M80 352q0 231 217 357q-191 114 -191 307q0 164 121 270q120 105 332 105q204 0 324 -99q121 -100 121 -254q0 -211 -203 -331q109 -57 172 -136q61 -76 61 -196q0 -179 -133 -285q-131 -104 -356 -104q-217 0 -340 102t-123 270zM317 367q0 -103 62 -168q61 -64 164 -64 q95 0 159 55q66 57 66 148h-4q0 52 -21 92q-21 41 -69 74q-50 35 -86 55q-32 18 -111 55q-160 -77 -160 -247zM356 1032h2q0 -84 62 -137q56 -48 182 -100q154 71 154 225q0 95 -58 156t-143 61q-83 0 -141 -61t-58 -144z" />
<glyph unicode="9" horiz-adv-x="1124" d="M82 922q0 209 137 340t346 131q224 0 350 -166q125 -165 125 -494q0 -351 -147 -547t-408 -196q-142 0 -245 53t-103 117q0 82 154 82l-4 -4q17 -40 84 -76q62 -33 141 -33q119 0 180 107t70 362q-116 -96 -281 -96q-178 0 -288 116q-111 117 -111 304zM360 954 q0 -135 60 -223q59 -86 151 -86h-2q73 0 121 51q50 53 68 142q-27 405 -209 405q-82 0 -135 -80q-54 -82 -54 -209z" />
<glyph unicode=":" horiz-adv-x="512" d="M111 125v2q0 66 43 109t112 43q59 0 96 -37t37 -99q0 -67 -43 -110t-112 -43q-60 0 -97 37q-36 36 -36 98zM111 846v2q0 65 43 108t112 43q60 0 96 -36q37 -37 37 -99q0 -67 -43 -110t-112 -43q-60 0 -97 37q-36 36 -36 98z" />
<glyph unicode=";" horiz-adv-x="512" d="M100 -188q0 20 21 47q24 31 41 78q18 49 18 120q0 34 -14 86q-16 61 -19 84q74 23 170 23q40 0 66 -23q25 -22 25 -61q0 -325 -234 -445l-35 33q-39 29 -39 58zM129 844l2 2q0 65 43 108t111 43q60 0 96 -36q37 -37 37 -99q0 -67 -43 -110t-113 -43q-60 0 -96 36 q-37 37 -37 99z" />
<glyph unicode="&#x3c;" horiz-adv-x="1034" d="M78 610q101 77 174 127l215 140l158 100q82 55 153 55q44 0 99 -22l69 -45q-155 -114 -559 -357q412 -248 559 -356l-76 -41q-44 -21 -96 -21q-70 0 -153 56l-154 96l-223 145q-96 67 -166 123z" />
<glyph unicode="=" horiz-adv-x="1107" d="M90 492q101 8 295 8h432q131 0 166 24q37 -52 37 -108q0 -58 -158 -58h-454q-156 0 -291 -24q-27 80 -27 158zM90 926q120 10 297 10h432q130 0 166 22q37 -52 37 -104q0 -59 -158 -59l-456 -2q-140 0 -291 -23q-27 76 -27 156z" />
<glyph unicode="&#x3e;" horiz-adv-x="1034" d="M76 252q135 97 559 356q-415 253 -559 357l76 41q49 22 98 22q73 0 153 -57l158 -97l223 -141q104 -70 170 -123q-87 -67 -168 -121l-227 -145l-151 -94q-79 -55 -154 -55q-52 0 -96 20z" />
<glyph unicode="?" horiz-adv-x="968" d="M74 1159q50 134 153 209q104 76 256 76q172 0 291 -96q117 -94 117 -244q0 -84 -43 -166q-44 -82 -96 -135q-53 -53 -97 -115q-43 -61 -43 -108v-134q-58 -24 -147 -24q-111 0 -111 127l-4 -6q0 76 41 147q41 70 90 117q48 45 90 115q41 68 41 141q0 94 -55 158 q-56 65 -143 65q-56 0 -101 -26q-42 -24 -67 -60q-26 -37 -43 -59q-21 -27 -37 -27q-21 0 -51 21zM348 125v2q0 66 43 109t109 43q63 0 100 -37t37 -99q0 -67 -43 -110t-109 -43q-63 0 -100 37t-37 98z" />
<glyph unicode="@" horiz-adv-x="2129" d="M94 410q0 488 277 768t737 280q417 0 672 -231q254 -230 254 -645q0 -292 -136 -443q-134 -149 -370 -149q-285 0 -285 227q-35 -108 -106 -168q-73 -61 -185 -61q-159 0 -258 123q-98 122 -98 329q0 248 145 402q144 153 392 153q231 0 356 -110q14 -106 14 -281 l-6 -315q0 -156 121 -156q156 0 156 342q0 425 -191 631q-192 207 -504 207q-342 0 -538 -230q-197 -232 -197 -626q0 -392 213 -590q212 -197 576 -197q163 0 292 33q148 38 220 68q81 34 116 34q23 0 43 -20l27 -23q-102 -108 -303 -172q-198 -63 -477 -63q-201 0 -369 47 q-167 47 -301 145t-211 275q-76 174 -76 416zM870 481q0 -162 50 -254t120 -92q82 0 140 105q59 106 59 239l-2 115q0 112 -14 207q-51 51 -136 51q-101 0 -159 -104t-58 -267z" />
<glyph unicode="A" horiz-adv-x="1466" d="M80 39q0 37 26 111l386 976q48 120 88 291q89 25 272 25q61 -126 127 -295l371 -954q53 -132 104 -166q-68 -35 -194 -35q-120 0 -179 158l-90 245h-561l-76 -200q-43 -113 -43 -166q-81 -35 -176 -35q-55 0 -55 45zM485 545h447l-225 583z" />
<glyph unicode="B" horiz-adv-x="1290" d="M121 1405q98 25 276 25h330q187 0 301 -99q115 -100 115 -254q0 -110 -56 -196t-155 -131q130 -41 203 -132t73 -221q0 -177 -135 -288t-352 -111h-262q-150 0 -291 -16q-25 73 -25 153v983l2 -4q0 153 -24 291zM408 1278q4 -132 4 -145v-322h227l2 -2q99 0 158 65 t59 166q0 104 -63 170q-65 68 -166 68h-221zM412 145l262 -2q109 0 178 72q68 71 68 184q0 116 -72 191q-71 74 -184 74h-252v-519z" />
<glyph unicode="C" horiz-adv-x="1357" d="M82 680q0 343 190 551q191 209 514 209q217 0 353 -80q135 -80 135 -176q0 -107 -217 -107q-27 93 -103 154q-74 59 -182 59q-176 0 -289 -155q-112 -153 -112 -406v-6q0 -261 114 -424q113 -162 301 -162q90 0 170 23q70 20 109 47q64 45 68 47q36 22 57 22q20 0 55 -18 l39 -25q-64 -107 -209 -178q-141 -69 -321 -69q-311 0 -492 190q-180 189 -180 504z" />
<glyph unicode="D" horiz-adv-x="1449" d="M119 1409q98 25 276 25h316l-2 -4q288 0 467 -191q178 -190 178 -502q0 -328 -191 -534q-190 -205 -493 -205h-211q-150 0 -291 -16q-25 73 -25 153v983q0 153 -24 291zM403 1280q1 -27 3 -77.5t2 -67.5v-990l286 -2q167 0 269 156t102 408q0 255 -107 413 q-109 160 -276 160h-279z" />
<glyph unicode="E" horiz-adv-x="1222" d="M121 1419q120 15 295 15h499q131 0 166 18q37 -43 37 -109q0 -59 -157 -59h-555q4 -118 4 -139v-332h458q129 0 166 16q35 -44 35 -108q0 -59 -158 -59l-499 -3v-469v-14v-14v-12h530q133 0 166 26q35 -47 35 -117q0 -61 -158 -61h-524q-150 0 -291 -16q-25 73 -25 153 v989q0 157 -24 295z" />
<glyph unicode="F" horiz-adv-x="1159" d="M119 1417q120 15 295 15h463q127 0 165 18q35 -44 35 -109q0 -28 -30 -43q-28 -14 -123 -14l-521 -6q1 -23 2 -52.5t2 -49t1 -33.5v-334h417q129 0 166 16q37 -43 37 -108q0 -60 -158 -60h-462v-469q0 -132 26 -165q-78 -35 -190 -35q-49 0 -74 32q-27 35 -27 125v977 q0 157 -24 295z" />
<glyph unicode="G" horiz-adv-x="1425" d="M84 680q0 344 192 551q194 209 517 209q217 0 356 -80q137 -79 137 -176q0 -107 -217 -107q-27 95 -104 154t-185 59q-182 0 -295 -155q-114 -156 -114 -406h2q0 -262 116 -424t308 -162q140 0 239 45v258q0 84 -6 166q-139 -3 -233 -12q-27 70 -27 148q95 14 297 14h219 q14 -95 14 -297v-232q-68 -108 -210 -178q-141 -69 -322 -69q-316 0 -500 190t-184 504z" />
<glyph unicode="H" horiz-adv-x="1433" d="M121 1417q98 25 276 25q15 -120 15 -295v-338h614v317q0 150 -16 291q92 25 268 25q14 -112 14 -295v-954q0 -132 43 -166q-81 -35 -200 -35q-51 0 -80 33q-31 36 -31 125v509h-614v-466q0 -133 26 -166q-78 -35 -190 -35q-48 0 -74 33q-27 35 -27 125v976q0 153 -24 291 z" />
<glyph unicode="I" horiz-adv-x="550" d="M117 1417q98 25 276 25q15 -120 15 -295v-954q0 -131 41 -166q-78 -35 -197 -35q-54 0 -80 33q-29 37 -29 125l-2 976q0 153 -24 291z" />
<glyph unicode="J" horiz-adv-x="559" d="M-49 -346q88 0 143 76q56 77 56 190l2 1206q0 156 -23 291q103 25 274 25q17 -129 17 -295v-1194q0 -188 -98 -307t-240 -119q-56 0 -94 35q-37 34 -37 92z" />
<glyph unicode="K" horiz-adv-x="1323" d="M117 1417q103 25 260 25q31 -112 31 -215v-441l315 359q59 68 221 291q71 8 254 8q-105 -165 -203 -283l-340 -395l465 -567q102 -129 178 -172q-53 -39 -180 -39q-138 0 -258 164l-454 557v-514q0 -123 22 -172q-67 -31 -178 -31q-54 0 -80 33q-29 37 -29 125v983 q0 146 -24 284z" />
<glyph unicode="L" d="M119 1417q98 25 276 25q15 -120 15 -295v-954v-15v-14v-12h499q135 0 164 26q37 -46 37 -117q0 -61 -158 -61l-493 -2q-150 0 -291 -16q-25 73 -25 153v991q0 153 -24 291z" />
<glyph unicode="M" horiz-adv-x="1908" d="M92 92q0 28 37 283l72 508l37 245q16 157 16 291q103 25 283 25q69 -117 104 -221l311 -926l285 833q44 122 80 302q113 10 280 10q32 -123 58 -295l135 -954q18 -128 65 -166q-72 -35 -196 -35q-50 0 -86 31q-33 29 -49 127l-125 858l-291 -811q-41 -118 -41 -170 q-60 -31 -172 -31q-50 0 -86 33q-35 32 -70 125l-305 841l-108 -798q-11 -75 -11 -88q0 -51 29 -80q-78 -35 -176 -35q-76 0 -76 98z" />
<glyph unicode="N" horiz-adv-x="1413" d="M117 1417q80 25 231 25v-4l701 -961v649q0 141 -17 291q77 25 221 25q15 -120 15 -295v-954q0 -131 41 -166q-72 -35 -172 -35q-48 0 -68 39v-2l-707 968v-804q0 -132 27 -166q-72 -35 -162 -35q-41 0 -61 33q-23 38 -23 125l-2 976q0 153 -24 291z" />
<glyph unicode="O" horiz-adv-x="1499" d="M84 694q0 335 190 543q191 209 496 209q288 0 467 -197q178 -196 178 -512q0 -334 -190 -542q-191 -209 -498 -209q-287 0 -465 196t-178 512zM369 721q0 -259 108 -418q109 -160 277 -160q165 0 268 158q102 156 102 412q0 261 -106 417q-109 160 -277 160 q-165 0 -268 -157q-102 -156 -102 -412h-2z" />
<glyph unicode="P" horiz-adv-x="1210" d="M117 1407q98 25 276 25h215q231 0 375 -117q145 -118 145 -305q0 -201 -155 -326t-406 -125h-159v-366q0 -133 26 -166q-78 -35 -190 -35q-48 0 -74 33q-27 35 -27 125l-2 966q0 153 -24 291zM403 1282v4q1 -27 3 -77.5t2 -67.5v-428h186q116 0 188 78t72 202 q0 130 -76 209q-77 80 -196 80h-179z" />
<glyph unicode="Q" horiz-adv-x="1499" d="M74 692q0 335 190 543q191 209 496 209q288 0 467 -197q178 -196 178 -512q0 -229 -94 -407q-95 -178 -264 -267q15 -5 61 -26t78 -33q9 -4 65 -20q44 -13 68 -13q46 0 86 19q45 -62 45 -117q0 -82 -88 -82q-49 0 -105 16q-43 12 -137 60q-25 13 -48 24t-38 18t-18 9 q-167 72 -289 72l-10 -4q-287 0 -465 196t-178 512zM358 717q0 -258 109 -418t276 -160q166 0 269 158q102 156 102 412q0 261 -106 417q-109 160 -277 160q-165 0 -268 -158t-103 -411h-2z" />
<glyph unicode="R" horiz-adv-x="1265" d="M117 1409q98 25 276 25h225q232 0 373 -117q142 -118 142 -305q0 -132 -74 -238t-205 -158l248 -415q82 -137 141 -172q-64 -37 -184 -37q-129 0 -215 164l-244 409h-192v-372q0 -133 26 -166q-78 -35 -190 -35q-48 0 -74 33q-27 35 -27 125l-2 968q0 153 -24 291z M401 1286q1 -27 3 -77.5t2 -67.5v-424h196q112 0 184 78t72 202q0 127 -74 207t-192 80h-189z" />
<glyph unicode="S" horiz-adv-x="1171" d="M76 231q0 131 223 131l-16 -10q65 -221 260 -221q112 0 184 57q74 59 74 160q0 89 -74 154q-75 66 -180 108q-109 44 -211 92q-103 48 -178 136q-74 86 -74 213q0 173 131 280q133 109 375 109q191 0 313 -70q123 -70 123 -160q0 -59 -55 -80q-58 -22 -170 -22 q-24 77 -80 127q-55 49 -141 49q-98 0 -168 -61t-70 -152q0 -70 55 -125q56 -56 138 -86q66 -24 178 -72q110 -47 178 -83q82 -43 137 -125t55 -193q0 -179 -139 -291q-137 -110 -399 -110q-212 0 -340 73q-129 73 -129 172z" />
<glyph unicode="T" horiz-adv-x="1318" d="M49 1421q120 15 295 15h725q135 0 164 26q37 -46 37 -116q0 -62 -158 -62l-315 -2q2 -31 2 -137v-955q0 -130 41 -165q-81 -35 -201 -35q-51 0 -80 33q-31 36 -31 124v977q0 90 -4 160h-159q-150 0 -291 -16q-25 73 -25 153z" />
<glyph unicode="U" horiz-adv-x="1488" d="M117 1417q98 25 276 25q15 -120 15 -295v-590q0 -188 94 -301q95 -115 246 -115q148 0 239 113q92 115 92 295v577q0 166 -14 289q92 25 264 25q17 -129 17 -295v-570q0 -260 -172 -423q-173 -164 -451 -164q-260 0 -420 151t-160 398l-2 589q0 153 -24 291z" />
<glyph unicode="V" horiz-adv-x="1447" d="M53 1419q103 25 281 25q72 -110 112 -219l336 -942l312 850q49 140 86 301q113 10 219 10q-12 -88 -60 -213l-395 -1036q-47 -127 -47 -172q-60 -31 -172 -31q-50 0 -86 33q-37 34 -74 125l-372 978q-41 110 -140 291z" />
<glyph unicode="W" horiz-adv-x="2195" d="M43 1421q106 25 283 25q63 -99 98 -219l274 -903l242 806q48 160 70 302q120 10 221 10q69 -113 98 -215l264 -901l252 809q53 181 72 301q73 8 221 8q-16 -110 -51 -213l-340 -1036q-34 -106 -37 -172q-60 -31 -172 -31q-52 0 -88 33q-37 34 -64 125l-270 890l-270 -841 q-37 -112 -37 -172q-60 -31 -172 -31q-51 0 -84 33t-68 125l-319 976q-39 118 -123 291z" />
<glyph unicode="X" horiz-adv-x="1458" d="M72 1417q92 25 295 25q99 -113 227 -295l176 -244l162 227q103 141 192 304l2 2q57 8 250 8q-46 -101 -127 -215l-354 -498l389 -538q93 -130 160 -166q-62 -35 -197 -35q-127 0 -246 158l-305 423l-274 -383q-91 -130 -105 -186q-41 -12 -184 -12q-49 0 -49 33 q0 34 61 122l428 601l-270 378q-111 156 -231 291z" />
<glyph unicode="Y" horiz-adv-x="1417" d="M49 1417q92 25 295 25q76 -94 203 -295l190 -297l178 280q104 168 166 304q57 8 252 8q-48 -116 -110 -213l-385 -615v-421q0 -131 41 -166q-81 -35 -201 -35q-51 0 -80 33q-31 36 -31 125l4 468l-315 508q-85 133 -207 291z" />
<glyph unicode="Z" horiz-adv-x="1312" d="M84 133l813 1149h-606q-131 0 -166 -27q-37 46 -37 117q0 62 158 62h667q150 0 291 16q25 -73 25 -154l-813 -1149h616q132 0 166 27q35 -47 35 -117q0 -61 -158 -61h-676q-149 0 -290 -16q-25 73 -25 153z" />
<glyph unicode="[" horiz-adv-x="663" d="M135 -307v1843h451v-141h-224v-1561h224v-141h-451z" />
<glyph unicode="\" horiz-adv-x="1171" d="M66 1468q86 25 253 25q71 -118 150 -295l551 -1210q62 -132 119 -166q-65 -35 -178 -35q-108 0 -179 158l-561 1235q-77 162 -155 288z" />
<glyph unicode="]" horiz-adv-x="663" d="M86 -166h223v1561h-223v141h451v-1843h-451v141z" />
<glyph unicode="^" horiz-adv-x="1087" d="M82 1061q0 35 45 74q197 179 399 325q172 -123 340 -268q109 -89 144 -92q-3 -32 -27 -76q-24 -43 -57 -43q-28 0 -76 31q-45 32 -172 133q-141 112 -156 123q-240 -196 -393 -293l-29 39q-18 21 -18 47z" />
<glyph unicode="_" horiz-adv-x="1153" d="M0 -63h1153v-142h-1153v142z" />
<glyph unicode="`" horiz-adv-x="548" d="M53 1358h2q43 87 86 133q71 -50 217 -172q102 -82 144 -88q-3 -37 -21 -78t-51 -41q-24 0 -63 25q-32 22 -154 116q-118 91 -160 105z" />
<glyph unicode="a" horiz-adv-x="1087" d="M90 238q0 156 164 245q169 92 436 115v66q0 85 -51 133q-52 49 -135 49q-78 0 -129 -51q-53 -53 -53 -123q-203 0 -203 110q0 81 121 146t307 65q180 0 289 -86q108 -85 108 -227v-487q0 -132 43 -166q-81 -35 -196 -35q-48 0 -74 33q-29 37 -29 125l6 57 q-34 -101 -110 -162t-197 -61q-134 0 -215 69q-82 70 -82 185zM350 262q0 -56 37 -90q38 -35 94 -35l4 2q77 0 142 80q64 79 67 176v84q-344 -35 -344 -217z" />
<glyph unicode="b" horiz-adv-x="1144" d="M121 1468q92 25 264 25q14 -95 14 -295v-395q76 192 301 192q164 0 265 -125q102 -126 102 -325q0 -251 -147 -404t-385 -153q-175 0 -285 61q-111 62 -111 195l4 936q0 143 -22 288zM399 291q0 -74 13 -121q53 -35 135 -35q115 0 176 107t61 276q0 153 -49 244 q-50 92 -131 92q-82 0 -141 -86t-62 -209v-268h-2z" />
<glyph unicode="c" horiz-adv-x="1050" d="M78 471q0 236 139 381t373 145q163 0 264 -73q100 -72 100 -156q0 -96 -192 -96q-18 80 -64 129t-110 49q-98 0 -162 -98t-64 -252v-4q0 -162 68 -265q66 -100 178 -100q77 0 137 29q56 27 84 55q27 27 43 27q20 0 56 -19l39 -22q-50 -96 -158 -154q-109 -59 -244 -59 q-223 0 -356 133q-131 131 -131 350z" />
<glyph unicode="d" horiz-adv-x="1136" d="M72 440q0 249 141 402t373 153q91 0 153 -39v222q0 152 -24 290h-4q98 25 270 25q14 -112 14 -295v-1005q0 -132 43 -166q-81 -35 -196 -35q-48 0 -74 33q-29 37 -29 125v73q-76 -235 -301 -235q-163 0 -264 125q-102 126 -102 327zM350 469q0 -153 49 -244 q50 -92 127 -92l-4 -4q83 0 148 109q63 105 63 237v311q-60 60 -158 60q-101 0 -163 -105q-62 -106 -62 -272z" />
<glyph unicode="e" horiz-adv-x="1069" d="M78 465q0 235 135 379q136 145 350 145q205 0 316 -108q110 -107 110 -295q-3 -70 -45 -123h-590q9 -150 80 -242t184 -92q80 0 136 27q54 26 86 55q30 27 45 27q19 0 55 -19l39 -24q-53 -92 -160 -150q-105 -57 -246 -57q-222 0 -358 133q-135 132 -135 350zM358 596 h375q-21 248 -180 248h-2q-72 0 -125 -68q-53 -69 -68 -180z" />
<glyph unicode="f" horiz-adv-x="884" d="M55 973q129 6 146 6v141q0 170 100 273q101 104 270 104q126 0 203 -45q80 -47 80 -98q0 -109 -184 -109q-9 46 -33 76q-25 31 -59 31q-51 0 -86 -56q-33 -53 -33 -143v-170h139q136 0 172 25q37 -52 37 -109t-158 -57l-190 2v-649q0 -130 22 -172q-67 -31 -178 -31 q-48 0 -74 33q-28 36 -28 125v684q-72 -8 -121 -19q-25 77 -25 158z" />
<glyph unicode="g" horiz-adv-x="1140" d="M57 -217q0 98 62 160q61 61 133 67l45 4q-158 35 -158 185q0 118 94 188q-120 89 -120 248v-6q0 158 123 260q121 100 317 100q107 0 192 -33q73 150 220 150q79 0 116 -43t37 -94q0 -97 -129 -97q-9 42 -37 70q-27 27 -61 27q-46 0 -86 -43q149 -88 149 -264 q0 -158 -125 -259q-124 -100 -319 -100q-81 0 -143 16q-37 -40 -37 -79q0 -53 55 -74t137 -21q84 0 178 -6q106 -7 179 -20q81 -15 137 -74q55 -58 55 -160q0 -168 -143 -262q-146 -96 -418 -96q-213 0 -334 65q-119 64 -119 191zM311 -182q0 -80 64 -129t178 -49 q120 0 184 55q66 57 66 141l-2 -2q0 46 -19 78q-19 31 -47 47q-30 17 -76 25q-55 10 -88 10h-100q-73 0 -96 2q-64 -73 -64 -178zM356 647q0 -93 54 -153q52 -58 129 -58t125 60q45 57 45 141q0 96 -52 154q-53 59 -129 59q-77 0 -122 -57q-46 -58 -46 -144z" />
<glyph unicode="h" d="M115 1466q92 25 252 25q28 -106 28 -217v-496q40 101 140 166q98 64 229 64q121 0 197 -82q77 -83 77 -211v-522q0 -132 43 -166q-81 -35 -196 -35q-48 0 -74 33q-29 37 -29 125v509q0 89 -41 148q-39 57 -102 57q-91 0 -164 -104q-75 -107 -78 -230v-337q0 -125 25 -170 q-67 -31 -178 -31q-52 0 -78 33q-29 37 -29 125v1028q0 143 -22 288z" />
<glyph unicode="i" horiz-adv-x="538" d="M119 967q89 24 264 24q14 -95 14 -295v-503q0 -132 43 -166q-81 -35 -194 -35q-52 0 -78 33q-29 37 -29 125l2 526q0 146 -22 291zM119 1331q0 65 43 105q44 41 110 41q60 0 97 -37t37 -99q0 -63 -44 -104t-110 -41q-57 0 -94 37t-37 96z" />
<glyph unicode="j" horiz-adv-x="544" d="M-55 -346q205 0 205 264l4 756q0 140 -23 291q89 24 264 24q15 -102 15 -295v-743q0 -193 -88 -309q-88 -117 -252 -117q-56 0 -90 37q-35 38 -35 92zM125 1329l2 -2q0 64 43 107t109 43q59 0 96 -37t37 -99q0 -64 -43 -104q-44 -41 -111 -41q-59 0 -96 37t-37 96z" />
<glyph unicode="k" horiz-adv-x="1083" d="M113 1470q92 25 252 25q28 -106 28 -217v-719l117 129l72 84q34 40 84 105l75 100q105 10 246 10q-80 -123 -209 -282l-147 -173l268 -331q114 -138 172 -172q-61 -37 -182 -37q-129 0 -240 164l-254 315v-274q0 -125 25 -170q-67 -31 -178 -31q-52 0 -78 33 q-29 37 -29 125v1028q0 143 -22 288z" />
<glyph unicode="l" horiz-adv-x="538" d="M119 1468q92 25 264 25q14 -95 14 -295v-1005q0 -132 43 -166q-81 -35 -194 -35q-52 0 -78 33q-29 37 -29 125l2 1030q0 143 -22 288z" />
<glyph unicode="m" horiz-adv-x="1689" d="M113 967q89 24 252 24q28 -106 28 -217v-10q34 103 117 168q81 63 199 63q98 0 168 -61t88 -164q35 104 116 164q82 61 199 61q122 0 195 -82t73 -211v-509q0 -131 41 -166q-81 -35 -194 -35q-52 0 -78 33q-29 37 -29 125v497q0 93 -33 146q-34 55 -86 55q-66 0 -122 -86 t-74 -201v-368q0 -131 26 -170q-67 -31 -178 -31q-52 0 -78 33q-28 36 -28 125v501q0 93 -33 146q-34 55 -86 55q-75 0 -135 -100q-63 -105 -66 -224v-333q0 -125 25 -170q-67 -31 -178 -31q-52 0 -78 33q-29 37 -29 125v526q0 144 -22 289z" />
<glyph unicode="n" d="M113 967q89 24 252 24q28 -106 28 -217v-10q40 103 139 168q97 63 232 63q121 0 197 -82q77 -83 77 -211v-509q0 -132 43 -166q-81 -35 -196 -35q-48 0 -74 33q-29 37 -29 125l-2 499q0 90 -41 146q-40 55 -102 55q-92 0 -164 -100q-75 -104 -78 -222v-333 q0 -125 25 -170q-67 -31 -178 -31q-52 0 -78 33q-29 37 -29 125v526q0 144 -22 289z" />
<glyph unicode="o" horiz-adv-x="1138" d="M78 469q0 237 141 381q142 145 373 145q206 0 336 -133q129 -132 129 -348q0 -236 -142 -381t-372 -145q-204 0 -334 133q-129 132 -129 348h-2zM356 500q0 -161 62 -264t157 -103q91 0 146 98t55 254q0 164 -61 265q-61 102 -160 102q-88 0 -143 -98q-56 -100 -56 -254z " />
<glyph unicode="p" horiz-adv-x="1144" d="M113 965q89 24 252 24q28 -106 28 -217v-10q35 109 111 170t194 61q164 0 265 -125q102 -126 102 -327q0 -248 -131 -400q-132 -153 -352 -153q-112 0 -183 53v-311q0 -124 25 -172q-73 -31 -178 -31q-52 0 -78 33q-29 37 -29 125l-4 991q0 144 -22 289zM395 193 q70 -58 174 -58q99 0 154 105q55 104 55 274q0 155 -51 244q-53 92 -131 92v2q-81 0 -139 -104q-59 -106 -62 -230v-325z" />
<glyph unicode="q" horiz-adv-x="1140" d="M80 440q0 249 147 402t383 153q253 0 381 -110q15 -114 15 -281l-2 -874q0 -132 40 -166q-75 -37 -196 -37q-48 0 -74 33q-29 37 -29 125v534q-71 -231 -301 -231q-163 0 -264 125q-100 124 -100 327zM360 469q0 -153 52 -244q53 -92 131 -92q80 0 141 107t61 239l3 109 q0 105 -15 207q-57 51 -153 51q-102 0 -160 -105q-60 -108 -60 -272z" />
<glyph unicode="r" horiz-adv-x="964" d="M119 961q89 24 252 24q28 -106 28 -217v-23q26 109 103 179q73 67 180 67q86 0 141 -67q56 -68 56 -156q0 -104 -201 -104q-6 76 -35 133q-27 53 -68 53q-69 0 -122 -115t-56 -264v-278l4 -5q0 -125 25 -170q-64 -30 -178 -30q-53 0 -78 32q-29 37 -29 125v527 q0 144 -22 289z" />
<glyph unicode="s" horiz-adv-x="911" d="M78 176q0 105 184 105l6 -9q40 -147 166 -147q66 0 105 33q41 35 41 88q0 52 -50 96q-52 46 -118 74q-102 43 -142 63q-69 34 -118 92q-50 59 -50 142q0 119 99 198q100 80 276 80q146 0 238 -53t92 -123q0 -48 -45 -65q-49 -19 -141 -19q-44 115 -142 115q-56 0 -92 -33 q-37 -34 -37 -82q0 -53 49 -90q52 -40 121 -66q80 -31 142 -61q73 -36 120 -94q49 -61 49 -144q0 -129 -104 -208q-106 -80 -291 -80q-162 0 -260 55t-98 133z" />
<glyph unicode="t" horiz-adv-x="858" d="M39 979q129 6 141 6q1 10 13 62q15 68 16 73q6 34 6 74q82 18 203 18q9 -92 12 -229h115q134 0 170 25q35 -53 35 -109q0 -57 -158 -57l-164 10v-557q0 -68 37 -111t98 -43q44 0 76 19t47 37t25 18q26 0 55 -20l39 -23q-35 -80 -111 -129t-172 -49q-158 0 -254 78 q-94 76 -94 202v564q-2 0 -14 -2t-39.5 -6.5t-57.5 -8.5q-24 73 -24 158z" />
<glyph unicode="u" d="M119 967q89 24 264 24q14 -95 14 -295l-2 -350q0 -92 43 -153q44 -62 107 -62q88 0 160 100q74 103 77 228v217q0 151 -14 299q101 16 258 16q14 -112 14 -295v-503q0 -132 43 -166q-81 -35 -196 -35q-48 0 -74 33q-29 37 -29 125v63q-42 -99 -139 -162q-94 -61 -225 -61 q-119 0 -199 86t-80 221v381q0 144 -22 289z" />
<glyph unicode="v" horiz-adv-x="1130" d="M51 967q88 24 256 24q64 -94 111 -215l182 -512l156 414q56 142 92 301q113 10 213 10q-21 -112 -62 -213l-239 -581q-44 -103 -47 -172q-54 -31 -156 -31q-47 0 -80 33q-32 32 -67 125l-217 526q-71 165 -142 291z" />
<glyph unicode="w" horiz-adv-x="1695" d="M63 969q89 24 252 24q64 -104 101 -217l153 -493l119 395q49 161 70 301q110 10 205 10q64 -105 100 -215l147 -493l125 397q60 197 74 301q110 10 205 10q-15 -116 -49 -213l-209 -581q-39 -101 -39 -170q-57 -31 -158 -31q-47 0 -80 33q-34 34 -61 125l-148 495 l-157 -452q-35 -103 -35 -172q-57 -31 -158 -31q-47 0 -76 33q-28 32 -63 125l-191 528q-45 133 -127 291z" />
<glyph unicode="x" horiz-adv-x="1116" d="M53 967q82 24 283 24q95 -109 233 -295l25 -34l10 14q112 150 199 301l-8 2q92 10 245 10q-52 -111 -129 -213l-200 -276l225 -305q93 -130 164 -166q-56 -35 -189 -35q-118 0 -233 158l-156 210l-123 -167q-94 -133 -108 -187q-41 -12 -176 -12q-49 0 -49 33 q0 38 61 123l274 374l-110 152q-117 155 -238 289z" />
<glyph unicode="y" horiz-adv-x="1144" d="M57 967q89 24 256 24q75 -124 111 -219l176 -514l160 418q44 122 86 301q88 10 231 10q-30 -120 -94 -291l-278 -737q-75 -207 -189 -321q-111 -111 -242 -111q-57 0 -94 37t-37 108q238 0 332 254l25 74q-57 25 -97 147l-210 529q-61 147 -136 291z" />
<glyph unicode="z" horiz-adv-x="1091" d="M111 924q0 59 159 59h379q157 0 295 12q25 -73 25 -137l-555 -717h360q136 0 170 43q35 -68 35 -125q0 -59 -158 -59l-383 -2q-139 0 -299 -10q-24 70 -24 147l538 707h-336q-129 0 -174 -25q-32 49 -32 107z" />
<glyph unicode="{" horiz-adv-x="874" d="M72 541v151q120 3 176 99q56 95 59 245q3 226 127 371q122 143 357 143v-153q-228 0 -234 -340q-3 -315 -203 -441q200 -120 203 -417q3 -175 61 -269q59 -96 173 -96l-5 -151q-234 0 -356 137t-125 350q-9 371 -233 371z" />
<glyph unicode="|" horiz-adv-x="497" d="M135 -205v1741h227v-1741h-227z" />
<glyph unicode="}" horiz-adv-x="874" d="M80 1546q234 0 356 -137q124 -139 127 -350q9 -371 234 -371v-151q-118 -3 -174 -99q-55 -94 -58 -245q-3 -228 -125 -371q-123 -144 -356 -144v154q227 0 233 340q3 314 203 440q-200 120 -203 418q-3 174 -61 268q-60 97 -172 97z" />
<glyph unicode="~" horiz-adv-x="946" d="M72 627q0 70 61 110q62 41 139 41q83 0 185 -51t143 -51q46 0 84 24q31 20 61 50q24 24 41 24q8 0 52 -29l20 -28q-35 -100 -102 -158q-68 -59 -142 -59q-79 0 -165 51t-136 51q-114 0 -178 -98q-63 40 -63 123z" />
<glyph unicode="&#xa1;" horiz-adv-x="528" d="M117 770q99 27 260 27q14 -112 14 -295v-692q-71 -27 -153 -27q-103 0 -103 158l-2 538q0 153 -16 291zM117 1094l2 2q0 65 43 108t110 43q60 0 97 -37t37 -98q0 -67 -44 -111q-43 -43 -112 -43q-59 0 -96 37t-37 99z" />
<glyph unicode="&#xa2;" horiz-adv-x="1026" d="M76 465q0 207 104 344q105 138 285 172q-3 98 -16 229q73 25 202 25q10 -117 13 -246q122 -18 196 -86t74 -137q0 -96 -193 -96q-18 80 -61 129t-105 49q-96 0 -157 -98q-62 -100 -62 -252q0 -162 68 -265q66 -100 174 -100q73 0 129 29q51 26 80 55q27 27 43 27 q19 0 55 -19l39 -22q-80 -156 -280 -203v-59q0 -134 32 -166q-67 -37 -153 -37q-76 0 -76 158l-2 92q-180 24 -285 153q-104 128 -104 324z" />
<glyph unicode="&#xa3;" horiz-adv-x="1277" d="M82 754q59 3 190 6v237q0 174 146 308q145 133 375 133q177 0 286 -80t109 -172q0 -111 -215 -111q-49 211 -203 211q-103 0 -166 -69t-63 -175v-280h323q133 0 166 26q35 -53 35 -104q0 -30 -31 -45q-28 -14 -127 -14l-368 -7v-354q0 -85 10 -123h436q134 0 164 27 q37 -46 37 -111q0 -33 -31 -49q-32 -16 -127 -16h-563q-145 0 -291 -17q-27 76 -27 154q71 9 123 12v475q-63 -4 -164 -20q-24 74 -24 158z" />
<glyph unicode="&#xa4;" horiz-adv-x="1050" d="M74 217q0 17 20 37l99 100q-50 80 -50 195l-2 6q0 126 62 215l-109 111q-20 17 -20 34q0 23 39 62q41 41 61 41q15 0 39 -21l115 -116q89 53 209 53q107 0 186 -43l108 108q19 19 35 19q23 0 62 -39q41 -41 41 -61q0 -16 -19 -35l-104 -105q53 -83 53 -196 q0 -121 -61 -215l114 -113q19 -22 19 -37q0 -22 -39 -61t-62 -39q-19 0 -34 18l-119 117q-89 -53 -213 -53q-107 0 -191 41l-102 -103q-18 -18 -35 -18q-21 0 -61 37q-41 38 -41 61zM328 573q0 -107 55 -174t143 -67q89 0 140 63q53 65 53 168q0 107 -55 174q-56 68 -144 68 q-87 0 -139 -64q-53 -65 -53 -168z" />
<glyph unicode="&#xa5;" horiz-adv-x="1417" d="M49 1417q92 25 295 25q88 -115 203 -295l190 -297l178 280q105 171 166 302q57 8 252 8q-48 -116 -110 -213l-385 -615v-32h118q133 0 166 20q37 -37 37 -94q0 -51 -158 -51h-163v-129h118q133 0 166 20q37 -34 37 -92q0 -51 -158 -51h-163v-10q0 -131 41 -166 q-81 -35 -201 -35q-51 0 -80 33q-31 36 -31 125l6 55q-114 0 -270 -12q-27 59 -27 124q110 13 295 13v129q-126 0 -270 -15q-27 61 -27 127q140 13 297 13v37l-315 507q-89 139 -207 289z" />
<glyph unicode="&#xa6;" horiz-adv-x="497" d="M135 -205v748h227v-748h-227zM135 788v748h227v-748h-227z" />
<glyph unicode="&#xa7;" horiz-adv-x="937" d="M76 -27q0 103 184 103v2q44 -148 180 -148q71 0 117 43q47 44 47 109t-51 113q-52 49 -127 84q-107 50 -150 73q-75 40 -129 109q-51 66 -51 162q0 187 170 264q-170 111 -170 256q0 127 105 215q107 90 295 90q149 0 243 -55q97 -57 97 -127q0 -49 -45 -66 q-47 -18 -142 -18q-18 52 -61 86q-44 35 -94 35q-69 0 -109 -46q-41 -47 -41 -106q0 -60 53 -107q48 -42 129 -79q96 -43 154 -74q76 -41 129 -111q53 -71 53 -170q0 -181 -157 -264q157 -109 157 -254q0 -136 -110 -221q-112 -86 -312 -86q-163 0 -264 55q-100 54 -100 133 zM293 666q0 -40 18 -70q19 -32 64 -61q11 -7 27.5 -18t27.5 -18.5t19 -11.5q16 -9 98 -49q104 37 104 133l-4 -8q0 53 -37 99q-38 47 -80 73q-55 34 -124 68q-53 -15 -82 -51q-31 -39 -31 -86z" />
<glyph unicode="&#xa8;" horiz-adv-x="897" d="M90 1257q0 60 37 97t96 37q53 0 86 -33t33 -86q0 -57 -37 -94t-96 -37q-51 0 -86 35q-33 33 -33 86v-5zM535 1253q0 61 36 97t99 36q54 0 86 -32q35 -35 35 -86q0 -57 -37 -94t-97 -37q-52 0 -86 34q-32 32 -32 86z" />
<glyph unicode="&#xa9;" horiz-adv-x="1169" d="M74 471q0 235 147 379q148 145 379 145q221 0 354 -133t133 -350q0 -235 -147 -379q-148 -145 -381 -145q-217 0 -350 133q-131 131 -131 350h-4zM236 496l2 -2q0 -172 96 -285q95 -111 252 -111q154 0 248 105q94 104 94 280q0 174 -99 285t-254 111q-151 0 -245 -105 q-94 -104 -94 -278zM348 479q0 121 72 199q70 76 190 76q83 0 135 -37t52 -82q0 -51 -101 -51q-21 96 -88 96q-48 0 -82 -51q-32 -49 -32 -131l-2 -4q0 -88 34 -140q35 -53 92 -53q53 0 93 29q39 28 41 28q11 0 28 -10l21 -12q-28 -51 -82 -80q-57 -31 -123 -31 q-113 0 -180 70q-68 71 -68 184z" />
<glyph unicode="&#xaa;" horiz-adv-x="700" d="M55 975q0 95 105 151q109 58 278 72v39q0 54 -30 84q-31 31 -84 31q-51 0 -84 -33q-35 -35 -35 -76q-129 0 -129 70q0 50 76 90q77 41 198 41q118 0 185 -55t67 -144v-303q0 -83 27 -104q-52 -25 -125 -25q-66 0 -66 100v35q-52 -131 -196 -131q-84 0 -136 43 q-51 42 -51 115zM217 991q0 -33 25 -55q24 -21 61 -21v3q49 0 90 47q40 46 43 104v57q-219 -21 -219 -135z" />
<glyph unicode="&#xab;" horiz-adv-x="1011" d="M68 573q117 153 276 328q42 51 84 51q31 0 55 -18l41 -37q-28 -52 -67 -102l-99 -125q-23 -28 -75 -97q25 -33 77 -96l99 -125q39 -50 67 -102l-45 -37q-27 -18 -55 -18q-42 0 -84 51q-170 189 -274 327zM463 569q117 153 276 328q42 51 84 51q29 0 56 -18l43 -37 q-26 -47 -68 -102q-47 -61 -98 -125q-60 -75 -74 -95q7 -10 74 -94q51 -64 98 -125q42 -55 68 -102l-43 -41q-29 -19 -56 -19q-41 0 -84 52q-161 179 -276 327z" />
<glyph unicode="&#xac;" horiz-adv-x="1169" d="M82 729v141h960v-399h-227v258h-733z" />
<glyph unicode="&#xad;" horiz-adv-x="684" d="M74 621q101 8 295 8h43q132 0 166 24q34 -52 34 -108q0 -58 -157 -58h-66q-156 0 -291 -24q-24 73 -24 158z" />
<glyph unicode="&#xae;" horiz-adv-x="1136" d="M78 938q0 226 141 367t367 141q215 0 344 -129t129 -340q0 -226 -144 -367t-368 -141q-211 0 -340 129t-129 340zM207 961q0 -180 100 -289q102 -111 264 -111q160 0 260 109q99 108 99 282q0 179 -101 289q-102 111 -264 111q-160 0 -258 -107t-98 -282zM371 1219 q32 7 98 10h90q87 0 139 -43q54 -45 54 -113q0 -98 -97 -143l86 -150q33 -50 56 -63q-31 -17 -74 -17q-51 0 -86 66l-80 141h-65v-131q0 -44 10 -61q-34 -15 -74 -15q-41 0 -41 62l-6 352q0 47 -10 105zM481 1171q2 -12 2 -51v-151h66q40 0 63 26q25 28 25 74t-25 74t-65 28 h-62h-4z" />
<glyph unicode="&#xaf;" horiz-adv-x="804" d="M82 1323q101 8 295 8h137q124 0 166 25q35 -50 35 -96q0 -54 -158 -54h-160q-156 0 -291 -24q-24 70 -24 141z" />
<glyph unicode="&#xb0;" horiz-adv-x="739" d="M76 1120q0 145 86 234q87 90 221 90q126 0 203 -80q78 -81 78 -211q0 -144 -86 -233t-226 -89q-121 0 -198 80q-76 79 -76 213zM248 1135q0 -75 35 -125q34 -49 90 -49q50 0 80 47q30 46 30 120q0 80 -32 123q-35 47 -89 47q-51 0 -81 -43q-31 -45 -31 -116z" />
<glyph unicode="&#xb1;" horiz-adv-x="1062" d="M90 872q114 9 295 9h53v333h180v-333h154q126 0 166 24q35 -53 35 -104q0 -60 -156 -60h-199v-354h-180l2 352h-32q-146 0 -291 -22q-27 77 -27 155zM92 313q114 9 295 9h387q132 0 166 24q35 -53 35 -108q0 -58 -156 -58h-409q-156 0 -291 -24q-27 80 -27 157z" />
<glyph unicode="&#xb2;" horiz-adv-x="548" d="M61 1319q52 131 207 131q94 0 152 -49q59 -50 59 -125v2q0 -59 -43 -117q-44 -60 -94 -98q-53 -41 -98 -86q-47 -47 -56 -84h199q65 0 78 10q18 -21 18 -51q0 -33 -75 -33h-195q-88 0 -135 -8q-12 37 -12 74q0 41 43 90t96 90q56 44 96 94q43 55 43 103t-31 79t-80 31 q-39 0 -63 -18q-22 -16 -39 -37q-16 -19 -25 -19q-15 0 -24 9z" />
<glyph unicode="&#xb3;" horiz-adv-x="573" d="M63 1315q23 55 80 94q55 37 133 37q87 0 142 -43t55 -115q0 -94 -86 -141q117 -37 117 -156q0 -80 -64 -129t-168 -49q-89 0 -145 35q-55 34 -55 78q0 47 73 47q24 -84 111 -84l-10 -2q52 0 80 28t28 78q0 49 -26 78q-28 31 -70 31h-18q-4 0 -11 -0.5t-20 -1.5t-23 -2 q-8 57 -8 71q9 1 20.5 2t20 2t14.5 1h17q35 0 55 26q21 27 21 68q0 100 -95 100q-45 0 -79 -37t-41 -37q-16 0 -25 9z" />
<glyph unicode="&#xb4;" horiz-adv-x="548" d="M80 1186q0 35 45 74q195 165 289 231q43 -46 86 -133q-228 -178 -369 -258l-33 37q-18 27 -18 49z" />
<glyph unicode="&#xb5;" d="M119 967q89 24 264 24q14 -95 14 -295v-346q0 -92 43 -153q44 -62 107 -62q87 0 160 101q74 103 77 227v217q0 151 -14 299q101 16 258 16q14 -112 14 -295v-503q0 -132 43 -166q-81 -35 -196 -35q-48 0 -74 33q-29 37 -29 125v69q-41 -105 -137 -168q-97 -63 -229 -63 h-19h-16v-156q0 -128 41 -166q-78 -35 -184 -35q-101 0 -101 158v885q0 144 -22 289z" />
<glyph unicode="&#xb6;" horiz-adv-x="1343" d="M76 1008q0 200 172 317q173 117 524 117l-2 -4q14 -95 14 -295v-1159q0 -132 43 -166q-81 -35 -194 -35q-52 0 -78 33q-29 37 -29 125v669q-199 0 -325 111q-125 110 -125 287zM952 1413q89 25 242 25q12 -102 12 -295v-1159q0 -130 39 -166q-72 -35 -174 -35 q-96 0 -96 158v1183q0 151 -23 289z" />
<glyph unicode="&#xb7;" horiz-adv-x="512" d="M111 612v2q0 66 43 109t112 43q59 0 96 -37t37 -98q0 -68 -43 -111t-112 -43q-60 0 -97 37q-36 36 -36 98z" />
<glyph unicode="&#xb8;" horiz-adv-x="1026" d="M418 -375l10 41q10 30 21 41q12 12 34 12q11 0 23 -2t35 -2q67 0 67 66q0 19 -18 37q-14 14 -43 32q-25 16 -43 56q-19 43 -19 94l123 -6q0 -36 23 -66q22 -28 49 -43q29 -16 49 -45q23 -33 23 -69q0 -76 -56 -123t-149 -47q-67 0 -129 24z" />
<glyph unicode="&#xb9;" horiz-adv-x="434" d="M55 1296q0 21 25 43q53 50 121 95q67 12 129 12q8 -47 8 -135v-402q0 -57 12 -75q-40 -19 -88 -19q-51 0 -51 74v442q-78 -54 -129 -74l-19 21q-8 8 -8 18z" />
<glyph unicode="&#xba;" horiz-adv-x="724" d="M49 1108q0 146 92 238t238 92q134 0 213 -82q80 -83 80 -217q0 -146 -92 -238t-236 -92q-132 0 -213 84q-80 83 -80 219zM223 1128q0 -102 39 -161q41 -62 100 -62q58 0 93 60q34 58 34 153q0 105 -36 164q-37 61 -99 61q-57 0 -92 -59t-35 -158z" />
<glyph unicode="&#xbb;" horiz-adv-x="1011" d="M86 246q26 47 68 102q97 126 98 127q53 67 74 96q-28 39 -74 97q-1 1 -98 127q-42 55 -68 102l43 37q24 18 53 18q42 0 84 -51q163 -181 277 -328q-103 -135 -277 -327q-42 -51 -84 -51q-29 0 -53 18zM483 242q26 47 68 102q97 126 98 127q53 67 74 96q-28 39 -74 97 q-1 1 -98 127q-42 55 -68 102l43 37q27 18 56 18q42 0 84 -51q156 -173 276 -328q-112 -146 -276 -327q-43 -52 -84 -52q-28 0 -56 19z" />
<glyph unicode="&#xbc;" horiz-adv-x="1357" d="M61 25q0 34 66 125l946 1271q79 21 221 21l-1042 -1434q-50 -16 -143 -16q-48 0 -48 33zM74 1296q0 22 24 43q53 50 121 95q67 12 129 12q8 -47 8 -135v-402q0 -55 13 -75q-40 -19 -88 -19q-52 0 -52 74v442q-78 -54 -129 -74l-18 21q-8 8 -8 18zM768 188l270 426 q73 13 133 13q9 -53 9 -135v-297q47 0 61 14q19 -22 19 -57q0 -29 -76 -29h-6v-33q0 -61 18 -76q-38 -18 -96 -18q-51 0 -51 74v53h-134q-83 0 -135 -6q-12 50 -12 71zM872 195h175v290z" />
<glyph unicode="&#xbd;" horiz-adv-x="1357" d="M61 25q0 34 66 125l946 1271q79 21 221 21l-1042 -1434q-50 -16 -143 -16q-48 0 -48 33zM72 1296q0 22 24 43q53 50 121 95q67 12 129 12q8 -47 8 -135v-402q0 -55 13 -75q-40 -19 -88 -19q-52 0 -52 74v442q-78 -54 -129 -74l-18 21q-8 8 -8 18zM842 500q52 131 207 131 q92 0 153 -49q62 -50 62 -125h-4q0 -59 -43 -117t-95 -98t-98 -86q-47 -47 -53 -86h198q65 0 80 12q17 -24 17 -49q0 -33 -76 -33h-193q-88 0 -135 -8q-12 38 -12 74q0 41 43 90q48 54 94 90q51 40 94 94q43 55 43 102q0 50 -30 80q-31 31 -80 31q-40 0 -64 -18 q-22 -16 -39 -37q-16 -19 -24 -19q-17 0 -25 8z" />
<glyph unicode="&#xbe;" horiz-adv-x="1357" d="M61 25q0 34 66 125l946 1271q79 21 221 21l-1042 -1434q-50 -16 -143 -16q-48 0 -48 33zM82 1315q23 55 80 94q55 37 133 37q86 0 141 -43q56 -44 56 -115q0 -94 -86 -141q116 -37 116 -156q0 -81 -63 -129q-64 -49 -168 -49q-90 0 -146 35q-55 34 -55 78q0 47 74 47 q24 -84 110 -84l-10 -2q52 0 80 28q29 29 29 78q0 48 -27 78q-28 31 -70 31h-18q-4 0 -10.5 -0.5l-19.5 -1.5t-23 -2q-8 57 -8 71q9 1 20.5 2t20 2t14.5 1h16q36 0 56 26t20 68q0 100 -94 100q-46 0 -80 -37t-41 -37q-16 0 -25 9zM788 188l271 426q73 13 133 13 q8 -47 8 -135v-297q48 0 62 14q18 -21 18 -57q0 -29 -76 -29h-6v-33q0 -60 19 -76q-37 -18 -97 -18q-51 0 -51 74v53h-133q-82 0 -135 -6q-13 54 -13 71zM885 193h174v290z" />
<glyph unicode="&#xbf;" horiz-adv-x="972" d="M80 125q0 84 43 166q43 83 96 135q50 50 96 115q43 61 43 108v133q61 25 148 25q112 0 112 -127l-4 2q0 -76 -41 -147q-43 -75 -88 -117q-44 -41 -88 -115q-41 -68 -41 -141q0 -88 56 -156q55 -67 147 -67q52 0 100 28q44 25 68 60q26 37 43 59q23 29 37 29q21 0 51 -21 l41 -24q-50 -133 -154 -209t-256 -76q-173 0 -292 96q-117 94 -117 244zM332 1085q0 68 43 111t108 43q64 0 101 -37t37 -98l2 -2q0 -66 -43 -109t-111 -43q-63 0 -100 37t-37 98z" />
<glyph unicode="&#xc0;" horiz-adv-x="1466" d="M80 39q0 37 26 111l386 976q48 120 88 291q89 25 272 25q61 -126 127 -295l371 -954q53 -132 104 -166q-68 -35 -194 -35q-120 0 -179 158l-90 245h-561l-76 -200q-43 -113 -43 -166q-81 -35 -176 -35q-55 0 -55 45zM485 545h447l-225 583zM535 1769h2q44 89 86 134 q71 -50 217 -172q103 -84 143 -89q-3 -39 -20 -77q-18 -41 -52 -41q-25 0 -63 24q-23 16 -154 117q-116 90 -159 104z" />
<glyph unicode="&#xc1;" horiz-adv-x="1466" d="M80 39q0 37 26 111l386 976q48 120 88 291q89 25 272 25q61 -126 127 -295l371 -954q53 -132 104 -166q-68 -35 -194 -35q-120 0 -179 158l-90 245h-561l-76 -200q-43 -113 -43 -166q-81 -35 -176 -35q-55 0 -55 45zM485 545h447l-225 583zM549 1597q0 35 45 74 q203 171 289 232q42 -45 86 -134q-228 -179 -369 -258l-33 37q-18 27 -18 49z" />
<glyph unicode="&#xc2;" horiz-adv-x="1466" d="M80 39q0 37 26 111l386 976q48 120 88 291q89 25 272 25q61 -126 127 -295l371 -954q53 -132 104 -166q-68 -35 -194 -35q-120 0 -179 158l-90 245h-561l-76 -200q-43 -113 -43 -166q-81 -35 -176 -35q-55 0 -55 45zM436 1618q0 40 45 76q154 129 256 204 q98 -70 197 -153q101 -85 141 -88q-3 -34 -26 -76q-24 -43 -58 -43q-26 0 -76 29l-90 71l-90 72q-138 -108 -250 -174l-30 37q-19 22 -19 45zM485 545h447l-225 583z" />
<glyph unicode="&#xc3;" horiz-adv-x="1466" d="M80 39q0 37 26 111l386 976q48 120 88 291q89 25 272 25q61 -126 127 -295l371 -954q53 -132 104 -166q-68 -35 -194 -35q-120 0 -179 158l-90 245h-561l-76 -200q-43 -113 -43 -166q-81 -35 -176 -35q-55 0 -55 45zM440 1647q0 61 47 96t105 35q49 0 133 -37t129 -37 t86 35t51 35q15 0 49 -27l33 -23q-27 -88 -80 -135q-51 -45 -116 -45q-37 0 -107 31t-117 31q-93 0 -149 -68q-64 34 -64 109zM485 545h447l-225 583z" />
<glyph unicode="&#xc4;" horiz-adv-x="1466" d="M80 39q0 37 26 111l386 976q48 120 88 291q89 25 272 25q61 -126 127 -295l371 -954q53 -132 104 -166q-68 -35 -194 -35q-120 0 -179 158l-90 245h-561l-76 -200q-43 -113 -43 -166q-81 -35 -176 -35q-55 0 -55 45zM401 1665q0 59 37 96t97 37q53 0 86 -33 q32 -32 32 -86q0 -57 -37 -94t-96 -37q-51 0 -86 35q-33 33 -33 86v-4zM485 545h447l-225 583zM850 1669q0 59 37 96t98 37q53 0 86 -33q35 -35 35 -86q0 -57 -37 -94t-96 -37q-51 0 -86 35q-33 33 -33 86z" />
<glyph unicode="&#xc5;" horiz-adv-x="1466" d="M80 39q0 37 26 111l386 976q48 120 88 291q89 25 272 25q61 -126 127 -295l371 -954q53 -132 104 -166q-68 -35 -194 -35q-120 0 -179 158l-90 245h-561l-76 -200q-43 -113 -43 -166q-81 -35 -176 -35q-55 0 -55 45zM485 545h447l-225 583zM551 1712q0 85 59 141t154 56 q87 0 139 -49q53 -50 53 -131q0 -88 -59 -144q-58 -55 -154 -55q-83 0 -135 49q-53 50 -53 133h-4zM672 1720q0 -47 22 -78q21 -30 56 -30q33 0 55 28q20 26 20 74q0 47 -22 78t-55 31q-34 0 -52 -27t-18 -74z" />
<glyph unicode="&#xc6;" horiz-adv-x="1722" d="M74 39q0 37 39 111l471 976q74 158 116 295q120 15 295 15h420q129 0 166 18q37 -43 37 -108q0 -60 -158 -60h-473q2 -31 2 -141v-332h377q134 0 166 16q37 -43 37 -108q0 -59 -158 -59l-424 2v-469v-43h449q137 0 166 26q36 -45 36 -117q0 -61 -157 -61h-443 q-152 0 -290 -16q-27 76 -27 153v180h-309l-50 -122q-54 -131 -57 -172q-73 -29 -178 -29q-53 0 -53 45zM471 467h250v631z" />
<glyph unicode="&#xc7;" horiz-adv-x="1357" d="M82 680q0 343 190 551q191 209 514 209q217 0 353 -80q135 -80 135 -176q0 -107 -217 -107q-27 93 -103 154q-74 59 -182 59q-176 0 -289 -155q-112 -153 -112 -406l-4 -16q0 -261 114 -424q113 -162 301 -162q89 0 170 23q70 20 109 47q4 3 28.5 21t38.5 26q36 22 58 22 q20 0 55 -18l39 -25q-61 -99 -190 -166q-126 -66 -291 -75q3 -44 41 -74q11 -9 23 -19.5t26 -23t22 -19.5q35 -30 35 -77q0 -77 -55 -123q-56 -47 -150 -47q-67 0 -129 24l11 41q11 31 20 41q12 12 35 12q10 0 22 -2t35 -2q68 0 68 66q0 20 -19 39q-14 14 -43 32 q-26 16 -43 52q-17 35 -20 90q-277 21 -436 209q-160 189 -160 479z" />
<glyph unicode="&#xc8;" horiz-adv-x="1222" d="M121 1419q120 15 295 15h499q131 0 166 18q37 -43 37 -109q0 -59 -157 -59h-555q4 -118 4 -139v-332h458q129 0 166 16q35 -44 35 -108q0 -59 -158 -59l-499 -3v-469v-14v-14v-12h530q133 0 166 26q35 -47 35 -117q0 -61 -158 -61h-524q-150 0 -291 -16q-25 73 -25 153 v989q0 157 -24 295zM391 1765h2q43 87 86 133q71 -50 217 -172q102 -82 144 -88q-3 -36 -21 -77t-51 -41q-26 0 -63 24q-23 16 -154 117q-115 90 -160 104z" />
<glyph unicode="&#xc9;" horiz-adv-x="1222" d="M121 1419q120 15 295 15h499q131 0 166 18q37 -43 37 -109q0 -59 -157 -59h-555q4 -118 4 -139v-332h458q129 0 166 16q35 -44 35 -108q0 -59 -158 -59l-499 -3v-469v-14v-14v-12h530q133 0 166 26q35 -47 35 -117q0 -61 -158 -61h-524q-150 0 -291 -16q-25 73 -25 153 v989q0 157 -24 295zM403 1593q0 34 46 74q201 169 288 231q43 -46 86 -133q-231 -181 -368 -258l-33 37q-19 28 -19 49z" />
<glyph unicode="&#xca;" horiz-adv-x="1222" d="M121 1419q120 15 295 15h499q131 0 166 18q37 -43 37 -109q0 -59 -157 -59h-555q4 -118 4 -139v-332h458q129 0 166 16q35 -44 35 -108q0 -59 -158 -59l-499 -3v-469v-14v-14v-12h530q133 0 166 26q35 -47 35 -117q0 -61 -158 -61h-524q-150 0 -291 -16q-25 73 -25 153 v989q0 157 -24 295zM293 1614q0 40 45 76q154 129 256 204q98 -70 197 -153q101 -85 141 -88q-3 -32 -27 -76q-24 -43 -57 -43q-26 0 -76 29l-90 71l-90 72q-138 -108 -250 -174l-31 37q-18 21 -18 45z" />
<glyph unicode="&#xcb;" horiz-adv-x="1222" d="M121 1419q120 15 295 15h499q131 0 166 18q37 -43 37 -109q0 -59 -157 -59h-555q4 -118 4 -139v-332h458q129 0 166 16q35 -44 35 -108q0 -59 -158 -59l-499 -3v-469v-14v-14v-12h530q133 0 166 26q35 -47 35 -117q0 -61 -158 -61h-524q-150 0 -291 -16q-25 73 -25 153 v989q0 157 -24 295zM256 1661q0 59 37 96t96 37q53 0 86 -33t33 -86q0 -57 -37 -94t-96 -37q-51 0 -86 35q-33 33 -33 86v-4zM705 1665q0 60 36 96q37 37 99 37q53 0 86 -33q35 -35 35 -86q0 -57 -37 -94t-97 -37q-51 0 -86 35q-32 32 -32 86z" />
<glyph unicode="&#xcc;" horiz-adv-x="550" d="M51 1767h2q44 89 86 134q71 -50 217 -172q103 -83 144 -89q-3 -36 -21 -77t-51 -41q-26 0 -63 24q-23 16 -154 117q-115 90 -160 104zM117 1417q98 25 276 25q15 -120 15 -295v-954q0 -131 41 -166q-78 -35 -197 -35q-54 0 -80 33q-29 37 -29 125l-2 976q0 153 -24 291z " />
<glyph unicode="&#xcd;" horiz-adv-x="550" d="M63 1595q0 34 46 74q208 175 288 232q42 -45 86 -134q-231 -181 -368 -258l-33 37q-19 29 -19 49zM117 1417q98 25 276 25q15 -120 15 -295v-954q0 -131 41 -166q-78 -35 -197 -35q-54 0 -80 33q-29 37 -29 125l-2 976q0 153 -24 291z" />
<glyph unicode="&#xce;" horiz-adv-x="550" d="M-45 1616q0 40 45 76q154 129 256 204q98 -70 197 -153q101 -85 141 -88q-3 -32 -27 -76q-24 -43 -57 -43q-26 0 -76 29l-90 71l-90 72q-138 -108 -250 -174l-31 37q-18 21 -18 45zM117 1417q98 25 276 25q15 -120 15 -295v-954q0 -131 41 -166q-78 -35 -197 -35 q-54 0 -80 33q-29 37 -29 125l-2 976q0 153 -24 291z" />
<glyph unicode="&#xcf;" horiz-adv-x="550" d="M-80 1667q0 59 37 96t96 37q53 0 86 -33t33 -86q0 -57 -37 -94t-94 -37q-51 0 -86 35q-33 33 -33 86zM117 1417q98 25 276 25q15 -120 15 -295v-954q0 -131 41 -166q-78 -35 -197 -35q-54 0 -80 33q-29 37 -29 125l-2 976q0 153 -24 291zM365 1663q0 60 36 96 q37 37 99 37q53 0 86 -33q35 -35 35 -86q0 -57 -37 -94t-97 -37q-51 0 -86 35q-32 32 -32 86z" />
<glyph unicode="&#xd0;" horiz-adv-x="1529" d="M80 797q129 6 141 6v317q0 144 -22 289q92 25 274 25h318l2 4q286 0 464 -193q179 -194 179 -504q0 -328 -191 -534q-190 -205 -497 -205h-211q-151 0 -289 -16q-27 76 -27 153v518q-73 -9 -117 -18q-24 74 -24 158zM485 152h289q167 0 268 155q103 158 103 408 q0 254 -105 413q-106 160 -274 160h-279q2 -33 2 -145v-336h129q132 0 166 24q37 -52 37 -108q0 -57 -157 -57l-179 -2v-512z" />
<glyph unicode="&#xd1;" horiz-adv-x="1413" d="M117 1417q80 25 231 25v-4l701 -961v649q0 141 -17 291q77 25 221 25q15 -120 15 -295v-954q0 -131 41 -166q-72 -35 -172 -35q-48 0 -68 39v-2l-707 968v-804q0 -132 27 -166q-72 -35 -162 -35q-41 0 -61 33q-23 38 -23 125l-2 976q0 153 -24 291zM389 1645q0 61 47 96 t105 35q49 0 133 -37t127 -37q47 0 88 35t49 35q14 0 49 -27l35 -23q-27 -88 -80 -135q-51 -45 -117 -45q-36 0 -106 31t-117 31q-90 0 -149 -68q-64 34 -64 109z" />
<glyph unicode="&#xd2;" horiz-adv-x="1499" d="M84 694q0 335 190 543q191 209 496 209q288 0 467 -197q178 -196 178 -512q0 -334 -190 -542q-191 -209 -498 -209q-287 0 -465 196t-178 512zM369 721q0 -259 108 -418q109 -160 277 -160q165 0 268 158q102 156 102 412q0 261 -106 417q-109 160 -277 160 q-165 0 -268 -157q-102 -156 -102 -412h-2zM524 1767h2q44 89 86 134q71 -50 217 -172q103 -83 144 -89q-3 -36 -21 -77t-51 -41q-25 0 -63 24q-23 16 -154 117q-115 90 -160 104z" />
<glyph unicode="&#xd3;" horiz-adv-x="1499" d="M84 694q0 335 190 543q191 209 496 209q288 0 467 -197q178 -196 178 -512q0 -334 -190 -542q-191 -209 -498 -209q-287 0 -465 196t-178 512zM369 721q0 -259 108 -418q109 -160 277 -160q165 0 268 158q102 156 102 412q0 261 -106 417q-109 160 -277 160 q-165 0 -268 -157q-102 -156 -102 -412h-2zM537 1595q0 35 45 74q208 175 288 232q42 -45 86 -134q-231 -181 -368 -258l-33 37q-18 27 -18 49z" />
<glyph unicode="&#xd4;" horiz-adv-x="1499" d="M84 694q0 335 190 543q191 209 496 209q288 0 467 -197q178 -196 178 -512q0 -334 -190 -542q-191 -209 -498 -209q-287 0 -465 196t-178 512zM369 721q0 -259 108 -418q109 -160 277 -160q165 0 268 158q102 156 102 412q0 261 -106 417q-109 160 -277 160 q-165 0 -268 -157q-102 -156 -102 -412h-2zM426 1616q0 40 45 76q154 129 256 204q98 -70 197 -153q101 -85 141 -88q-3 -32 -27 -76q-24 -43 -57 -43q-26 0 -76 29l-90 71l-90 72q-138 -108 -250 -174l-31 37q-18 21 -18 45z" />
<glyph unicode="&#xd5;" horiz-adv-x="1499" d="M84 694q0 335 190 543q191 209 496 209q288 0 467 -197q178 -196 178 -512q0 -334 -190 -542q-191 -209 -498 -209q-287 0 -465 196t-178 512zM369 721q0 -259 108 -418q109 -160 277 -160q165 0 268 158q102 156 102 412q0 261 -106 417q-109 160 -277 160 q-165 0 -268 -157q-102 -156 -102 -412h-2zM430 1645q0 61 47 96t105 35q49 0 133 -37t129 -37q47 0 88 35t49 35q15 0 49 -27l33 -23q-27 -88 -80 -135q-51 -45 -117 -45q-36 0 -106 31t-117 31q-93 0 -149 -68q-64 34 -64 109z" />
<glyph unicode="&#xd6;" horiz-adv-x="1499" d="M84 694q0 335 190 543q191 209 496 209q288 0 467 -197q178 -196 178 -512q0 -334 -190 -542q-191 -209 -498 -209q-287 0 -465 196t-178 512zM369 721q0 -259 108 -418q109 -160 277 -160q165 0 268 158q102 156 102 412q0 261 -106 417q-109 160 -277 160 q-165 0 -268 -157q-102 -156 -102 -412h-2zM395 1667q0 59 37 96t96 37q53 0 86 -33t33 -86q0 -57 -37 -94t-96 -37q-51 0 -86 35q-33 33 -33 86v-4zM840 1663q0 59 37 96t98 37q53 0 86 -33q35 -35 35 -86q0 -57 -37 -94t-96 -37q-51 0 -86 35q-33 33 -33 86z" />
<glyph unicode="&#xd7;" horiz-adv-x="1046" d="M135 326q0 20 19 36l249 250l-247 250q-19 16 -19 35q0 21 37 61q38 41 62 41q9 0 36 -18l248 -250l252 252q18 18 35 18q23 0 61 -38q41 -41 41 -62q0 -17 -18 -35l-254 -256l252 -252q18 -18 18 -34q0 -23 -39 -62t-61 -39q-16 0 -35 19l-252 252l-250 -250 q-16 -19 -34 -19q-23 0 -62 39t-39 62z" />
<glyph unicode="&#xd8;" horiz-adv-x="1499" d="M82 694q0 335 190 543q191 209 496 209q202 0 356 -103l62 78q82 21 221 21l-160 -207q166 -193 166 -496q0 -334 -190 -542q-191 -209 -498 -209q-206 0 -356 100l-62 -80q-50 -16 -141 -16q-47 0 -47 33q0 41 69 125l48 59q-154 195 -154 485zM365 719q0 -163 43 -285 l575 735q-103 121 -246 121q-165 0 -268 -157q-102 -156 -102 -412zM502 264q102 -123 252 -123q165 0 268 158q102 156 102 412l-2 2q0 165 -49 299z" />
<glyph unicode="&#xd9;" horiz-adv-x="1488" d="M117 1417q98 25 276 25q15 -120 15 -295v-590q0 -188 94 -301q95 -115 246 -115q148 0 239 113q92 115 92 295v577q0 166 -14 289q92 25 264 25q17 -129 17 -295v-570q0 -260 -172 -423q-173 -164 -451 -164q-260 0 -420 151t-160 398l-2 589q0 153 -24 291zM520 1767h2 q44 89 86 134q71 -50 217 -172q103 -83 144 -89q-3 -36 -21 -77t-51 -41q-25 0 -63 24q-23 16 -154 117q-115 90 -160 104z" />
<glyph unicode="&#xda;" horiz-adv-x="1488" d="M117 1417q98 25 276 25q15 -120 15 -295v-590q0 -188 94 -301q95 -115 246 -115q148 0 239 113q92 115 92 295v577q0 166 -14 289q92 25 264 25q17 -129 17 -295v-570q0 -260 -172 -423q-173 -164 -451 -164q-260 0 -420 151t-160 398l-2 589q0 153 -24 291zM532 1595 q0 34 46 74q208 175 288 232q42 -45 86 -134q-231 -181 -368 -258l-33 37q-19 29 -19 49z" />
<glyph unicode="&#xdb;" horiz-adv-x="1488" d="M117 1417q98 25 276 25q15 -120 15 -295v-590q0 -188 94 -301q95 -115 246 -115q148 0 239 113q92 115 92 295v577q0 166 -14 289q92 25 264 25q17 -129 17 -295v-570q0 -260 -172 -423q-173 -164 -451 -164q-260 0 -420 151t-160 398l-2 589q0 153 -24 291zM422 1616 q0 40 45 76q154 129 256 204q98 -70 197 -153q101 -85 141 -88q-3 -32 -27 -76q-24 -43 -57 -43q-26 0 -76 29l-90 71l-90 72q-138 -108 -250 -174l-31 37q-18 21 -18 45z" />
<glyph unicode="&#xdc;" horiz-adv-x="1488" d="M117 1417q98 25 276 25q15 -120 15 -295v-590q0 -188 94 -301q95 -115 246 -115q148 0 239 113q92 115 92 295v577q0 166 -14 289q92 25 264 25q17 -129 17 -295v-570q0 -260 -172 -423q-173 -164 -451 -164q-260 0 -420 151t-160 398l-2 589q0 153 -24 291zM391 1667 q0 59 37 96t96 37q53 0 86 -33t33 -86q0 -57 -37 -94t-96 -37q-51 0 -86 35q-33 33 -33 86v-4zM836 1663q0 60 36 96q37 37 99 37q53 0 86 -33q35 -35 35 -86q0 -57 -37 -94t-97 -37q-51 0 -86 35q-32 32 -32 86z" />
<glyph unicode="&#xdd;" horiz-adv-x="1417" d="M49 1417q92 25 295 25q76 -94 203 -295l190 -297l178 280q104 168 166 304q57 8 252 8q-48 -116 -110 -213l-385 -615v-421q0 -131 41 -166q-81 -35 -201 -35q-51 0 -80 33q-31 36 -31 125l4 468l-315 508q-85 133 -207 291zM504 1595q0 35 45 74q203 171 289 232 q42 -45 86 -134q-228 -179 -369 -258l-33 37q-18 27 -18 49z" />
<glyph unicode="&#xde;" horiz-adv-x="1218" d="M117 1417q98 25 276 25q10 -104 13 -238h208q230 0 375 -121q144 -120 144 -317q0 -206 -154 -336q-153 -129 -404 -129h-167v-108q0 -133 26 -166q-78 -35 -190 -35q-48 0 -74 33q-27 35 -27 125l-2 976q0 153 -24 291zM408 451h194q120 0 189 81q71 83 71 216 q0 136 -76 221q-77 86 -196 86l-182 -2v-602z" />
<glyph unicode="&#xdf;" horiz-adv-x="1345" d="M133 1053q0 200 129 323t350 123q193 0 299 -86q105 -85 105 -196q0 -66 -37 -130q-37 -65 -84 -108t-84 -102q-37 -58 -37 -111t51 -92q57 -44 123 -72q88 -38 146 -67q73 -37 125 -101q51 -63 51 -153q0 -129 -105 -209q-106 -80 -280 -80q-173 0 -271 55t-98 131 q0 107 184 107q18 -64 62 -105t104 -41q65 0 107 33q43 34 43 86q0 59 -49 102q-48 42 -121 78l-141 72q-74 39 -121 98q-49 61 -49 146q0 70 36 129q37 61 84 102t84 96t37 111q0 69 -49 115q-50 47 -119 47q-90 0 -149 -74q-58 -73 -58 -193v-892q0 -128 23 -172 q-67 -31 -178 -31q-52 0 -78 33q-29 37 -29 125z" />
<glyph unicode="&#xe0;" horiz-adv-x="1087" d="M90 238q0 156 164 245q169 92 436 115v66q0 85 -51 133q-52 49 -135 49q-78 0 -129 -51q-53 -53 -53 -123q-203 0 -203 110q0 81 121 146t307 65q180 0 289 -86q108 -85 108 -227v-487q0 -132 43 -166q-81 -35 -196 -35q-48 0 -74 33q-29 37 -29 125l6 57 q-34 -101 -110 -162t-197 -61q-134 0 -215 69q-82 70 -82 185zM330 1356h2q43 87 86 133q71 -50 217 -172q102 -82 143 -88q-3 -40 -20 -78q-18 -41 -51 -41q-25 0 -64 25q-32 22 -154 116q-118 92 -159 105zM350 262q0 -56 37 -90q38 -35 94 -35l4 2q77 0 142 80 q64 79 67 176v84q-344 -35 -344 -217z" />
<glyph unicode="&#xe1;" horiz-adv-x="1087" d="M90 238q0 156 164 245q169 92 436 115v66q0 85 -51 133q-52 49 -135 49q-78 0 -129 -51q-53 -53 -53 -123q-203 0 -203 110q0 81 121 146t307 65q180 0 289 -86q108 -85 108 -227v-487q0 -132 43 -166q-81 -35 -196 -35q-48 0 -74 33q-29 37 -29 125l6 57 q-34 -101 -110 -162t-197 -61q-134 0 -215 69q-82 70 -82 185zM342 1184q0 34 45 73q203 171 289 232q43 -46 86 -133q-228 -178 -369 -258l-33 37q-18 27 -18 49zM354 264q0 -56 37 -90q38 -35 94 -35q77 0 142 80q64 79 67 176v84l4 2q-344 -35 -344 -217z" />
<glyph unicode="&#xe2;" horiz-adv-x="1087" d="M90 238q0 156 164 245q169 92 436 115v66q0 85 -51 133q-52 49 -135 49q-78 0 -129 -51q-53 -53 -53 -123q-203 0 -203 110q0 81 121 146t307 65q180 0 289 -86q108 -85 108 -227v-487q0 -132 43 -166q-81 -35 -196 -35q-48 0 -74 33q-29 37 -29 125l6 57 q-34 -101 -110 -162t-197 -61q-134 0 -215 69q-82 70 -82 185zM229 1202q0 40 45 76q163 137 256 205q90 -64 197 -154q101 -85 141 -88q-3 -34 -26 -76q-24 -43 -58 -43q-25 0 -75 29l-91 72l-90 71q-141 -111 -249 -174l-31 39q-19 22 -19 43zM354 264q0 -56 37 -90 q38 -35 94 -35q77 0 142 80q64 79 67 176l4 86q-344 -35 -344 -217z" />
<glyph unicode="&#xe3;" horiz-adv-x="1087" d="M90 238q0 156 164 245q169 92 436 115v66q0 85 -51 133q-52 49 -135 49q-78 0 -129 -51q-53 -53 -53 -123q-203 0 -203 110q0 81 121 146t307 65q180 0 289 -86q108 -85 108 -227v-487q0 -132 43 -166q-81 -35 -196 -35q-48 0 -74 33q-29 37 -29 125l6 57 q-34 -101 -110 -162t-197 -61q-134 0 -215 69q-82 70 -82 185zM233 1231q0 60 48 96q47 35 104 35q49 0 133 -37t129 -37t86 35t51 35q15 0 50 -27l32 -22q-27 -88 -80 -135q-52 -46 -116 -46q-37 0 -107 31t-117 31q-93 0 -149 -68q-64 34 -64 109zM350 262q0 -56 37 -90 q38 -35 94 -35q83 0 148 86t65 185v71q-344 -35 -344 -217z" />
<glyph unicode="&#xe4;" horiz-adv-x="1087" d="M90 238q0 156 164 245q169 92 436 115v66q0 85 -51 133q-52 49 -135 49q-78 0 -129 -51q-53 -53 -53 -123q-203 0 -203 110q0 81 121 146t307 65q180 0 289 -86q108 -85 108 -227v-487q0 -132 43 -166q-81 -35 -196 -35q-48 0 -74 33q-29 37 -29 125l6 57 q-34 -101 -110 -162t-197 -61q-134 0 -215 69q-82 70 -82 185zM190 1247q0 59 37 96t97 37q54 0 86 -32t32 -86q0 -59 -36 -95q-37 -37 -95 -37q-51 0 -86 35q-32 32 -32 86zM350 260q0 -56 37 -90q38 -35 94 -35q83 0 148 86t65 185v71q-344 -35 -344 -217zM641 1251 q0 60 37 97q36 36 98 36q54 0 86 -32q35 -35 35 -86q0 -58 -37 -95q-36 -36 -96 -36q-52 0 -86 34q-33 33 -33 86z" />
<glyph unicode="&#xe5;" horiz-adv-x="1087" d="M90 238q0 156 164 245q169 92 436 115v66q0 85 -51 133q-52 49 -135 49q-78 0 -129 -51q-53 -53 -53 -123q-203 0 -203 110q0 81 121 146t307 65q180 0 289 -86q108 -85 108 -227v-487q0 -132 43 -166q-81 -35 -196 -35q-48 0 -74 33q-29 37 -29 125l6 57 q-34 -101 -110 -162t-197 -61q-134 0 -215 69q-82 70 -82 185zM344 1296q0 86 59 142q58 55 154 55q87 0 139 -49q54 -51 54 -131q0 -87 -60 -144q-58 -55 -153 -55q-84 0 -136 49q-53 50 -53 133h-4zM346 262q0 -56 37 -90q38 -35 94 -35l4 2q77 0 142 80q64 79 67 176v84 q-344 -35 -344 -217zM469 1307q0 -45 23 -78q22 -31 55 -31q32 0 55 29q21 27 21 73q0 45 -23 78q-22 31 -55 31t-51 -27q-19 -28 -19 -73z" />
<glyph unicode="&#xe6;" horiz-adv-x="1660" d="M88 238q0 152 164 241q167 90 440 117v68q0 85 -51 133q-52 49 -135 49q-78 0 -129 -51q-53 -53 -53 -123q-203 0 -203 110q0 82 117 146q118 65 301 65q213 0 319 -127q133 127 322 127q196 0 301 -108q104 -107 104 -295q-3 -65 -49 -123l-590 -8q9 -150 80 -242 t184 -92q81 0 136 27q54 26 86 55q29 26 45 26q21 0 55 -18l39 -25q-50 -89 -154 -147q-106 -59 -235 -59q-268 0 -394 196q-111 -196 -366 -196q-152 0 -242 69q-92 71 -92 185zM342 258q0 -55 41 -90t104 -35l-2 -2q62 0 115 41q52 40 86 104v197q-344 -35 -344 -215z M950 592h375q-21 248 -180 248h-2q-72 0 -125 -68q-53 -69 -68 -180z" />
<glyph unicode="&#xe7;" horiz-adv-x="1050" d="M78 471q0 236 139 381t373 145q163 0 264 -73q100 -72 100 -156q0 -96 -192 -96q-18 80 -64 129t-110 49q-98 0 -162 -98t-64 -252l-10 -11q0 -161 68 -264q66 -100 178 -100q77 0 137 29q56 27 84 55q27 27 43 27q20 0 56 -19l38 -22q-48 -85 -137 -142 q-90 -58 -207 -67q3 -35 27 -62q26 -29 51 -43q27 -15 49 -43q23 -30 23 -67q0 -77 -55 -123q-56 -47 -150 -47q-67 0 -129 24l10 41q10 30 21 41q12 12 35 12q10 0 22 -2t35 -2q67 0 67 66q0 21 -18 39q-16 16 -43 33q-26 17 -43 51q-17 35 -20 90q-196 21 -306 149 t-110 328z" />
<glyph unicode="&#xe8;" horiz-adv-x="1069" d="M78 465q0 235 135 379q136 145 350 145q205 0 316 -108q110 -107 110 -295q-3 -70 -45 -123h-590q9 -150 80 -242t184 -92q80 0 136 27q54 26 86 55q30 27 45 27q19 0 55 -19l39 -24q-53 -92 -160 -150q-105 -57 -246 -57q-222 0 -358 133q-135 132 -135 350zM311 1352h2 q43 87 86 133q71 -50 217 -172q102 -82 144 -88q-3 -37 -21 -78t-51 -41q-26 0 -63 24q-23 16 -154 117q-118 91 -160 105zM358 596h375q-21 248 -180 248h-2q-72 0 -125 -68q-53 -69 -68 -180z" />
<glyph unicode="&#xe9;" horiz-adv-x="1069" d="M78 465q0 235 135 379q136 145 350 145q205 0 316 -108q110 -107 110 -295q-3 -70 -45 -123h-590q9 -150 80 -242t184 -92q80 0 136 27q54 26 86 55q30 27 45 27q19 0 55 -19l39 -24q-53 -92 -160 -150q-105 -57 -246 -57q-222 0 -358 133q-135 132 -135 350zM324 1180 q0 34 45 73q208 175 288 232q43 -46 86 -133q-231 -181 -368 -258l-33 36q-18 27 -18 50zM358 596h375q-21 248 -180 248h-2q-72 0 -125 -68q-53 -69 -68 -180z" />
<glyph unicode="&#xea;" horiz-adv-x="1069" d="M78 465q0 235 135 379q136 145 350 145q205 0 316 -108q110 -107 110 -295q-3 -70 -45 -123h-590q9 -150 80 -242t184 -92q80 0 136 27q54 26 86 55q30 27 45 27q19 0 55 -19l39 -24q-53 -92 -160 -150q-105 -57 -246 -57q-222 0 -358 133q-135 132 -135 350zM219 1200 q0 40 45 76q163 137 256 205q90 -64 197 -154q101 -85 141 -88q-3 -32 -27 -76q-24 -43 -57 -43q-26 0 -76 29l-90 72l-90 71q-138 -108 -250 -174l-30 39q-19 22 -19 43zM358 596h375q-21 248 -180 248h-2q-72 0 -125 -68q-53 -69 -68 -180z" />
<glyph unicode="&#xeb;" horiz-adv-x="1069" d="M78 465q0 235 135 379q136 145 350 145q205 0 316 -108q110 -107 110 -295q-3 -70 -45 -123h-590q9 -150 80 -242t184 -92q80 0 136 27q54 26 86 55q30 27 45 27q19 0 55 -19l39 -24q-53 -92 -160 -150q-105 -57 -246 -57q-222 0 -358 133q-135 132 -135 350zM176 1247 q0 59 37 96t96 37q54 0 86 -32q33 -33 33 -86q0 -58 -37 -95t-94 -37q-51 0 -86 35q-33 33 -33 86zM358 596h375q-21 248 -180 248h-2q-72 0 -125 -68q-53 -69 -68 -180zM627 1251q0 60 37 97q36 36 98 36q54 0 86 -32q35 -35 35 -86q0 -58 -37 -95q-36 -36 -96 -36 q-52 0 -86 34q-33 33 -33 86z" />
<glyph unicode="&#xec;" horiz-adv-x="538" d="M55 1358h2q43 87 86 133q71 -50 217 -172q102 -82 144 -88q-3 -37 -21 -78t-51 -41q-24 0 -63 25q-32 22 -154 116q-118 91 -160 105zM119 967q89 24 264 24q14 -95 14 -295v-503q0 -132 43 -166q-81 -35 -194 -35q-52 0 -78 33q-29 37 -29 125l2 526q0 146 -22 291z" />
<glyph unicode="&#xed;" horiz-adv-x="538" d="M61 1186q0 35 45 74q195 165 289 231q43 -46 86 -133q-231 -181 -368 -258l-33 37q-19 29 -19 49zM119 967q89 24 264 24q14 -95 14 -295v-503q0 -132 43 -166q-81 -35 -194 -35q-52 0 -78 33q-29 37 -29 125l2 526q0 146 -22 291z" />
<glyph unicode="&#xee;" horiz-adv-x="538" d="M-49 1206q0 40 45 76q163 137 256 205q90 -64 197 -154q101 -85 141 -88q-3 -32 -27 -76q-24 -43 -57 -43q-26 0 -76 29l-90 72l-90 71q-138 -108 -250 -174l-31 37q-18 21 -18 45zM119 967q89 24 264 24q14 -95 14 -295v-503q0 -132 43 -166q-81 -35 -194 -35 q-52 0 -78 33q-29 37 -29 125l2 526q0 146 -22 291z" />
<glyph unicode="&#xef;" horiz-adv-x="538" d="M-82 1257q0 60 37 97t96 37q53 0 86 -33t33 -86q0 -57 -37 -94t-94 -37q-51 0 -86 35q-33 33 -33 86zM113 958q92 25 264 25q14 -95 14 -295v-504q0 -132 43 -166q-78 -34 -194 -34q-53 0 -78 32q-29 37 -29 125l2 527q0 145 -22 290zM362 1253q0 60 37 97q36 36 99 36 q54 0 86 -32q34 -34 34 -86q0 -58 -36 -94q-37 -37 -97 -37q-52 0 -86 34q-32 32 -32 86z" />
<glyph unicode="&#xf0;" horiz-adv-x="1138" d="M84 469q0 237 141 381q142 145 373 145q74 0 141 -18q-48 128 -116 213q-121 -81 -170 -105l-31 37q-19 25 -19 47q0 34 46 74l67 55q-57 41 -82 54l-65 37q-21 12 -21 24q0 24 21 51l28 35q146 -47 244 -102q52 41 160 116q44 -50 86 -135q-56 -43 -111 -82 q283 -247 283 -782h2q0 -237 -141 -381q-142 -145 -373 -145q-204 0 -334 133q-129 132 -129 348zM360 500q0 -161 62 -264t158 -103q90 0 145 98t55 254q0 164 -61 265q-61 102 -160 102q-88 0 -143 -98q-56 -100 -56 -254z" />
<glyph unicode="&#xf1;" d="M113 967q89 24 252 24q28 -106 28 -217v-10q40 103 139 168q97 63 232 63q121 0 197 -82q77 -83 77 -211v-509q0 -132 43 -166q-81 -35 -196 -35q-48 0 -74 33q-29 37 -29 125l-2 499q0 90 -41 146q-40 55 -102 55q-92 0 -164 -100q-75 -104 -78 -222v-333 q0 -125 25 -170q-67 -31 -178 -31q-52 0 -78 33q-29 37 -29 125v526q0 144 -22 289zM272 1237q0 61 47 96t105 35q51 0 135 -37t127 -37q45 0 86 35t51 35q15 0 49 -27l33 -22q-27 -88 -80 -135q-51 -45 -116 -45q-39 0 -107 30q-70 31 -117 31q-90 0 -149 -68 q-64 34 -64 109z" />
<glyph unicode="&#xf2;" horiz-adv-x="1138" d="M78 469q0 237 141 381q142 145 373 145q206 0 336 -133q129 -132 129 -348q0 -236 -142 -381t-372 -145q-204 0 -334 133q-129 132 -129 348h-2zM344 1358h2q43 87 86 133q71 -50 217 -172q102 -82 144 -88q-3 -37 -21 -78t-51 -41q-25 0 -64 25q-25 17 -153 116 q-118 91 -160 105zM356 500q0 -161 62 -264t157 -103q91 0 146 98t55 254q0 164 -61 265q-61 102 -160 102q-88 0 -143 -98q-56 -100 -56 -254z" />
<glyph unicode="&#xf3;" horiz-adv-x="1138" d="M78 469q0 237 141 381q142 145 373 145q206 0 336 -133q129 -132 129 -348q0 -236 -142 -381t-372 -145q-204 0 -334 133q-129 132 -129 348h-2zM356 500q0 -161 62 -264t157 -103q91 0 146 98t55 254q0 164 -61 265q-61 102 -160 102q-88 0 -143 -98q-56 -100 -56 -254z M358 1186q0 35 45 74q195 165 289 231q43 -46 86 -133q-231 -181 -368 -258l-33 37q-19 29 -19 49z" />
<glyph unicode="&#xf4;" horiz-adv-x="1138" d="M78 469q0 237 141 381q142 145 373 145q206 0 336 -133q129 -132 129 -348q0 -236 -142 -381t-372 -145q-204 0 -334 133q-129 132 -129 348h-2zM248 1206q0 40 45 76q163 137 256 205q83 -59 196 -154q101 -85 142 -88q-3 -32 -27 -76q-24 -43 -57 -43q-26 0 -76 29 l-90 72l-90 71q-138 -108 -250 -174l-31 39q-18 21 -18 43zM356 500q0 -161 62 -264t157 -103q91 0 146 98t55 254q0 164 -61 265q-61 102 -160 102q-88 0 -143 -98q-56 -100 -56 -254z" />
<glyph unicode="&#xf5;" horiz-adv-x="1138" d="M78 469q0 237 141 381q142 145 373 145q206 0 336 -133q129 -132 129 -348q0 -236 -142 -381t-372 -145q-204 0 -334 133q-129 132 -129 348h-2zM254 1235q0 61 47 96t105 35q49 0 133 -37t127 -37q47 0 88 35t49 35q15 0 49 -27l35 -22q-27 -88 -80 -135 q-51 -45 -117 -45q-38 0 -106 30q-70 31 -117 31q-91 0 -150 -68q-63 34 -63 109zM356 500q0 -161 62 -264t157 -103q91 0 146 98t55 254q0 164 -61 265q-61 102 -160 102q-88 0 -143 -98q-56 -100 -56 -254z" />
<glyph unicode="&#xf6;" horiz-adv-x="1138" d="M78 469q0 237 141 381q142 145 373 145q206 0 336 -133q129 -132 129 -348q0 -236 -142 -381t-372 -145q-204 0 -334 133q-129 132 -129 348h-2zM215 1257q0 60 37 97t96 37q53 0 86 -33t33 -86q0 -57 -37 -94t-96 -37q-51 0 -86 35q-33 33 -33 86v-5zM356 500 q0 -161 62 -264t157 -103q91 0 146 98t55 254q0 164 -61 265q-61 102 -160 102q-88 0 -143 -98q-56 -100 -56 -254zM659 1253q0 60 37 97q36 36 99 36q54 0 86 -32q34 -34 34 -86q0 -58 -36 -94q-37 -37 -97 -37q-52 0 -86 34q-32 32 -32 86z" />
<glyph unicode="&#xf7;" horiz-adv-x="1083" d="M90 719q101 8 295 8h408q129 0 165 25q37 -52 37 -109t-157 -57h-430q-150 0 -291 -25q-27 80 -27 158zM406 999q0 61 40 101q39 39 105 39q57 0 90 -33q35 -35 35 -92q0 -65 -39 -101t-105 -36q-56 0 -90 34t-34 93zM408 295q0 59 41 100q39 39 104 39q57 0 90 -33 q35 -35 35 -92q0 -65 -39 -104t-104 -39q-56 0 -91 35q-34 34 -34 92z" />
<glyph unicode="&#xf8;" horiz-adv-x="1138" d="M80 469q0 237 141 381q142 145 373 145q135 0 242 -61l34 41q70 20 177 20l-111 -141q121 -133 121 -340q0 -236 -142 -381t-372 -145q-135 0 -234 57l-28 -37q-37 -16 -109 -16q-35 0 -35 33q0 37 58 110q-115 133 -115 334zM342 502q0 -88 18 -156l347 428 q-63 78 -150 78q-96 0 -154 -98q-59 -100 -59 -254zM430 205q60 -72 148 -72q95 0 153 98q60 102 60 254v-2q0 81 -21 158z" />
<glyph unicode="&#xf9;" d="M119 967q89 24 264 24q14 -95 14 -295l-2 -346q0 -92 43 -153q44 -62 107 -62q91 0 164 105q73 104 73 231v205q0 151 -14 299q101 16 258 16q14 -112 14 -295v-503q0 -132 43 -166q-81 -35 -196 -35q-48 0 -74 33q-29 37 -29 125v63q-42 -99 -139 -162q-94 -61 -225 -61 q-119 0 -199 86t-80 221v381q0 144 -22 289zM365 1362h2q43 87 86 133q71 -50 217 -172q102 -82 143 -88q-3 -40 -20 -78q-18 -41 -52 -41q-24 0 -63 25q-32 22 -154 116q-118 92 -159 105z" />
<glyph unicode="&#xfa;" d="M119 967q89 24 264 24q14 -95 14 -295l-2 -350q0 -92 43 -153q44 -62 107 -62q88 0 160 100q74 103 77 228v217q0 151 -14 299q101 16 258 16q14 -112 14 -295v-503q0 -132 43 -166q-81 -35 -196 -35q-48 0 -74 33q-29 37 -29 125v63q-42 -99 -139 -162q-94 -61 -225 -61 q-119 0 -199 86t-80 221v381q0 144 -22 289zM377 1186q0 35 45 74q195 165 289 231q43 -46 86 -133q-228 -178 -369 -258l-33 37q-18 27 -18 49z" />
<glyph unicode="&#xfb;" d="M119 967q89 24 264 24q14 -95 14 -295l-2 -346q0 -92 43 -153q44 -62 107 -62q91 0 164 105q73 104 73 231v205q0 151 -14 299q101 16 258 16q14 -112 14 -295v-503q0 -132 43 -166q-81 -35 -196 -35q-48 0 -74 33q-29 37 -29 125v63q-42 -99 -139 -162q-94 -61 -225 -61 q-119 0 -199 86t-80 221v381q0 144 -22 289zM268 1210q0 40 45 76q163 137 256 205q90 -64 197 -154q101 -85 141 -88q-3 -33 -26 -75q-24 -44 -58 -44q-25 0 -75 29l-91 72l-90 72q-143 -112 -250 -175l-30 39q-19 22 -19 43z" />
<glyph unicode="&#xfc;" d="M119 967q89 24 264 24q14 -95 14 -295l-2 -350q0 -92 43 -153q44 -62 107 -62q88 0 160 100q74 103 77 228v217q0 151 -14 299q101 16 258 16q14 -112 14 -295v-503q0 -132 43 -166q-81 -35 -196 -35q-48 0 -74 33q-29 37 -29 125v63q-42 -99 -139 -162q-94 -61 -225 -61 q-119 0 -199 86t-80 221v381q0 144 -22 289zM227 1253q0 60 37 97q36 36 96 36q54 0 86 -32q33 -33 33 -86q0 -57 -37 -94t-94 -37q-52 0 -86 34q-33 33 -33 86zM678 1257q0 60 37 97t98 37q53 0 86 -33q35 -35 35 -86q0 -57 -37 -94t-96 -37q-51 0 -86 35q-33 33 -33 86z " />
<glyph unicode="&#xfd;" horiz-adv-x="1144" d="M57 967q89 24 256 24q75 -124 111 -219l176 -514l160 418q44 122 86 301q88 10 231 10q-30 -120 -94 -291l-278 -737q-75 -207 -189 -321q-111 -111 -242 -111q-57 0 -94 37t-37 108q238 0 332 254l25 74q-57 25 -97 147l-210 529q-61 147 -136 291zM360 1186q0 34 46 74 q201 169 288 231q43 -46 86 -133q-231 -181 -368 -258l-33 37q-19 29 -19 49z" />
<glyph unicode="&#xfe;" horiz-adv-x="1144" d="M117 1466q92 25 252 25q28 -106 28 -217v-512q71 231 301 231q164 0 265 -125q102 -126 102 -327q0 -248 -131 -400q-132 -153 -352 -153q-112 0 -183 53v-311q0 -124 25 -172q-73 -31 -178 -31q-52 0 -78 33q-29 37 -29 125v1493q0 143 -22 288zM399 193q70 -58 174 -58 q99 0 154 105q55 104 55 274q0 155 -51 244q-53 92 -131 92v2q-81 0 -139 -104q-59 -106 -62 -230v-325z" />
<glyph unicode="&#xff;" horiz-adv-x="1144" d="M57 967q89 24 256 24q75 -124 111 -219l176 -514l160 418q44 122 86 301q88 10 231 10q-30 -120 -94 -291l-278 -737q-75 -207 -189 -321q-111 -111 -242 -111q-57 0 -94 37t-37 108q238 0 332 254l25 74q-57 25 -97 147l-210 529q-61 147 -136 291zM211 1253q0 60 37 97 q36 36 96 36q54 0 86 -32q33 -33 33 -86q0 -57 -37 -94t-94 -37q-52 0 -86 34q-33 33 -33 86zM662 1257q0 61 36 97q37 37 99 37q53 0 86 -33q35 -35 35 -86q0 -57 -37 -94t-97 -37q-51 0 -86 35q-32 32 -32 86z" />
<glyph unicode="&#x100;" horiz-adv-x="1466" d="M80 39q0 37 26 111l386 976q48 120 88 291q89 25 272 25q61 -126 127 -295l371 -954q53 -132 104 -166q-68 -35 -194 -35q-120 0 -179 158l-90 245h-561l-76 -200q-43 -113 -43 -166q-81 -35 -176 -35q-55 0 -55 45zM442 1735q101 8 295 8h137q126 0 166 24 q35 -50 35 -96q0 -53 -157 -53h-160q-150 0 -291 -25q-25 73 -25 142zM485 545h447l-225 583z" />
<glyph unicode="&#x101;" horiz-adv-x="1087" d="M90 238q0 156 164 245q169 92 436 115v66q0 85 -51 133q-52 49 -135 49q-78 0 -129 -51q-53 -53 -53 -123q-203 0 -203 110q0 81 121 146t307 65q180 0 289 -86q108 -85 108 -227v-487q0 -132 43 -166q-81 -35 -196 -35q-48 0 -74 33q-29 37 -29 125l6 57 q-34 -101 -110 -162t-197 -61q-134 0 -215 69q-82 70 -82 185zM233 1321q101 8 295 8h138q123 0 165 25q35 -50 35 -97q0 -53 -157 -53h-160q-156 0 -291 -24q-25 73 -25 141zM350 262q0 -56 37 -90q38 -35 94 -35l4 2q77 0 142 80q64 79 67 176v84q-344 -35 -344 -217z" />
<glyph unicode="&#x102;" horiz-adv-x="1466" d="M80 39q0 37 26 111l386 976q48 120 88 291q89 25 272 25q61 -126 127 -295l371 -954q53 -132 104 -166q-68 -35 -194 -35q-120 0 -179 158l-90 245h-561l-76 -200q-43 -113 -43 -166q-81 -35 -176 -35q-55 0 -55 45zM442 1704q0 84 160 84q40 -119 184 -119l-4 2 q54 0 101 29q40 25 67 55q26 29 37 29q7 0 47 -19l39 -22q-41 -95 -129 -156t-199 -61q-139 0 -221 55t-82 123zM485 545h447l-225 583z" />
<glyph unicode="&#x103;" horiz-adv-x="1087" d="M90 238q0 156 164 245q169 92 436 115v66q0 85 -51 133q-52 49 -135 49q-78 0 -129 -51q-53 -53 -53 -123q-203 0 -203 110q0 81 121 146t307 65q180 0 289 -86q108 -85 108 -227v-487q0 -132 43 -166q-81 -35 -196 -35q-48 0 -74 33q-29 37 -29 125l6 57 q-34 -101 -110 -162t-197 -61q-134 0 -215 69q-82 70 -82 185zM233 1288q0 84 160 84q40 -119 185 -119l-5 2q54 0 101 29q40 25 67 55q26 29 37 29q10 0 47 -18l39 -23q-40 -95 -129 -156q-88 -61 -198 -61q-140 0 -222 55t-82 123zM346 262q0 -56 37 -90q38 -35 94 -35 q83 0 148 86t65 185v71q-344 -35 -344 -217z" />
<glyph unicode="&#x104;" horiz-adv-x="1466" d="M84 39q0 35 27 111l385 976q48 120 88 291q89 25 272 25q61 -126 127 -295l371 -954q53 -132 104 -166q-49 -25 -117 -31q-96 -110 -96 -207q0 -72 68 -72q11 0 35 4q5 1 10.5 2t8.5 2t5 1q21 0 31 -13q9 -11 18 -43l13 -41q-62 -24 -131 -24q-94 0 -150 47 q-55 46 -55 123q0 135 121 221q-88 18 -138 154l-86 245h-561l-76 -200q-43 -113 -43 -166q-81 -35 -176 -35q-55 0 -55 45zM489 545h447l-225 583z" />
<glyph unicode="&#x105;" horiz-adv-x="1087" d="M96 238q0 156 164 245q169 92 436 115v66q0 85 -51 133q-52 49 -135 49q-78 0 -129 -51q-53 -53 -53 -123q-203 0 -203 110q0 81 121 146t307 65q180 0 289 -86q108 -85 108 -227v-487q0 -132 43 -166q-56 -24 -119 -29q-96 -110 -96 -209q0 -72 68 -72q11 0 35 4 q5 1 10.5 2t8.5 2t5 1q21 0 31 -13q9 -11 18 -43l13 -41q-61 -24 -131 -24q-94 0 -150 47q-55 46 -55 123q0 134 123 223q-66 18 -66 152l12 57q-34 -101 -110 -162t-197 -61q-134 0 -215 69q-82 70 -82 185zM360 264q0 -56 37 -90q38 -35 95 -35q76 0 141 80q64 79 67 176 v84l5 2q-345 -35 -345 -217z" />
<glyph unicode="&#x106;" horiz-adv-x="1357" d="M82 680q0 343 190 551q191 209 514 209q217 0 353 -80q135 -80 135 -176q0 -107 -217 -107q-27 93 -103 154q-74 59 -182 59q-176 0 -289 -155q-112 -153 -112 -406v-6q0 -261 114 -424q113 -162 301 -162q90 0 170 23q70 20 109 47q64 45 68 47q36 22 57 22q20 0 55 -18 l39 -25q-64 -107 -209 -178q-141 -69 -321 -69q-311 0 -492 190q-180 189 -180 504zM547 1589q0 35 45 74q195 165 289 231q43 -46 86 -133q-228 -179 -369 -258l-33 37q-18 27 -18 49z" />
<glyph unicode="&#x107;" horiz-adv-x="1050" d="M78 471q0 236 139 381t373 145q163 0 264 -73q100 -72 100 -156q0 -96 -192 -96q-18 80 -64 129t-110 49q-98 0 -162 -98t-64 -252v-4q0 -162 68 -265q66 -100 178 -100q77 0 137 29q56 27 84 55q27 27 43 27q20 0 56 -19l39 -22q-50 -96 -158 -154q-109 -59 -244 -59 q-223 0 -356 133q-131 131 -131 350zM352 1182q0 34 45 73q203 171 289 232q43 -46 86 -133q-228 -178 -369 -258l-32 37q-19 29 -19 49z" />
<glyph unicode="&#x108;" horiz-adv-x="1357" d="M82 680q0 343 190 551q191 209 514 209q217 0 353 -80q135 -80 135 -176q0 -107 -217 -107q-27 93 -103 154q-74 59 -182 59q-176 0 -289 -155q-112 -153 -112 -406v-6q0 -261 114 -424q113 -162 301 -162q90 0 170 23q70 20 109 47q64 45 68 47q36 22 57 22q20 0 55 -18 l39 -25q-64 -107 -209 -178q-141 -69 -321 -69q-311 0 -492 190q-180 189 -180 504zM436 1610q0 40 45 76q154 129 256 204q98 -70 197 -153q101 -85 141 -88q-3 -34 -26 -76q-24 -43 -58 -43q-26 0 -76 29l-90 71l-90 72q-138 -108 -250 -174l-30 37q-19 22 -19 45z" />
<glyph unicode="&#x109;" horiz-adv-x="1050" d="M78 471q0 236 139 381t373 145q163 0 264 -73q100 -72 100 -156q0 -96 -192 -96q-18 80 -64 129t-110 49q-98 0 -162 -98t-64 -252v-4q0 -162 68 -265q66 -100 178 -100q77 0 137 29q56 27 84 55q27 27 43 27q20 0 56 -19l39 -22q-50 -96 -158 -154q-109 -59 -244 -59 q-223 0 -356 133q-131 131 -131 350zM242 1206q0 40 45 76q163 137 256 205q83 -59 196 -154q101 -85 142 -88q-3 -32 -27 -76q-24 -43 -57 -43q-26 0 -76 29l-90 72l-90 71q-138 -108 -250 -174l-31 39q-18 21 -18 43z" />
<glyph unicode="&#x10a;" horiz-adv-x="1357" d="M82 680q0 343 190 551q191 209 514 209q217 0 353 -80q135 -80 135 -176q0 -107 -217 -107q-27 93 -103 154q-74 59 -182 59q-176 0 -289 -155q-112 -153 -112 -406v-6q0 -261 114 -424q113 -162 301 -162q90 0 170 23q70 20 109 47q64 45 68 47q36 22 57 22q20 0 55 -18 l39 -25q-64 -107 -209 -178q-141 -69 -321 -69q-311 0 -492 190q-180 189 -180 504zM623 1675q0 61 39 97t100 36q54 0 86 -32q33 -33 33 -88q0 -60 -37 -97t-96 -37q-51 0 -86 35t-35 90z" />
<glyph unicode="&#x10b;" horiz-adv-x="1050" d="M78 471q0 236 139 381t373 145q163 0 264 -73q100 -72 100 -156q0 -96 -192 -96q-18 80 -64 129t-110 49q-98 0 -162 -98t-64 -252v-4q0 -162 68 -265q66 -100 178 -100q77 0 137 29q56 27 84 55q27 27 43 27q20 0 56 -19l39 -22q-50 -96 -158 -154q-109 -59 -244 -59 q-223 0 -356 133q-131 131 -131 350zM428 1268q0 60 39 96q40 37 100 37q53 0 86 -33t33 -88q0 -59 -37 -96t-96 -37q-51 0 -86 35t-35 90z" />
<glyph unicode="&#x10c;" horiz-adv-x="1357" d="M82 680q0 343 190 551q191 209 514 209q217 0 353 -80q135 -80 135 -176q0 -107 -217 -107q-27 93 -103 154q-74 59 -182 59q-176 0 -289 -155q-112 -153 -112 -406v-6q0 -261 114 -424q113 -162 301 -162q90 0 170 23q70 20 109 47q64 45 68 47q36 22 57 22q20 0 55 -18 l39 -25q-64 -107 -209 -178q-141 -69 -321 -69q-311 0 -492 190q-180 189 -180 504zM432 1759q26 54 98 129q167 -110 242 -174q153 118 250 174l31 -37q18 -21 18 -49q0 -34 -45 -73q-155 -137 -256 -209q-28 18 -111 84q-71 56 -131 98q-61 42 -92 53z" />
<glyph unicode="&#x10d;" horiz-adv-x="1050" d="M74 473q0 236 139 381t373 145q163 0 264 -73q100 -72 100 -156q0 -96 -192 -96q-18 80 -64 129t-110 49q-98 0 -162 -98t-64 -252v-4q0 -162 68 -265q66 -100 178 -100q77 0 137 29q56 27 84 55q27 27 43 27q20 0 56 -19l39 -22q-50 -96 -158 -154q-109 -59 -244 -59 q-223 0 -356 133q-131 131 -131 350zM240 1354q26 54 98 129q167 -110 242 -174q156 120 249 174l31 -37q19 -22 19 -47q0 -35 -45 -74q-155 -137 -256 -209q-28 18 -111 84q-71 56 -131 98q-64 44 -92 54z" />
<glyph unicode="&#x10e;" horiz-adv-x="1449" d="M119 1409q98 25 276 25h316l-2 -4q288 0 467 -191q178 -190 178 -502q0 -328 -191 -534q-190 -205 -493 -205h-211q-150 0 -291 -16q-25 73 -25 153v983q0 153 -24 291zM342 1759q26 54 98 129q167 -110 242 -174q153 118 250 174l31 -37q18 -21 18 -49q0 -34 -45 -73 q-155 -137 -256 -209q-28 18 -111 84q-71 56 -131 98q-61 42 -92 53zM403 1280q1 -27 3 -77.5t2 -67.5v-990l286 -2q167 0 269 156t102 408q0 255 -107 413q-109 160 -276 160h-279z" />
<glyph unicode="&#x10f;" horiz-adv-x="1456" d="M72 440q0 249 141 402t373 153q91 0 153 -39v222q0 152 -24 290h-4q98 25 270 25q14 -112 14 -295v-1005q0 -132 43 -166q-81 -35 -196 -35q-48 0 -74 33q-29 37 -29 125v73q-76 -235 -301 -235q-163 0 -264 125q-102 126 -102 327zM350 469q0 -153 49 -244 q50 -92 127 -92l-4 -4q83 0 148 109q63 105 63 237v311q-60 60 -158 60q-101 0 -163 -105q-62 -106 -62 -272zM1102 1108q0 16 18 37q21 25 37 63q19 46 19 113q0 17 -11 74q-9 48 -12 67q53 21 133 21q28 0 47 -19t19 -49q0 -278 -189 -373l-30 17q-31 28 -31 49z" />
<glyph unicode="&#x110;" horiz-adv-x="1529" d="M80 797q129 6 141 6v317q0 144 -22 289q92 25 274 25h318l2 4q286 0 464 -193q179 -194 179 -504q0 -328 -191 -534q-190 -205 -497 -205h-211q-151 0 -289 -16q-27 76 -27 153v518q-73 -9 -117 -18q-24 74 -24 158zM485 152h289q167 0 268 155q103 158 103 408 q0 254 -105 413q-106 160 -274 160h-279q2 -33 2 -145v-336h129q132 0 166 24q37 -52 37 -108q0 -57 -157 -57l-179 -2v-512z" />
<glyph unicode="&#x111;" horiz-adv-x="1267" d="M72 438q0 249 141 402t373 153q91 0 153 -39v187h-6q-143 0 -301 -23q-24 70 -24 156q123 10 301 10h26q-6 82 -22 182q98 25 270 25q9 -88 12 -207q120 0 158 23q35 -53 35 -105q0 -59 -156 -59l-37 -2v-951q0 -131 43 -165q-81 -35 -196 -35q-48 0 -74 33 q-29 37 -29 124v74q-76 -235 -301 -235q-163 0 -264 125q-102 126 -102 327zM352 467q0 -153 49 -244q50 -92 127 -92l-4 -4q83 0 148 109q63 105 63 237v311q-60 60 -157 60q-102 0 -164 -105q-62 -106 -62 -272z" />
<glyph unicode="&#x112;" horiz-adv-x="1222" d="M121 1419q120 15 295 15h499q131 0 166 18q37 -43 37 -109q0 -59 -157 -59h-555q4 -118 4 -139v-332h458q129 0 166 16q35 -44 35 -108q0 -59 -158 -59l-499 -3v-469v-14v-14v-12h530q133 0 166 26q35 -47 35 -117q0 -61 -158 -61h-524q-150 0 -291 -16q-25 73 -25 153 v989q0 157 -24 295zM295 1731q101 8 295 8h137q125 0 166 24q35 -50 35 -96q0 -53 -158 -53h-160q-150 0 -291 -25q-24 71 -24 142z" />
<glyph unicode="&#x113;" horiz-adv-x="1069" d="M78 465q0 235 135 379q136 145 350 145q205 0 316 -108q110 -107 110 -295q-3 -70 -45 -123h-590q9 -150 80 -242t184 -92q80 0 136 27q54 26 86 55q30 27 45 27q19 0 55 -19l39 -24q-53 -92 -160 -150q-105 -57 -246 -57q-222 0 -358 133q-135 132 -135 350zM219 1317 q101 8 295 8h137q124 0 166 25q35 -50 35 -97q0 -53 -158 -53h-159q-156 0 -291 -24q-25 73 -25 141zM358 596h375q-21 248 -180 248h-2q-72 0 -125 -68q-53 -69 -68 -180z" />
<glyph unicode="&#x114;" horiz-adv-x="1222" d="M121 1419q120 15 295 15h499q131 0 166 18q37 -43 37 -109q0 -59 -157 -59h-555q4 -118 4 -139v-332h458q129 0 166 16q35 -44 35 -108q0 -59 -158 -59l-499 -3v-469v-14v-14v-12h530q133 0 166 26q35 -47 35 -117q0 -61 -158 -61h-524q-150 0 -291 -16q-25 73 -25 153 v989q0 157 -24 295zM297 1700q0 84 160 84q40 -119 184 -119l-4 2q53 0 100 29q43 26 68 55q26 29 37 29q7 0 47 -19l39 -22q-40 -95 -129 -156q-88 -61 -199 -61q-139 0 -221 55t-82 123z" />
<glyph unicode="&#x115;" horiz-adv-x="1069" d="M78 465q0 235 135 379q136 145 350 145q205 0 316 -108q110 -107 110 -295q-3 -70 -45 -123h-590q9 -150 80 -242t184 -92q80 0 136 27q54 26 86 55q30 27 45 27q19 0 55 -19l39 -24q-53 -92 -160 -150q-105 -57 -246 -57q-222 0 -358 133q-135 132 -135 350zM221 1286 q0 84 160 84q40 -119 184 -119l-4 2q54 0 101 29q40 25 67 55q26 29 37 29q10 0 47 -18l39 -23q-40 -95 -129 -156q-88 -61 -199 -61q-139 0 -221 55t-82 123zM354 598h375q-21 248 -180 248h-2q-72 0 -125 -68q-53 -69 -68 -180z" />
<glyph unicode="&#x116;" horiz-adv-x="1222" d="M121 1419q120 15 295 15h499q131 0 166 18q37 -43 37 -109q0 -59 -157 -59h-555q4 -118 4 -139v-332h458q129 0 166 16q35 -44 35 -108q0 -59 -158 -59l-499 -3v-469v-14v-14v-12h530q133 0 166 26q35 -47 35 -117q0 -61 -158 -61h-524q-150 0 -291 -16q-25 73 -25 153 v989q0 157 -24 295zM479 1679q0 61 39 97t100 36q55 0 87 -32t32 -88q0 -60 -37 -97q-36 -36 -96 -36q-52 0 -86 34q-35 35 -35 90z" />
<glyph unicode="&#x117;" horiz-adv-x="1069" d="M78 465q0 235 135 379q136 145 350 145q205 0 316 -108q110 -107 110 -295q-3 -70 -45 -123h-590q9 -150 80 -242t184 -92q80 0 136 27q54 26 86 55q30 27 45 27q19 0 55 -19l39 -24q-53 -92 -160 -150q-105 -57 -246 -57q-222 0 -358 133q-135 132 -135 350zM358 596 h375q-21 248 -180 248h-2q-72 0 -125 -68q-53 -69 -68 -180zM401 1266q0 60 39 96q40 37 101 37q53 0 86 -33q32 -32 32 -88q0 -60 -36 -96q-37 -37 -97 -37q-51 0 -86 35q-34 34 -34 90z" />
<glyph unicode="&#x118;" horiz-adv-x="1222" d="M121 1419q120 15 295 15h499q131 0 166 18q37 -43 37 -109q0 -59 -157 -59h-555q4 -118 4 -139v-332h458q129 0 166 16q35 -44 35 -108q0 -59 -158 -59l-495 -5v-469v-14v-14v-13h530q132 0 166 27q35 -47 35 -117q0 -61 -156 -61q-100 -109 -100 -211q0 -72 67 -72 q11 0 35 4t25 4q22 0 31 -12q9 -11 18 -43l12 -41q-62 -24 -131 -24q-93 0 -149 47t-56 123q0 138 127 227h-409q-150 0 -291 -16q-25 73 -25 153v989q0 157 -24 295z" />
<glyph unicode="&#x119;" horiz-adv-x="1069" d="M78 463q0 235 135 379q136 145 350 145q205 0 316 -108q110 -107 110 -295q-3 -70 -45 -123h-590q9 -150 80 -242t184 -92q80 0 136 27q54 26 86 55q30 27 45 27q19 0 55 -19l39 -24q-89 -156 -299 -197q-98 -107 -98 -209q0 -72 67 -72q11 0 35 4q5 1 10.5 2t9 2t5.5 1 q20 0 30 -13q10 -14 19 -43l12 -41q-62 -24 -131 -24q-94 0 -150 47q-55 46 -55 123q0 127 109 213q-212 9 -338 141q-125 131 -125 344zM358 594h375q-21 248 -180 248h-2q-72 0 -125 -68q-53 -69 -68 -180z" />
<glyph unicode="&#x11a;" horiz-adv-x="1222" d="M121 1419q120 15 295 15h499q131 0 166 18q37 -43 37 -109q0 -59 -157 -59h-555q4 -118 4 -139v-332h458q129 0 166 16q35 -44 35 -108q0 -59 -158 -59l-499 -3v-469v-14v-14v-12h530q133 0 166 26q35 -47 35 -117q0 -61 -158 -61h-524q-150 0 -291 -16q-25 73 -25 153 v989q0 157 -24 295zM291 1763q26 54 98 129q167 -110 242 -174q153 118 250 174l30 -37q19 -22 19 -49q0 -34 -45 -73q-155 -137 -256 -209q-28 18 -111 84q-71 56 -131 98q-61 42 -92 53z" />
<glyph unicode="&#x11b;" horiz-adv-x="1069" d="M78 465q0 235 135 379q136 145 350 145q205 0 316 -108q110 -107 110 -295q-3 -70 -45 -123h-590q9 -150 80 -242t184 -92q80 0 136 27q54 26 86 55q30 27 45 27q19 0 55 -19l39 -24q-53 -92 -160 -150q-105 -57 -246 -57q-222 0 -358 133q-135 132 -135 350zM215 1348 q26 54 98 129q167 -110 242 -174q153 118 250 174l31 -37q18 -21 18 -47q0 -35 -45 -74q-155 -137 -256 -209q-28 18 -111 84q-71 56 -131 98q-64 44 -92 54zM354 598h375q-21 248 -180 248h-2q-72 0 -125 -68q-53 -69 -68 -180z" />
<glyph unicode="&#x11c;" horiz-adv-x="1425" d="M84 680q0 344 192 551q194 209 517 209q217 0 356 -80q137 -79 137 -176q0 -107 -217 -107q-27 95 -104 154t-185 59q-182 0 -295 -155q-114 -156 -114 -406h2q0 -262 116 -424t308 -162q140 0 239 45v258q0 84 -6 166q-139 -3 -233 -12q-27 70 -27 148q95 14 297 14h219 q14 -95 14 -297v-232q-68 -108 -210 -178q-141 -69 -322 -69q-316 0 -500 190t-184 504zM440 1616q0 40 45 76q154 129 256 204q98 -70 197 -153q101 -85 141 -88q-3 -34 -26 -76q-24 -43 -58 -43q-25 0 -75 29l-91 71l-90 72q-138 -108 -250 -174l-30 37q-19 22 -19 45z " />
<glyph unicode="&#x11d;" horiz-adv-x="1140" d="M57 -217q0 98 62 160q61 61 133 67l45 4q-158 35 -158 185q0 118 94 188q-120 89 -120 248v-6q0 158 123 260q121 100 317 100q107 0 192 -33q73 150 220 150q79 0 116 -43t37 -94q0 -97 -129 -97q-9 42 -37 70q-27 27 -61 27q-46 0 -86 -43q149 -88 149 -264 q0 -158 -125 -259q-124 -100 -319 -100q-81 0 -143 16q-37 -40 -37 -79q0 -53 55 -74t137 -21q84 0 178 -6q106 -7 179 -20q81 -15 137 -74q55 -58 55 -160q0 -168 -143 -262q-146 -96 -418 -96q-213 0 -334 65q-119 64 -119 191zM215 1196q0 40 45 76q163 137 256 205 q90 -64 197 -154q101 -85 141 -88q-3 -32 -27 -76q-24 -43 -57 -43q-26 0 -76 29l-90 72l-90 71q-138 -108 -250 -174l-31 39q-18 21 -18 43zM311 -182q0 -80 64 -129t178 -49q120 0 184 55q66 57 66 141l-2 -2q0 46 -19 78q-19 31 -47 47q-30 17 -76 25q-55 10 -88 10h-100 q-73 0 -96 2q-64 -73 -64 -178zM356 647q0 -93 54 -153q52 -58 129 -58t125 60q45 57 45 141q0 96 -52 154q-53 59 -129 59q-77 0 -122 -57q-46 -58 -46 -144z" />
<glyph unicode="&#x11e;" horiz-adv-x="1425" d="M84 680q0 344 192 551q194 209 517 209q217 0 356 -80q137 -79 137 -176q0 -107 -217 -107q-27 95 -104 154t-185 59q-182 0 -295 -155q-114 -156 -114 -406h2q0 -262 116 -424t308 -162q140 0 239 45v258q0 84 -6 166q-139 -3 -233 -12q-27 70 -27 148q95 14 297 14h219 q14 -95 14 -297v-232q-68 -108 -210 -178q-141 -69 -322 -69q-316 0 -500 190t-184 504zM444 1702q0 84 160 84q40 -119 184 -119l-4 2q54 0 101 29q40 25 67 55q26 29 37 29q7 0 47 -19l39 -22q-41 -95 -129 -156t-198 -61q-140 0 -222 55t-82 123z" />
<glyph unicode="&#x11f;" horiz-adv-x="1140" d="M57 -217q0 98 62 160q61 61 133 67l45 4q-158 35 -158 185q0 118 94 188q-120 89 -120 248v-6q0 158 123 260q121 100 317 100q107 0 192 -33q73 150 220 150q79 0 116 -43t37 -94q0 -97 -129 -97q-9 42 -37 70q-27 27 -61 27q-46 0 -86 -43q149 -88 149 -264 q0 -158 -125 -259q-124 -100 -319 -100q-81 0 -143 16q-37 -40 -37 -79q0 -53 55 -74t137 -21q84 0 178 -6q106 -7 179 -20q81 -15 137 -74q55 -58 55 -160q0 -168 -143 -262q-146 -96 -418 -96q-213 0 -334 65q-119 64 -119 191zM219 1282q0 84 160 84q40 -119 184 -119 l-4 2q53 0 100 29q43 26 68 55q26 29 37 29q7 0 47 -19l39 -22q-40 -95 -129 -156q-88 -61 -199 -61q-139 0 -221 55t-82 123zM311 -182q0 -80 64 -129t178 -49q120 0 184 55q66 57 66 141l-2 -2q0 46 -19 78q-19 31 -47 47q-30 17 -76 25q-55 10 -88 10h-100q-73 0 -96 2 q-64 -73 -64 -178zM356 647q0 -93 54 -153q52 -58 129 -58t125 60q45 57 45 141q0 96 -52 154q-53 59 -129 59q-77 0 -122 -57q-46 -58 -46 -144z" />
<glyph unicode="&#x120;" horiz-adv-x="1425" d="M84 680q0 344 192 551q194 209 517 209q217 0 356 -80q137 -79 137 -176q0 -107 -217 -107q-27 95 -104 154t-185 59q-182 0 -295 -155q-114 -156 -114 -406h2q0 -262 116 -424t308 -162q140 0 239 45v258q0 84 -6 166q-139 -3 -233 -12q-27 70 -27 148q95 14 297 14h219 q14 -95 14 -297v-232q-68 -108 -210 -178q-141 -69 -322 -69q-316 0 -500 190t-184 504zM627 1681q0 61 39 97q40 37 100 37q53 0 86 -33t33 -88q0 -60 -37 -97q-36 -36 -96 -36q-52 0 -86 34q-35 35 -35 91z" />
<glyph unicode="&#x121;" horiz-adv-x="1140" d="M57 -217q0 98 62 160q61 61 133 67l45 4q-158 35 -158 185q0 118 94 188q-120 89 -120 248v-6q0 158 123 260q121 100 317 100q107 0 192 -33q73 150 220 150q79 0 116 -43t37 -94q0 -97 -129 -97q-9 42 -37 70q-27 27 -61 27q-46 0 -86 -43q149 -88 149 -264 q0 -158 -125 -259q-124 -100 -319 -100q-81 0 -143 16q-37 -40 -37 -79q0 -53 55 -74t137 -21q84 0 178 -6q106 -7 179 -20q81 -15 137 -74q55 -58 55 -160q0 -168 -143 -262q-146 -96 -418 -96q-213 0 -334 65q-119 64 -119 191zM311 -182q0 -80 64 -129t178 -49 q120 0 184 55q66 57 66 141l-2 -2q0 46 -19 78q-19 31 -47 47q-30 17 -76 25q-55 10 -88 10h-100q-73 0 -96 2q-64 -73 -64 -178zM356 647q0 -93 54 -153q52 -58 129 -58t125 60q45 57 45 141q0 96 -52 154q-53 59 -129 59q-77 0 -122 -57q-46 -58 -46 -144zM401 1262 q0 60 39 96q40 37 101 37q53 0 86 -33q32 -32 32 -88q0 -60 -36 -96q-37 -37 -97 -37q-51 0 -86 35q-34 34 -34 90z" />
<glyph unicode="&#x122;" horiz-adv-x="1425" d="M84 680q0 344 192 551q194 209 517 209q217 0 356 -80q137 -79 137 -176q0 -107 -217 -107q-27 95 -104 154t-185 59q-182 0 -295 -155q-114 -156 -114 -406h2q0 -262 116 -424t308 -162q140 0 239 45v258q0 84 -6 166q-139 -3 -233 -12q-27 70 -27 148q95 14 297 14h219 q14 -95 14 -297v-232q-68 -108 -210 -178q-141 -69 -322 -69q-316 0 -500 190t-184 504zM629 -512q0 16 18 37q21 25 37 63q18 43 18 113q0 22 -10 74q-9 48 -12 67q52 21 133 21q28 0 47 -19t19 -49q0 -278 -189 -373l-31 17q-30 27 -30 49z" />
<glyph unicode="&#x123;" horiz-adv-x="1140" d="M57 -217q0 98 62 160q61 61 133 67l45 4q-158 35 -158 185q0 118 94 188q-120 89 -120 248v-6q0 158 123 260q121 100 317 100q107 0 192 -33q73 150 220 150q79 0 116 -43t37 -94q0 -97 -129 -97q-9 42 -37 70q-27 27 -61 27q-46 0 -86 -43q149 -88 149 -264 q0 -158 -125 -259q-124 -100 -319 -100q-81 0 -143 16q-37 -40 -37 -79q0 -53 55 -74t137 -21q84 0 178 -6q106 -7 179 -20q81 -15 137 -74q55 -58 55 -160q0 -168 -143 -262q-146 -96 -418 -96q-213 0 -334 65q-119 64 -119 191zM311 -182q0 -80 64 -129t178 -49 q120 0 184 55q66 57 66 141l-2 -2q0 46 -19 78q-19 31 -47 47q-30 17 -76 25q-55 10 -88 10h-100q-73 0 -96 2q-64 -73 -64 -178zM356 647q0 -93 54 -153q52 -58 129 -58t125 60q45 57 45 141q0 96 -52 154q-53 59 -129 59q-77 0 -122 -57q-46 -58 -46 -144zM420 1151 q0 276 190 375l27 -29q33 -20 33 -43q0 -15 -19 -37q-21 -25 -37 -63q-18 -44 -18 -111q0 -22 10 -74q9 -48 12 -67q-55 -19 -133 -19q-28 0 -47 19q-18 18 -18 49z" />
<glyph unicode="&#x124;" horiz-adv-x="1433" d="M121 1417q98 25 276 25q15 -120 15 -295v-338h614v317q0 150 -16 291q92 25 268 25q14 -112 14 -295v-954q0 -132 43 -166q-81 -35 -200 -35q-51 0 -80 33q-31 36 -31 125v509h-614v-466q0 -133 26 -166q-78 -35 -190 -35q-48 0 -74 33q-27 35 -27 125v976q0 153 -24 291 zM395 1616q0 40 45 76q154 129 256 204q98 -70 197 -153q101 -85 141 -88q-3 -34 -26 -76q-24 -43 -58 -43q-26 0 -76 29l-90 71l-90 72q-138 -108 -250 -174l-30 37q-19 22 -19 45z" />
<glyph unicode="&#x125;" d="M115 1466q92 25 252 25q28 -106 28 -217v-496q40 101 140 166q98 64 229 64q121 0 197 -82q77 -83 77 -211v-522q0 -132 43 -166q-81 -35 -196 -35q-48 0 -74 33q-29 37 -29 125v509q0 89 -41 148q-39 57 -102 57q-91 0 -164 -104q-75 -107 -78 -230v-337q0 -125 25 -170 q-67 -31 -178 -31q-52 0 -78 33q-29 37 -29 125v1028q0 143 -22 288zM270 1628q0 40 45 76q163 137 256 205q90 -64 197 -154q101 -85 141 -88q-3 -34 -26 -76q-24 -43 -58 -43q-25 0 -75 29l-91 72l-90 71q-138 -108 -250 -174l-30 39q-19 22 -19 43z" />
<glyph unicode="&#x126;" horiz-adv-x="1570" d="M70 1169q36 2 71 3.5t51 2.5t19 1q-3 112 -23 241q98 25 277 25q13 -104 16 -264h615q-3 126 -17 239q92 25 269 25q9 -102 12 -264q75 3 110 24q35 -53 35 -104q0 -59 -145 -62v-843q0 -131 41 -166q-78 -35 -197 -35q-51 0 -80 33q-30 35 -30 125v512h-615v-467 q0 -130 25 -166q-78 -35 -191 -35q-47 0 -73 33q-29 37 -29 125v878q-60 -6 -115 -14q-26 62 -26 153zM479 811h615v227h-615v-227z" />
<glyph unicode="&#x127;" horiz-adv-x="1241" d="M57 1276q48 3 144 6q-5 73 -23 184q103 25 252 25q28 -106 31 -209h168q132 0 170 23q35 -53 35 -105q0 -59 -158 -59h-215v-363q38 103 135 166q98 64 231 64q121 0 197 -82q78 -84 78 -211v-522q0 -131 41 -166q-81 -35 -195 -35q-52 0 -78 33q-28 36 -28 125v509 q0 92 -39 148q-39 57 -105 57q-89 0 -159 -98q-71 -100 -74 -221v-350q0 -130 22 -172q-67 -31 -178 -31q-52 0 -78 33q-28 36 -28 125v987l-121 -17q-25 73 -25 156z" />
<glyph unicode="&#x128;" horiz-adv-x="550" d="M-41 1645q0 61 47 96t105 35q49 0 133 -37t129 -37t86 35t51 35q14 0 49 -27l33 -23q-27 -88 -80 -135q-51 -45 -117 -45q-36 0 -106 31t-117 31q-90 0 -149 -68q-64 34 -64 109zM117 1417q98 25 276 25q15 -120 15 -295v-954q0 -131 41 -166q-78 -35 -197 -35 q-54 0 -80 33q-29 37 -29 125l-2 976q0 153 -24 291z" />
<glyph unicode="&#x129;" horiz-adv-x="538" d="M-45 1235q0 61 47 96t104 35q52 0 136 -37t127 -37q45 0 86 35t51 35q14 0 49 -27l33 -22q-27 -88 -80 -135q-51 -45 -117 -45q-39 0 -106 30q-70 31 -117 31q-91 0 -150 -68q-63 34 -63 109zM119 969q89 24 264 24q14 -95 14 -295v-503q0 -132 43 -166q-81 -35 -194 -35 q-52 0 -78 33q-29 37 -29 125l2 526q0 146 -22 291z" />
<glyph unicode="&#x12a;" horiz-adv-x="550" d="M-41 1733q101 8 295 8h137q125 0 166 24q35 -50 35 -96q0 -53 -158 -53h-160q-149 0 -290 -25q-25 73 -25 142zM117 1417q98 25 276 25q15 -120 15 -295v-954q0 -131 41 -166q-78 -35 -197 -35q-54 0 -80 33q-29 37 -29 125l-2 976q0 153 -24 291z" />
<glyph unicode="&#x12b;" horiz-adv-x="538" d="M-43 1323q101 8 295 8h137q124 0 166 25q35 -50 35 -96q0 -54 -158 -54h-160q-155 0 -290 -24q-25 73 -25 141zM119 967q89 24 264 24q14 -95 14 -295v-503q0 -132 43 -166q-81 -35 -194 -35q-52 0 -78 33q-29 37 -29 125l2 526q0 146 -22 291z" />
<glyph unicode="&#x12c;" horiz-adv-x="550" d="M-39 1702q0 84 160 84q40 -119 184 -119l-4 2q53 0 100 29q43 26 68 55q26 29 37 29q7 0 47 -19l39 -22q-40 -95 -129 -156q-88 -61 -199 -61q-139 0 -221 55t-82 123zM113 1419q98 25 276 25q14 -112 14 -295v-954q0 -131 41 -166q-78 -35 -196 -35q-54 0 -80 33 q-29 37 -29 125l-2 976q0 153 -24 291z" />
<glyph unicode="&#x12d;" horiz-adv-x="538" d="M-43 1292q0 84 160 84q40 -119 184 -119l-4 3q55 0 100 28q43 26 68 55q26 29 37 29q10 0 47 -18l39 -23q-40 -93 -129 -155t-199 -62q-139 0 -221 55t-82 123zM119 967q89 24 264 24q14 -95 14 -295v-503q0 -132 43 -166q-81 -35 -194 -35q-52 0 -78 33q-29 37 -29 125 l2 526q0 146 -22 291z" />
<glyph unicode="&#x12e;" horiz-adv-x="550" d="M94 -225q0 135 121 221q-72 18 -72 154l4 976q0 153 -24 291q98 25 276 25q15 -120 15 -295v-954q0 -131 41 -166q-52 -23 -117 -29q-96 -110 -96 -209q0 -72 67 -72q11 0 35 4q5 1 10.5 2t9 2t5.5 1q20 0 30 -13q10 -14 19 -43l12 -41q-62 -24 -131 -24q-93 0 -149 47 t-56 123z" />
<glyph unicode="&#x12f;" horiz-adv-x="538" d="M84 -225q0 134 123 223q-68 18 -68 152l6 528q0 146 -22 291q89 24 264 24q14 -95 14 -295v-503q0 -132 43 -166q-50 -23 -116 -31q-97 -111 -97 -209q0 -72 68 -72q11 0 35 4q5 1 10.5 2t8.5 2t5 1q21 0 31 -13q10 -14 19 -43l12 -41q-61 -24 -131 -24q-94 0 -150 47 q-55 46 -55 123zM123 1333q0 65 43 105q44 41 110 41q60 0 97 -37t37 -99q0 -64 -43 -104q-44 -41 -111 -41q-57 0 -94 37t-37 96z" />
<glyph unicode="&#x130;" horiz-adv-x="550" d="M117 1417q98 25 276 25q15 -120 15 -295v-954q0 -131 41 -166q-78 -35 -197 -35q-54 0 -80 33q-29 37 -29 125l-2 976q0 153 -24 291zM139 1681q0 61 39 97q40 37 101 37q53 0 86 -33q32 -32 32 -88q0 -60 -37 -97q-36 -36 -96 -36q-52 0 -86 34q-35 35 -35 91z" />
<glyph unicode="&#x131;" horiz-adv-x="538" d="M119 967q89 24 264 24q14 -95 14 -295v-503q0 -132 43 -166q-81 -35 -194 -35q-52 0 -78 33q-29 37 -29 125l2 526q0 146 -22 291z" />
<glyph unicode="&#x132;" horiz-adv-x="1095" d="M119 1417q98 25 276 25q15 -120 15 -295v-954q0 -131 41 -166q-78 -35 -197 -35q-54 0 -80 33q-29 37 -29 125l-2 976q0 153 -24 291zM487 -346q89 0 144 76t55 190l2 1206q0 162 -22 291q103 25 274 25q16 -122 16 -295v-1194q0 -188 -98 -307t-240 -119q-56 0 -94 35 q-37 34 -37 92z" />
<glyph unicode="&#x133;" horiz-adv-x="1083" d="M125 965q89 24 264 24q14 -95 14 -295v-504q0 -131 43 -165q-81 -35 -194 -35q-52 0 -78 33q-29 37 -29 124l2 527q0 146 -22 291zM125 1329q0 65 43 105q44 41 111 41q59 0 96 -37t37 -99q0 -64 -43 -104q-44 -41 -111 -41q-57 0 -94 37t-37 96zM483 -346q205 0 205 264 l4 756q0 146 -22 291q88 24 264 24q14 -95 14 -295v-743q0 -193 -88 -309q-88 -117 -252 -117q-56 0 -90 37q-35 38 -35 92zM664 1329l2 -2q0 64 43 107t108 43q59 0 96 -37t37 -99q0 -64 -43 -104q-44 -41 -110 -41q-60 0 -97 37q-36 36 -36 96z" />
<glyph unicode="&#x134;" horiz-adv-x="559" d="M-49 -346q88 0 143 76q56 77 56 190l2 1206q0 156 -23 291q103 25 274 25q17 -129 17 -295v-1194q0 -188 -98 -307t-240 -119q-56 0 -94 35q-37 34 -37 92zM-39 1616q0 40 45 76q154 129 256 204q98 -70 197 -153q101 -85 141 -88q-3 -32 -27 -76q-24 -43 -57 -43 q-26 0 -76 29l-90 71l-90 72q-138 -108 -250 -174l-30 37q-19 22 -19 45z" />
<glyph unicode="&#x135;" horiz-adv-x="544" d="M-57 -344q204 0 204 264l5 756q0 140 -23 291q89 24 264 24q15 -102 15 -295v-743q0 -191 -89 -309q-88 -117 -251 -117q-57 0 -91 37t-34 92zM-43 1206q0 40 45 76q163 137 256 205q90 -64 197 -154q101 -85 141 -88q-3 -32 -27 -76q-24 -43 -57 -43q-26 0 -76 29 l-90 72l-90 71q-138 -108 -250 -174l-31 37q-18 21 -18 45z" />
<glyph unicode="&#x136;" horiz-adv-x="1323" d="M117 1417q103 25 260 25q31 -112 31 -215v-441l315 359q59 68 221 291q71 8 254 8q-105 -165 -203 -283l-340 -395l465 -567q102 -129 178 -172q-53 -39 -180 -39q-138 0 -258 164l-454 557v-514q0 -123 22 -172q-67 -31 -178 -31q-54 0 -80 33q-29 37 -29 125v983 q0 146 -24 284zM551 -510q0 16 18 37q21 25 37 63q19 46 19 113q0 17 -11 74q-9 48 -12 67q52 21 133 21q28 0 47 -19t19 -49q0 -277 -189 -372l-30 16q-31 28 -31 49z" />
<glyph unicode="&#x137;" horiz-adv-x="1083" d="M113 1470q92 25 252 25q28 -106 28 -217v-719l117 129l72 84q34 40 84 105l75 100q105 10 246 10q-80 -123 -209 -282l-147 -173l268 -331q114 -138 172 -172q-61 -37 -182 -37q-129 0 -240 164l-254 315v-274q0 -125 25 -170q-67 -31 -178 -31q-52 0 -78 33 q-29 37 -29 125v1028q0 143 -22 288zM430 -508q0 15 19 37t36 63q19 46 19 113q0 22 -10 74q-2 11 -5.5 26.5t-5 25t-2.5 15.5q53 21 133 21q29 0 48 -19q18 -18 18 -49q0 -277 -188 -372l-31 16q-31 28 -31 49z" />
<glyph unicode="&#x139;" d="M119 1417q98 25 276 25q15 -120 15 -295v-954v-15v-14v-12h499q135 0 164 26q37 -46 37 -117q0 -61 -158 -61l-493 -2q-150 0 -291 -16q-25 73 -25 153v991q0 153 -24 291zM254 1593q0 35 45 74q195 165 289 231q43 -46 86 -133q-228 -179 -369 -258l-33 37 q-18 27 -18 49z" />
<glyph unicode="&#x13a;" horiz-adv-x="538" d="M61 1612q0 35 45 74q195 165 289 231q43 -46 86 -133q-231 -181 -368 -258l-33 37q-19 29 -19 49zM119 1468q92 25 264 25q14 -95 14 -295v-1005q0 -132 43 -166q-81 -35 -194 -35q-52 0 -78 33q-29 37 -29 125l2 1030q0 143 -22 288z" />
<glyph unicode="&#x13b;" d="M119 1417q98 25 276 25q15 -120 15 -295v-954v-15v-14v-12h499q135 0 164 26q37 -46 37 -117q0 -61 -158 -61l-493 -2q-150 0 -291 -16q-25 73 -25 153v991q0 153 -24 291zM473 -514q0 15 19 37t36 63q19 46 19 113q0 22 -10 74q-2 11 -5.5 26.5t-5 25t-2.5 15.5 q52 21 133 21q29 0 48 -19q18 -18 18 -49q0 -278 -188 -373l-31 17q-31 28 -31 49z" />
<glyph unicode="&#x13c;" horiz-adv-x="538" d="M117 1462q92 25 264 25q14 -95 14 -295v-1006q0 -132 43 -166q-78 -34 -194 -34q-53 0 -78 32q-29 37 -29 125l2 1031q0 143 -22 288zM141 -512q0 15 19 37q21 25 37 63q18 44 18 113q0 22 -10 74q-9 48 -12 67q53 21 133 21q28 0 47 -19q18 -18 18 -49q0 -278 -188 -373 l-31 17q-31 28 -31 49z" />
<glyph unicode="&#x13d;" d="M119 1417q98 25 276 25q15 -120 15 -295v-954v-15v-14v-12h499q135 0 164 26q37 -46 37 -117q0 -61 -158 -61l-493 -2q-150 0 -291 -16q-25 73 -25 153v991q0 153 -24 291zM229 1763q25 52 99 129q162 -107 241 -174q153 118 250 174l31 -37q18 -21 18 -49q0 -34 -45 -73 q-155 -137 -256 -209q-23 15 -110 84q-71 56 -131 98t-93 53z" />
<glyph unicode="&#x13e;" horiz-adv-x="878" d="M117 1462q92 25 264 25q14 -95 14 -295v-1006q0 -132 43 -166q-78 -34 -194 -34q-53 0 -78 32q-29 37 -29 125l2 1031q0 143 -22 288zM535 1118q0 16 18 37q20 24 37 64q18 43 18 112q0 22 -10 74q-9 45 -12 68q50 20 133 20q29 0 47 -18t18 -50q0 -277 -188 -372l-31 16 q-30 27 -30 49z" />
<glyph unicode="&#x13f;" d="M119 1417q98 25 276 25q15 -120 15 -295v-954v-15v-14v-12h499q135 0 164 26q37 -46 37 -117q0 -61 -158 -61l-493 -2q-150 0 -291 -16q-25 73 -25 153v991q0 153 -24 291zM797 737v2q0 66 43 109t112 43q60 0 97 -37q36 -36 36 -98q0 -68 -43 -111t-112 -43 q-59 0 -96 37t-37 98z" />
<glyph unicode="&#x140;" horiz-adv-x="972" d="M119 1468q92 25 264 25q14 -95 14 -295v-1005q0 -132 43 -166q-81 -35 -194 -35q-52 0 -78 33q-29 37 -29 125l2 1030q0 143 -22 288zM588 614v2q0 66 43 109t112 43q60 0 97 -37t37 -98q0 -68 -43 -111t-113 -43q-59 0 -96 37t-37 98z" />
<glyph unicode="&#x141;" horiz-adv-x="1292" d="M49 487q0 40 45 76q29 25 160 117v446q0 147 -25 291q98 25 277 25q14 -112 14 -295v-289l209 135q43 -47 84 -135l-293 -180v-485v-43h500q133 0 166 26q35 -47 35 -117q0 -61 -158 -61h-494q-149 0 -290 -16q-25 73 -25 153v375q-105 -68 -154 -104l-32 38 q-19 22 -19 43z" />
<glyph unicode="&#x142;" horiz-adv-x="845" d="M61 498q0 34 45 73q60 53 193 140v469q0 150 -23 288q98 25 271 25q14 -112 14 -295v-319l152 96q44 -50 86 -135l-236 -146v-501q0 -131 41 -166q-78 -35 -194 -35q-107 0 -107 158v382l-186 -120l-37 37q-19 29 -19 49z" />
<glyph unicode="&#x143;" horiz-adv-x="1413" d="M117 1417q80 25 231 25v-4l701 -961v649q0 141 -17 291q77 25 221 25q15 -120 15 -295v-954q0 -131 41 -166q-72 -35 -172 -35q-48 0 -68 39v-2l-707 968v-804q0 -132 27 -166q-72 -35 -162 -35q-41 0 -61 33q-23 38 -23 125l-2 976q0 153 -24 291zM494 1595q0 35 45 74 q208 175 288 232q42 -45 86 -134q-231 -181 -368 -258l-33 37q-18 27 -18 49z" />
<glyph unicode="&#x144;" d="M113 967q89 24 252 24q28 -106 28 -217v-10q40 103 139 168q97 63 232 63q121 0 197 -82q77 -83 77 -211v-509q0 -132 43 -166q-81 -35 -196 -35q-48 0 -74 33q-29 37 -29 125l-2 499q0 90 -41 146q-40 55 -102 55q-92 0 -164 -100q-75 -104 -78 -222v-333 q0 -125 25 -170q-67 -31 -178 -31q-52 0 -78 33q-29 37 -29 125v526q0 144 -22 289zM377 1188q0 35 45 74q195 165 289 231q43 -46 86 -133q-228 -178 -369 -258l-33 37q-18 27 -18 49z" />
<glyph unicode="&#x145;" horiz-adv-x="1413" d="M117 1417q80 25 231 25v-4l701 -961v649q0 141 -17 291q77 25 221 25q15 -120 15 -295v-954q0 -131 41 -166q-72 -35 -172 -35q-48 0 -68 39v-2l-707 968v-804q0 -132 27 -166q-72 -35 -162 -35q-41 0 -61 33q-23 38 -23 125l-2 976q0 153 -24 291zM578 -512q0 16 18 37 q21 25 37 63q18 43 18 113q0 22 -10 74q-9 48 -12 67q53 21 133 21q28 0 47 -19q18 -18 18 -49q0 -278 -188 -373l-31 17q-30 27 -30 49z" />
<glyph unicode="&#x146;" d="M113 967q89 24 252 24q28 -106 28 -217v-10q40 103 139 168q97 63 232 63q121 0 197 -82q77 -83 77 -211v-509q0 -132 43 -166q-81 -35 -196 -35q-48 0 -74 33q-29 37 -29 125l-2 499q0 90 -41 146q-40 55 -102 55q-92 0 -164 -100q-75 -104 -78 -222v-333 q0 -125 25 -170q-67 -31 -178 -31q-52 0 -78 33q-29 37 -29 125v526q0 144 -22 289zM461 -510q0 16 18 37q21 25 37 63q19 46 19 113q0 17 -11 74q-9 48 -12 67q52 21 133 21q28 0 47 -19t19 -49q0 -277 -189 -372l-30 16q-31 28 -31 49z" />
<glyph unicode="&#x147;" horiz-adv-x="1413" d="M117 1417q80 25 231 25v-4l701 -961v649q0 141 -17 291q77 25 221 25q15 -120 15 -295v-954q0 -131 41 -166q-72 -35 -172 -35q-48 0 -68 39v-2l-707 968v-804q0 -132 27 -166q-72 -35 -162 -35q-41 0 -61 33q-23 38 -23 125l-2 976q0 153 -24 291zM381 1765 q26 54 98 129q167 -110 242 -174q153 118 250 174l30 -36q19 -22 19 -50q0 -34 -45 -73q-155 -137 -256 -209q-28 18 -111 84q-71 56 -131 98q-61 42 -92 53z" />
<glyph unicode="&#x148;" d="M113 967q89 24 252 24q28 -106 28 -217v-10q40 103 139 168q97 63 232 63q121 0 197 -82q77 -83 77 -211v-509q0 -132 43 -166q-81 -35 -196 -35q-48 0 -74 33q-29 37 -29 125l-2 499q0 90 -41 146q-40 55 -102 55q-92 0 -164 -100q-75 -104 -78 -222v-333 q0 -125 25 -170q-67 -31 -178 -31q-52 0 -78 33q-29 37 -29 125v526q0 144 -22 289zM264 1356q26 54 98 129q167 -110 242 -174q153 118 250 174l31 -37q18 -21 18 -47q0 -35 -45 -74q-155 -137 -256 -209q-23 15 -110 84q-64 51 -132 98q-64 44 -92 54z" />
<glyph unicode="&#x14a;" horiz-adv-x="1413" d="M121 1417q80 25 231 25v-4l701 -961v649q0 141 -17 291q77 25 221 25q15 -120 15 -295v-1194q0 -185 -96 -307q-94 -119 -240 -119q-56 0 -94 35q-37 34 -37 92q111 0 178 76q68 77 68 190v135l-686 942v-804q0 -133 26 -166q-72 -35 -162 -35q-41 0 -61 33 q-23 38 -23 125v976q0 153 -24 291z" />
<glyph unicode="&#x14b;" d="M113 965q89 24 252 24q28 -106 28 -217v-10q40 103 139 168q97 63 232 63q121 0 197 -82q77 -83 77 -211v-749q0 -193 -88 -309q-89 -117 -245 -117q-59 0 -93 37t-34 94q204 0 204 264l-2 729q0 90 -41 146q-40 55 -102 55q-89 0 -162 -98q-74 -100 -80 -217v-342 q0 -125 25 -170q-67 -31 -178 -31q-52 0 -78 33q-29 37 -29 125v526q0 144 -22 289z" />
<glyph unicode="&#x14c;" horiz-adv-x="1499" d="M84 694q0 335 190 543q191 209 496 209q288 0 467 -197q178 -196 178 -512q0 -334 -190 -542q-191 -209 -498 -209q-287 0 -465 196t-178 512zM369 721q0 -259 108 -418q109 -160 277 -160q165 0 268 158q102 156 102 412q0 261 -106 417q-109 160 -277 160 q-165 0 -268 -157q-102 -156 -102 -412h-2zM430 1733q101 8 295 8h137q126 0 166 24q35 -50 35 -96q0 -53 -158 -53h-160q-149 0 -290 -25q-25 73 -25 142z" />
<glyph unicode="&#x14d;" horiz-adv-x="1138" d="M78 469q0 237 141 381q142 145 373 145q206 0 336 -133q129 -132 129 -348q0 -236 -142 -381t-372 -145q-204 0 -334 133q-129 132 -129 348h-2zM250 1323q101 8 295 8h137q124 0 166 25q35 -50 35 -96q0 -54 -158 -54h-160q-156 0 -291 -24q-24 70 -24 141zM356 500 q0 -161 62 -264t157 -103q91 0 146 98t55 254q0 164 -61 265q-61 102 -160 102q-88 0 -143 -98q-56 -100 -56 -254z" />
<glyph unicode="&#x14e;" horiz-adv-x="1499" d="M84 694q0 335 190 543q191 209 496 209q288 0 467 -197q178 -196 178 -512q0 -334 -190 -542q-191 -209 -498 -209q-287 0 -465 196t-178 512zM369 721q0 -259 108 -418q109 -160 277 -160q165 0 268 158q102 156 102 412q0 261 -106 417q-109 160 -277 160 q-165 0 -268 -157q-102 -156 -102 -412h-2zM432 1702q0 84 160 84q40 -119 184 -119l-4 2q53 0 100 29q43 26 68 55q26 29 37 29q7 0 47 -19l39 -22q-41 -95 -129 -156t-199 -61q-139 0 -221 55t-82 123z" />
<glyph unicode="&#x14f;" horiz-adv-x="1138" d="M78 469q0 237 141 381q142 145 373 145q206 0 336 -133q129 -132 129 -348q0 -236 -142 -381t-372 -145q-204 0 -334 133q-129 132 -129 348h-2zM250 1292q0 84 160 84q40 -119 184 -119l-4 3q55 0 100 28q43 26 68 55q26 29 37 29q9 0 47 -18l39 -23q-40 -93 -129 -155 t-199 -62q-139 0 -221 55t-82 123zM356 500q0 -161 62 -264t157 -103q91 0 146 98t55 254q0 164 -61 265q-61 102 -160 102q-88 0 -143 -98q-56 -100 -56 -254z" />
<glyph unicode="&#x150;" horiz-adv-x="1499" d="M84 694q0 335 190 543q191 209 496 209q288 0 467 -197q178 -196 178 -512q0 -334 -190 -542q-191 -209 -498 -209q-287 0 -465 196t-178 512zM324 1595q0 35 45 74q208 175 288 232q42 -45 86 -134q-231 -181 -368 -258l-33 37q-18 27 -18 49zM369 721q0 -259 108 -418 q109 -160 277 -160q165 0 268 158q102 156 102 412q0 261 -106 417q-109 160 -277 160q-165 0 -268 -157q-102 -156 -102 -412h-2zM750 1593q0 35 45 74q201 169 288 231q43 -46 86 -133q-231 -181 -368 -258l-33 37q-18 27 -18 49z" />
<glyph unicode="&#x151;" horiz-adv-x="1138" d="M78 469q0 237 141 381q142 145 373 145q206 0 336 -133q129 -132 129 -348q0 -236 -142 -381t-372 -145q-204 0 -334 133q-129 132 -129 348h-2zM143 1186q0 35 45 74q195 165 289 231q43 -46 86 -133q-231 -181 -368 -258l-33 37q-19 29 -19 49zM356 500q0 -161 62 -264 t157 -103q91 0 146 98t55 254q0 164 -61 265q-61 102 -160 102q-88 0 -143 -98q-56 -100 -56 -254zM569 1184q0 34 45 73q203 171 289 232q43 -46 86 -133q-231 -181 -368 -258l-33 37q-19 29 -19 49z" />
<glyph unicode="&#x152;" horiz-adv-x="2027" d="M88 694q0 337 166 545q167 209 434 209q186 0 334 -121l-14 94q120 15 295 15h419q128 0 166 18q35 -44 35 -108q0 -60 -158 -60h-473q4 -118 4 -139v-332h377q129 0 166 16q37 -46 37 -110q0 -59 -158 -59l-420 -7v-469v-14v-14v-13h449q131 0 166 27q37 -49 37 -115 q0 -61 -158 -61h-444q-150 0 -291 -16q-25 73 -25 153v2q-152 -149 -381 -149q-251 0 -407 196t-156 512zM377 713q0 -259 102 -418q103 -160 264 -160q187 0 289 230v679l2 -4q-114 242 -301 242q-158 0 -258 -158q-98 -154 -98 -411z" />
<glyph unicode="&#x153;" horiz-adv-x="1767" d="M72 463q0 236 139 381t360 145q216 0 347 -158q137 158 354 158q195 0 303 -108q106 -106 106 -295q0 -66 -45 -123h-587q9 -151 79 -242q71 -92 185 -92q79 0 135 27q54 26 86 55q30 27 45 27q25 0 53 -19l39 -24q-50 -93 -153 -150q-102 -57 -238 -57q-245 0 -377 164 q-138 -164 -377 -164q-199 0 -323 133q-123 132 -123 348zM350 494q0 -162 62 -265q62 -102 157 -102q91 0 146 98t55 254q0 163 -61 264q-62 103 -160 103q-88 0 -143 -98q-56 -100 -56 -254zM1053 596h374q-21 248 -180 248h-2q-72 0 -125 -68q-52 -67 -67 -180z" />
<glyph unicode="&#x154;" horiz-adv-x="1265" d="M117 1409q93 22 252 25h249q232 0 373 -117q142 -118 142 -305q0 -132 -74 -238t-205 -158l248 -415q82 -137 141 -172q-64 -37 -184 -37q-129 0 -215 164l-244 409h-192v-372q0 -133 26 -166q-78 -35 -190 -35q-48 0 -74 33q-27 35 -27 125l-2 968q0 153 -24 291z M401 1286q1 -27 3 -77.5t2 -67.5v-424h196q112 0 184 78t72 202q0 127 -74 207t-192 80h-189zM428 1597q0 35 45 74q203 171 289 232q42 -45 86 -134q-228 -179 -369 -258l-33 37q-18 27 -18 49z" />
<glyph unicode="&#x155;" horiz-adv-x="964" d="M117 958q92 25 252 25q28 -106 28 -217v-23q26 109 103 179q73 67 180 67q86 0 141 -67q56 -68 56 -156q0 -104 -201 -104q-6 76 -35 133q-27 53 -68 53q-69 0 -122 -121q-54 -123 -54 -270l2 -271q0 -125 25 -170q-64 -30 -178 -30q-53 0 -78 32q-29 37 -29 125v527 q0 143 -22 288zM268 1180q0 34 45 73q203 171 289 232q43 -46 86 -133q-228 -178 -369 -258l-32 36q-19 28 -19 50z" />
<glyph unicode="&#x156;" horiz-adv-x="1265" d="M117 1409q93 22 252 25h249q232 0 373 -117q142 -118 142 -305q0 -132 -74 -238t-205 -158l248 -415q82 -137 141 -172q-64 -37 -184 -37q-129 0 -215 164l-244 409h-192v-372q0 -133 26 -166q-78 -35 -190 -35q-48 0 -74 33q-27 35 -27 125l-2 968q0 153 -24 291z M401 1286q1 -27 3 -77.5t2 -67.5v-424h196q112 0 184 78t72 202q0 127 -74 207t-192 80h-189zM512 -510q0 16 18 37q21 25 37 63q19 46 19 113q0 17 -11 74q-9 48 -12 67q53 21 133 21q28 0 47 -19t19 -49q0 -277 -189 -372l-30 16q-31 28 -31 49z" />
<glyph unicode="&#x157;" horiz-adv-x="964" d="M121 961q89 24 252 24q28 -106 28 -217v-23q26 109 103 179q73 67 180 67q86 0 141 -67q56 -68 56 -156q0 -104 -201 -104q-6 76 -35 133q-27 53 -67 53q-70 0 -123 -115t-56 -264v-278q0 -125 25 -170q-67 -31 -178 -31q-52 0 -78 33q-29 37 -29 125l4 522 q0 144 -22 289zM158 -516q0 16 18 37q21 25 37 63q18 44 18 113q0 22 -10 74q-9 48 -12 67q53 21 133 21q28 0 47 -19t19 -49q0 -278 -189 -373l-31 17q-30 27 -30 49z" />
<glyph unicode="&#x158;" horiz-adv-x="1265" d="M117 1409q93 22 252 25h249q232 0 373 -117q142 -118 142 -305q0 -132 -74 -238t-205 -158l248 -415q82 -137 141 -172q-64 -37 -184 -37q-129 0 -215 164l-244 409h-192v-372q0 -133 26 -166q-78 -35 -190 -35q-48 0 -74 33q-27 35 -27 125l-2 968q0 153 -24 291z M315 1767q25 52 99 129q162 -107 241 -174q153 118 250 174l31 -36q18 -21 18 -50q0 -34 -45 -73q-155 -137 -256 -209q-23 15 -110 84q-71 56 -131 98t-93 53zM401 1286q1 -27 3 -77.5t2 -67.5v-424h196q112 0 184 78t72 202q0 127 -74 207t-192 80h-189z" />
<glyph unicode="&#x159;" horiz-adv-x="964" d="M121 961q89 24 252 24q28 -106 28 -217v-23q26 109 103 179q73 67 180 67q86 0 141 -67q56 -68 56 -156q0 -104 -201 -104q-6 76 -35 133q-27 53 -67 53q-70 0 -123 -115t-56 -264v-278q0 -125 25 -170q-67 -31 -178 -31q-52 0 -78 33q-29 37 -29 125l4 522 q0 144 -22 289zM158 1350q26 54 98 129q167 -110 242 -174q153 118 250 174l30 -37q19 -22 19 -47q0 -35 -45 -74q-155 -137 -256 -209q-28 18 -111 84q-71 56 -131 98q-64 44 -92 54z" />
<glyph unicode="&#x15a;" horiz-adv-x="1171" d="M76 231q0 131 223 131l-16 -10q65 -221 260 -221q112 0 184 57q74 59 74 160q0 89 -74 154q-75 66 -180 108q-109 44 -211 92q-103 48 -178 136q-74 86 -74 213q0 173 131 280q133 109 375 109q191 0 313 -70q123 -70 123 -160q0 -59 -55 -80q-58 -22 -170 -22 q-24 77 -80 127q-55 49 -141 49q-98 0 -168 -61t-70 -152q0 -70 55 -125q56 -56 138 -86q66 -24 178 -72q110 -47 178 -83q82 -43 137 -125t55 -193q0 -179 -139 -291q-137 -110 -399 -110q-212 0 -340 73q-129 73 -129 172zM358 1585q0 35 45 74q195 165 289 231 q43 -46 86 -133q-231 -181 -368 -258l-33 37q-19 28 -19 49z" />
<glyph unicode="&#x15b;" horiz-adv-x="911" d="M78 176q0 105 184 105l6 -9q40 -147 166 -147q66 0 105 33q41 35 41 88q0 52 -50 96q-52 46 -118 74q-102 43 -142 63q-69 34 -118 92q-50 59 -50 142q0 119 99 198q100 80 276 80q146 0 238 -53t92 -123q0 -48 -45 -65q-49 -19 -141 -19q-44 115 -142 115q-56 0 -92 -33 q-37 -34 -37 -82q0 -53 49 -90q52 -40 121 -66q80 -31 142 -61q73 -36 120 -94q49 -61 49 -144q0 -129 -104 -208q-106 -80 -291 -80q-162 0 -260 55t-98 133zM252 1178q0 34 45 73q203 171 289 232q43 -46 86 -133q-228 -178 -369 -258l-33 36q-18 27 -18 50z" />
<glyph unicode="&#x15c;" horiz-adv-x="1171" d="M76 231q0 131 223 131l-16 -10q65 -221 260 -221q112 0 184 57q74 59 74 160q0 89 -74 154q-75 66 -180 108q-109 44 -211 92q-103 48 -178 136q-74 86 -74 213q0 173 131 280q133 109 375 109q191 0 313 -70q123 -70 123 -160q0 -59 -55 -80q-58 -22 -170 -22 q-24 77 -80 127q-55 49 -141 49q-98 0 -168 -61t-70 -152q0 -70 55 -125q56 -56 138 -86q66 -24 178 -72q110 -47 178 -83q82 -43 137 -125t55 -193q0 -179 -139 -291q-137 -110 -399 -110q-212 0 -340 73q-129 73 -129 172zM248 1606q0 39 45 75q163 137 256 205 q91 -65 196 -153q101 -85 142 -88q-3 -32 -27 -76q-24 -43 -57 -43q-28 0 -76 28l-90 72l-90 72q-138 -108 -250 -174l-31 37q-18 21 -18 45z" />
<glyph unicode="&#x15d;" horiz-adv-x="911" d="M78 176q0 105 184 105l6 -9q40 -147 166 -147q66 0 105 33q41 35 41 88q0 52 -50 96q-52 46 -118 74q-102 43 -142 63q-69 34 -118 92q-50 59 -50 142q0 119 99 198q100 80 276 80q146 0 238 -53t92 -123q0 -48 -45 -65q-49 -19 -141 -19q-44 115 -142 115q-56 0 -92 -33 q-37 -34 -37 -82q0 -53 49 -90q52 -40 121 -66q80 -31 142 -61q73 -36 120 -94q49 -61 49 -144q0 -129 -104 -208q-106 -80 -291 -80q-162 0 -260 55t-98 133zM143 1198q0 40 45 76q163 137 256 205q90 -64 197 -154q101 -85 141 -88q-3 -34 -26 -76q-24 -43 -58 -43 q-25 0 -75 29l-91 72l-90 71q-141 -111 -249 -174l-31 39q-19 22 -19 43z" />
<glyph unicode="&#x15e;" horiz-adv-x="1171" d="M76 231q0 131 223 131l-20 -8q65 -221 260 -221q112 0 184 57q74 59 74 160q0 89 -74 154q-75 66 -180 108q-94 38 -211 93q-104 49 -178 135t-74 213q0 173 131 280q133 109 375 109q191 0 313 -70q123 -70 123 -160q0 -58 -55 -79q-61 -23 -170 -23q-24 77 -80 127 q-55 49 -142 49q-97 0 -167 -61t-70 -152q0 -70 55 -125q57 -57 137 -86q88 -32 179 -71q100 -43 178 -84q82 -43 137 -125t55 -193q0 -170 -123 -278t-352 -123q3 -44 41 -74q23 -18 72 -61q35 -30 35 -78q0 -76 -56 -123t-149 -47q-67 0 -129 24l10 41q10 30 21 41 q13 13 34 13q5 0 23 -3q12 -2 35 -2q67 0 67 66q0 21 -18 39q-19 19 -43 31q-26 13 -43 49q-18 38 -21 88q-185 9 -297 80q-110 70 -110 159z" />
<glyph unicode="&#x15f;" horiz-adv-x="911" d="M78 176q0 105 184 105l4 -17q40 -147 166 -147q66 0 105 33q41 35 41 88q0 52 -50 96q-52 46 -118 74q-102 43 -142 63q-69 34 -118 92q-50 59 -50 142q0 119 99 198q100 80 276 80q146 0 238 -53t92 -123q0 -49 -45 -66q-46 -18 -142 -18q-44 115 -141 115 q-56 0 -92 -33q-37 -34 -37 -82q0 -53 49 -90q52 -40 121 -66q75 -29 141 -61q75 -37 121 -94q49 -61 49 -144q0 -120 -88 -196t-247 -88q3 -44 41 -74q11 -9 23 -19.5t26 -23t22 -19.5q35 -30 35 -77q0 -77 -55 -123q-56 -47 -150 -47q-68 0 -129 24l10 41q10 30 21 41 q12 12 35 12q10 0 22 -2t35 -2q68 0 68 66q0 20 -19 39q-16 16 -43 33q-26 17 -43 51q-17 35 -20 90q-136 9 -215 61q-80 53 -80 121z" />
<glyph unicode="&#x160;" horiz-adv-x="1171" d="M76 231q0 131 223 131l-16 -10q65 -221 260 -221q112 0 184 57q74 59 74 160q0 89 -74 154q-75 66 -180 108q-109 44 -211 92q-103 48 -178 136q-74 86 -74 213q0 173 131 280q133 109 375 109q191 0 313 -70q123 -70 123 -160q0 -59 -55 -80q-58 -22 -170 -22 q-24 77 -80 127q-55 49 -141 49q-98 0 -168 -61t-70 -152q0 -70 55 -125q56 -56 138 -86q66 -24 178 -72q110 -47 178 -83q82 -43 137 -125t55 -193q0 -179 -139 -291q-137 -110 -399 -110q-212 0 -340 73q-129 73 -129 172zM246 1755q26 54 98 129q167 -110 242 -174 q153 118 250 174l30 -37q19 -22 19 -49q0 -35 -45 -74q-149 -132 -256 -208q-34 22 -111 83q-80 64 -131 99q-61 42 -92 53z" />
<glyph unicode="&#x161;" horiz-adv-x="911" d="M78 176q0 105 184 105l6 -9q40 -147 166 -147q66 0 105 33q41 35 41 88q0 52 -50 96q-52 46 -118 74q-102 43 -142 63q-69 34 -118 92q-50 59 -50 142q0 119 99 198q100 80 276 80q146 0 238 -53t92 -123q0 -48 -45 -65q-49 -19 -141 -19q-44 115 -142 115q-56 0 -92 -33 q-37 -34 -37 -82q0 -53 49 -90q52 -40 121 -66q80 -31 142 -61q73 -36 120 -94q49 -61 49 -144q0 -129 -104 -208q-106 -80 -291 -80q-162 0 -260 55t-98 133zM139 1346q25 52 99 129q157 -104 241 -175q158 122 250 175l31 -37q18 -21 18 -47q0 -35 -45 -74 q-155 -137 -256 -209q-23 15 -110 84q-71 56 -131 98t-93 53z" />
<glyph unicode="&#x162;" horiz-adv-x="1318" d="M49 1421q120 15 295 15h725q135 0 164 26q37 -46 37 -116q0 -62 -158 -62l-315 -2q2 -31 2 -137v-955q0 -130 41 -165q-81 -35 -201 -35q-51 0 -80 33q-31 36 -31 124v977q0 90 -4 160h-159q-150 0 -291 -16q-25 73 -25 153zM535 -514q0 16 18 37q21 25 37 63 q18 43 18 113q0 22 -10 74q-9 48 -12 67q53 21 133 21q28 0 47 -19q18 -18 18 -49q0 -278 -188 -373l-31 17q-30 27 -30 49z" />
<glyph unicode="&#x163;" horiz-adv-x="858" d="M39 979q129 6 141 6q1 10 13 62q15 68 16 73q6 34 6 74q82 18 203 18q9 -92 12 -229h115q134 0 170 25q35 -53 35 -109q0 -57 -158 -57l-164 10v-557q0 -68 37 -111t98 -43q44 0 76 19t47 37t25 18q26 0 55 -20l39 -23q-35 -80 -111 -129t-172 -49q-158 0 -254 78 q-94 76 -94 202v564q-2 0 -14 -2t-39.5 -6.5t-57.5 -8.5q-24 73 -24 158zM301 -502q0 16 18 37q20 24 37 64q19 46 19 112q0 22 -10 74q-13 65 -13 68q50 20 133 20q29 0 47 -18q19 -19 19 -50q0 -277 -189 -372l-30 16q-31 28 -31 49z" />
<glyph unicode="&#x164;" horiz-adv-x="1318" d="M49 1421q120 15 295 15h725q135 0 164 26q37 -46 37 -116q0 -62 -158 -62l-315 -2q2 -31 2 -137v-955q0 -130 41 -165q-81 -35 -201 -35q-51 0 -80 33q-31 36 -31 124v977q0 90 -4 160h-159q-150 0 -291 -16q-25 73 -25 153zM338 1763q26 54 98 129q167 -110 242 -174 q153 118 250 174l30 -37q19 -22 19 -49q0 -34 -45 -73q-155 -137 -256 -209q-28 18 -111 84q-71 56 -131 98q-61 42 -92 53z" />
<glyph unicode="&#x165;" horiz-adv-x="1107" d="M39 979q129 6 141 6q1 10 13 62q15 68 16 73q6 34 6 74q82 18 203 18q9 -92 12 -229h115q134 0 170 25q35 -53 35 -109q0 -57 -158 -57l-164 10v-557q0 -68 37 -111t98 -43q44 0 76 19t47 37t25 18q26 0 55 -20l39 -23q-35 -80 -111 -129t-172 -49q-158 0 -254 78 q-94 76 -94 202v564q-2 0 -14 -2t-39.5 -6.5t-57.5 -8.5q-24 73 -24 158zM778 1130q0 15 19 37q20 24 37 64q18 43 18 112q0 22 -10 74q-13 65 -13 68q50 20 134 20q29 0 47 -18t18 -49q0 -278 -188 -373l-31 16q-31 28 -31 49z" />
<glyph unicode="&#x166;" horiz-adv-x="1318" d="M49 1421q120 15 295 15h725q135 0 164 26q37 -46 37 -116q0 -62 -158 -62h-317q2 -31 2 -137v-264h155q133 0 166 26q37 -52 37 -108q0 -60 -158 -60l-196 -2v-549q0 -130 41 -165q-81 -35 -201 -35q-51 0 -80 33q-31 36 -31 124v592h-26q-144 0 -289 -22q-27 77 -27 155 q114 9 295 9h45v243q0 90 -4 160h-159q-150 0 -291 -16q-25 73 -25 153z" />
<glyph unicode="&#x167;" horiz-adv-x="858" d="M37 647q43 3 135 6v185q-2 0 -14 -2t-39.5 -6.5t-57.5 -8.5q-24 73 -24 158q129 6 141 6q3 22 12 62q2 9 8.5 34.5t8.5 38.5q6 34 6 74q83 18 203 18q9 -92 12 -229h115q134 0 170 25q35 -53 35 -109q0 -57 -158 -57h-162v-191h104q138 0 173 15q34 -49 34 -97 q0 -53 -159 -53l-154 12v-231q0 -68 37 -111t98 -43q44 0 76 19t47 37t25 18q26 0 55 -20l39 -23q-35 -80 -111 -129t-172 -49q-158 0 -254 78q-94 76 -94 202v238l-111 -14q-24 64 -24 147z" />
<glyph unicode="&#x168;" horiz-adv-x="1488" d="M117 1417q98 25 276 25q15 -120 15 -295v-590q0 -188 94 -301q95 -115 246 -115q148 0 239 113q92 115 92 295v577q0 166 -14 289q92 25 264 25q17 -129 17 -295v-570q0 -260 -172 -423q-173 -164 -451 -164q-260 0 -420 151t-160 398l-2 589q0 153 -24 291zM428 1645 q0 61 47 96t105 35q49 0 133 -37t127 -37q45 0 86 35t51 35q15 0 49 -27l35 -23q-27 -88 -80 -135q-51 -45 -117 -45q-36 0 -106 31t-117 31q-93 0 -149 -68q-64 34 -64 109z" />
<glyph unicode="&#x169;" d="M119 967q89 24 264 24q14 -95 14 -295l-2 -350q0 -92 43 -153q44 -62 107 -62q88 0 160 100q74 103 77 228v217q0 151 -14 299q101 16 258 16q14 -112 14 -295v-503q0 -132 43 -166q-81 -35 -196 -35q-48 0 -74 33q-29 37 -29 125v63q-42 -99 -139 -162q-94 -61 -225 -61 q-119 0 -199 86t-80 221v381q0 144 -22 289zM272 1235q0 61 47 96t105 35q51 0 135 -37t127 -37q45 0 86 35t51 35q15 0 49 -27l33 -22q-27 -88 -80 -135q-51 -45 -116 -45q-39 0 -107 30q-70 31 -117 31q-90 0 -149 -68q-64 34 -64 109z" />
<glyph unicode="&#x16a;" horiz-adv-x="1488" d="M117 1417q98 25 276 25q15 -120 15 -295v-590q0 -188 94 -301q95 -115 246 -115q148 0 239 113q92 115 92 295v577q0 166 -14 289q92 25 264 25q17 -129 17 -295v-570q0 -260 -172 -423q-173 -164 -451 -164q-260 0 -420 151t-160 398l-2 589q0 153 -24 291zM426 1733 q101 8 295 8h137q126 0 166 24q35 -50 35 -96q0 -53 -158 -53h-160q-149 0 -290 -25q-25 73 -25 142z" />
<glyph unicode="&#x16b;" d="M119 967q89 24 264 24q14 -95 14 -295l-2 -350q0 -92 43 -153q44 -62 107 -62q88 0 160 100q74 103 77 228v217q0 151 -14 299q101 16 258 16q14 -112 14 -295v-503q0 -132 43 -166q-81 -35 -196 -35q-48 0 -74 33q-29 37 -29 125v63q-42 -99 -139 -162q-94 -61 -225 -61 q-119 0 -199 86t-80 221v381q0 144 -22 289zM268 1323q101 8 295 8h137q124 0 166 25q35 -50 35 -96q0 -54 -158 -54h-159q-156 0 -291 -24q-25 73 -25 141z" />
<glyph unicode="&#x16c;" horiz-adv-x="1488" d="M117 1417q98 25 276 25q15 -120 15 -295v-590q0 -188 94 -301q95 -115 246 -115q148 0 239 113q92 115 92 295v577q0 166 -14 289q92 25 264 25q17 -129 17 -295v-570q0 -260 -172 -423q-173 -164 -451 -164q-260 0 -420 151t-160 398l-2 589q0 153 -24 291zM426 1702 q0 84 160 84q40 -119 184 -119l-4 2q53 0 100 29q43 26 68 55q26 29 37 29q7 0 47 -19l39 -22q-41 -95 -129 -156t-199 -61q-139 0 -221 55t-82 123z" />
<glyph unicode="&#x16d;" d="M119 967q89 24 264 24q14 -95 14 -295l-2 -346q0 -92 43 -153q44 -62 107 -62q91 0 164 105q73 104 73 231v205q0 151 -14 299q101 16 258 16q14 -112 14 -295v-503q0 -132 43 -166q-81 -35 -196 -35q-48 0 -74 33q-29 37 -29 125v63q-42 -99 -139 -162q-94 -61 -225 -61 q-119 0 -199 86t-80 221v381q0 144 -22 289zM272 1296q0 84 160 84q40 -118 184 -118l-4 2q56 0 101 28q38 24 67 56q25 28 37 28q9 0 47 -18l39 -23q-40 -93 -129 -155t-199 -62q-138 0 -221 56q-82 55 -82 122z" />
<glyph unicode="&#x16e;" horiz-adv-x="1488" d="M117 1417q98 25 276 25q15 -120 15 -295v-590q0 -188 94 -301q95 -115 246 -115q148 0 239 113q92 115 92 295v577q0 166 -14 289q92 25 264 25q17 -129 17 -295v-570q0 -260 -172 -423q-173 -164 -451 -164q-260 0 -420 151t-160 398l-2 589q0 153 -24 291zM537 1710 q0 85 59 141t154 56q87 0 139 -49q53 -50 53 -132q0 -87 -59 -143q-58 -55 -154 -55q-83 0 -135 49q-53 50 -53 133h-4zM657 1718q0 -45 23 -78q21 -30 55 -30t56 28q20 26 20 74q0 45 -23 78q-22 31 -55 31t-51 -27t-18 -74z" />
<glyph unicode="&#x16f;" d="M119 967q89 24 264 24q14 -95 14 -295l-2 -346q0 -92 43 -153q44 -62 107 -62q91 0 164 105q73 104 73 231v205q0 151 -14 299q101 16 258 16q14 -112 14 -295v-503q0 -132 43 -166q-81 -35 -196 -35q-48 0 -74 33q-29 37 -29 125v63q-42 -99 -139 -162q-94 -61 -225 -61 q-119 0 -199 86t-80 221v381q0 144 -22 289zM381 1305q0 85 59 141q58 55 154 55q87 0 139 -49q53 -50 53 -131q0 -87 -59 -143t-154 -56q-83 0 -135 49q-53 50 -53 134h-4zM502 1313q0 -47 22 -78t56 -31q32 0 55 29q20 26 20 74q0 46 -22 77t-55 31q-35 0 -52 -26 q-18 -27 -18 -74z" />
<glyph unicode="&#x170;" horiz-adv-x="1488" d="M117 1417q98 25 276 25q15 -120 15 -295v-590q0 -188 94 -301q95 -115 246 -115q148 0 239 113q92 115 92 295v577q0 166 -14 289q92 25 264 25q17 -129 17 -295v-570q0 -260 -172 -423q-173 -164 -451 -164q-260 0 -420 151t-160 398l-2 589q0 153 -24 291zM319 1595 q0 34 46 74q208 175 288 232q42 -45 86 -134q-231 -181 -368 -258l-33 37q-19 29 -19 49zM745 1593q0 34 46 74q201 169 288 231q43 -46 86 -133q-231 -181 -368 -258l-33 37q-19 28 -19 49z" />
<glyph unicode="&#x171;" d="M119 967q89 24 264 24q14 -95 14 -295l-2 -350q0 -92 43 -153q44 -62 107 -62q88 0 160 100q74 103 77 228v217q0 151 -14 299q101 16 258 16q14 -112 14 -295v-503q0 -132 43 -166q-81 -35 -196 -35q-48 0 -74 33q-29 37 -29 125v63q-42 -99 -139 -162q-94 -61 -225 -61 q-119 0 -199 86t-80 221v381q0 144 -22 289zM164 1184q0 34 45 73q203 171 289 232q43 -46 86 -133q-228 -178 -369 -258l-33 37q-18 27 -18 49zM590 1186q0 35 45 74q195 165 289 231q43 -46 86 -133q-228 -178 -369 -258l-33 37q-18 27 -18 49z" />
<glyph unicode="&#x172;" horiz-adv-x="1488" d="M123 1421q98 25 276 25q15 -120 15 -295v-590q0 -188 94 -301q95 -115 246 -115q148 0 239 113q92 115 92 295v577q0 166 -14 289q92 25 264 25q17 -129 17 -295v-569q0 -231 -135 -387t-359 -193q-98 -110 -98 -211q0 -72 67 -72q11 0 35 4q5 1 10.5 2t9 2t5.5 1 q21 0 31 -13q9 -11 18 -43l12 -41q-62 -24 -131 -24q-93 0 -149 47t-56 123q0 127 109 213q-258 0 -418 151t-160 398l4 593q0 153 -24 291z" />
<glyph unicode="&#x173;" d="M119 967q89 24 264 24q14 -95 14 -295l4 -344q0 -92 43 -153q44 -62 107 -62q91 0 164 105q73 104 73 231v205q0 151 -14 299q101 16 258 16q15 -120 15 -295v-503q0 -132 43 -166q-50 -22 -117 -31q-96 -110 -96 -209q0 -72 67 -72q11 0 35 4q5 1 10.5 2t9 2t5.5 1 q20 0 30 -13q10 -14 19 -43l12 -41q-61 -24 -131 -24q-94 0 -150 47q-55 46 -55 123q0 134 123 223q-68 18 -68 152v63q-42 -99 -139 -162q-94 -61 -225 -61q-119 0 -199 86t-80 221v381q0 144 -22 289z" />
<glyph unicode="&#x174;" horiz-adv-x="2195" d="M43 1421q106 25 283 25q63 -99 98 -219l274 -903l242 806q48 160 70 302q120 10 221 10q69 -113 98 -215l264 -901l252 809q53 181 72 301q73 8 221 8q-16 -110 -51 -213l-340 -1036q-34 -106 -37 -172q-60 -31 -172 -31q-52 0 -88 33q-37 34 -64 125l-270 890l-270 -841 q-37 -112 -37 -172q-60 -31 -172 -31q-51 0 -84 33t-68 125l-319 976q-39 118 -123 291zM762 1622q0 40 45 76q163 137 256 205q90 -64 197 -154q101 -85 141 -88q-3 -32 -27 -76q-24 -43 -57 -43q-26 0 -76 29l-90 71l-90 72q-138 -108 -250 -174l-31 37q-18 21 -18 45z " />
<glyph unicode="&#x175;" horiz-adv-x="1695" d="M63 969q89 24 252 24q64 -104 101 -217l153 -493l119 395q49 161 70 301q110 10 205 10q64 -105 100 -215l147 -493l125 397q60 197 74 301q110 10 205 10q-15 -116 -49 -213l-209 -581q-39 -101 -39 -170q-57 -31 -158 -31q-47 0 -80 33q-34 34 -61 125l-148 495 l-157 -452q-35 -103 -35 -172q-57 -31 -158 -31q-47 0 -76 33q-28 32 -63 125l-191 528q-45 133 -127 291zM526 1208q0 40 45 76q163 137 256 205q90 -64 197 -154q101 -85 141 -88q-3 -34 -26 -76q-24 -43 -58 -43q-25 0 -75 29l-91 72l-90 71q-138 -108 -250 -174l-30 39 q-19 22 -19 43z" />
<glyph unicode="&#x176;" horiz-adv-x="1417" d="M49 1417q92 25 295 25q76 -94 203 -295l190 -297l178 280q104 168 166 304q57 8 252 8q-48 -116 -110 -213l-385 -615v-421q0 -131 41 -166q-81 -35 -201 -35q-51 0 -80 33q-31 36 -31 125l4 468l-315 508q-85 133 -207 291zM391 1616q0 40 45 76q154 129 256 204 q98 -70 197 -153q101 -85 141 -88q-3 -34 -26 -76q-24 -43 -58 -43q-26 0 -76 29l-90 71l-90 72q-138 -108 -250 -174l-30 37q-19 22 -19 45z" />
<glyph unicode="&#x177;" horiz-adv-x="1144" d="M57 967q89 24 256 24q75 -124 111 -219l176 -514l160 418q44 122 86 301q88 10 231 10q-30 -120 -94 -291l-278 -737q-75 -207 -189 -321q-111 -111 -242 -111q-57 0 -94 37t-37 108q238 0 332 254l25 74q-57 25 -97 147l-210 529q-61 147 -136 291zM250 1206q0 40 45 76 q163 137 256 205q90 -64 197 -154q101 -85 141 -88q-3 -32 -27 -76q-24 -43 -57 -43q-26 0 -76 29l-90 72l-90 71q-138 -108 -250 -174l-31 39q-18 21 -18 43z" />
<glyph unicode="&#x178;" horiz-adv-x="1417" d="M49 1417q92 25 295 25q76 -94 203 -295l190 -297l178 280q104 168 166 304q57 8 252 8q-48 -116 -110 -213l-385 -615v-421q0 -131 41 -166q-81 -35 -201 -35q-51 0 -80 33q-31 36 -31 125l4 468l-315 508q-85 133 -207 291zM356 1663q0 59 37 96t96 37q53 0 86 -33 t33 -86q0 -57 -37 -94t-96 -37q-51 0 -86 35q-33 33 -33 86v-4zM805 1667q0 59 37 96t98 37q53 0 86 -33q35 -35 35 -86q0 -57 -37 -94t-96 -37q-51 0 -86 35q-33 33 -33 86z" />
<glyph unicode="&#x179;" horiz-adv-x="1312" d="M84 133l813 1149h-606q-131 0 -166 -27q-37 46 -37 117q0 62 158 62h667q150 0 291 16q25 -73 25 -154l-813 -1149h616q132 0 166 27q35 -47 35 -117q0 -61 -158 -61h-676q-149 0 -290 -16q-25 73 -25 153zM446 1595q0 34 46 74q208 175 288 232q42 -45 86 -134 q-231 -181 -368 -258l-33 37q-19 29 -19 49z" />
<glyph unicode="&#x17a;" horiz-adv-x="1091" d="M111 924q0 59 159 59h379q157 0 295 12q25 -73 25 -137l-555 -717h360q136 0 170 43q35 -68 35 -125q0 -59 -158 -59l-383 -2q-139 0 -299 -10q-24 70 -24 147l538 707h-336q-129 0 -174 -25q-32 49 -32 107zM338 1184q0 34 45 73q203 171 289 232q43 -46 86 -133 q-228 -178 -369 -258l-33 37q-18 27 -18 49z" />
<glyph unicode="&#x17b;" horiz-adv-x="1312" d="M84 133l813 1149h-606q-131 0 -166 -27q-37 46 -37 117q0 62 158 62h667q150 0 291 16q25 -73 25 -154l-813 -1149h616q132 0 166 27q35 -47 35 -117q0 -61 -158 -61h-676q-149 0 -290 -16q-25 73 -25 153zM522 1681q0 61 39 97q40 37 101 37q53 0 86 -33q32 -32 32 -88 q0 -60 -37 -97q-36 -36 -96 -36q-52 0 -86 34q-35 35 -35 91z" />
<glyph unicode="&#x17c;" horiz-adv-x="1091" d="M111 924q0 59 159 59h379q157 0 295 12q25 -73 25 -137l-555 -717h360q136 0 170 43q35 -68 35 -125q0 -59 -158 -59l-383 -2q-139 0 -299 -10q-24 70 -24 147l538 707h-336q-129 0 -174 -25q-32 49 -32 107zM414 1270q0 60 39 96q40 37 100 37q53 0 86 -33t33 -88 q0 -59 -37 -96t-96 -37q-51 0 -86 35t-35 90z" />
<glyph unicode="&#x17d;" horiz-adv-x="1312" d="M84 133l813 1149h-606q-131 0 -166 -27q-37 46 -37 117q0 62 158 62h667q150 0 291 16q25 -73 25 -154l-813 -1149h616q132 0 166 27q35 -47 35 -117q0 -61 -158 -61h-676q-149 0 -290 -16q-25 73 -25 153zM332 1765q26 54 98 129q167 -110 242 -174q153 118 250 174 l30 -36q19 -22 19 -50q0 -34 -45 -73q-155 -137 -256 -209q-28 18 -111 84q-71 56 -131 98q-61 42 -92 53z" />
<glyph unicode="&#x17e;" horiz-adv-x="1091" d="M106 926q0 59 160 59h379q157 0 295 12q25 -73 25 -137l-555 -717h360q136 0 170 43q35 -68 35 -125q0 -59 -158 -59l-383 -2q-139 0 -299 -10q-24 70 -24 147l538 707h-336q-129 0 -174 -25q-33 50 -33 107zM223 1354q25 52 99 129q162 -107 241 -174q153 118 250 174 l31 -37q18 -21 18 -47q0 -35 -45 -74q-155 -137 -256 -209q-23 15 -110 84q-64 51 -132 98q-64 44 -92 54z" />
<glyph unicode="&#x17f;" horiz-adv-x="845" d="M139 150l4 972q0 169 101 273t272 104q126 0 203 -45q80 -47 80 -98q0 -109 -185 -109q-9 44 -34 76q-25 31 -60 31q-51 0 -86 -56q-33 -53 -33 -143v-960q0 -128 23 -172q-67 -31 -178 -31q-52 0 -78 33q-29 37 -29 125z" />
<glyph unicode="&#x18f;" horiz-adv-x="1423" d="M84 637q0 99 12 151l-6 -6q120 15 264 15h686q-21 221 -129 356t-272 135q-97 0 -168 -26q-69 -25 -109 -60q-5 -5 -29.5 -26.5t-37.5 -32.5q-35 -27 -57 -27q-24 0 -54 21l-39 24q58 126 207 203q150 78 330 78q302 0 481 -191q178 -190 178 -506q0 -341 -180 -548 q-182 -209 -485 -209q-249 0 -420 186q-172 187 -172 463zM367 647q3 -220 96 -366t237 -146h5q143 0 237 141q96 143 105 371h-680z" />
<glyph unicode="&#x192;" horiz-adv-x="866" d="M-6 -342q103 0 151 66q48 67 48 196l-5 911q-71 -9 -116 -18q-25 77 -25 158q129 6 141 6v141q0 168 99 273q98 104 268 104q124 0 201 -45q80 -47 80 -98q0 -109 -185 -109q-9 45 -35 78q-25 31 -57 31q-50 0 -80 -56t-30 -143v-170h135q130 0 166 25q34 -52 34 -109 t-157 -57h-181v-889q0 -191 -86 -309q-86 -117 -241 -117q-58 0 -92 37q-33 36 -33 94z" />
<glyph unicode="&#x1dd;" horiz-adv-x="1093" d="M88 432q3 74 29 121h614q-15 135 -80 215t-166 80q-65 0 -112 -33q-56 -39 -84 -67q-33 -33 -56 -33q-27 0 -61 18l-47 31q46 114 154 172q109 59 247 59q219 0 351 -135q133 -136 133 -356q0 -231 -138 -375q-137 -143 -362 -143q-200 0 -311 120t-111 326zM342 426 q18 -291 184 -291q82 0 138 80t65 211h-387z" />
<glyph unicode="&#x1fc;" horiz-adv-x="1722" d="M74 39q0 37 39 111l471 976q74 158 116 295q120 15 295 15h420q129 0 166 18q37 -43 37 -108q0 -60 -158 -60h-473q2 -31 2 -141v-332h377q134 0 166 16q37 -43 37 -108q0 -59 -158 -59l-424 2v-469v-43h449q137 0 166 26q36 -45 36 -117q0 -61 -157 -61h-443 q-152 0 -290 -16q-27 76 -27 153v180h-309l-50 -122q-54 -131 -57 -172q-73 -29 -178 -29q-53 0 -53 45zM471 467h250v631zM770 1597q0 35 45 74q203 171 289 232q42 -45 86 -134q-228 -179 -369 -258l-33 37q-18 27 -18 49z" />
<glyph unicode="&#x1fd;" horiz-adv-x="1660" d="M88 238q0 152 164 241q167 90 440 117v68q0 85 -51 133q-52 49 -135 49q-78 0 -129 -51q-53 -53 -53 -123q-203 0 -203 110q0 82 117 146q118 65 301 65q213 0 319 -127q133 127 322 127q196 0 301 -108q104 -107 104 -295q-3 -65 -49 -123l-590 -8q9 -150 80 -242 t184 -92q81 0 136 27q54 26 86 55q29 26 45 26q21 0 55 -18l39 -25q-50 -89 -154 -147q-106 -59 -235 -59q-268 0 -394 196q-111 -196 -366 -196q-152 0 -242 69q-92 71 -92 185zM342 258q0 -55 41 -90t104 -35l-2 -2q62 0 115 41q52 40 86 104v197q-344 -35 -344 -215z M612 1176q0 34 45 73q203 171 289 232q43 -46 86 -133q-231 -181 -368 -258l-33 36q-19 29 -19 50zM950 592h375q-21 248 -180 248h-2q-72 0 -125 -68q-53 -69 -68 -180z" />
<glyph unicode="&#x1fe;" horiz-adv-x="1499" d="M82 694q0 335 190 543q191 209 496 209q202 0 356 -103l62 78q82 21 221 21l-160 -207q166 -193 166 -496q0 -334 -190 -542q-191 -209 -498 -209q-206 0 -356 100l-62 -80q-50 -16 -141 -16q-47 0 -47 33q0 41 69 125l48 59q-154 195 -154 485zM365 719q0 -163 43 -285 l575 735q-103 121 -246 121q-165 0 -268 -157q-102 -156 -102 -412zM502 264q102 -123 252 -123q165 0 268 158q102 156 102 412l-2 2q0 165 -49 299zM532 1593q0 34 46 74q201 169 288 231q43 -46 86 -133q-231 -181 -368 -258l-33 37q-19 28 -19 49z" />
<glyph unicode="&#x1ff;" horiz-adv-x="1138" d="M80 469q0 237 141 381q142 145 373 145q135 0 242 -61l34 41q70 20 177 20l-111 -141q121 -133 121 -340q0 -236 -142 -381t-372 -145q-135 0 -234 57l-28 -37q-37 -16 -109 -16q-35 0 -35 33q0 37 58 110q-115 133 -115 334zM342 502q0 -88 18 -156l347 428 q-63 78 -150 78q-96 0 -154 -98q-59 -100 -59 -254zM358 1186q0 35 45 74q195 165 289 231q43 -46 86 -133q-231 -181 -368 -258l-33 37q-19 29 -19 49zM430 205q60 -72 148 -72q95 0 153 98q60 102 60 254v-2q0 81 -21 158z" />
<glyph unicode="&#x218;" horiz-adv-x="1171" d="M76 231q0 131 223 131l-16 -10q65 -221 260 -221q112 0 184 57q74 59 74 160q0 89 -74 154q-75 66 -180 108q-109 44 -211 92q-103 48 -178 136q-74 86 -74 213q0 173 131 280q133 109 375 109q191 0 313 -70q123 -70 123 -160q0 -59 -55 -80q-58 -22 -170 -22 q-24 77 -80 127q-55 49 -141 49q-98 0 -168 -61t-70 -152q0 -70 55 -125q56 -56 138 -86q66 -24 178 -72q110 -47 178 -83q82 -43 137 -125t55 -193q0 -179 -139 -291q-137 -110 -399 -110q-212 0 -340 73q-129 73 -129 172zM397 -522q0 15 19 37q21 25 37 63q18 43 18 113 q0 21 -10 73q-9 45 -12 68q53 21 133 21q28 0 47 -19q18 -18 18 -49q0 -278 -188 -373l-31 17q-31 28 -31 49z" />
<glyph unicode="&#x219;" horiz-adv-x="911" d="M78 176q0 105 184 105l6 -9q40 -147 166 -147q66 0 105 33q41 35 41 88q0 52 -50 96q-52 46 -118 74q-102 43 -142 63q-69 34 -118 92q-50 59 -50 142q0 119 99 198q100 80 276 80q146 0 238 -53t92 -123q0 -48 -45 -65q-49 -19 -141 -19q-44 115 -142 115q-56 0 -92 -33 q-37 -34 -37 -82q0 -53 49 -90q52 -40 121 -66q80 -31 142 -61q73 -36 120 -94q49 -61 49 -144q0 -129 -104 -208q-106 -80 -291 -80q-162 0 -260 55t-98 133zM336 -520q0 16 18 37q21 25 37 63q19 46 19 113q0 17 -11 74q-9 48 -12 67q52 21 133 21q28 0 47 -19t19 -49 q0 -278 -189 -373l-30 17q-31 28 -31 49z" />
<glyph unicode="&#x21a;" horiz-adv-x="1359" d="M70 1421q120 15 295 15h725q134 0 163 26q37 -46 37 -116q0 -62 -157 -62l-316 -2q2 -31 2 -137v-955q0 -130 41 -165q-81 -35 -201 -35q-50 0 -79 33q-31 36 -31 124v977q0 90 -4 160h-160q-150 0 -291 -16q-24 70 -24 153zM565 -514q0 15 19 37q21 25 37 63 q18 43 18 113q0 22 -10 74q-2 11 -5.5 26.5t-5 25t-2.5 15.5q53 21 134 21q28 0 47 -19q18 -18 18 -49q0 -278 -188 -373l-31 17q-31 28 -31 49z" />
<glyph unicode="&#x21b;" horiz-adv-x="858" d="M39 979q129 6 141 6q1 10 13 62q15 68 16 73q6 34 6 74q82 18 203 18q9 -92 12 -229h115q134 0 170 25q35 -53 35 -109q0 -57 -158 -57l-164 10v-557q0 -68 37 -111t98 -43q44 0 76 19t47 37t25 18q26 0 55 -20l39 -23q-35 -80 -111 -129t-172 -49q-158 0 -254 78 q-94 76 -94 202v564q-2 0 -14 -2t-39.5 -6.5t-57.5 -8.5q-24 73 -24 158zM301 -502q0 16 18 37q20 24 37 64q19 46 19 112q0 22 -10 74q-13 65 -13 68q50 20 133 20q29 0 47 -18q19 -19 19 -50q0 -277 -189 -372l-30 16q-31 28 -31 49z" />
<glyph unicode="&#x237;" horiz-adv-x="544" d="M-57 -344q204 0 204 264l5 756q0 140 -23 291q89 24 264 24q15 -102 15 -295v-743q0 -191 -89 -309q-88 -117 -251 -117q-57 0 -91 37t-34 92z" />
<glyph unicode="&#x2c6;" horiz-adv-x="800" d="M80 1206q0 40 45 76q163 137 256 205q90 -64 197 -154q101 -85 141 -88q-3 -32 -27 -76q-24 -43 -57 -43q-26 0 -76 29l-90 72l-90 71q-138 -108 -250 -174l-31 39q-18 21 -18 43z" />
<glyph unicode="&#x2c7;" horiz-adv-x="800" d="M80 1354q26 54 98 129q167 -110 242 -174q153 118 250 174l30 -37q19 -22 19 -47q0 -35 -45 -74q-155 -137 -256 -209q-28 18 -111 84q-71 56 -131 98q-64 44 -92 54z" />
<glyph unicode="&#x2d8;" horiz-adv-x="794" d="M82 1292q0 84 160 84q40 -119 184 -119l-4 3q55 0 100 28q43 26 68 55q26 29 37 29q9 0 47 -18l39 -23q-40 -93 -129 -155t-199 -62q-139 0 -221 55t-82 123z" />
<glyph unicode="&#x2d9;" horiz-adv-x="528" d="M121 1272q0 60 39 96q40 37 100 37q53 0 86 -33t33 -88q0 -59 -37 -96t-96 -37q-51 0 -86 35t-35 90z" />
<glyph unicode="&#x2da;" horiz-adv-x="1112" d="M342 1300q0 86 59 142q58 55 154 55q87 0 139 -49q54 -51 54 -131q0 -86 -60 -143q-59 -56 -153 -56q-84 0 -136 49q-53 50 -53 133h-4zM463 1309q0 -47 22 -78t56 -31q32 0 55 29q20 26 20 74q0 46 -22 77t-55 31q-34 0 -52 -27t-18 -73z" />
<glyph unicode="&#x2db;" horiz-adv-x="1026" d="M422 -227q0 138 127 227l121 -2q-101 -110 -101 -211q0 -72 68 -72q11 0 35 4q5 1 10.5 2t8.5 2t5 1q21 0 31 -13q9 -11 18 -43l13 -41q-62 -24 -131 -24q-94 0 -150 47q-55 46 -55 123z" />
<glyph unicode="&#x2dc;" horiz-adv-x="794" d="M80 1235q0 61 47 96t104 35q50 0 134 -37t129 -37t86 35t51 35q15 0 49 -27l33 -22q-27 -88 -80 -135q-51 -45 -117 -45q-38 0 -106 30q-70 31 -117 31q-94 0 -150 -68q-63 34 -63 109z" />
<glyph unicode="&#x2dd;" horiz-adv-x="964" d="M80 1186q0 35 45 74q195 165 289 231q43 -46 86 -133q-228 -178 -369 -258l-33 37q-18 27 -18 49zM506 1184q0 34 45 73q203 171 289 232q43 -46 86 -133q-228 -178 -369 -258l-33 37q-18 27 -18 49z" />
<glyph unicode="&#x400;" horiz-adv-x="1222" d="M121 1419q120 15 295 15h499q131 0 166 18q37 -43 37 -111q0 -57 -157 -57h-555q4 -118 4 -139v-332h458q129 0 166 16q35 -44 35 -108q0 -59 -158 -59l-499 -3v-469v-14v-14v-12h530q133 0 166 26q35 -47 35 -117q0 -61 -158 -61h-524q-150 0 -291 -16q-25 73 -25 153 v989q0 157 -24 295zM389 1763q37 83 82 133q88 -59 221 -172q103 -83 144 -86q-15 -118 -74 -118q-28 0 -62 24q-19 11 -149 115q-113 91 -160 106z" />
<glyph unicode="&#x401;" horiz-adv-x="1222" d="M121 1419q120 15 295 15h499q131 0 166 18q37 -43 37 -109q0 -59 -157 -59h-555q4 -118 4 -139v-332h458q129 0 166 16q35 -44 35 -108q0 -59 -158 -59l-499 -3v-469v-14v-14v-12h530q133 0 166 26q35 -47 35 -117q0 -61 -158 -61h-524q-150 0 -291 -16q-25 73 -25 153 v989q0 157 -24 295zM258 1665q0 59 37 96t96 37q53 0 86 -33q35 -35 35 -86q0 -57 -37 -94t-96 -37q-51 0 -86 35q-33 33 -33 86zM702 1661q0 60 39 96q40 37 99 37q53 0 86 -33q32 -32 32 -86q0 -58 -36 -94q-37 -37 -97 -37q-51 0 -86 35q-32 32 -32 86z" />
<glyph unicode="&#x402;" horiz-adv-x="1609" d="M51 1421q120 15 295 15h725q135 0 164 26q37 -46 37 -116q0 -62 -158 -62h-317q2 -31 2 -137v-426q40 103 145 168q103 63 242 63q126 0 205 -82t79 -215v-297q0 -164 -100 -264q-102 -102 -252 -102q-56 0 -94 35q-37 34 -37 92q95 0 154 59t59 148l2 274q0 90 -43 148 q-42 57 -106 57q-95 0 -170 -100q-78 -104 -84 -224v-291q0 -133 32 -165q-78 -35 -194 -35q-52 0 -78 33q-29 37 -29 124v977q0 90 -4 160h-159q-150 0 -291 -16q-25 73 -25 153z" />
<glyph unicode="&#x403;" horiz-adv-x="1128" d="M121 1419q120 15 295 15h446q133 0 166 26q37 -49 37 -114q0 -62 -158 -62h-501q4 -144 4 -160v-931q0 -133 26 -166q-78 -35 -190 -35q-48 0 -74 33q-27 35 -27 125v974q0 157 -24 295zM367 1595q0 35 45 74q208 175 288 232q44 -49 82 -134q-228 -175 -366 -258l-31 37 q-18 27 -18 49z" />
<glyph unicode="&#x404;" horiz-adv-x="1357" d="M82 684q0 343 190 551q191 209 514 209q217 0 353 -80q135 -80 135 -176q0 -107 -217 -107q-27 93 -103 154q-74 59 -182 59q-164 0 -274 -137t-125 -362h557q132 0 166 24q34 -46 34 -112q0 -62 -157 -62l-596 2q18 -230 129 -368t280 -138q90 0 170 23q70 20 109 47 q64 45 68 47q38 23 57 23t55 -19l39 -24q-65 -108 -209 -179q-141 -69 -321 -69q-311 0 -492 190q-180 189 -180 504z" />
<glyph unicode="&#x405;" horiz-adv-x="1171" d="M76 231q0 131 223 131l-16 -10q65 -221 260 -221q112 0 184 57q74 59 74 160q0 89 -74 154q-75 66 -180 108q-109 44 -211 92q-103 48 -178 136q-74 86 -74 213q0 173 131 280q133 109 375 109q191 0 313 -70q123 -70 123 -160q0 -59 -55 -80q-58 -22 -170 -22 q-24 77 -80 127q-55 49 -141 49q-98 0 -168 -61t-70 -152q0 -70 55 -125q56 -56 138 -86q66 -24 178 -72q110 -47 178 -83q82 -43 137 -125t55 -193q0 -179 -139 -291q-137 -110 -399 -110q-212 0 -340 73q-129 73 -129 172z" />
<glyph unicode="&#x406;" horiz-adv-x="550" d="M117 1417q98 25 276 25q15 -120 15 -295v-954q0 -131 41 -166q-78 -35 -197 -35q-54 0 -80 33q-29 37 -29 125l-2 976q0 153 -24 291z" />
<glyph unicode="&#x407;" horiz-adv-x="550" d="M-80 1667q0 59 37 96t96 37q53 0 86 -33t33 -86q0 -57 -37 -94t-94 -37q-51 0 -86 35q-33 33 -33 86zM117 1417q98 25 276 25q15 -120 15 -295v-954q0 -131 41 -166q-78 -35 -197 -35q-54 0 -80 33q-29 37 -29 125l-2 976q0 153 -24 291zM369 1663q0 59 37 96t96 37 q53 0 86 -33t33 -86q0 -57 -37 -94t-97 -37q-51 0 -86 35q-32 32 -32 86v-4z" />
<glyph unicode="&#x408;" horiz-adv-x="559" d="M-49 -346q88 0 143 76q56 77 56 190l2 1206q0 156 -23 291q103 25 274 25q17 -129 17 -295v-1194q0 -188 -98 -307t-240 -119q-56 0 -94 35q-37 34 -37 92z" />
<glyph unicode="&#x409;" horiz-adv-x="2148" d="M66 119q128 0 190 200q61 198 61 523l2 282q0 144 -22 289q66 17 274 17h729q15 -102 15 -295v-258h231q231 0 375 -117q143 -116 143 -307q0 -203 -155 -328t-406 -125h-139q-151 0 -289 -16q-26 62 -26 151v991q0 70 -5 158h-479q6 -73 6 -145v-236q0 -409 -104 -659 q-105 -252 -277 -252q-55 0 -90 35q-34 34 -34 92zM1315 729l2 -582h217q117 0 188 80q72 81 72 209q0 129 -76 211t-196 82h-207z" />
<glyph unicode="&#x40a;" horiz-adv-x="2127" d="M119 1415q98 25 276 25q15 -120 15 -295v-338h616v317q0 166 -14 289q92 25 264 25q14 -95 14 -295v-266h232q230 0 374 -117t144 -307q0 -202 -156 -328q-155 -125 -405 -125h-140q-150 0 -288 -16q-27 65 -27 151v524h-616v-466q0 -133 26 -166q-78 -35 -190 -35 q-48 0 -74 33q-27 35 -27 125v974q0 153 -24 291zM1292 729l2 -582h217q118 0 189 80q72 81 72 209q0 129 -76 211t-197 82h-207z" />
<glyph unicode="&#x40b;" horiz-adv-x="1593" d="M51 1421q120 15 295 15h725q135 0 164 26q37 -46 37 -116q0 -62 -158 -62h-317q2 -31 2 -137v-445q41 103 141 166q104 66 238 66q120 0 196 -82q78 -84 78 -215v-444q0 -132 43 -166q-81 -35 -201 -35q-51 0 -80 33q-30 35 -30 125v432q0 91 -39 147q-39 57 -105 57 q-91 0 -163 -100q-75 -104 -78 -223v-273q0 -133 32 -165q-78 -35 -194 -35q-52 0 -78 33q-29 37 -29 124v977q0 90 -4 160h-159q-150 0 -291 -16q-25 73 -25 153z" />
<glyph unicode="&#x40c;" horiz-adv-x="1323" d="M117 1417q103 25 260 25q31 -112 31 -215v-441l315 359q59 68 221 291q71 8 254 8q-105 -165 -203 -283l-340 -395l465 -567q102 -129 178 -172q-53 -39 -180 -39q-138 0 -258 164l-454 557v-514q0 -123 22 -172q-67 -31 -178 -31q-54 0 -80 33q-29 37 -29 125v983 q0 146 -24 284zM467 1597q0 38 45 74q196 165 289 232q42 -45 86 -134q-228 -179 -369 -258l-33 37q-18 21 -18 49z" />
<glyph unicode="&#x40d;" horiz-adv-x="1441" d="M119 1417q98 25 276 25q15 -120 15 -295v-830l614 1100q92 25 264 25q17 -129 17 -295v-954q0 -131 41 -166q-78 -35 -197 -35q-54 0 -80 33q-29 37 -29 125l-2 958l-604 -1081q-78 -35 -190 -35q-48 0 -74 33q-27 35 -27 125v976q0 153 -24 291zM432 29q0 -2 2 -2z M496 1767q44 89 86 134q88 -59 221 -172q106 -86 141 -89q-3 -39 -20 -77q-18 -41 -52 -41q-25 0 -63 24q-23 16 -154 117q-116 90 -159 104z" />
<glyph unicode="&#x40e;" horiz-adv-x="1337" d="M70 1413q92 25 245 25q99 -116 144 -219l264 -566l227 469q68 135 113 301q94 11 233 11q-42 -131 -116 -289l-338 -727q-193 -432 -572 -432q-63 0 -96 39q-35 41 -35 106q157 0 275 68q117 68 176 188l37 64q-71 27 -129 153l-256 518q-73 144 -172 291zM362 1696 q0 84 162 84q40 -119 185 -119l-4 2q53 0 100 29q40 25 67 55q26 29 37 29q7 0 47 -19l39 -22q-41 -95 -129 -156t-198 -61q-140 0 -222 55q-84 57 -84 123z" />
<glyph unicode="&#x40f;" horiz-adv-x="1419" d="M119 1417q98 25 276 25q15 -120 15 -295v-997h602v976q0 141 -17 291q92 25 265 25q16 -122 16 -295v-944q0 -131 41 -166q-75 -37 -199 -37h-284v-166q0 -129 40 -166q-72 -35 -174 -35q-44 0 -67 33q-25 36 -25 125v207h-149q-150 0 -291 -16q-25 73 -25 153v991 q0 153 -24 291z" />
<glyph unicode="&#x410;" horiz-adv-x="1466" d="M80 39q0 37 26 111l386 976q48 120 88 291q89 25 272 25q61 -126 127 -295l371 -954q53 -132 104 -166q-68 -35 -194 -35q-120 0 -179 158l-90 245h-561l-76 -200q-43 -113 -43 -166q-81 -35 -176 -35q-55 0 -55 45zM485 545h447l-225 583z" />
<glyph unicode="&#x411;" horiz-adv-x="1251" d="M119 1419q120 15 295 15h456q133 0 166 26q35 -47 35 -117q0 -61 -158 -61h-510q1 -24 2 -56t2 -54t1 -37v-263h241q232 0 375 -116t143 -305q0 -200 -153 -326q-152 -125 -404 -125h-151q-150 0 -291 -16v-2q-25 73 -25 153v983q0 163 -24 301zM408 147h227 q117 0 188 80q72 81 72 207q0 127 -74 207t-194 80h-219v-574z" />
<glyph unicode="&#x412;" horiz-adv-x="1290" d="M121 1405q98 25 276 25h330q187 0 301 -99q115 -100 115 -254q0 -110 -56 -196t-155 -131q130 -41 203 -132t73 -221q0 -177 -135 -288t-352 -111h-262q-150 0 -291 -16q-25 73 -25 153v983l2 -4q0 153 -24 291zM408 1278q4 -132 4 -145v-322h227l2 -2q99 0 158 65 t59 166q0 104 -63 170q-65 68 -166 68h-221zM412 145l262 -2q109 0 178 72q68 71 68 184q0 116 -72 191q-71 74 -184 74h-252v-519z" />
<glyph unicode="&#x413;" horiz-adv-x="1128" d="M121 1419q120 15 295 15h446q133 0 166 26q37 -49 37 -114q0 -62 -158 -62h-501q4 -144 4 -160v-931q0 -133 26 -166q-78 -35 -190 -35q-48 0 -74 33q-27 35 -27 125v974q0 157 -24 295z" />
<glyph unicode="&#x414;" horiz-adv-x="1656" d="M72 -209l2 348q81 10 166 13q151 139 151 694v284q0 144 -22 289q66 17 274 17h729q17 -129 17 -295v-989q130 0 159 26q37 -46 37 -117v-227q0 -128 41 -166q-72 -35 -174 -35q-94 0 -94 158v209h-1059v-166q0 -132 27 -166q-68 -35 -164 -35q-43 0 -66 33 q-24 34 -24 125zM469 154h653v976q0 88 -4 158h-477q4 -132 4 -145v-236q0 -527 -176 -753z" />
<glyph unicode="&#x415;" horiz-adv-x="1222" d="M121 1419q120 15 295 15h499q131 0 166 18q37 -43 37 -109q0 -59 -157 -59h-555q4 -118 4 -139v-332h458q129 0 166 16q35 -44 35 -108q0 -59 -158 -59l-499 -3v-469v-14v-14v-12h530q133 0 166 26q35 -47 35 -117q0 -61 -158 -61h-524q-150 0 -291 -16q-25 73 -25 153 v989q0 157 -24 295z" />
<glyph unicode="&#x416;" horiz-adv-x="1974" d="M37 27q73 42 160 172l411 567l-311 395q-99 132 -186 283q193 0 266 -8q99 -162 196 -291l281 -354v337q0 150 -16 291q92 25 268 25q14 -112 14 -295v-358l281 354q73 94 198 289q73 8 267 8q-89 -153 -187 -281l-311 -395l412 -567q91 -131 159 -172q-51 -39 -172 -39 q-127 0 -241 164l-402 550v-509q0 -125 25 -170q-70 -31 -182 -31q-51 0 -80 33q-31 36 -31 125v552l-405 -550q-111 -164 -242 -164q-121 0 -172 39z" />
<glyph unicode="&#x417;" horiz-adv-x="1181" d="M80 1161q55 126 190 205q136 80 305 80q208 0 332 -100q125 -101 125 -259q0 -113 -55 -198q-56 -87 -156 -135q129 -40 203 -136q74 -95 74 -227q0 -183 -142 -295q-140 -110 -376 -110q-219 0 -351 75q-135 77 -135 166q0 103 152 103q26 -84 104 -137q76 -52 191 -52 l-17 -8q122 0 197 72q74 71 74 188q0 120 -72 195q-71 74 -184 74h-68q-77 0 -160 -9q-16 66 -16 144q55 14 172 14h51q97 0 160 66q61 64 61 170q0 108 -63 174q-64 67 -168 67q-78 0 -137 -26q-56 -25 -88 -60q-27 -30 -56 -59q-27 -27 -45 -27q-27 0 -57 21z" />
<glyph unicode="&#x418;" horiz-adv-x="1441" d="M119 1417q98 25 276 25q15 -120 15 -295v-830l614 1100q92 25 264 25q17 -129 17 -295v-954q0 -131 41 -166q-78 -35 -197 -35q-54 0 -80 33q-29 37 -29 125l-2 958l-604 -1081q-78 -35 -190 -35q-48 0 -74 33q-27 35 -27 125v976q0 153 -24 291zM432 29q0 -2 2 -2z" />
<glyph unicode="&#x419;" horiz-adv-x="1441" d="M119 1417q98 25 276 25q15 -120 15 -295v-830l614 1100q92 25 264 25q17 -129 17 -295v-954q0 -131 41 -166q-78 -35 -197 -35q-54 0 -80 33q-29 37 -29 125l-2 958l-604 -1081q-78 -35 -190 -35q-48 0 -74 33q-27 35 -27 125v976q0 153 -24 291zM399 1702q0 84 162 84 q14 -50 66 -86q47 -33 118 -33l-4 2q54 0 101 29q40 25 67 55q26 29 37 29q9 0 45 -19l41 -22q-40 -95 -129 -156q-88 -61 -198 -61q-140 0 -222 55q-84 57 -84 123zM428 31q0 -2 2 -2z" />
<glyph unicode="&#x41a;" horiz-adv-x="1323" d="M117 1417q103 25 260 25q31 -112 31 -215v-441l315 359q59 68 221 291q71 8 254 8q-105 -165 -203 -283l-340 -395l465 -567q102 -129 178 -172q-53 -39 -180 -39q-138 0 -258 164l-454 557v-514q0 -123 22 -172q-67 -31 -178 -31q-54 0 -80 33q-29 37 -29 125v983 q0 146 -24 284z" />
<glyph unicode="&#x41b;" horiz-adv-x="1456" d="M66 119q128 0 190 200q61 198 61 523l5 286q0 138 -23 289q66 17 274 17h730q14 -95 14 -295v-946q0 -132 43 -166q-81 -35 -201 -35q-51 0 -80 33q-30 35 -30 125v976q0 70 -5 158h-479q6 -73 6 -145v-236q0 -409 -104 -659q-105 -252 -277 -252q-55 0 -90 35 q-34 34 -34 92z" />
<glyph unicode="&#x41c;" horiz-adv-x="1908" d="M92 92q0 28 37 283l72 508l37 245q16 157 16 291q103 25 283 25q69 -117 104 -221l311 -926l285 833q44 122 80 302q113 10 280 10q32 -123 58 -295l135 -954q18 -128 65 -166q-72 -35 -196 -35q-50 0 -86 31q-33 29 -49 127l-125 856l-291 -811q-41 -118 -41 -170 q-60 -31 -172 -31q-50 0 -86 33q-35 32 -70 125l-305 841l-108 -798q-11 -72 -11 -86q0 -51 29 -80q-78 -35 -176 -35q-76 0 -76 98z" />
<glyph unicode="&#x41d;" horiz-adv-x="1433" d="M121 1417q98 25 276 25q15 -120 15 -295v-338h614v317q0 150 -16 291q92 25 268 25q14 -112 14 -295v-954q0 -132 43 -166q-81 -35 -200 -35q-51 0 -80 33q-31 36 -31 125v509h-614v-466q0 -133 26 -166q-78 -35 -190 -35q-48 0 -74 33q-27 35 -27 125v976q0 153 -24 291 z" />
<glyph unicode="&#x41e;" horiz-adv-x="1499" d="M84 694q0 335 190 543q191 209 496 209q288 0 467 -197q178 -196 178 -512q0 -334 -190 -542q-191 -209 -498 -209q-287 0 -465 196t-178 512zM369 721q0 -259 108 -418q109 -160 277 -160q165 0 268 158q102 156 102 412q0 261 -106 417q-109 160 -277 160 q-165 0 -268 -157q-102 -156 -102 -412h-2z" />
<glyph unicode="&#x41f;" horiz-adv-x="1447" d="M121 1417q73 17 276 17h895q17 -129 17 -295v-946q0 -131 41 -166q-81 -35 -201 -35q-51 0 -80 33q-31 36 -31 125v976q0 88 -4 158h-628q4 -132 4 -145v-946q0 -133 26 -166q-78 -35 -190 -35q-48 0 -74 33q-27 35 -27 125v976q0 153 -24 291z" />
<glyph unicode="&#x420;" horiz-adv-x="1210" d="M117 1407q98 25 276 25h215q231 0 375 -117q145 -118 145 -305q0 -201 -155 -326t-406 -125h-159v-366q0 -133 26 -166q-78 -35 -190 -35q-48 0 -74 33q-27 35 -27 125l-2 966q0 153 -24 291zM403 1282v4q1 -27 3 -77.5t2 -67.5v-428h186q116 0 188 78t72 202 q0 130 -76 209q-77 80 -196 80h-179z" />
<glyph unicode="&#x421;" horiz-adv-x="1357" d="M82 680q0 343 190 551q191 209 514 209q217 0 353 -80q135 -80 135 -176q0 -107 -217 -107q-27 93 -103 154q-74 59 -182 59q-176 0 -289 -155q-112 -153 -112 -406v-6q0 -261 114 -424q113 -162 301 -162q90 0 170 23q70 20 109 47q64 45 68 47q36 22 57 22q20 0 55 -18 l39 -25q-64 -107 -209 -178q-141 -69 -321 -69q-311 0 -492 190q-180 189 -180 504z" />
<glyph unicode="&#x422;" horiz-adv-x="1318" d="M49 1421q120 15 295 15h725q135 0 164 26q37 -46 37 -116q0 -62 -158 -62l-315 -2q2 -31 2 -137v-955q0 -130 41 -165q-81 -35 -201 -35q-51 0 -80 33q-31 36 -31 124v977q0 90 -4 160h-159q-150 0 -291 -16q-25 73 -25 153z" />
<glyph unicode="&#x423;" horiz-adv-x="1337" d="M70 1413q92 25 245 25q99 -116 144 -219l264 -566l227 469q68 135 113 301q94 11 233 11q-42 -131 -116 -289l-338 -727q-193 -432 -572 -432q-63 0 -96 39q-35 41 -35 106q157 0 275 68q117 68 176 188l37 64q-71 27 -129 153l-256 518q-73 144 -172 291z" />
<glyph unicode="&#x424;" horiz-adv-x="1675" d="M80 709q0 247 170 403q172 158 448 170q-3 48 -18 133q98 25 276 25q13 -143 13 -156q280 -3 454 -149t174 -383q0 -248 -172 -404q-175 -158 -454 -170q0 -116 41 -151q-78 -35 -197 -35q-51 0 -80 33q-30 35 -30 125l4 26q-278 0 -455 148q-174 146 -174 385zM369 733 q0 -172 94 -282q95 -112 246 -121v800q-152 -6 -246 -114q-94 -107 -94 -283zM975 328q152 6 246 116t94 283v-2q0 171 -94 281q-94 111 -246 120v-798z" />
<glyph unicode="&#x425;" horiz-adv-x="1458" d="M72 1417q92 25 295 25q99 -113 227 -295l176 -244l162 227q103 141 192 304l2 2q57 8 250 8q-46 -101 -127 -215l-354 -498l389 -538q93 -130 160 -166q-62 -35 -197 -35q-127 0 -246 158l-305 423l-274 -383q-91 -130 -105 -186q-41 -12 -184 -12q-49 0 -49 33 q0 34 61 122l428 601l-270 378q-111 156 -231 291z" />
<glyph unicode="&#x426;" horiz-adv-x="1568" d="M121 1419q98 25 276 25q15 -120 15 -295v-997h602v976q0 141 -17 291q92 25 265 25q16 -122 16 -295v-997h18q133 0 166 26q35 -47 35 -117v-227q0 -132 43 -166q-72 -35 -176 -35q-94 0 -94 158l2 209h-811q-150 0 -291 -16q-25 73 -25 153v991q0 153 -24 291z" />
<glyph unicode="&#x427;" horiz-adv-x="1394" d="M121 1417q102 27 276 27q15 -120 15 -295v-66q0 -170 80 -282q80 -111 206 -111q139 0 213 103t74 251v84q0 144 -22 289q98 25 276 25q14 -95 14 -295v-954q0 -132 43 -166q-81 -35 -200 -35q-51 0 -80 33q-31 36 -31 125l-2 497q-136 -112 -344 -112q-222 0 -358 145 t-136 379v67q0 156 -24 291z" />
<glyph unicode="&#x428;" horiz-adv-x="2043" d="M119 1417q98 25 276 25q15 -120 15 -295v-997h479v976q0 141 -17 291q92 25 269 25q14 -112 14 -295v-997h479v976h2q0 166 -14 289q92 25 264 25q17 -129 17 -295v-944q0 -136 41 -166q-78 -37 -201 -37h-1284q-150 0 -291 -16q-25 73 -25 153v991q0 153 -24 291z" />
<glyph unicode="&#x429;" horiz-adv-x="2193" d="M119 1421q98 25 276 25q15 -120 15 -295v-997h479v976q0 141 -17 291q92 25 269 25q14 -112 14 -295v-997h479v976q0 166 -14 289q92 25 264 25q17 -129 17 -295v-997h16q137 0 166 26q37 -46 37 -117v-227q0 -128 41 -166q-72 -35 -174 -35q-45 0 -68 33q-25 36 -25 125 v211h-1435q-150 0 -291 -16q-25 73 -25 153v991q0 153 -24 291z" />
<glyph unicode="&#x42a;" horiz-adv-x="1583" d="M63 1413q112 14 295 14h381q15 -120 15 -294v-259h229q232 0 375 -116q145 -118 145 -307q0 -203 -155 -328t-406 -125h-139q-150 0 -291 -16q-25 73 -25 153v975q0 84 -6 166h-102q-150 0 -291 -16q-25 73 -25 153zM752 141h215q117 0 188 80q72 81 72 209t-74 211 q-73 82 -192 82h-207z" />
<glyph unicode="&#x42b;" horiz-adv-x="1738" d="M117 1411q98 25 276 25q15 -120 15 -295v-267h229q232 0 375 -116t143 -307q0 -201 -154 -328q-152 -125 -403 -125h-139q-150 0 -291 -16q-25 73 -25 153l-2 985q0 153 -24 291zM406 143h215q117 0 188 80q72 81 72 209t-74 211q-73 82 -195 82h-204zM1303 1411 q98 25 276 25q14 -112 14 -295v-955q0 -131 41 -166q-75 -34 -196 -34q-52 0 -80 32q-31 36 -31 125v977q0 153 -24 291z" />
<glyph unicode="&#x42c;" horiz-adv-x="1239" d="M117 1411q98 25 276 25q15 -120 15 -295v-267h229q232 0 375 -116t143 -307q0 -201 -154 -328q-152 -125 -403 -125h-139q-150 0 -291 -16q-25 73 -25 153l-2 985q0 153 -24 291zM406 143h215q117 0 188 80q72 81 72 209t-74 211q-73 82 -195 82h-204z" />
<glyph unicode="&#x42d;" horiz-adv-x="1351" d="M72 1161q58 126 207 203q150 78 329 78q303 0 482 -191q178 -190 178 -506q0 -341 -191 -550t-514 -209q-218 0 -350 75q-135 77 -135 166q0 103 151 103q34 -85 113 -137t199 -52l4 -4q180 0 301 142t133 374h-315q-153 0 -291 -16q-27 77 -27 154q112 14 295 14h332 q-21 218 -129 350q-109 133 -271 133q-101 0 -172 -26q-68 -25 -108 -60l-68 -59q-34 -27 -57 -27q-28 0 -55 21z" />
<glyph unicode="&#x42e;" horiz-adv-x="1900" d="M119 1419q98 25 276 25q15 -120 15 -295v-338h249q26 284 189 463q158 174 401 174q251 0 404 -197t153 -512q0 -334 -166 -542q-167 -209 -432 -209q-242 0 -395 184q-153 185 -162 487h-243v-466q0 -133 26 -166q-78 -35 -190 -35q-48 0 -74 33q-27 35 -27 125v978 q0 153 -24 291zM940 723q0 -260 82 -418q83 -160 215 -160q128 0 209 158q80 157 80 412q0 260 -82 418q-82 159 -215 159q-129 0 -209 -157t-80 -412z" />
<glyph unicode="&#x42f;" horiz-adv-x="1261" d="M57 27q61 42 142 172l250 407q-158 41 -246 142q-90 104 -90 245q0 195 153 318t406 123h133q155 0 291 8q14 -95 14 -295v-954q0 -132 43 -166q-81 -35 -201 -35q-51 0 -80 33q-30 35 -30 125v436h-166l-256 -432q-89 -164 -203 -164q-111 0 -160 37zM379 1010 q0 -121 76 -197q78 -78 196 -78h191v391q0 78 -6 158h-195l-2 -2q-118 0 -188 -76q-72 -78 -72 -196z" />
<glyph unicode="&#x430;" horiz-adv-x="1087" d="M90 238q0 156 164 245q169 92 436 115v66q0 85 -51 133q-52 49 -135 49q-78 0 -129 -51q-53 -53 -53 -123q-203 0 -203 110q0 81 121 146t307 65q180 0 289 -86q108 -85 108 -227v-487q0 -132 43 -166q-81 -35 -196 -35q-48 0 -74 33q-29 37 -29 125l6 57 q-34 -101 -110 -162t-197 -61q-134 0 -215 69q-82 70 -82 185zM350 262q0 -56 37 -90q38 -35 94 -35l4 2q77 0 142 80q64 79 67 176v84q-344 -35 -344 -217z" />
<glyph unicode="&#x431;" horiz-adv-x="1130" d="M74 688q0 159 28 283q26 117 72 194q44 75 113 123q74 52 135 72q71 23 153 37l66 12q29 6 59 12l48 11q34 7 47 12q5 2 18 6.5t21 7.5q26 10 43 21q4 3 18.5 11.5t22.5 14.5q34 -52 34 -102q0 -28 -18 -49t-64 -39q-50 -19 -82 -27q-53 -13 -106 -24l-14 -4 q-64 -14 -111 -31q-35 -13 -88 -53q-49 -37 -76 -107q-30 -78 -41 -178q119 98 277 98q188 0 301 -131q114 -132 114 -344q0 -237 -137 -383q-138 -147 -358 -147q-224 0 -350 172q-125 171 -125 532zM336 621q9 -247 67 -369q58 -123 154 -123q87 0 143 96q56 95 56 250 q0 165 -62 268t-159 103v2q-76 0 -129 -62q-52 -61 -70 -165z" />
<glyph unicode="&#x432;" horiz-adv-x="1081" d="M117 954q92 25 252 25h237q157 0 252 -68q96 -69 96 -180q0 -141 -141 -217q87 -29 137 -92q49 -61 49 -141q0 -128 -112 -203q-116 -78 -295 -78l-346 -2q-52 0 -78 33q-29 37 -29 125v510q0 143 -22 288zM393 848q4 -78 4 -82v-197h150q60 0 100 37q39 36 39 99 q0 64 -43 104q-42 39 -111 39h-139zM397 201v2q0 -56 2 -68h166q68 0 109 41t41 105q0 68 -45 110q-46 43 -119 43h-154v-233z" />
<glyph unicode="&#x433;" horiz-adv-x="884" d="M117 956q108 27 223 27h289q134 0 170 25q35 -53 35 -109q0 -57 -158 -57l-281 -2q4 -62 4 -68v-582q0 -125 25 -170q-64 -30 -178 -30q-52 0 -78 33q-29 37 -29 124v527q0 137 -22 282z" />
<glyph unicode="&#x434;" horiz-adv-x="1333" d="M59 133l111 6q129 61 129 396l-4 143q0 139 -25 280q108 27 258 27h553q15 -102 15 -289v-555q92 0 135 17q37 -46 37 -99v-174q0 -131 41 -166q-69 -34 -172 -34q-97 0 -97 157v158h-753v-115q0 -133 26 -166q-67 -34 -163 -34q-44 0 -66 32q-25 36 -25 125v291z M442 143h394v535q0 70 -7 166h-297v2q1 -24 2 -56.5t2 -54.5t1 -37v-131q0 -273 -95 -424z" />
<glyph unicode="&#x435;" horiz-adv-x="1069" d="M78 465q0 235 135 379q136 145 350 145q205 0 316 -108q110 -107 110 -295q-3 -70 -45 -123h-590q9 -150 80 -242t184 -92q80 0 136 27q54 26 86 55q30 27 45 27q19 0 55 -19l39 -24q-53 -92 -160 -150q-105 -57 -246 -57q-222 0 -358 133q-135 132 -135 350zM358 596 h375q-21 248 -180 248h-2q-72 0 -125 -68q-53 -69 -68 -180z" />
<glyph unicode="&#x436;" horiz-adv-x="1583" d="M27 29q45 31 149 172l252 331l-139 175q-103 134 -189 280q138 0 236 -10q111 -162 215 -291l111 -131v121q0 140 -15 299q94 16 258 16q15 -102 15 -295v-143l112 133q100 123 213 291q102 10 238 10q-89 -144 -191 -280l-139 -175l252 -331q110 -146 151 -172 q-55 -37 -172 -37t-227 162l-235 319v-280q0 -127 24 -170q-67 -31 -178 -31q-52 0 -78 33q-28 36 -28 125v321l-238 -315q-114 -164 -227 -164q-115 0 -170 37z" />
<glyph unicode="&#x437;" horiz-adv-x="956" d="M70 764q41 114 141 172q103 59 233 59q177 0 281 -67t104 -185q0 -148 -145 -225q91 -35 139 -98q49 -64 49 -148q0 -130 -116 -209t-305 -79q-170 0 -271 61q-100 60 -100 135q0 82 151 82q53 -133 195 -133q74 0 121 41t47 104q0 72 -45 117q-47 47 -117 47h-35 q-57 0 -104 -8q-27 58 -27 135q36 8 111 8h47q61 0 98 37t37 97q0 65 -43 102t-113 37q-51 0 -92 -21t-59 -45q-11 -15 -37 -45q-17 -20 -33 -20q-35 0 -65 18z" />
<glyph unicode="&#x438;" horiz-adv-x="1187" d="M117 967q89 24 252 24q28 -106 28 -217v-473l383 674q101 16 252 16q15 -102 15 -295v-503q0 -132 43 -166q-81 -35 -195 -35q-52 0 -78 33q-29 37 -29 125v518l-374 -643q-67 -31 -168 -31q-52 0 -78 33q-29 37 -29 125v526q0 144 -22 289z" />
<glyph unicode="&#x439;" horiz-adv-x="1187" d="M117 967q89 24 252 24q28 -106 28 -217v-473l383 674q101 16 252 16q15 -102 15 -295v-503q0 -132 43 -166q-81 -35 -195 -35q-52 0 -78 33q-29 37 -29 125v518l-374 -643q-67 -31 -168 -31q-52 0 -78 33q-29 37 -29 125v526q0 144 -22 289zM272 1294q0 84 162 84 q14 -50 66 -86q46 -32 121 -32l2 2q59 0 104 28q41 25 68 56q25 28 36 28q9 0 46 -18l38 -23q-40 -93 -129 -155t-202 -62q-141 0 -226 55q-86 56 -86 123z" />
<glyph unicode="&#x43a;" horiz-adv-x="1107" d="M111 967q88 24 251 24q29 -110 29 -217v-225l125 137l72 84q42 50 84 104l76 101q105 10 245 10q-111 -163 -209 -283l-147 -172l276 -331l72 -84q19 -22 47 -47q25 -23 55 -39q-61 -37 -184 -37q-122 0 -239 164l-271 325v-286q0 -125 25 -170q-67 -31 -178 -31 q-52 0 -78 33q-29 37 -29 125v526q0 144 -22 289z" />
<glyph unicode="&#x43b;" horiz-adv-x="1177" d="M59 125q111 0 154 108q43 107 43 302l-6 139q0 131 -23 282q108 27 254 27h537q14 -112 14 -287v-503q0 -132 43 -166q-81 -35 -196 -35q-48 0 -74 33q-29 37 -29 125v526q0 84 -6 166h-278q4 -126 4 -148v-131q0 -256 -80 -416q-80 -159 -226 -159q-64 0 -98 37 q-33 36 -33 100z" />
<glyph unicode="&#x43c;" horiz-adv-x="1464" d="M84 72q0 23 25 176l49 289q24 138 24 141q27 159 27 289q89 24 252 24q63 -105 104 -215l170 -497l139 399q76 225 87 289h2q95 24 264 24q30 -112 57 -295l68 -503q18 -126 67 -166q-72 -35 -188 -35q-49 0 -82 33q-34 34 -49 125l-68 479l-153 -441q-37 -104 -37 -170 q-56 -30 -156 -30q-46 0 -80 30q-30 26 -67 127l-185 488l-47 -445q0 -9 -4 -49t-4 -43q0 -48 23 -71q-84 -35 -172 -35q-66 0 -66 82z" />
<glyph unicode="&#x43d;" horiz-adv-x="1181" d="M117 967q89 24 252 24q28 -106 28 -217v-194h385v96q0 176 -14 299q101 16 260 16q14 -112 14 -295v-503q0 -131 41 -166q-78 -35 -194 -35q-107 0 -107 158l2 288h-385v-243q0 -125 25 -170q-67 -31 -178 -31q-52 0 -78 33q-29 37 -29 125v526q0 144 -22 289z" />
<glyph unicode="&#x43e;" horiz-adv-x="1138" d="M78 469q0 237 141 381q142 145 373 145q206 0 336 -133q129 -132 129 -348q0 -236 -142 -381t-372 -145q-204 0 -334 133q-129 132 -129 348h-2zM356 500q0 -161 62 -264t157 -103q91 0 146 98t55 254q0 164 -61 265q-61 102 -160 102q-88 0 -143 -98q-56 -100 -56 -254z " />
<glyph unicode="&#x43f;" horiz-adv-x="1177" d="M117 958q108 27 223 27h682q14 -95 14 -289v-503q0 -132 43 -166q-78 -35 -194 -35q-52 0 -78 33q-29 37 -29 125l2 526q0 84 -6 166h-379q4 -62 4 -68v-581q0 -125 25 -170q-67 -31 -178 -31q-52 0 -78 33q-29 37 -29 125v526q0 137 -22 282z" />
<glyph unicode="&#x440;" horiz-adv-x="1144" d="M113 965q89 24 252 24q28 -106 28 -217v-10q35 109 111 170t194 61q164 0 265 -125q102 -126 102 -327q0 -248 -131 -400q-132 -153 -352 -153q-112 0 -183 53v-311q0 -124 25 -172q-73 -31 -178 -31q-52 0 -78 33q-29 37 -29 125l-4 991q0 144 -22 289zM395 193 q70 -58 174 -58q99 0 154 105q55 104 55 274q0 155 -51 244q-53 92 -131 92v2q-81 0 -139 -104q-59 -106 -62 -230v-325z" />
<glyph unicode="&#x441;" horiz-adv-x="1050" d="M78 471q0 236 139 381t373 145q163 0 264 -73q100 -72 100 -156q0 -96 -192 -96q-18 80 -64 129t-110 49q-98 0 -162 -98t-64 -252v-4q0 -162 68 -265q66 -100 178 -100q77 0 137 29q56 27 84 55q27 27 43 27q20 0 56 -19l39 -22q-50 -96 -158 -154q-109 -59 -244 -59 q-223 0 -356 133q-131 131 -131 350z" />
<glyph unicode="&#x442;" horiz-adv-x="1032" d="M43 975q104 8 301 8h434q136 0 172 25q37 -52 37 -109t-158 -57l-190 2q4 -126 4 -148v-503q0 -132 43 -166q-81 -35 -197 -35q-47 0 -73 33q-29 37 -29 125v526q0 84 -6 166h-14q-155 0 -299 -25q-25 77 -25 158z" />
<glyph unicode="&#x443;" horiz-adv-x="1144" d="M57 967q89 24 256 24q75 -124 111 -219l176 -514l160 418q44 122 86 301q88 10 231 10q-30 -120 -94 -291l-278 -737q-75 -207 -189 -321q-111 -111 -242 -111q-57 0 -94 37t-37 108q238 0 332 254l25 74q-57 25 -97 147l-210 529q-61 147 -136 291z" />
<glyph unicode="&#x444;" horiz-adv-x="1517" d="M82 469q0 233 151 375q150 141 394 141v191q0 146 -25 290q98 25 252 25q31 -112 31 -215v-293q50 4 55 4q221 0 356 -129q136 -130 136 -344h-7q0 -235 -149 -375q-150 -141 -395 -141v-264q0 -126 24 -170q-67 -31 -178 -31q-48 0 -74 33q-28 36 -28 125v311 q-50 -4 -56 -4q-217 0 -352 129t-135 342zM356 498v2q0 -161 68 -264t176 -103q3 0 23 4v701q-27 12 -43 12q-101 0 -162 -98q-62 -100 -62 -254zM881 143q24 -12 41 -12q102 0 163 98q62 100 62 254q0 162 -68 265q-68 102 -178 102v-2q-11 0 -20 -6v-699z" />
<glyph unicode="&#x445;" horiz-adv-x="1116" d="M53 967q82 24 283 24q95 -109 233 -295l25 -34l10 14q112 150 199 301l-8 2q92 10 245 10q-52 -111 -129 -213l-200 -276l225 -305q93 -130 164 -166q-56 -35 -189 -35q-118 0 -233 158l-156 210l-123 -167q-94 -133 -108 -187q-41 -12 -176 -12q-49 0 -49 33 q0 38 61 123l274 374l-110 152q-117 155 -238 289z" />
<glyph unicode="&#x446;" horiz-adv-x="1329" d="M115 965q89 24 252 24q28 -106 28 -217v-633h383v535q0 176 -14 299q94 16 258 16q16 -122 16 -295v-555h11q130 0 172 25q34 -52 34 -105v-174q0 -132 43 -166q-69 -34 -176 -34q-94 0 -94 157v158h-565q-143 0 -301 -23q-25 73 -25 156v543q0 144 -22 289z" />
<glyph unicode="&#x447;" horiz-adv-x="1136" d="M119 967q89 24 264 24q14 -95 14 -295l-4 -80q0 -69 41 -116q39 -45 103 -45q71 0 133 65t65 146v18q0 160 -12 295q94 16 258 16q14 -109 14 -290v-508q0 -132 43 -166q-81 -35 -196 -35q-52 0 -78 33q-29 37 -29 125v311q-35 -66 -123 -109q-87 -43 -206 -43 q-117 0 -191 74t-74 191v100q0 144 -22 289z" />
<glyph unicode="&#x448;" horiz-adv-x="1689" d="M117 967q89 24 252 24q28 -106 28 -217v-633h318v535q0 126 -17 299q101 16 260 16q15 -120 15 -295v-555h317v535l2 2q0 151 -14 299q94 16 258 16q16 -122 16 -295v-501q0 -136 41 -166q-82 -29 -194 -29h-934q-150 0 -301 -22q-25 73 -25 155v543q0 144 -22 289z" />
<glyph unicode="&#x449;" horiz-adv-x="1839" d="M115 965q89 24 252 24q28 -106 28 -217v-633h318v535q0 126 -17 299q101 16 260 16q15 -120 15 -295v-555h317v535q0 151 -14 299q94 16 258 16q16 -122 16 -295v-555h11q130 0 172 25q34 -52 34 -105v-174q0 -128 41 -166q-69 -34 -174 -34q-94 0 -94 157v158h-1075 q-143 0 -301 -23q-25 73 -25 156v543q0 144 -22 289z" />
<glyph unicode="&#x44a;" horiz-adv-x="1288" d="M47 975q101 8 301 8l260 -2q31 -112 31 -215v-143h160q188 0 301 -82q114 -82 114 -217q0 -146 -131 -234q-134 -90 -340 -90h-260q-51 0 -77 33q-29 37 -29 125v510q0 103 -8 174q-153 0 -297 -25q-25 77 -25 158zM641 129h127q77 0 123 49q47 50 47 127q0 84 -51 135 q-52 52 -135 52l-111 -5v-358z" />
<glyph unicode="&#x44b;" horiz-adv-x="1495" d="M117 967q89 24 252 24q28 -106 28 -217v-151h162q188 0 301 -82q115 -83 115 -217q0 -146 -131 -234q-134 -90 -340 -90h-262q-50 0 -76 33q-27 34 -27 125v520q0 144 -22 289zM397 205l2 -4q0 -56 2 -68h127q77 0 123 49q47 50 47 127q0 84 -51 135q-52 52 -135 52h-115 v-291zM1073 969q94 24 266 24q17 -129 17 -295v-503q0 -131 41 -166q-78 -35 -195 -35q-52 0 -78 33q-28 36 -28 125v526q0 156 -23 291z" />
<glyph unicode="&#x44c;" horiz-adv-x="1050" d="M117 967q89 24 252 24q28 -106 28 -217v-151h162q188 0 301 -82q115 -83 115 -217q0 -146 -131 -234q-134 -90 -340 -90h-262q-50 0 -76 33q-27 34 -27 125v520q0 144 -22 289zM397 205l2 -4q0 -56 2 -68h127q77 0 123 49q47 50 47 127q0 84 -51 135q-52 52 -135 52h-115 v-291z" />
<glyph unicode="&#x44d;" horiz-adv-x="1021" d="M86 764q47 114 150 172q106 59 239 59q213 0 338 -131q127 -133 127 -350q0 -232 -141 -379t-371 -147q-153 0 -244 61q-92 62 -92 135q0 82 152 82h-2q20 -53 73 -94q51 -39 125 -39q205 0 217 309h-34q-164 0 -299 -22q-25 73 -25 149q117 9 303 9h51q-15 123 -73 196 q-59 74 -138 74q-54 0 -100 -21q-47 -21 -68 -45q-14 -16 -43 -45q-20 -20 -36 -20q-36 0 -66 18z" />
<glyph unicode="&#x44e;" horiz-adv-x="1529" d="M117 969q89 24 252 24q28 -106 28 -217v-194h156q29 187 158 303q124 112 311 112q193 0 311 -133q117 -132 117 -348q0 -238 -131 -381q-133 -145 -346 -145q-182 0 -299 123q-118 124 -127 323h-148v-243q0 -125 25 -170q-67 -31 -178 -31q-52 0 -78 33q-29 37 -29 125 v530q0 144 -22 289zM815 504q0 -165 51 -264q53 -103 135 -103q77 0 123 99q47 100 47 253q0 166 -51 265q-52 102 -135 102q-77 0 -123 -98q-47 -100 -47 -254z" />
<glyph unicode="&#x44f;" horiz-adv-x="1058" d="M57 27q62 40 142 168l135 208q-104 26 -168 99q-62 71 -62 170q0 140 123 225q124 86 320 86h352q31 -112 31 -215v-573q0 -123 22 -172q-67 -31 -178 -31q-52 0 -78 33q-28 36 -28 125l-4 233h-109l-143 -236q-89 -157 -197 -157q-106 0 -158 37zM371 686q0 -76 55 -125 t139 -49h99v158h-2q0 108 -7 180h-106q-81 0 -129 -45q-49 -46 -49 -119z" />
<glyph unicode="&#x450;" horiz-adv-x="1069" d="M78 465q0 235 135 379q136 145 350 145q205 0 316 -108q110 -107 110 -295q-3 -70 -45 -123h-590q9 -150 80 -242t184 -92q80 0 136 27q54 26 86 55q30 27 45 27q19 0 55 -19l39 -24q-53 -92 -160 -150q-105 -57 -246 -57q-222 0 -358 133q-135 132 -135 350zM303 1352h2 q43 87 86 133q71 -47 223 -172q107 -85 144 -88q-3 -37 -21 -78t-51 -41q-26 0 -63 24q-37 21 -160 117q-118 91 -160 105zM358 596h375q-21 248 -180 248h-2q-72 0 -125 -68q-53 -69 -68 -180z" />
<glyph unicode="&#x451;" horiz-adv-x="1069" d="M78 465q0 235 135 379q136 145 350 145q205 0 316 -108q110 -107 110 -295q-3 -70 -45 -123h-590q9 -150 80 -242t184 -92q80 0 136 27q54 26 86 55q30 27 45 27q19 0 55 -19l39 -24q-53 -92 -160 -150q-105 -57 -246 -57q-222 0 -358 133q-135 132 -135 350zM170 1249 q0 60 37 97q36 36 96 36q54 0 86 -32q35 -35 35 -86q0 -60 -37 -97t-96 -37q-51 0 -86 35t-35 86v-2zM358 596h375q-21 248 -180 248h-2q-72 0 -125 -68q-53 -69 -68 -180zM629 1251q0 60 37 97q36 36 96 36q54 0 86 -32q35 -35 35 -86q0 -58 -37 -95q-36 -36 -96 -36 q-52 0 -86 34q-33 33 -33 86z" />
<glyph unicode="&#x452;" horiz-adv-x="1241" d="M53 1276q48 3 144 6q-5 73 -23 184q103 25 252 25q28 -106 31 -209h168q132 0 170 23q34 -52 34 -105q0 -59 -157 -59h-215v-363q38 103 135 166q98 64 231 64q121 0 197 -82q78 -84 78 -211v-762q0 -193 -88 -309q-88 -117 -246 -117q-58 0 -92 37q-35 38 -35 94 q105 0 156 66q49 64 49 196v742q0 91 -39 147q-39 57 -105 57q-90 0 -159 -100q-72 -104 -78 -223v-348q0 -130 22 -172q-67 -31 -178 -31q-52 0 -78 33q-28 36 -28 125v987l-121 -17q-25 73 -25 156z" />
<glyph unicode="&#x453;" horiz-adv-x="905" d="M117 956q108 27 223 27h289q134 0 170 25q35 -53 35 -109q0 -57 -158 -57l-281 -2q4 -62 4 -68v-582q0 -125 25 -170q-64 -30 -178 -30q-52 0 -78 33q-29 37 -29 124v527q0 137 -22 282zM242 1184q0 34 45 73q198 163 295 234q44 -47 84 -135q-234 -178 -375 -258l-31 37 q-18 21 -18 49z" />
<glyph unicode="&#x454;" horiz-adv-x="1038" d="M84 467q0 236 139 381t373 145q164 0 262 -67t98 -148q0 -88 -184 -88q-18 71 -65 115q-46 43 -115 43q-87 0 -150 -78q-60 -74 -75 -203h282q127 0 166 17q37 -52 37 -99q0 -59 -160 -59l-321 -6q15 -133 80 -213t163 -80q78 0 138 29q56 27 84 55q27 27 43 27 q19 0 55 -19l39 -22q-50 -96 -158 -154q-109 -59 -244 -59q-223 0 -356 133q-131 131 -131 350z" />
<glyph unicode="&#x455;" horiz-adv-x="911" d="M78 176q0 105 184 105l6 -9q40 -147 166 -147q66 0 105 33q41 35 41 88q0 52 -50 96q-52 46 -118 74q-102 43 -142 63q-69 34 -118 92q-50 59 -50 142q0 119 99 198q100 80 276 80q146 0 238 -53t92 -123q0 -48 -45 -65q-49 -19 -141 -19q-44 115 -142 115q-56 0 -92 -33 q-37 -34 -37 -82q0 -53 49 -90q52 -40 121 -66q80 -31 142 -61q73 -36 120 -94q49 -61 49 -144q0 -129 -104 -208q-106 -80 -291 -80q-162 0 -260 55t-98 133z" />
<glyph unicode="&#x456;" horiz-adv-x="538" d="M119 967q89 24 264 24q14 -95 14 -295v-503q0 -132 43 -166q-81 -35 -194 -35q-52 0 -78 33q-29 37 -29 125l2 526q0 146 -22 291zM119 1331q0 65 43 105q44 41 110 41q60 0 97 -37t37 -99q0 -63 -44 -104t-110 -41q-57 0 -94 37t-37 96z" />
<glyph unicode="&#x457;" horiz-adv-x="538" d="M-88 1260q0 59 37 96t96 37q57 0 90 -33q35 -35 35 -86q0 -59 -37 -96t-98 -37q-51 0 -86 35q-33 33 -33 86zM119 967q89 24 264 24q14 -95 14 -295v-503q0 -133 45 -166q-81 -35 -196 -35q-52 0 -78 33q-29 37 -29 125l2 526q0 146 -22 291zM367 1255q0 61 39 97 q40 37 98 37q53 0 86 -33t33 -86q0 -57 -37 -94t-97 -37q-51 0 -86 35q-34 34 -34 86z" />
<glyph unicode="&#x458;" horiz-adv-x="544" d="M-55 -346q205 0 205 264l4 756q0 140 -23 291q89 24 264 24q15 -102 15 -295v-743q0 -193 -88 -309q-88 -117 -252 -117q-56 0 -90 37q-35 38 -35 92zM125 1329l2 -2q0 64 43 107t109 43q59 0 96 -37t37 -99q0 -64 -43 -104q-44 -41 -111 -41q-59 0 -96 37t-37 96z" />
<glyph unicode="&#x459;" horiz-adv-x="1701" d="M59 125q111 0 154 108q43 107 43 302l-4 139q0 131 -23 282q108 27 254 27h547q14 -112 14 -287v-73h160q189 0 305 -82q117 -83 117 -217q0 -146 -131 -234q-134 -90 -344 -90h-260q-48 0 -74 33q-29 37 -29 125v518q0 80 -6 166h-288q4 -126 4 -148v-131 q0 -256 -80 -416q-80 -159 -223 -159q-136 0 -136 137zM1044 201l3 -4q0 -56 2 -68h125q76 0 122 49q47 50 47 127q0 84 -51 135q-52 52 -135 52h-113v-291z" />
<glyph unicode="&#x45a;" horiz-adv-x="1695" d="M119 967q89 24 252 24q28 -106 28 -217v-194h385v96q0 176 -14 299q101 16 260 16q14 -112 14 -295v-73h160q188 0 301 -82q115 -83 115 -217q0 -146 -131 -234q-134 -90 -340 -90h-260q-107 0 -107 158l4 280h-385v-243q0 -125 25 -170q-67 -31 -178 -31q-52 0 -78 33 q-29 37 -29 125v526q0 144 -22 289zM1047 205l2 -4q0 -56 2 -68h125q76 0 122 49q48 51 48 127q0 83 -52 135t-135 52h-112v-291z" />
<glyph unicode="&#x45b;" horiz-adv-x="1241" d="M57 1276q48 3 144 6q-5 73 -23 184q103 25 252 25q28 -106 31 -209h168q132 0 170 23q35 -53 35 -105q0 -59 -158 -59h-215v-363q38 103 135 166q98 64 231 64q121 0 197 -82q78 -84 78 -211v-522q0 -131 41 -166q-81 -35 -195 -35q-52 0 -78 33q-28 36 -28 125v509 q0 92 -39 148q-39 57 -105 57q-89 0 -159 -98q-71 -100 -74 -221v-350q0 -130 22 -172q-67 -31 -178 -31q-52 0 -78 33q-28 36 -28 125v987l-121 -17q-25 73 -25 156z" />
<glyph unicode="&#x45c;" horiz-adv-x="1099" d="M113 969q89 24 252 24q28 -106 28 -217v-217l117 129l72 84q34 40 84 105l75 100q105 10 246 10q-80 -123 -209 -282l-147 -173l268 -331q114 -138 172 -172q-61 -37 -182 -37q-129 0 -240 164l-254 315v-274q0 -125 25 -170q-67 -31 -178 -31q-52 0 -78 33 q-29 37 -29 125v526q0 144 -22 289zM344 1190q0 38 45 74q186 155 295 231q43 -46 86 -133q-234 -178 -375 -258l-33 37q-18 21 -18 49z" />
<glyph unicode="&#x45d;" horiz-adv-x="1187" d="M117 967q89 24 252 24q28 -106 28 -217v-473l383 674q101 16 252 16q15 -102 15 -295v-503q0 -132 43 -166q-81 -35 -195 -35q-52 0 -78 33q-29 37 -29 125v518l-374 -643q-67 -31 -168 -31q-52 0 -78 33q-29 37 -29 125v526q0 144 -22 289zM367 1360h2q43 87 86 133 q74 -51 221 -172q102 -82 147 -88q-15 -119 -73 -119q-25 0 -64 25q-42 24 -160 116t-159 105z" />
<glyph unicode="&#x45e;" horiz-adv-x="1144" d="M57 967q89 24 256 24q75 -124 111 -219l176 -514l160 418q44 122 86 301q88 10 231 10q-30 -120 -94 -291l-278 -737q-75 -207 -189 -321q-111 -111 -242 -111q-57 0 -94 37t-37 108q238 0 332 254l25 74q-57 25 -97 147l-210 529q-61 147 -136 291zM248 1292 q0 84 162 84q18 -52 67 -86q47 -33 121 -33l2 3q57 0 102 28q43 26 68 55q26 29 37 29q9 0 47 -18l39 -23q-40 -93 -129 -155t-203 -62q-142 0 -227 55q-86 56 -86 123z" />
<glyph unicode="&#x45f;" d="M117 967q89 24 252 24q28 -106 28 -217v-633h383v535q0 176 -14 299q94 16 258 16q16 -122 16 -295v-501q0 -136 41 -166q-82 -29 -196 -29h-174v-115q0 -131 41 -166q-69 -34 -172 -34q-97 0 -97 157l2 160h-20q-150 0 -301 -22q-25 73 -25 155v543q0 144 -22 289z" />
<glyph unicode="&#x490;" horiz-adv-x="1093" d="M121 1419q120 15 295 15h403v129q0 132 -43 166q67 34 164 34q44 0 66 -32q24 -35 24 -125v-260q0 -62 -158 -62h-466q4 -144 4 -160v-931q0 -133 26 -166q-78 -35 -190 -35q-48 0 -74 33q-27 35 -27 125v974q0 157 -24 295z" />
<glyph unicode="&#x491;" horiz-adv-x="866" d="M117 956q108 27 223 27h262v78q0 131 -41 166q64 37 164 37q43 0 66 -33q24 -34 24 -125v-207q0 -57 -158 -57l-262 -2q4 -62 4 -68v-582q0 -125 25 -170q-64 -30 -178 -30q-52 0 -78 33q-29 37 -29 124v527q0 137 -22 282z" />
<glyph unicode="&#x4d8;" horiz-adv-x="1423" d="M84 637q0 99 12 151l-6 -6q120 15 264 15h686q-21 221 -129 356t-272 135q-97 0 -168 -26q-69 -25 -109 -60q-5 -5 -29.5 -26.5t-37.5 -32.5q-35 -27 -57 -27q-24 0 -54 21l-39 24q58 126 207 203q150 78 330 78q302 0 481 -191q178 -190 178 -506q0 -341 -180 -548 q-182 -209 -485 -209q-249 0 -420 186q-172 187 -172 463zM367 647q3 -220 96 -366t237 -146h5q143 0 237 141q96 143 105 371h-680z" />
<glyph unicode="&#x4d9;" horiz-adv-x="1093" d="M88 432q3 74 29 121h614q-15 135 -80 215t-166 80q-65 0 -112 -33q-56 -39 -84 -67q-33 -33 -56 -33q-27 0 -61 18l-47 31q46 114 154 172q109 59 247 59q219 0 351 -135q133 -136 133 -356q0 -231 -138 -375q-137 -143 -362 -143q-200 0 -311 120t-111 326zM342 426 q18 -291 184 -291q82 0 138 80t65 211h-387z" />
<glyph unicode="&#x1e80;" horiz-adv-x="2195" d="M43 1421q106 25 283 25q63 -99 98 -219l274 -903l242 806q48 160 70 302q120 10 221 10q69 -113 98 -215l264 -901l252 809q53 181 72 301q73 8 221 8q-16 -110 -51 -213l-340 -1036q-34 -106 -37 -172q-60 -31 -172 -31q-52 0 -88 33q-37 34 -64 125l-270 890l-270 -841 q-37 -112 -37 -172q-60 -31 -172 -31q-51 0 -84 33t-68 125l-319 976q-39 118 -123 291zM860 1774h2q43 87 86 133q71 -50 217 -172q102 -82 144 -88q-3 -37 -21 -78t-51 -41q-25 0 -63 24q-23 16 -154 117q-118 91 -160 105z" />
<glyph unicode="&#x1e81;" horiz-adv-x="1695" d="M63 969q89 24 252 24q64 -104 101 -217l153 -493l119 395q49 161 70 301q110 10 205 10q64 -105 100 -215l147 -493l125 397q60 197 74 301q110 10 205 10q-15 -116 -49 -213l-209 -581q-39 -101 -39 -170q-57 -31 -158 -31q-47 0 -80 33q-34 34 -61 125l-148 495 l-157 -452q-35 -103 -35 -172q-57 -31 -158 -31q-47 0 -76 33q-28 32 -63 125l-191 528q-45 133 -127 291zM623 1360h2q43 87 86 133q71 -50 217 -172q102 -82 143 -88q-3 -40 -20 -78q-18 -41 -52 -41q-24 0 -63 25q-32 22 -154 116q-118 92 -159 105z" />
<glyph unicode="&#x1e82;" horiz-adv-x="2195" d="M43 1421q106 25 283 25q63 -99 98 -219l274 -903l242 806q48 160 70 302q120 10 221 10q69 -113 98 -215l264 -901l252 809q53 181 72 301q73 8 221 8q-16 -110 -51 -213l-340 -1036q-34 -106 -37 -172q-60 -31 -172 -31q-52 0 -88 33q-37 34 -64 125l-270 890l-270 -841 q-37 -112 -37 -172q-60 -31 -172 -31q-51 0 -84 33t-68 125l-319 976q-39 118 -123 291zM872 1602q0 33 46 73q208 175 288 232q43 -46 86 -133q-231 -181 -368 -258l-33 36q-19 29 -19 50z" />
<glyph unicode="&#x1e83;" horiz-adv-x="1695" d="M63 969q89 24 252 24q64 -104 101 -217l153 -493l119 395q49 161 70 301q110 10 205 10q64 -105 100 -215l147 -493l125 397q60 197 74 301q110 10 205 10q-15 -116 -49 -213l-209 -581q-39 -101 -39 -170q-57 -31 -158 -31q-47 0 -80 33q-34 34 -61 125l-148 495 l-157 -452q-35 -103 -35 -172q-57 -31 -158 -31q-47 0 -76 33q-28 32 -63 125l-191 528q-45 133 -127 291zM635 1188q0 35 45 74q195 165 289 231q43 -46 86 -133q-228 -178 -369 -258l-33 37q-18 27 -18 49z" />
<glyph unicode="&#x1e84;" horiz-adv-x="2195" d="M43 1421q106 25 283 25q63 -99 98 -219l274 -903l242 806q48 160 70 302q120 10 221 10q69 -113 98 -215l264 -901l252 809q53 181 72 301q73 8 221 8q-16 -110 -51 -213l-340 -1036q-34 -106 -37 -172q-60 -31 -172 -31q-52 0 -88 33q-37 34 -64 125l-270 890l-270 -841 q-37 -112 -37 -172q-60 -31 -172 -31q-51 0 -84 33t-68 125l-319 976q-39 118 -123 291zM727 1669q0 59 37 96t96 37q53 0 86 -33t33 -86q0 -57 -37 -94t-96 -37q-51 0 -86 35q-33 33 -33 86v-4zM1176 1673q0 60 36 96q37 37 99 37q54 0 86 -32q35 -35 35 -86q0 -58 -37 -95 t-97 -37q-51 0 -86 35q-32 32 -32 86z" />
<glyph unicode="&#x1e85;" horiz-adv-x="1695" d="M63 969q89 24 252 24q64 -104 101 -217l153 -493l119 395q49 161 70 301q110 10 205 10q64 -105 100 -215l147 -493l125 397q60 197 74 301q110 10 205 10q-15 -116 -49 -213l-209 -581q-39 -101 -39 -170q-57 -31 -158 -31q-47 0 -80 33q-34 34 -61 125l-148 495 l-157 -452q-35 -103 -35 -172q-57 -31 -158 -31q-47 0 -76 33q-28 32 -63 125l-191 528q-45 133 -127 291zM489 1255q0 60 37 97t97 37q53 0 86 -33q32 -32 32 -86q0 -58 -36 -94q-37 -37 -97 -37q-51 0 -86 35q-33 33 -33 86v-5zM938 1260q0 59 37 96t98 37q53 0 86 -33 q35 -35 35 -86q0 -57 -37 -94t-96 -37q-51 0 -86 35q-33 33 -33 86z" />
<glyph unicode="&#x1ef2;" horiz-adv-x="1417" d="M49 1417q92 25 295 25q76 -94 203 -295l190 -297l178 280q104 168 166 304q57 8 252 8q-48 -116 -110 -213l-385 -615v-421q0 -131 41 -166q-81 -35 -201 -35q-51 0 -80 33q-31 36 -31 125l4 468l-315 508q-85 133 -207 291zM492 1767h2q44 89 86 134q71 -50 217 -172 q103 -84 143 -89q-3 -39 -20 -77q-18 -41 -52 -41q-25 0 -63 24q-23 16 -154 117q-116 90 -159 104z" />
<glyph unicode="&#x1ef3;" horiz-adv-x="1144" d="M57 967q89 24 256 24q75 -124 111 -219l176 -514l160 418q44 122 86 301q88 10 231 10q-30 -120 -94 -291l-278 -737q-75 -207 -189 -321q-111 -111 -242 -111q-57 0 -94 37t-37 108q238 0 332 254l25 74q-57 25 -97 147l-210 529q-61 147 -136 291zM348 1358h2 q43 87 86 133q71 -50 217 -172q102 -82 144 -88q-3 -37 -21 -78t-51 -41q-24 0 -63 25q-32 22 -154 116q-118 91 -160 105z" />
<glyph unicode="&#x2000;" horiz-adv-x="958" />
<glyph unicode="&#x2001;" horiz-adv-x="1917" />
<glyph unicode="&#x2002;" horiz-adv-x="958" />
<glyph unicode="&#x2003;" horiz-adv-x="1917" />
<glyph unicode="&#x2004;" horiz-adv-x="639" />
<glyph unicode="&#x2005;" horiz-adv-x="479" />
<glyph unicode="&#x2006;" horiz-adv-x="319" />
<glyph unicode="&#x2007;" horiz-adv-x="319" />
<glyph unicode="&#x2008;" horiz-adv-x="239" />
<glyph unicode="&#x2009;" horiz-adv-x="383" />
<glyph unicode="&#x200a;" horiz-adv-x="106" />
<glyph unicode="&#x2010;" horiz-adv-x="684" d="M74 621q101 8 295 8h43q132 0 166 24q34 -52 34 -108q0 -58 -157 -58h-66q-156 0 -291 -24q-24 73 -24 158z" />
<glyph unicode="&#x2011;" horiz-adv-x="684" d="M74 621q101 8 295 8h43q132 0 166 24q34 -52 34 -108q0 -58 -157 -58h-66q-156 0 -291 -24q-24 73 -24 158z" />
<glyph unicode="&#x2012;" horiz-adv-x="1005" d="M90 719q101 8 295 8h330q130 0 166 25q37 -52 37 -109t-158 -57h-352q-150 0 -291 -25q-27 80 -27 158z" />
<glyph unicode="&#x2013;" horiz-adv-x="1153" d="M90 621q101 8 295 8h477q132 0 166 24q35 -53 35 -108q0 -58 -158 -58h-497q-156 0 -291 -24q-27 80 -27 158z" />
<glyph unicode="&#x2014;" horiz-adv-x="1638" d="M102 621q101 8 295 8h938q131 0 166 24q35 -53 35 -108q0 -58 -156 -58h-962q-156 0 -291 -24q-25 77 -25 158z" />
<glyph unicode="&#x2018;" horiz-adv-x="512" d="M121 997q0 325 225 445l35 -31q39 -29 39 -57q0 -19 -21 -43q-23 -26 -43 -74q-20 -47 -20 -131q0 -30 12 -86q16 -73 17 -84q-71 -23 -162 -23q-37 0 -60 23q-22 22 -22 61z" />
<glyph unicode="&#x2019;" horiz-adv-x="512" d="M94 999q0 19 21 43q23 26 43 74q22 52 22 131q0 33 -12 88q-10 44 -14 84q71 23 161 23q34 0 60 -23q24 -21 24 -61q0 -329 -227 -445l-39 29q-39 29 -39 57z" />
<glyph unicode="&#x201a;" horiz-adv-x="512" d="M94 -193q0 19 21 43q23 26 43 74q22 52 22 131q0 33 -12 88q-10 44 -14 84q71 23 161 23q35 0 60 -25q24 -24 24 -61q0 -329 -227 -445l-39 31q-39 29 -39 57z" />
<glyph unicode="&#x201c;" horiz-adv-x="888" d="M121 997q0 325 225 445l35 -31q39 -29 39 -57q0 -19 -21 -43q-23 -26 -43 -74q-20 -47 -20 -131q0 -30 12 -86q16 -73 17 -84q-71 -23 -162 -23q-37 0 -60 23q-22 22 -22 61zM494 995q0 329 227 445l35 -31q39 -29 39 -57q0 -19 -21 -43q-23 -26 -43 -74 q-20 -47 -20 -131q0 -30 12 -86q10 -44 14 -84q-71 -23 -162 -23q-36 0 -59 23q-22 22 -22 61z" />
<glyph unicode="&#x201d;" horiz-adv-x="901" d="M94 999q0 19 21 43q23 26 43 74q22 52 22 131q0 33 -12 88q-10 44 -14 84q71 23 161 23q34 0 60 -23q24 -21 24 -61q0 -329 -227 -445l-39 29q-39 29 -39 57zM481 999q0 17 23 43t43 74q20 47 20 131q0 31 -12 86t-12 86q71 23 159 23q37 0 60 -23q22 -22 22 -61 q0 -328 -225 -445l-39 29q-39 26 -39 57z" />
<glyph unicode="&#x201e;" horiz-adv-x="882" d="M94 -193q0 19 21 43q23 26 43 74q22 52 22 131q0 33 -12 88q-10 44 -14 84q71 23 161 23q35 0 60 -25q24 -24 24 -61q0 -329 -227 -445l-39 31q-39 29 -39 57zM467 -193q0 18 22 43q23 26 43 74q21 49 21 131q0 33 -12 88q-12 54 -15 84q71 23 162 23q37 0 60 -23 q22 -22 22 -61q0 -329 -227 -445l-37 29q-39 29 -39 57z" />
<glyph unicode="&#x2020;" horiz-adv-x="647" d="M-106 1016q101 8 294 8h19v115q0 141 -17 291q86 24 238 24q14 -112 14 -295v-135h113q130 0 166 25q35 -53 35 -109q0 -57 -158 -57h-156v-1073q-68 -27 -143 -27q-92 0 -92 158v942q-152 0 -289 -25q-24 74 -24 158z" />
<glyph unicode="&#x2021;" horiz-adv-x="647" d="M-106 336q101 8 294 8h19v537q-152 0 -289 -25q-24 74 -24 158q101 8 294 8h19v115q0 140 -17 290q89 25 238 25q14 -112 14 -295v-135h113q130 0 166 25q35 -53 35 -109q0 -57 -158 -57h-158v-537h113q126 0 168 25q35 -53 35 -105q0 -59 -158 -59l-156 -2v-396 q-65 -26 -143 -26q-92 0 -92 158v264q-141 0 -289 -23q-24 70 -24 156z" />
<glyph unicode="&#x2022;" horiz-adv-x="579" d="M86 610q0 91 59 150q57 57 154 57q84 0 135 -51t51 -135q0 -96 -57 -150q-58 -55 -154 -55q-84 0 -133 49t-49 133z" />
<glyph unicode="&#x2026;" horiz-adv-x="1376" d="M111 125v2q0 66 43 109t112 43q59 0 96 -37t37 -99q0 -67 -43 -110t-112 -43q-60 0 -97 37q-36 36 -36 98zM543 127l2 2q0 66 43 109t110 43q60 0 97 -37q36 -36 36 -99q0 -67 -43 -110t-112 -43q-59 0 -96 37t-37 98zM977 129v2q0 66 43 109t110 43q60 0 97 -37t37 -99 q0 -67 -43 -110t-111 -43q-59 0 -96 37t-37 98z" />
<glyph unicode="&#x202f;" horiz-adv-x="383" />
<glyph unicode="&#x2030;" horiz-adv-x="2043" d="M76 1120q0 145 86 234q87 90 221 90q126 0 203 -80q78 -81 78 -211q0 -144 -86 -233t-226 -89q-121 0 -198 80q-76 79 -76 213zM123 25q0 36 65 125l947 1271q79 21 221 21l-1043 -1434q-50 -16 -143 -16q-47 0 -47 33zM248 1135q0 -75 35 -125q34 -49 90 -49q50 0 80 47 q30 46 30 120q0 80 -32 123q-35 47 -89 47q-51 0 -81 -43q-31 -45 -31 -116zM711 268q0 145 86 234q87 90 221 90q126 0 203 -80t77 -211q0 -144 -86 -233q-85 -88 -225 -88q-123 0 -199 79q-75 78 -75 213zM883 283q0 -75 35 -125q34 -49 90 -49q49 0 79 47q31 48 31 120 q0 79 -33 123q-35 47 -88 47q-52 0 -82 -43t-30 -116zM1372 260q0 145 86 234q87 90 223 90q126 0 203 -80q76 -79 76 -211q0 -145 -86 -234q-85 -88 -223 -88q-126 0 -203 80q-76 79 -76 213v-4zM1548 276q0 -74 35 -124t90 -50q51 0 82 48t31 120q0 76 -35 123t-90 47 q-53 0 -82 -45q-31 -48 -31 -116v-3z" />
<glyph unicode="&#x2039;" horiz-adv-x="612" d="M68 573q117 153 276 328q42 51 84 51q31 0 55 -18l41 -37q-28 -52 -67 -102l-99 -125q-23 -28 -75 -97q25 -33 77 -96l99 -125q39 -50 67 -102l-45 -37q-27 -18 -55 -18q-42 0 -84 51q-170 189 -274 327z" />
<glyph unicode="&#x203a;" horiz-adv-x="612" d="M86 246q26 47 68 102q97 126 98 127q53 67 74 96q-28 39 -74 97q-1 1 -98 127q-42 55 -68 102l43 37q24 18 53 18q42 0 84 -51q163 -181 277 -328q-103 -135 -277 -327q-42 -51 -84 -51q-29 0 -53 18z" />
<glyph unicode="&#x2044;" horiz-adv-x="1357" d="M61 25q0 34 66 125l946 1271q79 21 221 21l-1042 -1434q-50 -16 -143 -16q-48 0 -48 33z" />
<glyph unicode="&#x205f;" horiz-adv-x="479" />
<glyph unicode="&#x20ac;" horiz-adv-x="1572" d="M94 588q86 9 205 12q-2 18 -2 80q0 58 6 113q-39 0 -182 -11q-27 62 -27 131q76 10 232 13q62 242 239 379q180 139 436 139q217 0 353 -80q135 -80 135 -176q0 -107 -215 -107q-30 94 -105 154q-74 59 -180 59q-138 0 -239 -98q-102 -99 -142 -266h391q133 0 166 20 q35 -35 35 -96q0 -55 -156 -55h-464q-2 -16 -2 -72q0 -65 6 -123h407q131 0 166 21q35 -38 35 -99q0 -53 -156 -53h-426q47 -159 148 -246q101 -88 241 -88q119 0 203 35q87 36 127 68q43 34 72 34q21 0 55 -18l41 -25q-64 -107 -209 -178q-141 -69 -319 -69 q-254 0 -424 129q-171 130 -226 356q-102 -3 -198 -14q-27 61 -27 131z" />
<glyph unicode="&#x20b4;" horiz-adv-x="1169" d="M70 635q86 7 239 10q56 45 203 141h-111q-170 0 -299 -14q-16 56 -16 115q120 10 295 10h278q101 88 101 166q0 95 -68 160t-180 65q-72 0 -125 -26q-50 -24 -82 -60l-51 -59q-24 -27 -43 -27q-23 0 -53 21l-43 24q59 133 178 209t295 76q197 0 323 -100 q129 -102 129 -252q0 -96 -92 -191q81 3 111 15q28 -28 28 -80q0 -47 -157 -47h-117q-68 -49 -106 -74q-76 -50 -99 -68h262q132 0 172 15q29 -32 29 -78q0 -47 -158 -47l-454 -15q-80 -83 -80 -166q0 -97 72 -163t190 -66q70 0 133 29q56 26 86 59q36 40 55 59q29 29 46 29 q29 0 55 -20l43 -25q-59 -132 -182 -209q-122 -76 -302 -76q-200 0 -333 103q-131 101 -131 256q0 103 75 190q-62 -3 -98 -6q-18 46 -18 117z" />
<glyph unicode="&#x2116;" horiz-adv-x="2103" d="M117 1417q80 25 231 25v-4l701 -961v649q0 141 -17 291q77 25 221 25q15 -120 15 -295v-954q0 -131 41 -166q-72 -35 -172 -35q-48 0 -68 39v-2l-707 968v-804q0 -132 27 -166q-72 -35 -162 -35q-41 0 -61 33q-23 38 -23 125l-2 976q0 153 -24 291zM1395 1108 q0 146 92 238t237 92q134 0 213 -82q80 -83 80 -217q0 -146 -92 -238t-235 -92q-132 0 -213 84q-80 83 -80 219zM1575 1126l2 -2q0 -100 37 -161q38 -62 98 -62q57 0 92 60q35 59 35 153q0 104 -39 166q-40 63 -100 63q-55 0 -90 -59t-35 -158z" />
<glyph unicode="&#x2122;" horiz-adv-x="1441" d="M29 1425q68 7 135 7h325q60 0 74 14q19 -25 19 -60q0 -30 -78 -30h-123v-451q0 -60 20 -74q-41 -18 -104 -18q-57 0 -57 78v409q0 44 -2 56h-66q-84 0 -131 -8q-12 38 -12 77zM602 862l64 438q6 58 6 123q62 15 147 15q36 -55 47 -86l129 -383l119 338q23 65 37 129 q82 4 145 4q18 -83 25 -133l59 -400q9 -58 33 -73q-40 -19 -104 -19q-58 0 -70 78l-49 328l-117 -316q-20 -53 -20 -76q-32 -16 -88 -16q-49 0 -80 78l-119 319l-45 -305q-4 -36 -4 -37q0 -23 14 -37q-41 -18 -92 -18q-37 0 -37 49z" />
<glyph unicode="&#x2212;" horiz-adv-x="1107" d="M90 719q101 8 295 8h432q130 0 166 25q37 -52 37 -109t-158 -57h-454q-150 0 -291 -25q-27 80 -27 158z" />
<glyph unicode="&#x25fc;" horiz-adv-x="993" d="M0 0v993h993v-993h-993z" />
<glyph unicode="&#xf6c3;" horiz-adv-x="473" d="M96 -512q0 15 19 37q21 25 37 63q18 44 18 113q0 22 -10 74q-2 11 -5.5 26.5t-5 25t-2.5 15.5q53 21 134 21q28 0 47 -19q18 -18 18 -49q0 -278 -188 -373l-31 17q-31 28 -31 49z" />
<glyph unicode="&#xf724;" horiz-adv-x="890" d="M63 166q0 104 185 104q38 -147 155 -147q64 0 103 33q41 35 41 88t-49 96q-51 45 -117 74q-90 40 -135 63q-69 35 -117 92q-49 58 -49 142q0 99 67 172q69 75 193 96q-3 133 -12 227q73 25 198 25q10 -117 13 -246q110 -15 172 -63q65 -50 65 -107q0 -47 -43 -65 q-46 -19 -139 -19q-14 47 -49 82q-33 33 -84 33q-50 0 -88 -35q-37 -34 -37 -80q0 -53 49 -90q55 -41 119 -66q75 -29 141 -61q72 -35 119 -94q49 -61 49 -144q0 -106 -68 -180t-196 -98v-57q0 -131 35 -166q-67 -37 -154 -37q-78 0 -78 158l-14 84q-127 12 -201 65t-74 121 z" />
<glyph unicode="&#xf730;" horiz-adv-x="1204" d="M82 473q0 231 147 375q148 145 387 145q225 0 363 -135q139 -136 139 -352q0 -232 -149 -375t-389 -143q-221 0 -359 135q-137 134 -137 352zM356 494q0 -156 68 -256q68 -99 176 -99q104 0 170 97t66 249q0 156 -68 256q-68 99 -174 99q-102 0 -168 -97 q-64 -94 -64 -249h-6z" />
<glyph unicode="&#xf731;" horiz-adv-x="772" d="M43 664q0 41 45 86q79 76 264 215q95 24 260 24q15 -120 15 -295v-504q0 -130 24 -165q-72 -35 -172 -35q-49 0 -76 30q-26 29 -26 127v527q0 78 -2 98q-166 -117 -287 -178l-33 33q-12 15 -12 37z" />
<glyph unicode="&#xf732;" horiz-adv-x="940" d="M78 748q102 245 387 245q167 0 276 -75q111 -76 111 -197l2 -16q0 -92 -70 -177q-72 -87 -155 -141q-90 -59 -168 -125q-85 -72 -99 -125h314q132 0 166 27q35 -47 35 -111q0 -33 -31 -49q-32 -16 -127 -16h-311q-145 0 -291 -17q-27 77 -27 154q0 58 51 115 q53 58 123 108l146 101q76 51 125 106q51 57 51 113q0 63 -51 114q-54 54 -142 54q-51 0 -92 -21t-59 -45q-11 -15 -37 -45q-17 -20 -33 -20q-26 0 -53 18z" />
<glyph unicode="&#xf733;" horiz-adv-x="1095" d="M92 715q50 127 166 203q118 77 281 77q182 0 295 -98q114 -99 114 -258q0 -105 -49 -184t-137 -125q114 -41 178 -131q66 -94 66 -215q0 -181 -132 -289q-133 -109 -352 -109q-185 0 -307 78q-119 76 -119 166q0 100 152 100q24 -83 88 -135q65 -53 153 -53l-8 -2 q108 0 172 67t64 183q0 112 -55 182q-57 72 -146 72h-43q-61 0 -113 -8q-14 71 -14 147q45 10 117 10h41q70 0 114 62t44 155q0 107 -54 170q-53 62 -147 62q-59 0 -109 -27q-46 -25 -73 -59q-30 -37 -50 -60q-23 -26 -39 -26q-22 0 -55 20z" />
<glyph unicode="&#xf734;" horiz-adv-x="1118" d="M53 137l545 832q94 24 276 24q15 -102 15 -295v-546q104 0 137 26q37 -46 37 -117q0 -61 -158 -61h-16v-207q0 -132 43 -166q-81 -35 -201 -35q-51 0 -80 33q-30 35 -30 125v250h-252q-151 0 -289 -16q-27 76 -27 153zM262 147q30 3 90 3h271v579z" />
<glyph unicode="&#xf735;" horiz-adv-x="1081" d="M84 -176q0 100 152 100q23 -84 86 -137q60 -51 151 -51q108 0 172 76q66 78 66 208q0 127 -58 209t-147 82h-80q-117 0 -244 -10q-26 77 -26 152l45 520q101 8 295 8h202q131 0 166 41q37 -64 37 -123q0 -33 -31 -49q-32 -16 -127 -16l-227 -9q-85 0 -108 -2l-33 -368 h219q180 0 291 -117q110 -116 110 -307q0 -206 -131 -328q-132 -123 -358 -123q-181 0 -303 78q-119 76 -119 166z" />
<glyph unicode="&#xf736;" horiz-adv-x="1132" d="M82 625q0 362 178 567t457 205q94 0 127 -33q35 -35 35 -98h-5q-241 0 -364 -111t-150 -342q119 98 279 98q181 0 295 -120q113 -119 113 -314q0 -217 -138 -352t-346 -135q-223 0 -352 166t-129 469zM352 553q9 -201 68 -313q58 -111 151 -111q84 0 140 86q55 85 55 221 q0 147 -61 238q-62 92 -158 92l-4 -4q-74 0 -123 -55q-50 -56 -68 -154z" />
<glyph unicode="&#xf737;" horiz-adv-x="1069" d="M49 915q0 33 31 52q30 18 127 18h463q153 0 291 16q26 -74 26 -153q-36 -132 -104 -295l-303 -760q-48 -124 -48 -166q-68 -35 -180 -35q-36 0 -55 13q-18 12 -18 49q0 32 24 96l313 780q71 173 105 301h-469q-133 0 -166 -26q-37 46 -37 110z" />
<glyph unicode="&#xf738;" horiz-adv-x="1128" d="M80 352q0 231 217 357q-191 114 -191 307q0 164 121 270q120 105 332 105q204 0 324 -99q121 -100 121 -254q0 -211 -203 -331q109 -57 172 -136q61 -76 61 -196q0 -179 -133 -285q-131 -104 -356 -104q-217 0 -340 102t-123 270zM317 367q0 -103 62 -168q61 -64 164 -64 q95 0 159 55q66 57 66 148h-4q0 52 -21 92q-21 41 -69 74q-50 35 -86 55q-32 18 -111 55q-160 -77 -160 -247zM356 1032h2q0 -84 62 -137q56 -48 182 -100q154 71 154 225q0 95 -58 156t-143 61q-83 0 -141 -61t-58 -144z" />
<glyph unicode="&#xf739;" horiz-adv-x="1124" d="M82 522q0 209 137 340t346 131q224 0 350 -166q125 -165 125 -493q0 -350 -147 -547t-408 -197q-140 0 -245 54q-103 53 -103 116q0 82 154 82l-4 -4q17 -40 84 -76q60 -32 141 -32q118 0 180 108q61 107 70 361q-117 -97 -281 -97q-177 0 -288 117t-111 303zM360 555 q0 -135 60 -223q59 -86 151 -86h-2q73 0 121 51q50 53 68 141q-27 406 -209 406q-82 0 -135 -80q-54 -82 -54 -209z" />
<glyph horiz-adv-x="2326" d="M51 1411q112 14 295 14h776q136 0 166 27q0 -2 2 -2q-2 2 -2 12q98 25 252 25q31 -112 31 -215v-496q37 100 133 166q94 64 225 64q118 0 191 -82t73 -211v-523q0 -131 43 -165q-81 -35 -196 -35q-48 0 -74 33q-29 37 -29 124v512q0 92 -39 148q-39 57 -98 57 q-83 0 -153 -98q-71 -100 -74 -221v-350q0 -130 22 -172q-67 -31 -178 -31q-52 0 -78 33q-28 36 -28 125v1028q0 73 -4 131q-28 -25 -142 -25l-366 -12q2 -31 2 -137v-955q0 -131 41 -166q-78 -34 -201 -34q-52 0 -80 32q-31 36 -31 125v977q0 90 -4 160h-159 q-141 0 -291 -17q-25 73 -25 154z" />
<glyph horiz-adv-x="2326" d="M51 1411q112 14 295 14h776q136 0 166 27q0 -2 2 -2q-2 2 -2 12q98 25 252 25q31 -112 31 -215v-496q37 100 133 166q94 64 225 64q118 0 191 -82t73 -211v-523q0 -131 43 -165q-81 -35 -196 -35q-48 0 -74 33q-29 37 -29 124v512q0 92 -39 148q-39 57 -98 57 q-83 0 -153 -98q-71 -100 -74 -221v-350q0 -130 22 -172q-67 -31 -178 -31q-52 0 -78 33q-28 36 -28 125v1028q0 73 -4 131q-28 -25 -142 -25l-366 -12q2 -31 2 -137v-955q0 -131 41 -166q-78 -34 -201 -34q-52 0 -80 32q-31 36 -31 125v977q0 90 -4 160h-159 q-141 0 -291 -17q-25 73 -25 154zM319 1753q25 52 99 129q162 -107 241 -174q153 118 250 174l31 -37q18 -21 18 -49q0 -35 -45 -74q-155 -137 -256 -209q-23 15 -110 84q-80 64 -131 99q-61 42 -92 53z" />
<glyph horiz-adv-x="2326" d="M51 1411q112 14 295 14h776q136 0 166 27q0 -2 2 -2q-2 2 -2 12q98 25 252 25q31 -112 31 -215v-496q37 100 133 166q94 64 225 64q118 0 191 -82t73 -211v-523q0 -131 43 -165q-81 -35 -196 -35q-48 0 -74 33q-29 37 -29 124v512q0 92 -39 148q-39 57 -98 57 q-83 0 -153 -98q-71 -100 -74 -221v-350q0 -130 22 -172q-67 -31 -178 -31q-52 0 -78 33q-28 36 -28 125v1028q0 73 -4 131q-28 -25 -142 -25l-366 -12q2 -31 2 -137v-955q0 -131 41 -166q-78 -34 -201 -34q-52 0 -80 32q-31 36 -31 125v977q0 90 -4 160h-159 q-141 0 -291 -17q-25 73 -25 154zM541 -524q0 16 18 37q21 25 37 63q18 43 18 113q0 21 -10 73q-9 45 -12 68q50 20 133 20q29 0 47 -18q19 -19 19 -49q0 -278 -189 -373l-31 17q-30 27 -30 49z" />
<glyph horiz-adv-x="1869" d="M57 971q129 6 146 6v172q0 157 92 252q91 94 252 94q113 0 186 -43q74 -44 74 -94q0 -109 -162 -109q-18 101 -80 101q-46 0 -73 -47q-29 -50 -29 -121v-201h375v86q0 193 127 311q126 117 342 117q151 0 252 -55q102 -56 102 -119q0 -117 -184 -117q-15 64 -62 105 t-110 41q-90 0 -148 -70q-59 -71 -59 -180v-117h422q140 0 178 23q33 -118 33 -310v-743q0 -191 -89 -309q-89 -117 -245 -117q-58 0 -92 37q-33 36 -33 94q201 0 201 264v756q0 91 -7 184q-64 -18 -141 -18h-227v-649q0 -130 22 -172q-67 -31 -178 -31q-52 0 -78 33 q-28 36 -28 125l4 692h-375v-649q0 -131 22 -173q-65 -30 -178 -30q-52 0 -78 33q-28 36 -28 124v684q-82 -9 -121 -18q-25 77 -25 158z" />
<glyph horiz-adv-x="1218" d="M51 973q129 6 146 6v88q0 193 127 311q126 117 342 117q151 0 252 -55q102 -55 102 -119q0 -117 -184 -117q-15 62 -62 103t-110 41q-90 0 -148 -70q-57 -69 -57 -180v-117h407q140 0 178 23q33 -118 33 -310v-743q0 -193 -88 -309q-89 -117 -246 -117q-58 0 -92 37 q-35 38 -35 94q205 0 205 264l-2 758q0 121 -8 184q-65 -18 -141 -18h-211v-649q0 -130 22 -172q-67 -31 -178 -31q-52 0 -78 33q-28 36 -28 125v684q-72 -8 -121 -19q-25 77 -25 158z" />
<glyph horiz-adv-x="1253" d="M86 664q0 324 156 526q156 203 405 203q156 0 283 -95l47 70q79 21 219 21l-145 -224q118 -178 118 -454q0 -325 -155 -523q-156 -200 -408 -200q-151 0 -270 82l-39 -62q-50 -16 -141 -16q-52 0 -52 33q0 42 56 125l43 59q-117 182 -117 455zM358 690l2 -2 q0 -116 19 -221l430 641q-77 127 -184 127q-119 0 -193 -152q-74 -151 -74 -393zM461 246q71 -111 174 -111q118 0 192 152q74 151 74 393q0 120 -18 215z" />
<glyph horiz-adv-x="1148" d="M41 666q0 321 152 526q150 203 393 203q226 0 368 -189t142 -491q0 -320 -152 -525q-150 -202 -393 -202q-225 0 -363 188q-139 189 -139 492zM324 692q0 -247 67 -399q68 -154 174 -154q105 0 170 152q66 153 66 393q0 245 -68 399t-174 154q-103 0 -168 -152 q-63 -147 -63 -393h-4z" />
<glyph horiz-adv-x="1148" d="M90 1067q0 39 47 86q132 120 283 215q98 25 266 25q16 -122 16 -295v-955h119q136 0 178 25q37 -58 37 -107q0 -59 -162 -59h-430q-155 0 -309 -22q-26 62 -26 153q109 8 311 8h26v934q0 64 -2 82q-150 -98 -301 -172l-39 45q-14 14 -14 37z" />
</font>
</defs>
</svg>
