<?xml version="1.0" encoding="utf-8"?>
<!-- Generator: Adobe Illustrator 16.0.0, SVG Export Plug-In . SVG Version: 6.00 Build 0)  -->
<!DOCTYPE svg PUBLIC "-//W3C//DTD SVG 1.1//EN" "http://www.w3.org/Graphics/SVG/1.1/DTD/svg11.dtd">
<svg version="1.1" id="Слой_1" xmlns="http://www.w3.org/2000/svg" xmlns:xlink="http://www.w3.org/1999/xlink" x="0px" y="0px"
	 width="106.618px" height="231px" viewBox="0 0 106.618 231" enable-background="new 0 0 106.618 231" xml:space="preserve">
<path fill-rule="evenodd" clip-rule="evenodd" fill="#7DC1C2" d="M-520.406,198.869c-0.43,0-0.873-0.191-1.157-0.574
	c-2.942-3.936-1.302-6.824-0.086-8.937c1.158-2.034,1.931-3.384,0.086-5.834c-0.47-0.633-0.338-1.521,0.297-1.994
	c0.635-0.468,1.547-0.34,2.017,0.302c2.955,3.932,1.302,6.824,0.105,8.929c-1.176,2.038-1.943,3.394-0.105,5.838
	c0.469,0.631,0.336,1.522-0.298,1.996C-519.804,198.786-520.109,198.869-520.406,198.869 M-510.126,230.75l-13.011-0.075
	c-6.643-2.199-10.935-7.828-10.935-14.338V202.98l38.662-0.006c4.653,0,7.086,4.048,7.086,8.041c0,3.989-2.433,8.038-7.086,8.038
	h-3.815c-1.005,5.328-4.978,9.739-10.683,11.621L-510.126,230.75z M-522.443,227.901h11.841c5.328-1.851,8.752-6.368,8.752-11.564
	v-10.508h-29.346v10.508C-531.196,221.533-527.771,226.051-522.443,227.901 M-498.967,216.206h3.558c2.895,0,4.217-2.69,4.217-5.19
	c0-1.929-0.886-5.194-4.217-5.194h-3.558V216.206z M-512.638,198.869c-0.298,0-0.602-0.091-0.861-0.274
	c-0.641-0.474-0.773-1.365-0.297-1.996c1.832-2.444,1.065-3.794-0.099-5.832l-0.231-0.402c-0.391-0.687-0.14-1.555,0.555-1.934
	c0.701-0.389,1.567-0.142,1.957,0.543l0.225,0.393c1.204,2.104,2.85,4.993-0.099,8.935
	C-511.772,198.678-512.209,198.869-512.638,198.869"/>
<path fill-rule="evenodd" clip-rule="evenodd" fill="#7DC1C2" d="M-509.547,64.936c-0.515,0-1.016-0.279-1.269-0.768l-0.365-0.713
	h-0.02c-1.412,0-2.667-0.953-3.026-2.326c-0.227-0.813-0.11-1.66,0.306-2.385c0.053-0.096,0.111-0.18,0.182-0.268l-2.643-5.113
	c-0.351-0.691-0.077-1.543,0.612-1.902c0.703-0.361,1.562-0.088,1.914,0.611l2.636,5.113c1.393,0.006,2.681,0.939,3.058,2.311
	c0.221,0.813,0.104,1.664-0.312,2.395l-0.183,0.273l0.365,0.705c0.364,0.693,0.091,1.553-0.612,1.906
	C-509.112,64.881-509.326,64.936-509.547,64.936 M-512.599,60.695l-0.02-0.037l-0.241,0.105L-512.599,60.695z M-509.801,59.938
	l0.026,0.047l0.248-0.121L-509.801,59.938z M-492.028,73h-38.331l-0.41-0.721c-4.503-7.932-4.588-18.725-0.215-26.236
	c2.245-3.865,6.462-8.33,14.193-9.816v-4.705c0-0.783,0.639-1.414,1.419-1.414s1.418,0.631,1.418,1.414v4.311
	c0.878-0.07,1.803-0.121,2.767-0.121c0.951,0,1.874,0.041,2.747,0.121v-4.311c0-0.783,0.63-1.414,1.418-1.414
	c0.782,0,1.419,0.631,1.419,1.414v4.697c7.731,1.477,11.936,5.945,14.181,9.809c4.386,7.512,4.302,18.313-0.208,26.252L-492.028,73z
	 M-507.022,38.871c-0.175,0-0.338-0.025-0.5-0.088c-1.14-0.152-2.356-0.238-3.665-0.238c-1.321,0-2.552,0.086-3.697,0.246
	c-0.155,0.055-0.325,0.08-0.488,0.08h-0.052c-7.25,1.139-11.103,5.145-13.119,8.592c-3.756,6.469-3.788,15.686-0.15,22.701h34.993
	c3.645-7.027,3.604-16.246-0.169-22.709c-2.004-3.445-5.838-7.438-13.068-8.584H-507.022z M-492.242,25.828h-37.916
	c-0.782,0-1.426-0.633-1.426-1.41c0-0.781,0.644-1.418,1.426-1.418h37.916c0.787,0,1.418,0.637,1.418,1.418
	C-490.824,25.195-491.455,25.828-492.242,25.828"/>
<path fill-rule="evenodd" clip-rule="evenodd" fill="#7DC1C2" d="M-511.405,153.718c-13.654,0-24.76-11.102-24.76-24.748
	c0-13.65,11.106-24.752,24.76-24.752c13.646,0,24.74,11.102,24.74,24.752C-486.665,142.616-497.759,153.718-511.405,153.718
	 M-502.269,137.683c-0.321,0-0.635-0.103-0.897-0.313l-9.667-7.709v-17.485c0-0.783,0.635-1.42,1.428-1.42
	c0.785,0,1.419,0.637,1.419,1.426v16.104l8.606,6.857c0.61,0.488,0.708,1.388,0.216,2.004
	C-501.444,137.495-501.857,137.683-502.269,137.683 M-511.405,107.069c-12.077,0-21.907,9.824-21.907,21.9
	c0,12.078,9.83,21.896,21.907,21.896c12.069,0,21.885-9.818,21.885-21.896C-489.52,116.894-499.336,107.069-511.405,107.069"/>
<path fill-rule="evenodd" clip-rule="evenodd" fill="#7DC1C2" d="M-519.072-1070.993c-0.086,2.559,0.457,4.555,1.627,5.95
	c1.169,1.395,3.038,2.274,5.576,2.634c0.089-2.565-0.453-4.565-1.624-5.95C-514.655-1069.754-516.533-1070.642-519.072-1070.993z
	 M-509.376-1051.457l4.657-5.551c0.427-0.509,1.193-0.575,1.706-0.148c0.509,0.433,0.575,1.19,0.142,1.706l-4.65,5.544
	c3.06-0.615,5.374-1.848,6.898-3.663c1.815-2.158,2.615-5.272,2.377-9.272c-3.974,0.459-6.905,1.792-8.72,3.954
	C-508.491-1057.074-509.3-1054.578-509.376-1051.457z M-514.143-1037.753l-6.241-7.001c-0.439-0.502-0.4-1.26,0.103-1.706
	c0.493-0.446,1.259-0.4,1.706,0.096l6.396,7.179c-0.122-3.966-1.183-7.067-3.153-9.258c-2.234-2.486-5.774-3.92-10.521-4.28
	c-0.142,4.759,0.922,8.429,3.157,10.915C-520.777-1039.683-517.904-1038.321-514.143-1037.753 M-509.598-1029.155h-2.419v-5.947
	c-5.557-0.35-9.755-2.063-12.475-5.09c-2.876-3.193-4.123-7.864-3.709-13.883l0.072-1.163l1.17,0.039
	c6.033,0.215,10.541,1.944,13.421,5.137c0.575,0.631,1.074,1.322,1.521,2.072v-12.002c-3.243-0.42-5.686-1.597-7.283-3.494
	c-1.782-2.125-2.485-5.143-2.085-8.961l0.122-1.167l1.164,0.083c3.831,0.277,6.674,1.488,8.462,3.616
	c1.782,2.125,2.486,5.137,2.093,8.961l-0.053,0.509v1.055c0.235-0.364,0.499-0.717,0.777-1.055c2.429-2.893,6.33-4.545,11.596-4.922
	l1.167-0.083l0.119,1.164c0.549,5.256-0.406,9.378-2.829,12.277c-2.308,2.747-5.95,4.379-10.829,4.852V-1029.155z"/>
<path fill-rule="evenodd" clip-rule="evenodd" fill="#7DC1C2" d="M-523.095-1110.566l-11.651-12.165v-5.272h10.399
	c2.093-4.103,6.214-7.388,13.146-7.388c4.753,0,8.184,1.544,10.541,3.842c5.454-2.913,8.869-0.909,10.141,0.155
	c2.701,2.267,3.663,6.505,2.231,9.863c-1.259,2.948-3.96,4.576-7.521,4.576c-0.278,0-0.568-0.008-0.859-0.028
	c-1.071,5.571-4.631,10.532-10.155,10.961l-0.04,0.007l-8.719-0.007C-518.777-1106.272-521.316-1108.036-523.095-1110.566z
	 M-499.043-1129.649c1.769,2.532,2.595,5.563,2.7,8.402c0.027,0.608,0.014,1.222-0.02,1.842c2.85,0.162,4.915-0.923,5.838-3.082
	c1.008-2.368,0.324-5.462-1.561-7.039c-1.726-1.455-4.155-1.485-6.958-0.117V-1129.649z M-510.748-1138.855l-0.955-0.008
	c-1.184-0.089-2.063-1.226-2.01-2.586c0.056-1.417,1.091-2.404,2.512-2.404c1.421,0,2.456,0.987,2.512,2.404
	c0.053,1.36-0.826,2.498-2.013,2.586L-510.748-1138.855z M-506.888-1111.654c-0.469,0-0.909-0.257-1.111-0.71
	c-0.277-0.618,0-1.335,0.609-1.613c2.39-1.078,4.006-4.554,3.778-8.087c-0.05-0.673,0.459-1.254,1.131-1.293
	c0.678-0.05,1.252,0.459,1.292,1.131c0.311,4.643-1.828,8.948-5.199,10.471c-0.162,0.073-0.331,0.109-0.5,0.109V-1111.654z
	 M-521.551-1128.003h20.693c-1.894-2.874-5.183-4.949-10.343-4.949C-516.361-1132.952-519.656-1130.869-521.551-1128.003
	 M-499.632-1125.566h-23.146c-0.521,1.42-0.793,2.932-0.853,4.412c-0.225,5.767,2.843,12.253,8.192,12.7h8.475
	c5.348-0.447,8.416-6.933,8.191-12.7C-498.832-1122.634-499.103-1124.146-499.632-1125.566 M-525.329-1125.566h-6.982v1.861
	l6.608,6.905c-0.292-1.461-0.419-2.965-0.357-4.446C-526.006-1122.672-525.769-1124.14-525.329-1125.566 M-532.201-1130.696
	c-0.387,0-0.763-0.193-1.001-0.531c-2.627-3.818-1.213-6.511-0.076-8.679c1.084-2.069,1.871-3.567,0.076-6.176
	c-0.379-0.551-0.245-1.305,0.311-1.69c0.555-0.378,1.312-0.236,1.692,0.32c2.628,3.81,1.213,6.511,0.076,8.676
	c-1.084,2.066-1.864,3.564-0.076,6.168c0.38,0.556,0.244,1.313-0.311,1.693C-531.722-1130.768-531.957-1130.696-532.201-1130.696
	 M-527.421-1130.696c-0.237,0-0.479-0.071-0.69-0.218c-0.556-0.381-0.691-1.137-0.311-1.693c1.789-2.604,1.008-4.102-0.076-6.168
	l-0.208-0.406c-0.311-0.594-0.076-1.325,0.522-1.636c0.594-0.311,1.332-0.076,1.636,0.519l0.205,0.394
	c1.137,2.167,2.552,4.861-0.076,8.679C-526.657-1130.889-527.034-1130.696-527.421-1130.696"/>
<path fill-rule="evenodd" clip-rule="evenodd" fill="#7DC1C2" d="M-531.941-953.497c-0.364,0-0.725-0.163-0.959-0.48
	c-0.387-0.527-0.277-1.272,0.248-1.665l4.829-3.561l-3.242-4.393l2.416-7.629l25.893-19.139l13.492,18.256l-25.901,19.139l-8,0.063
	l-3.242-4.389l-4.83,3.569C-531.446-953.57-531.697-953.497-531.941-953.497 M-525.909-960.618l2.714-2.009
	c0.529-0.394,1.273-0.278,1.666,0.248c0.387,0.529,0.277,1.272-0.251,1.667l-2.721,2.002l2.525,3.416l6.02-0.051l23.366-17.254
	l-10.667-14.433l-23.363,17.262l-1.814,5.741L-525.909-960.618z M-517.4-967.457c-0.364,0-0.725-0.163-0.959-0.48
	c-0.394-0.528-0.278-1.272,0.248-1.665l11.863-8.767c0.525-0.387,1.272-0.278,1.663,0.257c0.386,0.523,0.277,1.267-0.248,1.66
	l-11.864,8.766C-516.911-967.53-517.156-967.457-517.4-967.457z M-514.334-963.291c-0.356,0-0.717-0.163-0.955-0.482
	c-0.383-0.527-0.277-1.274,0.252-1.663l5.553-4.102c0.526-0.389,1.272-0.279,1.663,0.246c0.387,0.53,0.277,1.274-0.248,1.667
	l-5.554,4.103C-513.831-963.367-514.082-963.291-514.334-963.291z"/>
<path fill-rule="evenodd" clip-rule="evenodd" fill="#7DC1C2" d="M-513.976-769.363h-16.707v15.637h9.199v-9.516h7.507V-769.363z
	 M-530.682-771.814h16.707v-5.127c0-0.957-0.777-1.744-1.739-1.744h-13.223c-0.958,0-1.745,0.787-1.745,1.744V-771.814z
	 M-528.937-741.961c-2.314,0-4.195-1.875-4.195-4.189v-30.791c0-2.313,1.881-4.193,4.195-4.193h13.223
	c2.308,0,4.191,1.881,4.191,4.193v13.699h21.846v21.281H-528.937z M-521.483-751.283h-9.199v5.133c0,0.963,0.787,1.746,1.745,1.746
	h7.454V-751.283z M-519.384-774.029h-5.884c-0.674,0-1.223-0.549-1.223-1.219c0-0.676,0.548-1.223,1.223-1.223h5.884
	c0.671,0,1.226,0.547,1.226,1.223C-518.158-774.578-518.712-774.029-519.384-774.029z M-499.353-769.363
	c-0.311,0-0.621-0.117-0.859-0.352l-5.625-5.533l5.625-5.537c0.48-0.471,1.259-0.467,1.732,0.014
	c0.476,0.482,0.47,1.258-0.014,1.736l-2.604,2.564h10.608c0.677,0,1.226,0.547,1.226,1.223c0,0.67-0.549,1.219-1.226,1.219h-10.608
	l2.604,2.566c0.483,0.475,0.49,1.252,0.014,1.736C-498.721-769.486-499.035-769.363-499.353-769.363 M-509.176-754.119l3.597,2.893
	l11.873-9.568h-23.752L-509.176-754.119z M-500.076-752.514l7.947,6.701v-13.105L-500.076-752.514z M-519.029-758.918v13.105
	l7.945-6.701L-519.029-758.918z M-516.905-744.404h22.643l-7.765-6.545l-3.553,2.869l-3.56-2.869L-516.905-744.404z"/>
<path fill-rule="evenodd" clip-rule="evenodd" fill="#7DC1C2" d="M-500.822-900.59h-6.932c-0.661,0-1.196-0.537-1.196-1.201
	c0-0.658,0.535-1.191,1.196-1.191h6.932c0.664,0,1.199,0.533,1.199,1.191C-499.623-901.127-500.158-900.59-500.822-900.59z
	 M-518.104-912.684h-2.79c-0.664,0-1.196-0.535-1.196-1.193c0-0.66,0.533-1.189,1.196-1.189l2.79-0.006
	c0.665,0,1.197,0.535,1.197,1.195C-516.907-913.219-517.438-912.684-518.104-912.684 M-500.822-912.684h-12.496
	c-0.657,0-1.193-0.535-1.193-1.193c0-0.66,0.536-1.189,1.193-1.189l12.496-0.006c0.664,0,1.199,0.535,1.199,1.195
	C-499.623-913.219-500.158-912.684-500.822-912.684z M-519.68-895.76h5.042v-5.807h-5.042V-895.76z M-512.25-893.367h-9.82v-10.59
	h9.82V-893.367z M-525.868-909.848h29.34v-6.828c0-0.672-0.556-1.227-1.233-1.227h-26.874c-0.678,0-1.232,0.555-1.232,1.227
	V-909.848z M-525.868-907.457v21.635c0,0.678,0.555,1.232,1.232,1.232h26.874c0.677,0,1.233-0.555,1.233-1.232v-21.635H-525.868z
	 M-497.761-882.207h-26.874c-2,0-3.622-1.615-3.622-3.615v-30.854c0-1.994,1.623-3.615,3.622-3.615h26.874
	c1.997,0,3.623,1.621,3.623,3.615v30.854c0,2-1.626,3.623-3.623,3.623V-882.207z M-500.822-894.344h-6.932
	c-0.661,0-1.196-0.535-1.196-1.193c0-0.662,0.535-1.197,1.196-1.197h6.932c0.664,0,1.199,0.535,1.199,1.197
	C-499.623-894.879-500.158-894.344-500.822-894.344z M-500.822-888.096h-19.969c-0.665,0-1.2-0.529-1.2-1.191
	c0-0.664,0.536-1.199,1.2-1.199h19.969c0.664,0,1.199,0.535,1.199,1.199C-499.623-888.625-500.158-888.096-500.822-888.096z"/>
<path fill-rule="evenodd" clip-rule="evenodd" fill="#7DC1C2" d="M-515.088-692.909c-3.669,0-6.657,2.984-6.657,6.652
	s2.988,6.662,6.657,6.662c3.675,0,6.66-2.994,6.66-6.662S-511.413-692.909-515.088-692.909z M-499.424-672.638
	c-0.278,0-0.556-0.092-0.787-0.285l-8.347-6.994c-1.652,1.707-3.966,2.77-6.531,2.77c-5.025,0-9.107-4.086-9.107-9.109
	s4.082-9.104,9.107-9.104c5.021,0,9.11,4.08,9.11,9.104c0,1.586-0.407,3.066-1.118,4.363l3.177,2.658l5.279,4.441
	c0.522,0.43,0.589,1.203,0.148,1.727C-498.727-672.784-499.08-672.638-499.424-672.638"/>
<path fill-rule="evenodd" clip-rule="evenodd" fill="#7DC1C2" d="M-508.517-806.989h-5.361c-0.678,0-1.233-0.555-1.233-1.229
	c0-0.678,0.555-1.227,1.233-1.227h5.361c0.678,0,1.234,0.549,1.234,1.227C-507.283-807.544-507.839-806.989-508.517-806.989z
	 M-511.198-826.31c-1.828,0-3.312,1.484-3.312,3.313c0,1.318,0.827,2.654,2.08,4.67c0.379,0.615,0.793,1.279,1.232,2.023
	c0.44-0.744,0.853-1.408,1.24-2.029c1.242-2.01,2.069-3.346,2.069-4.664C-507.889-824.825-509.37-826.31-511.198-826.31z
	 M-511.198-811.22l-1.084-2.01c-0.813-1.504-1.57-2.727-2.241-3.805c-1.415-2.287-2.443-3.939-2.443-5.963
	c0-3.184,2.585-5.768,5.768-5.768c3.18,0,5.769,2.584,5.769,5.768c0,2.023-1.032,3.676-2.446,5.963
	c-0.667,1.078-1.428,2.295-2.238,3.805L-511.198-811.22z M-518.347-836.659h14.299v-1.738c0-3.941-3.209-7.15-7.149-7.15
	c-3.947,0-7.149,3.209-7.149,7.156V-836.659z M-525.653-834.202l1.788,29.123c0.027,0.453,0.338,0.93,0.86,0.93h23.615
	c0.519,0,0.83-0.477,0.859-0.93l1.778-29.123h-4.839v3.711c0,0.684-0.549,1.225-1.227,1.225s-1.23-0.541-1.23-1.225v-3.711h-14.299
	v3.711c0,0.684-0.549,1.225-1.226,1.225c-0.682,0-1.23-0.541-1.23-1.225v-3.711H-525.653z M-499.39-801.694h-23.615
	c-1.771,0-3.193-1.389-3.309-3.234l-1.944-31.73h7.454v-1.738c0-5.297,4.31-9.605,9.605-9.605c5.299,0,9.606,4.309,9.606,9.611
	v1.732h7.454l-1.943,31.73C-496.197-803.083-497.618-801.694-499.39-801.694"/>
<path fill-rule="evenodd" clip-rule="evenodd" fill="#7DC1C2" d="M-518.737-432.682c-0.146,0-0.291-0.025-0.43-0.078
	c-0.476-0.191-0.761-0.668-0.761-1.281v-4.008c-5.526-1.838-8.33-6.34-8.33-13.381v-2.545c0-5.109,1.487-8.908,4.442-11.295
	c2.525-2.047,6.03-3.041,10.724-3.041l3.789-0.006c4.693,0,8.197,1,10.722,3.047c2.949,2.387,4.442,6.186,4.442,11.295v2.545
	c0,5.104-1.494,8.906-4.442,11.291c-2.525,2.057-6.029,3.049-10.722,3.049h-3.789c-0.072,0-0.509,0-0.979,0l-3.637,3.914
	C-518.003-432.859-518.374-432.682-518.737-432.682z M-513.792-456.75c-0.76-1.535-1.772-2.857-3.015-3.883
	c-0.331-0.27-0.867-0.27-1.197-0.105c-0.867,0.463-1.667,1.092-2.293,1.824c-0.305,0.357-0.43,1.012-0.199,1.654
	c2.26,6.34,6.632,11.033,13.646,14.047c0.47,0.199,1.164,0.186,1.646-0.086c1.045-0.596,2.261-2.041,2.36-2.537
	c0.099-0.498-0.033-1.125-0.33-1.381c-1.051-0.9-2.096-1.779-3.424-2.455c-0.569-0.289-1.315-0.264-1.693,0.119
	c-0.423,0.438-0.707,0.848-1.057,1.178c-0.456,0.449-1.051,0.186-1.507-0.021c-2.07-0.871-3.967-2.855-4.522-4.711
	c-0.199-0.648-0.179-1.191,0.159-1.463c0.39-0.316,0.839-0.602,1.229-0.984C-513.699-455.852-513.621-456.408-513.792-456.75
	 M-507.743-453.174h-0.014c-0.264-0.008-0.476-0.232-0.462-0.496c0.02-0.635-0.179-1.191-0.576-1.607
	c-0.396-0.416-0.965-0.662-1.566-0.668c-0.258,0-0.476-0.211-0.476-0.475c0-0.266,0.218-0.477,0.476-0.477h0.013
	c0.847,0.006,1.667,0.35,2.249,0.951c0.582,0.607,0.872,1.408,0.833,2.314C-507.274-453.379-507.485-453.174-507.743-453.174
	 M-505.575-452.381h-0.019c-0.265-0.008-0.463-0.232-0.457-0.496c0.053-1.467-0.41-2.758-1.335-3.721
	c-0.925-0.967-2.248-1.529-3.623-1.535c-0.265,0-0.476-0.219-0.476-0.482c0-0.266,0.217-0.484,0.476-0.484
	c1.64,0.016,3.212,0.689,4.311,1.84c1.117,1.156,1.665,2.684,1.607,4.416C-505.105-452.586-505.317-452.381-505.575-452.381
	 M-503.479-451.766h-0.013c-0.264-0.008-0.476-0.232-0.47-0.498c0.093-2.207-0.608-4.15-2.009-5.617
	c-1.402-1.461-3.405-2.309-5.48-2.32c-0.265,0-0.476-0.219-0.476-0.484c0-0.264,0.218-0.475,0.482-0.475
	c2.333,0.014,4.582,0.965,6.161,2.617c1.586,1.652,2.381,3.84,2.288,6.32C-503.002-451.971-503.221-451.766-503.479-451.766
	 M-518.638-434.063l5.561-5.982h3.775c8.441,0,12.21-3.512,12.21-11.385v-2.545c0-7.873-3.769-11.385-12.21-11.385h-3.789
	c-8.442,0-12.211,3.512-12.211,11.385v2.545c0,5.857,2.064,9.236,6.479,10.637c0.066,0.014,0.125,0.041,0.185,0.068V-434.063z"/>
<path fill-rule="evenodd" clip-rule="evenodd" fill="#7DC1C2" d="M-498.316-518.039h-25.756c-2.314,0-4.185-1.877-4.185-4.178
	v-14.559c0-2.307,1.871-4.184,4.185-4.184h25.756c2.301,0,4.178,1.877,4.178,4.184v14.559
	C-494.138-519.916-496.015-518.039-498.316-518.039 M-496.975-536.873l-9.262,7.457l9.156,7.721
	c0.072-0.164,0.113-0.344,0.113-0.521v-14.559C-496.967-536.809-496.975-536.842-496.975-536.873 M-524.536-538.037l9.521,7.67
	l3.814,3.074l3.828-3.074l9.521-7.67c-0.146-0.047-0.305-0.086-0.463-0.086h-25.756
	C-524.238-538.123-524.398-538.084-524.536-538.037 M-525.316-521.695l9.164-7.721l-9.263-7.457c0,0.031-0.006,0.064-0.006,0.098
	v14.559C-525.422-522.039-525.383-521.859-525.316-521.695 M-498.37-520.875l-9.024-7.609l-3.808,3.061l-3.795-3.061l-9.031,7.609
	H-498.37z"/>
<path fill-rule="evenodd" clip-rule="evenodd" fill="#7DC1C2" d="M-508.53-614.177h-5.329c-0.476,0-0.873-0.383-0.873-0.867
	c0-0.488,0.397-0.871,0.873-0.871h5.329c0.482,0,0.873,0.383,0.873,0.871C-507.657-614.56-508.048-614.177-508.53-614.177
	 M-504.214-585.663h-13.963c-2.425,0-4.395-1.963-4.395-4.391v-27.895c0-2.416,1.97-4.387,4.395-4.387h13.963
	c2.42,0,4.39,1.971,4.39,4.387v27.895C-499.824-587.626-501.793-585.663-504.214-585.663 M-519.162-594.933v4.879
	c0,0.535,0.449,0.992,0.985,0.992h13.963c0.536,0,0.991-0.457,0.991-0.992v-4.879H-519.162z M-519.162-611.077h15.939v-6.871
	c0-0.535-0.456-0.988-0.991-0.988h-13.963c-0.536,0-0.985,0.453-0.985,0.988V-611.077z M-503.223-609.331h-15.939v12.654h15.939
	V-609.331z"/>
<path fill-rule="evenodd" clip-rule="evenodd" fill="#7DC1C2" d="M-508.61-361.333l0.437,0.244c0.998,0.549,2.069,0.826,3.193,0.826
	c3.781,0,6.855-3.24,6.855-7.232c0-1.197-0.266-2.334-0.8-3.393l-0.206-0.416l0.072-0.463c0.119-0.719,0.186-1.467,0.186-2.234
	c0-7.127-5.52-12.934-12.323-12.934c-0.707,0-1.407,0.07-2.075,0.188l-0.509,0.09l-0.451-0.252
	c-0.985-0.549-2.055-0.826-3.179-0.826c-3.789,0-6.863,3.244-6.863,7.229c0,1.191,0.271,2.334,0.801,3.385l0.212,0.424l-0.074,0.457
	c-0.119,0.732-0.185,1.48-0.185,2.24c0,7.141,5.527,12.938,12.323,12.938c0.715,0,1.409-0.059,2.077-0.178L-508.61-361.333z
	 M-511.241-365.28c-0.047,0-0.093,0-0.139,0c-3.385-0.066-6.102-1.865-6.91-4.596c-0.276-0.912,0.245-1.877,1.164-2.148
	c0.886-0.264,1.877,0.252,2.143,1.17c0.456,1.521,2.26,2.096,3.669,2.123c1.018-0.053,2.539-0.357,3.252-1.09
	c0.264-0.271,0.377-0.563,0.358-0.934c-0.053-1.023-1.825-1.533-4.132-2.09c-1.197-0.289-2.327-0.561-3.252-1.023
	c-1.64-0.82-2.619-2.242-2.698-3.9c-0.086-1.746,0.865-3.412,2.532-4.457c1.309-0.818,2.962-1.242,4.549-1.129
	c2.571,0.164,4.912,1.949,5.811,4.449c0.323,0.898-0.145,1.891-1.037,2.207c-0.913,0.346-1.885-0.139-2.216-1.037
	c-0.429-1.203-1.579-2.09-2.782-2.176c-0.793-0.006-1.792,0.186-2.48,0.615c-0.602,0.369-0.952,0.893-0.925,1.361
	c0.021,0.49,0.443,0.801,0.793,0.98c0.576,0.283,1.528,0.514,2.52,0.76c2.776,0.668,6.584,1.586,6.769,5.268
	c0.066,1.33-0.396,2.539-1.328,3.518C-507.116-365.835-509.555-365.28-511.241-365.28 M-504.98-357.388
	c-1.421,0-2.836-0.324-4.126-0.945c-0.68,0.092-1.375,0.146-2.089,0.146c-8.382,0-15.199-7.094-15.199-15.814
	c0-0.76,0.053-1.514,0.152-2.254c-0.602-1.334-0.912-2.764-0.912-4.252c0-5.564,4.369-10.104,9.744-10.104
	c1.455,0,2.829,0.316,4.119,0.949c0.688-0.096,1.388-0.15,2.095-0.15c8.383,0,15.206,7.098,15.206,15.811
	c0,0.768-0.06,1.521-0.159,2.254c0.602,1.336,0.906,2.764,0.906,4.252C-495.242-361.923-499.612-357.388-504.98-357.388"/>
<path fill-rule="evenodd" clip-rule="evenodd" fill="#7DC1C2" d="M-503.331-220.111l0.787-6.066h-6.009v-3.875
	c0-1.752,0.489-2.949,3.008-2.949l3.206-0.006v-5.422c-0.556-0.078-2.46-0.238-4.681-0.238c-4.627,0-7.801,2.824-7.801,8.014v4.477
	h-5.237v6.066h5.237v15.564h6.268v-15.564H-503.331z"/>
<path fill-rule="evenodd" clip-rule="evenodd" fill="#A2A2A4" d="M100.651-186.026l4.731-36.463H69.267v-23.291
	c0-10.531,2.938-17.726,18.082-17.726l19.27-0.036v-32.589c-3.344-0.47-14.786-1.432-28.137-1.432
	c-27.813,0-46.886,16.976-46.886,48.167v26.906H0.119v36.463h31.476v93.551h37.672v-93.551H100.651z"/>
<path fill-rule="evenodd" clip-rule="evenodd" fill="#FFFFFF" d="M100.651,136.974l4.731-36.463H69.267V77.22
	c0-10.531,2.938-17.726,18.082-17.726l19.27-0.036V26.869c-3.344-0.47-14.786-1.432-28.137-1.432
	c-27.813,0-46.886,16.976-46.886,48.167v26.906H0.119v36.463h31.476v93.551h37.672v-93.551H100.651z"/>
<g>
	<path fill-rule="evenodd" clip-rule="evenodd" fill="#7DC1C2" d="M-501.463-302.919v-10.848h-1.976v8.297
		c-0.43,0.621-0.839,0.932-1.236,0.932c-0.265,0-0.417-0.16-0.463-0.463c-0.025-0.074-0.025-0.311-0.025-0.773v-7.992h-1.965v8.58
		c0,0.768,0.074,1.289,0.186,1.619c0.179,0.549,0.635,0.801,1.263,0.801c0.721,0,1.461-0.43,2.242-1.33v1.178H-501.463z
		 M-510.712-306.06c0,1.006-0.297,1.521-0.938,1.521c-0.628,0-0.933-0.516-0.933-1.521v-4.561c0-0.998,0.305-1.508,0.933-1.508
		c0.641,0,0.938,0.51,0.938,1.508V-306.06z M-508.741-306.423v-3.801c0-1.164-0.193-2.002-0.616-2.559
		c-0.536-0.74-1.296-1.117-2.293-1.117c-0.972,0-1.739,0.377-2.281,1.117c-0.417,0.557-0.615,1.395-0.615,2.559v3.801
		c0,1.164,0.198,2.004,0.615,2.551c0.542,0.742,1.309,1.105,2.281,1.105c0.998,0,1.758-0.363,2.293-1.105
		C-508.934-304.419-508.741-305.259-508.741-306.423 M-514.565-317.476h-2.208l-1.481,5.725l-1.553-5.725h-2.288
		c0.457,1.355,0.939,2.703,1.389,4.059c0.701,2.029,1.144,3.564,1.348,4.609v5.889h2.163v-5.889L-514.565-317.476z"/>
	<path fill-rule="evenodd" clip-rule="evenodd" fill="#7DC1C2" d="M-495.104-289.741c0,2.504-0.006,5.176-0.554,7.607
		c-0.404,1.705-1.805,2.977-3.492,3.174c-3.993,0.438-8.038,0.438-12.058,0.438c-4.007,0-8.054,0-12.033-0.438
		c-1.699-0.197-3.101-1.469-3.497-3.174c-0.556-2.432-0.556-5.104-0.556-7.607c0-2.514,0.006-5.172,0.568-7.611
		c0.39-1.705,1.792-2.975,3.484-3.16c3.993-0.449,8.033-0.449,12.051-0.449c4.007,0,8.06,0,12.045,0.449
		c1.687,0.186,3.088,1.455,3.485,3.16C-495.097-294.913-495.104-292.255-495.104-289.741"/>
	<path fill-rule="evenodd" clip-rule="evenodd" fill="#FFFFFF" d="M-497.496-286.212v-0.291h-1.984c0,0.793-0.027,1.223-0.053,1.328
		c-0.105,0.516-0.39,0.768-0.859,0.768c-0.674,0-0.998-0.488-0.998-1.482v-1.902h3.894v-2.229c0-1.143-0.206-1.99-0.609-2.525
		c-0.542-0.74-1.309-1.104-2.287-1.104c-0.998,0-1.778,0.363-2.34,1.104c-0.41,0.535-0.594,1.383-0.594,2.525v3.762
		c0,1.15,0.217,1.99,0.621,2.525c0.563,0.734,1.329,1.104,2.367,1.104c1.005,0,1.805-0.389,2.34-1.17
		c0.237-0.338,0.396-0.727,0.462-1.164C-497.529-285.161-497.496-285.577-497.496-286.212 M-499.453-289.419h-1.937v-0.992
		c0-0.99,0.324-1.486,0.971-1.486c0.655,0,0.966,0.496,0.966,1.486V-289.419z M-504.841-286.001v-4.277
		c0-1.025-0.067-1.732-0.191-2.154c-0.272-0.814-0.795-1.217-1.568-1.217c-0.707,0-1.368,0.402-2.003,1.17v-4.701h-1.943v14.398
		h1.943v-1.029c0.654,0.793,1.316,1.182,2.003,1.182c0.773,0,1.296-0.41,1.568-1.209
		C-504.908-284.296-504.841-285.003-504.841-286.001 M-506.779-285.856c0,0.979-0.291,1.449-0.858,1.449
		c-0.313,0-0.649-0.146-0.966-0.471v-6.551c0.317-0.311,0.654-0.469,0.966-0.469c0.567,0,0.858,0.496,0.858,1.467V-285.856z
		 M-514.176-282.782v-1.176c-0.774,0.9-1.508,1.328-2.221,1.328c-0.628,0-1.065-0.258-1.263-0.799
		c-0.105-0.338-0.171-0.84-0.171-1.602v-8.488h1.937v7.908c0,0.449,0,0.688,0.04,0.748c0.039,0.309,0.185,0.455,0.449,0.455
		c0.39,0,0.801-0.291,1.23-0.9v-8.211h1.943v10.736H-514.176z M-518.109-295.165v-2.016h-6.783v2.016h2.293v12.383h2.162v-12.383
		H-518.109z"/>
</g>
<g>
	<path fill-rule="evenodd" clip-rule="evenodd" fill="#A2A2A4" d="M-100.919-236.693v-64.029h-11.664v48.974
		c-2.539,3.665-4.951,5.498-7.297,5.498c-1.565,0-2.459-0.945-2.735-2.731c-0.15-0.438-0.15-1.834-0.15-4.567v-47.173h-11.597
		v50.644c0,4.53,0.436,7.608,1.095,9.557c1.055,3.239,3.748,4.728,7.454,4.728c4.256,0,8.622-2.536,13.23-7.852v6.953H-100.919z
		 M-155.511-255.231c0,5.937-1.752,8.98-5.536,8.98c-3.707,0-5.506-3.044-5.506-8.98v-26.918c0-5.891,1.799-8.899,5.506-8.899
		c3.784,0,5.536,3.009,5.536,8.899V-255.231z M-143.876-257.376v-22.434c0-6.87-1.139-11.816-3.635-15.103
		c-3.162-4.369-7.65-6.594-13.537-6.594c-5.739,0-10.263,2.225-13.462,6.594c-2.464,3.286-3.631,8.232-3.631,15.103v22.434
		c0,6.871,1.167,11.827,3.631,15.056c3.2,4.38,7.724,6.525,13.462,6.525c5.887,0,10.375-2.146,13.537-6.525
		C-145.015-245.549-143.876-250.505-143.876-257.376 M-178.253-322.614h-13.036l-8.744,33.789l-9.168-33.789h-13.502
		c2.698,8.001,5.545,15.956,8.197,23.955c4.135,11.979,6.75,21.04,7.957,27.207v34.759h12.765v-34.759L-178.253-322.614z"/>
	<g>
		<path fill-rule="evenodd" clip-rule="evenodd" fill="#A2A2A4" d="M-94.867-171.641c-3.819,0-5.515,2.927-5.515,8.772V-158h11
			v-4.868C-89.382-168.714-91.001-171.641-94.867-171.641z"/>
		<path fill-rule="evenodd" clip-rule="evenodd" fill="#A2A2A4" d="M-136.562-171.641c-1.845,0-4.82,0.934-5.82,2.767v38.666
			c1,1.914,3.976,2.777,5.82,2.777c3.349,0,5.18-2.777,5.18-8.553v-27C-131.382-168.714-133.213-171.641-136.562-171.641z"/>
		<path fill-rule="evenodd" clip-rule="evenodd" fill="#A2A2A4" d="M-66.653-203.839c-2.345-10.064-10.617-17.558-20.572-18.653
			c-23.523-2.651-47.445-2.651-71.097-2.651c-23.717,0-47.563,0-71.131,2.651c-9.987,1.096-18.264,8.589-20.563,18.653
			c-3.317,14.398-3.355,30.089-3.355,44.926c0,14.778,0,30.549,3.279,44.901c2.338,10.064,10.609,17.569,20.639,18.733
			c23.486,2.582,47.369,2.582,71.021,2.582c23.727,0,47.602,0,71.17-2.582c9.954-1.164,18.226-8.669,20.609-18.733
			c3.235-14.353,3.271-30.123,3.271-44.901C-63.382-173.75-63.343-189.44-66.653-203.839z M-198.382-192h-15v73h-11v-73h-15v-12h41
			V-192z M-163.382-119h-12v-5.779c-5,5.314-9.186,7.839-13.396,7.839c-3.709,0-6.354-1.521-7.524-4.715
			c-0.622-1.994-1.08-4.956-1.08-9.452V-182h12v47.469c0,2.65-0.358,4.058-0.125,4.414c0.231,1.823,1.199,2.687,2.759,2.687
			c2.3,0,4.366-1.719,7.366-5.313V-182h12V-119z M-121.382-136.838c0,5.892-0.135,10.064-0.866,12.763
			c-1.605,4.715-4.221,7.135-8.783,7.135c-4.052,0-7.351-2.294-11.351-6.975V-119h-12v-85h12v28.924
			c4-4.531,7.309-6.906,11.483-6.906c4.562,0,7.215,2.375,8.82,7.183c0.732,2.491,0.696,6.663,0.696,12.715V-136.838z M-77.382-148
			h-23v11.819c0,5.868,1.859,8.75,5.837,8.75c2.772,0,4.425-1.587,5.046-4.63c0.156-0.623,0.289-3.939,0.289-7.939h11.828v1.917
			c0,3.746-0.255,6.202-0.301,7.368c-0.389,2.581-1.356,4.875-2.756,6.87c-3.162,4.61-7.896,6.904-13.829,6.904
			c-6.126,0-10.891-2.178-14.211-6.513c-2.381-3.158-3.903-8.115-3.903-14.905v-22.204c0-6.743,1.319-11.746,3.74-14.905
			c3.317-4.369,8.041-6.515,13.929-6.515c5.774,0,10.418,2.146,13.617,6.515c2.382,3.159,3.713,8.162,3.713,14.905V-148z"/>
	</g>
</g>
<g>
	<path fill-rule="evenodd" clip-rule="evenodd" fill="#FFFFFF" d="M-100.919,86.307V22.277h-11.664v48.974
		c-2.539,3.665-4.951,5.498-7.297,5.498c-1.565,0-2.459-0.945-2.735-2.731c-0.15-0.438-0.15-1.834-0.15-4.567V22.277h-11.597v50.644
		c0,4.53,0.436,7.608,1.095,9.557c1.055,3.239,3.748,4.728,7.454,4.728c4.256,0,8.622-2.536,13.23-7.852v6.953H-100.919z
		 M-155.511,67.769c0,5.937-1.752,8.98-5.536,8.98c-3.707,0-5.506-3.044-5.506-8.98V40.851c0-5.891,1.799-8.899,5.506-8.899
		c3.784,0,5.536,3.009,5.536,8.899V67.769z M-143.876,65.624V43.19c0-6.87-1.139-11.816-3.635-15.103
		c-3.162-4.369-7.65-6.594-13.537-6.594c-5.739,0-10.263,2.225-13.462,6.594c-2.464,3.286-3.631,8.232-3.631,15.103v22.434
		c0,6.871,1.167,11.827,3.631,15.056c3.2,4.38,7.724,6.525,13.462,6.525c5.887,0,10.375-2.146,13.537-6.525
		C-145.015,77.451-143.876,72.495-143.876,65.624 M-178.253,0.386h-13.036l-8.744,33.789l-9.168-33.789h-13.502
		c2.698,8.001,5.545,15.956,8.197,23.955c4.135,11.979,6.75,21.04,7.957,27.207v34.759h12.765V51.548L-178.253,0.386z"/>
	<g>
		<path fill-rule="evenodd" clip-rule="evenodd" fill="#FFFFFF" d="M-94.867,151.359c-3.819,0-5.515,2.927-5.515,8.772V165h11
			v-4.868C-89.382,154.286-91.001,151.359-94.867,151.359z"/>
		<path fill-rule="evenodd" clip-rule="evenodd" fill="#FFFFFF" d="M-136.562,151.359c-1.845,0-4.82,0.934-5.82,2.767v38.666
			c1,1.914,3.976,2.777,5.82,2.777c3.349,0,5.18-2.777,5.18-8.553v-27C-131.382,154.286-133.213,151.359-136.562,151.359z"/>
		<path fill-rule="evenodd" clip-rule="evenodd" fill="#FFFFFF" d="M-66.653,119.161c-2.345-10.064-10.617-17.558-20.572-18.653
			c-23.523-2.651-47.445-2.651-71.097-2.651c-23.717,0-47.563,0-71.131,2.651c-9.987,1.096-18.264,8.589-20.563,18.653
			c-3.317,14.398-3.355,30.089-3.355,44.926c0,14.778,0,30.549,3.279,44.901c2.338,10.064,10.609,17.569,20.639,18.733
			c23.486,2.582,47.369,2.582,71.021,2.582c23.727,0,47.602,0,71.17-2.582c9.954-1.164,18.226-8.669,20.609-18.733
			c3.235-14.353,3.271-30.123,3.271-44.901C-63.382,149.25-63.343,133.56-66.653,119.161z M-198.382,131h-15v73h-11v-73h-15v-12h41
			V131z M-163.382,204h-12v-5.779c-5,5.314-9.186,7.839-13.396,7.839c-3.709,0-6.354-1.521-7.524-4.715
			c-0.622-1.994-1.08-4.956-1.08-9.452V141h12v47.469c0,2.65-0.358,4.058-0.125,4.414c0.231,1.823,1.199,2.687,2.759,2.687
			c2.3,0,4.366-1.719,7.366-5.313V141h12V204z M-121.382,186.162c0,5.892-0.135,10.064-0.866,12.763
			c-1.605,4.715-4.221,7.135-8.783,7.135c-4.052,0-7.351-2.294-11.351-6.975V204h-12v-85h12v28.924
			c4-4.531,7.309-6.906,11.483-6.906c4.562,0,7.215,2.375,8.82,7.183c0.732,2.491,0.696,6.663,0.696,12.715V186.162z M-77.382,175
			h-23v11.819c0,5.868,1.859,8.75,5.837,8.75c2.772,0,4.425-1.587,5.046-4.63c0.156-0.623,0.289-3.939,0.289-7.939h11.828v1.917
			c0,3.746-0.255,6.202-0.301,7.368c-0.389,2.581-1.356,4.875-2.756,6.87c-3.162,4.61-7.896,6.904-13.829,6.904
			c-6.126,0-10.891-2.178-14.211-6.513c-2.381-3.158-3.903-8.115-3.903-14.905v-22.204c0-6.743,1.319-11.746,3.74-14.905
			c3.317-4.369,8.041-6.515,13.929-6.515c5.774,0,10.418,2.146,13.617,6.515c2.382,3.159,3.713,8.162,3.713,14.905V175z"/>
	</g>
</g>
<path fill-rule="evenodd" clip-rule="evenodd" fill="#7DC1C2" d="M-511.157-48.167c-3.755,0-6.803,2.957-6.803,6.594
	c0,3.643,3.041,6.59,6.803,6.59c3.761,0,6.802-2.947,6.802-6.59C-504.355-45.21-507.396-48.167-511.157-48.167 M-498.082-44.114
	h-2.981c0.278,0.926,0.443,1.904,0.443,2.91c0,5.633-4.727,10.193-10.537,10.193c-5.812,0-10.532-4.561-10.532-10.193
	c0-1.006,0.159-1.984,0.437-2.91h-3.115V-29.8c0,0.74,0.602,1.342,1.336,1.342h23.601c0.74,0,1.348-0.602,1.348-1.342V-44.114z
	 M-503.456-54.677c-0.84,0-1.528,0.688-1.528,1.525v3.656c0,0.84,0.688,1.514,1.528,1.514h3.828c0.845,0,1.527-0.674,1.527-1.514
	v-3.656c0-0.838-0.682-1.525-1.527-1.525H-503.456z M-523.785-58.44h25.188c2.38,0,4.343,1.957,4.343,4.344v25.195
	c0,2.381-1.963,4.344-4.343,4.344h-25.188c-2.387,0-4.357-1.963-4.357-4.344l0.008-25.195
	C-528.134-56.483-526.172-58.44-523.785-58.44"/>
<path fill-rule="evenodd" clip-rule="evenodd" fill="#7DC1C2" d="M314.817-252.874c-25.638,0-46.436,20.186-46.436,45.01
	c0,24.864,20.758,44.982,46.436,44.982c25.671,0,46.429-20.118,46.429-44.982C361.246-232.688,340.488-252.874,314.817-252.874
	 M404.075-225.21h-20.358c1.9,6.32,3.027,13,3.027,19.865c0,38.449-32.264,69.58-71.927,69.58c-39.67,0-71.894-31.131-71.894-69.58
	c0-6.865,1.087-13.545,2.98-19.865h-21.258v97.711c0,5.053,4.105,9.159,9.125,9.159h161.098c5.053,0,9.206-4.106,9.206-9.159
	V-225.21z M367.386-297.31c-5.733,0-10.426,4.693-10.426,10.412v24.959c0,5.732,4.692,10.332,10.426,10.332h26.131
	c5.772,0,10.425-4.6,10.425-10.332v-24.959c0-5.719-4.652-10.412-10.425-10.412H367.386z M228.626-323h171.93
	c16.245,0,29.65,13.358,29.65,29.65v171.983c0,16.252-13.405,29.65-29.65,29.65h-171.93c-16.299,0-29.744-13.398-29.744-29.65
	l0.054-171.983C198.936-309.642,212.327-323,228.626-323"/>
<path fill-rule="evenodd" clip-rule="evenodd" fill="#7DC1C2" d="M-493.029-212.895c-0.059-0.092-0.085-0.17-0.125-0.23
	c-0.669-1.197-1.924-2.65-3.776-4.377l-0.046-0.039l-0.006-0.02l-0.02-0.021h-0.027c-0.839-0.793-1.368-1.34-1.601-1.611
	c-0.396-0.537-0.501-1.064-0.276-1.607c0.165-0.396,0.746-1.256,1.784-2.578c0.536-0.693,0.966-1.256,1.277-1.68
	c2.273-3.02,3.278-4.957,2.968-5.811l-0.126-0.191c-0.085-0.119-0.278-0.219-0.602-0.316c-0.336-0.107-0.752-0.127-1.275-0.055
	l-5.686,0.041c-0.079-0.025-0.219-0.025-0.383,0.014c-0.178,0.033-0.264,0.051-0.264,0.051l-0.093,0.055l-0.08,0.053
	c-0.066,0.039-0.138,0.119-0.217,0.211c-0.086,0.105-0.146,0.219-0.206,0.338c-0.608,1.6-1.309,3.074-2.102,4.449
	c-0.489,0.813-0.933,1.527-1.341,2.115c-0.412,0.602-0.762,1.043-1.032,1.328c-0.278,0.285-0.521,0.51-0.754,0.688
	c-0.218,0.158-0.383,0.238-0.509,0.219c-0.125-0.047-0.225-0.061-0.338-0.086c-0.177-0.111-0.336-0.285-0.435-0.482
	c-0.119-0.205-0.192-0.463-0.232-0.768c-0.039-0.311-0.058-0.574-0.058-0.801c-0.008-0.23-0.008-0.541,0-0.943
	c0.019-0.416,0.019-0.688,0.019-0.834c0-0.502,0.014-1.045,0.033-1.633c0.014-0.582,0.027-1.045,0.047-1.395
	c0.006-0.338,0.013-0.701,0.013-1.084c0-0.371-0.02-0.676-0.06-0.893c-0.052-0.219-0.118-0.43-0.212-0.627
	c-0.091-0.207-0.231-0.371-0.402-0.484c-0.179-0.105-0.39-0.191-0.661-0.264c-0.701-0.152-1.586-0.252-2.67-0.252
	c-0.093,0-0.199,0-0.292-0.006h-0.39c-2.063,0.006-3.398,0.172-4.032,0.482c-0.278,0.131-0.523,0.33-0.748,0.588
	c-0.237,0.291-0.271,0.449-0.099,0.477c0.793,0.111,1.349,0.402,1.673,0.846l0.125,0.232c0.093,0.178,0.178,0.475,0.271,0.91
	c0.093,0.432,0.152,0.914,0.179,1.443c0.066,0.951,0.066,1.777,0,2.465c-0.06,0.682-0.119,1.223-0.185,1.6
	c-0.06,0.383-0.152,0.693-0.264,0.918c-0.125,0.24-0.198,0.393-0.238,0.438c-0.04,0.061-0.066,0.092-0.099,0.105
	c-0.171,0.066-0.344,0.092-0.536,0.092c-0.178,0-0.41-0.092-0.667-0.264c-0.264-0.197-0.536-0.449-0.82-0.766
	c-0.284-0.332-0.602-0.781-0.958-1.363c-0.351-0.568-0.721-1.25-1.104-2.043l-0.317-0.574c-0.198-0.363-0.47-0.898-0.814-1.607
	c-0.336-0.701-0.634-1.387-0.898-2.041c-0.112-0.279-0.264-0.49-0.482-0.635l-0.086-0.061c-0.066-0.053-0.185-0.1-0.323-0.164
	c-0.146-0.061-0.298-0.1-0.456-0.121l-5.402,0.033c-0.556,0-0.925,0.127-1.131,0.371l-0.072,0.111
	c-0.045,0.08-0.066,0.186-0.066,0.332c0,0.145,0.04,0.309,0.132,0.521c0.787,1.865,1.646,3.648,2.565,5.369
	c0.925,1.73,1.732,3.107,2.413,4.164c0.682,1.059,1.382,2.043,2.097,2.98c0.707,0.939,1.183,1.535,1.414,1.799
	s0.404,0.465,0.542,0.596l0.49,0.471c0.317,0.322,0.779,0.693,1.388,1.143c0.628,0.438,1.289,0.865,2.037,1.303
	c0.746,0.422,1.605,0.766,2.598,1.029c0.979,0.279,1.943,0.393,2.883,0.338h2.267c0.463-0.045,0.813-0.186,1.052-0.428l0.072-0.107
	c0.052-0.086,0.105-0.205,0.146-0.363c0.052-0.158,0.072-0.35,0.072-0.541c-0.006-0.568,0.027-1.086,0.126-1.535
	c0.099-0.449,0.21-0.793,0.342-1.023c0.12-0.24,0.272-0.424,0.424-0.584c0.159-0.15,0.264-0.25,0.33-0.289
	c0.06-0.027,0.12-0.053,0.165-0.066c0.305-0.1,0.682,0,1.112,0.311c0.429,0.311,0.833,0.688,1.196,1.137
	c0.371,0.463,0.828,0.965,1.363,1.541c0.521,0.549,0.977,0.984,1.381,1.262l0.383,0.232c0.278,0.15,0.608,0.297,1.038,0.436
	c0.417,0.133,0.787,0.16,1.104,0.1l5.05-0.08c0.496,0,0.886-0.078,1.157-0.25c0.285-0.166,0.443-0.344,0.495-0.529
	c0.06-0.205,0.067-0.43,0.021-0.688C-492.943-212.623-492.982-212.787-493.029-212.895"/>
<path fill-rule="evenodd" clip-rule="evenodd" fill="#A2A2A4" d="M707.832-104.655c-0.356-0.558-0.517-1.031-0.759-1.399
	c-4.057-7.271-11.684-16.097-22.929-26.582l-0.278-0.237l-0.042-0.118l-0.118-0.131h-0.166c-5.09-4.815-8.304-8.137-9.715-9.786
	c-2.408-3.262-3.049-6.464-1.685-9.762c1.002-2.408,4.53-7.627,10.841-15.657c3.25-4.21,5.859-7.627,7.752-10.2
	c13.807-18.338,19.91-30.105,18.023-35.289l-0.765-1.162c-0.517-0.724-1.69-1.328-3.653-1.922c-2.047-0.652-4.572-0.771-7.746-0.332
	l-34.535,0.25c-0.475-0.154-1.328-0.154-2.324,0.082c-1.08,0.202-1.602,0.309-1.602,0.309l-0.569,0.332l-0.486,0.32
	c-0.397,0.237-0.836,0.724-1.316,1.281c-0.522,0.641-0.884,1.328-1.245,2.053c-3.689,9.714-7.947,18.67-12.764,27.02
	c-2.971,4.936-5.67,9.276-8.148,12.847c-2.503,3.653-4.626,6.334-6.27,8.065c-1.689,1.732-3.166,3.096-4.578,4.176
	c-1.322,0.961-2.33,1.447-3.09,1.328c-0.76-0.285-1.364-0.367-2.053-0.521c-1.078-0.676-2.039-1.732-2.645-2.93
	c-0.724-1.246-1.162-2.812-1.412-4.662c-0.236-1.886-0.35-3.487-0.35-4.863c-0.047-1.399-0.047-3.285,0-5.729
	c0.113-2.527,0.113-4.176,0.113-5.065c0-3.048,0.083-6.346,0.201-9.916c0.084-3.535,0.166-6.347,0.285-8.47
	c0.035-2.052,0.076-4.258,0.076-6.582c0-2.254-0.124-4.105-0.361-5.422c-0.314-1.328-0.717-2.609-1.287-3.807
	c-0.551-1.258-1.405-2.254-2.443-2.942c-1.085-0.64-2.366-1.162-4.015-1.601c-4.259-0.926-9.632-1.531-16.215-1.531
	c-0.569,0-1.21,0-1.779-0.035h-2.36c-12.525,0.035-20.639,1.044-24.494,2.93c-1.685,0.795-3.173,2.005-4.537,3.57
	c-1.441,1.768-1.643,2.729-0.6,2.895c4.816,0.676,8.191,2.443,10.154,5.137l0.765,1.41c0.563,1.08,1.079,2.883,1.644,5.528
	c0.563,2.621,0.925,5.552,1.085,8.766c0.403,5.776,0.403,10.794,0,14.97c-0.362,4.139-0.724,7.425-1.121,9.714
	c-0.368,2.325-0.925,4.211-1.607,5.575c-0.765,1.459-1.204,2.385-1.446,2.656c-0.244,0.368-0.404,0.559-0.6,0.641
	c-1.044,0.404-2.094,0.559-3.256,0.559c-1.08,0-2.491-0.559-4.051-1.602c-1.607-1.198-3.256-2.729-4.982-4.65
	c-1.731-2.016-3.652-4.744-5.824-8.279c-2.123-3.451-4.377-7.592-6.701-12.406l-1.928-3.488c-1.203-2.206-2.853-5.456-4.939-9.762
	c-2.047-4.258-3.855-8.422-5.457-12.396c-0.682-1.696-1.607-2.978-2.93-3.854l-0.527-0.368c-0.398-0.32-1.121-0.604-1.963-0.996
	c-0.891-0.368-1.815-0.604-2.771-0.735l-32.803,0.201c-3.381,0-5.622,0.771-6.868,2.254l-0.438,0.676
	c-0.278,0.486-0.403,1.127-0.403,2.018c0,0.877,0.236,1.873,0.801,3.166c4.779,11.328,9.999,22.158,15.58,32.607
	c5.622,10.51,10.521,18.872,14.648,25.289c4.141,6.43,8.398,12.407,12.74,18.101c4.293,5.706,7.182,9.323,8.587,10.925
	c1.399,1.602,2.45,2.822,3.286,3.617l2.977,2.859c1.928,1.957,4.732,4.211,8.428,6.938c3.814,2.657,7.829,5.255,12.372,7.911
	c4.53,2.563,9.75,4.65,15.776,6.252c5.947,1.695,11.802,2.384,17.507,2.052h13.766c2.812-0.272,4.94-1.127,6.394-2.598l0.438-0.652
	c0.314-0.522,0.641-1.245,0.884-2.206c0.314-0.961,0.439-2.123,0.439-3.285c-0.042-3.452,0.16-6.596,0.764-9.324
	c0.6-2.728,1.281-4.815,2.076-6.215c0.73-1.459,1.654-2.574,2.58-3.547c0.967-0.913,1.602-1.518,1.999-1.756
	c0.368-0.166,0.729-0.32,1.008-0.402c1.851-0.605,4.14,0,6.749,1.885c2.609,1.887,5.059,4.176,7.26,6.904
	c2.254,2.811,5.029,5.859,8.279,9.358c3.167,3.333,5.937,5.979,8.387,7.663l2.33,1.411c1.69,0.913,3.695,1.803,6.305,2.646
	c2.526,0.807,4.779,0.973,6.707,0.604l30.668-0.486c3.014,0,5.386-0.475,7.034-1.519c1.726-1.008,2.687-2.088,3.001-3.215
	c0.367-1.244,0.416-2.609,0.131-4.174C708.354-103.007,708.116-104.003,707.832-104.655"/>
<path fill-rule="evenodd" clip-rule="evenodd" fill="#FFFFFF" d="M707.832,214.345c-0.356-0.558-0.517-1.031-0.759-1.399
	c-4.057-7.271-11.684-16.097-22.929-26.582l-0.278-0.237l-0.042-0.118l-0.118-0.131h-0.166c-5.09-4.815-8.304-8.137-9.715-9.786
	c-2.408-3.262-3.049-6.464-1.685-9.762c1.002-2.408,4.53-7.627,10.841-15.657c3.25-4.21,5.859-7.627,7.752-10.2
	c13.807-18.338,19.91-30.105,18.023-35.289l-0.765-1.162c-0.517-0.724-1.69-1.328-3.653-1.922c-2.047-0.652-4.572-0.771-7.746-0.332
	l-34.535,0.25c-0.475-0.154-1.328-0.154-2.324,0.082c-1.08,0.202-1.602,0.309-1.602,0.309l-0.569,0.332l-0.486,0.32
	c-0.397,0.237-0.836,0.724-1.316,1.281c-0.522,0.641-0.884,1.328-1.245,2.053c-3.689,9.714-7.947,18.67-12.764,27.02
	c-2.971,4.936-5.67,9.276-8.148,12.847c-2.503,3.653-4.626,6.334-6.27,8.065c-1.689,1.732-3.166,3.096-4.578,4.176
	c-1.322,0.961-2.33,1.447-3.09,1.328c-0.76-0.285-1.364-0.367-2.053-0.521c-1.078-0.676-2.039-1.732-2.645-2.93
	c-0.724-1.246-1.162-2.812-1.412-4.662c-0.236-1.886-0.35-3.487-0.35-4.863c-0.047-1.399-0.047-3.285,0-5.729
	c0.113-2.527,0.113-4.176,0.113-5.065c0-3.048,0.083-6.346,0.201-9.916c0.084-3.535,0.166-6.347,0.285-8.47
	c0.035-2.052,0.076-4.258,0.076-6.582c0-2.254-0.124-4.105-0.361-5.422c-0.314-1.328-0.717-2.609-1.287-3.807
	c-0.551-1.258-1.405-2.254-2.443-2.942c-1.085-0.64-2.366-1.162-4.015-1.601c-4.259-0.926-9.632-1.531-16.215-1.531
	c-0.569,0-1.21,0-1.779-0.035h-2.36c-12.525,0.035-20.639,1.044-24.494,2.93c-1.685,0.795-3.173,2.005-4.537,3.57
	c-1.441,1.768-1.643,2.729-0.6,2.895c4.816,0.676,8.191,2.443,10.154,5.137l0.765,1.41c0.563,1.08,1.079,2.883,1.644,5.528
	c0.563,2.621,0.925,5.552,1.085,8.766c0.403,5.776,0.403,10.794,0,14.97c-0.362,4.139-0.724,7.425-1.121,9.714
	c-0.368,2.325-0.925,4.211-1.607,5.575c-0.765,1.459-1.204,2.385-1.446,2.656c-0.244,0.368-0.404,0.559-0.6,0.641
	c-1.044,0.404-2.094,0.559-3.256,0.559c-1.08,0-2.491-0.559-4.051-1.602c-1.607-1.198-3.256-2.729-4.982-4.65
	c-1.731-2.016-3.652-4.744-5.824-8.279c-2.123-3.451-4.377-7.592-6.701-12.406l-1.928-3.488c-1.203-2.206-2.853-5.456-4.939-9.762
	c-2.047-4.258-3.855-8.422-5.457-12.396c-0.682-1.696-1.607-2.978-2.93-3.854l-0.527-0.368c-0.398-0.32-1.121-0.604-1.963-0.996
	c-0.891-0.368-1.815-0.604-2.771-0.735l-32.803,0.201c-3.381,0-5.622,0.771-6.868,2.254l-0.438,0.676
	c-0.278,0.486-0.403,1.127-0.403,2.018c0,0.877,0.236,1.873,0.801,3.166c4.779,11.328,9.999,22.158,15.58,32.607
	c5.622,10.51,10.521,18.872,14.648,25.289c4.141,6.43,8.398,12.407,12.74,18.101c4.293,5.706,7.182,9.323,8.587,10.925
	c1.399,1.602,2.45,2.822,3.286,3.617l2.977,2.859c1.928,1.957,4.732,4.211,8.428,6.938c3.814,2.657,7.829,5.255,12.372,7.911
	c4.53,2.563,9.75,4.65,15.776,6.252c5.947,1.695,11.802,2.384,17.507,2.052h13.766c2.812-0.272,4.94-1.127,6.394-2.598l0.438-0.652
	c0.314-0.522,0.641-1.245,0.884-2.206c0.314-0.961,0.439-2.123,0.439-3.285c-0.042-3.452,0.16-6.596,0.764-9.324
	c0.6-2.728,1.281-4.815,2.076-6.215c0.73-1.459,1.654-2.574,2.58-3.547c0.967-0.913,1.602-1.518,1.999-1.756
	c0.368-0.166,0.729-0.32,1.008-0.402c1.851-0.605,4.14,0,6.749,1.885c2.609,1.887,5.059,4.176,7.26,6.904
	c2.254,2.811,5.029,5.859,8.279,9.358c3.167,3.333,5.937,5.979,8.387,7.663l2.33,1.411c1.69,0.913,3.695,1.803,6.305,2.646
	c2.526,0.807,4.779,0.973,6.707,0.604l30.668-0.486c3.014,0,5.386-0.475,7.034-1.519c1.726-1.008,2.687-2.088,3.001-3.215
	c0.367-1.244,0.416-2.609,0.131-4.174C708.354,215.993,708.116,214.997,707.832,214.345"/>
</svg>
